<?xml version="1.0" encoding="utf-8"?>
<!-- Generator: Adobe Illustrator 21.0.1, SVG Export Plug-In . SVG Version: 6.00 Build 0)  -->
<svg version="1.1" id="icon-" xmlns="http://www.w3.org/2000/svg" xmlns:xlink="http://www.w3.org/1999/xlink" x="0px" y="0px"
	 viewBox="0 0 1020 960" style="enable-background:new 0 0 1020 960;" xml:space="preserve">
<style type="text/css">
	.st0{fill-rule:evenodd;clip-rule:evenodd;}
	.st1{fill:#29ABE2;}
	.st2{fill-rule:evenodd;clip-rule:evenodd;fill:#181616;}
	.st3{fill:#FF0000;}
</style>
<path id="alert" d="M991.9,644C844.1,378,843,376,695.3,110.1C659.9,44,590.2-1,510-1S360.1,44,324.7,110.1
	C177,376,175.9,378,28.1,644C10.2,674.9,0,710.7,0,749c0,116,94,210,210,210c300,0,300,0,600,0c116,0,210-94,210-210
	C1020,710.7,1009.8,674.9,991.9,644z M510,839c-49.7,0-90-40.3-90-90s40.3-90,90-90s90,40.3,90,90S559.7,839,510,839z M600,461.9
	c0,42.6-40.3,77.1-90,77.1l0,0c-49.7,0-90-34.5-90-77.1V256.1c0-42.6,40.3-77.1,90-77.1l0,0c49.7,0,90,34.5,90,77.1V461.9z"/>
</svg>
