<?xml version="1.0" encoding="utf-8"?>
<!-- Generator: Adobe Illustrator 21.0.1, SVG Export Plug-In . SVG Version: 6.00 Build 0)  -->
<svg version="1.1" id="icon-" xmlns="http://www.w3.org/2000/svg" xmlns:xlink="http://www.w3.org/1999/xlink" x="0px" y="0px"
	 viewBox="0 0 840 960" style="enable-background:new 0 0 840 960;" xml:space="preserve">
<style type="text/css">
	.st0{fill-rule:evenodd;clip-rule:evenodd;}
	.st1{fill:#29ABE2;}
	.st2{fill-rule:evenodd;clip-rule:evenodd;fill:#181616;}
	.st3{fill:#FF0000;}
</style>
<path id="apps" d="M360,630c0,90,0,90,0,180c0,49.7-40.3,90-90,90c-90,0-90,0-180,0c-49.7,0-90-40.3-90-90c0-90,0-90,0-180
	c0-49.7,40.3-90,90-90c90,0,90,0,180,0C319.7,540,360,580.3,360,630z M750,540c-90,0-90,0-180,0c-49.7,0-90,40.3-90,90
	c0,90,0,90,0,180c0,49.7,40.3,90,90,90c90,0,90,0,180,0c49.7,0,90-40.3,90-90c0-90,0-90,0-180C840,580.3,799.7,540,750,540z M270,60
	c-90,0-90,0-180,0c-49.7,0-90,40.3-90,90c0,90,0,90,0,180c0,49.7,40.3,90,90,90c90,0,90,0,180,0c49.7,0,90-40.3,90-90
	c0-90,0-90,0-180C360,100.3,319.7,60,270,60z M750,60c-90,0-90,0-180,0c-49.7,0-90,40.3-90,90c0,90,0,90,0,180c0,49.7,40.3,90,90,90
	c90,0,90,0,180,0c49.7,0,90-40.3,90-90c0-90,0-90,0-180C840,100.3,799.7,60,750,60z"/>
</svg>
