<?xml version="1.0" encoding="utf-8"?>
<!-- Generator: Adobe Illustrator 18.1.1, SVG Export Plug-In . SVG Version: 6.00 Build 0)  -->
<svg version="1.1" xmlns="http://www.w3.org/2000/svg" xmlns:xlink="http://www.w3.org/1999/xlink" x="0px" y="0px"
	 viewBox="0 0 960 960" enable-background="new 0 0 960 960" xml:space="preserve">
<g id="row-6">
	<path id="apps" d="M420,180v180c0,33.1-26.9,60-60,60H180c-33.1,0-60-26.9-60-60V180c0-33.1,26.9-60,60-60h180
		C393.1,120,420,146.9,420,180z M780,120H600c-33.1,0-60,26.9-60,60v180c0,33.1,26.9,60,60,60h180c33.1,0,60-26.9,60-60V180
		C840,146.9,813.1,120,780,120z M360,540H180c-33.1,0-60,26.9-60,60v180c0,33.1,26.9,60,60,60h180c33.1,0,60-26.9,60-60V600
		C420,566.9,393.1,540,360,540z M780,540H600c-33.1,0-60,26.9-60,60v180c0,33.1,26.9,60,60,60h180c33.1,0,60-26.9,60-60V600
		C840,566.9,813.1,540,780,540z"/>
</g>
<g id="row-5">
</g>
<g id="row-4">
	<g id="markdown">
	</g>
	<g id="mail_x5F_straight">
	</g>
	<g id="info">
	</g>
	<g id="folder">
	</g>
	<g id="read-mail">
	</g>
	<g id="person">
	</g>
	<g id="eye">
	</g>
	<g id="clear">
	</g>
	<g id="arrow-right-rod">
	</g>
	<g id="contract">
	</g>
	<g id="expand">
	</g>
	<g id="speaker-off">
	</g>
	<g id="speaker-on">
	</g>
	<g id="pause">
	</g>
	<g id="play">
	</g>
</g>
<g id="row-3">
	<g id="circle-arrow">
	</g>
	<g id="module">
	</g>
	<g id="speedometer">
	</g>
	<g id="calendar">
	</g>
	<g id="data">
	</g>
	<g id="code-file">
	</g>
	<g id="gear">
	</g>
	<g id="tint">
	</g>
	<g id="dribbble">
	</g>
	<g id="globe">
	</g>
	<g id="github">
	</g>
	<g id="facebook">
	</g>
	<g id="twitter">
	</g>
	<g id="skype">
	</g>
	<g id="phone">
	</g>
	<g id="mail">
	</g>
</g>
<g id="row-2">
	<g id="liferay-logo-2">
	</g>
	<g id="menu-content">
	</g>
	<g id="streams">
	</g>
	<g id="balloon-topic">
	</g>
	<g id="groups">
	</g>
	<g id="persons">
	</g>
	<g id="house">
	</g>
	<g id="liferay-logo">
	</g>
	<g id="heart-full">
	</g>
	<g id="confirm">
	</g>
	<g id="send">
	</g>
	<g id="arrow-left-rod">
	</g>
	<g id="cancel_1_">
	</g>
	<g id="plus">
	</g>
</g>
<g id="row-1">
	<g id="bullhorn">
	</g>
	<g id="link">
	</g>
	<g id="pen">
	</g>
	<g id="bell">
	</g>
	<g id="magnifier">
	</g>
	<g id="menu">
	</g>
	<g id="ellipsis">
	</g>
	<g id="balloon-comment">
	</g>
	<g id="heart-inline">
	</g>
	<g id="heart">
	</g>
	<g id="camera">
	</g>
	<g id="blank">
	</g>
	<g id="star">
	</g>
</g>
<g id="guides">
</g>
</svg>
