<?xml version="1.0" encoding="utf-8"?>
<!-- Generator: Adobe Illustrator 20.0.0, SVG Export Plug-In . SVG Version: 6.00 Build 0)  -->
<svg version="1.1" id="icon-" xmlns="http://www.w3.org/2000/svg" xmlns:xlink="http://www.w3.org/1999/xlink" x="0px" y="0px"
	 viewBox="0 0 720 960" enable-background="new 0 0 720 960" xml:space="preserve">
<path id="apps" d="M300,180v180c0,33.1-26.9,60-60,60H60c-33.1,0-60-26.9-60-60V180c0-33.1,26.9-60,60-60h180
	C273.1,120,300,146.9,300,180z M660,120H480c-33.1,0-60,26.9-60,60v180c0,33.1,26.9,60,60,60h180c33.1,0,60-26.9,60-60V180
	C720,146.9,693.1,120,660,120z M240,540H60c-33.1,0-60,26.9-60,60v180c0,33.1,26.9,60,60,60h180c33.1,0,60-26.9,60-60V600
	C300,566.9,273.1,540,240,540z M660,540H480c-33.1,0-60,26.9-60,60v180c0,33.1,26.9,60,60,60h180c33.1,0,60-26.9,60-60V600
	C720,566.9,693.1,540,660,540z"/>
</svg>
