<?xml version="1.0" encoding="utf-8"?>
<!-- Generator: Adobe Illustrator 19.2.1, SVG Export Plug-In . SVG Version: 6.00 Build 0)  -->
<svg version="1.1" xmlns="http://www.w3.org/2000/svg" xmlns:xlink="http://www.w3.org/1999/xlink" x="0px" y="0px"
	 viewBox="0 0 780 960" enable-background="new 0 0 780 960" xml:space="preserve">
<g id="row-7">
</g>
<g id="row-6">
	<path id="arrow-down-short_1_" d="M746.2,520.3L746.2,520.3c-140.6,112.4-159.4,127.6-300,240l0,0C430.8,772.6,411.3,780,390,780
		s-40.8-7.4-56.2-19.7l0,0c-140.6-112.4-159.4-127.6-300-240l0,0C13.2,503.8,0,478.4,0,450c0-49.7,40.3-90,90-90
		c21.3,0,40.8,7.4,56.2,19.7l0,0c119.3,95.4,151,120.8,243.8,195c92.8-74.2,124.5-99.6,243.8-195l0,0c15.4-12.3,34.9-19.7,56.2-19.7
		c49.7,0,90,40.3,90,90C780,478.4,766.8,503.8,746.2,520.3z"/>
</g>
<g id="row-5">
</g>
<g id="row-4">
	<g id="read-full_1_">
	</g>
	<g id="markdown">
	</g>
	<g id="info">
	</g>
	<g id="folder">
	</g>
	<g id="read-full_2_">
	</g>
	<g id="person">
	</g>
	<g id="eye">
	</g>
	<g id="clear">
	</g>
	<g id="arrow-right-rod">
	</g>
	<g id="contract">
	</g>
	<g id="expand">
	</g>
	<g id="speaker-off">
	</g>
	<g id="speaker-on">
	</g>
	<g id="pause">
	</g>
	<g id="play">
	</g>
</g>
<g id="row-3">
	<g id="circle-arrow">
	</g>
	<g id="speedometer">
	</g>
	<g id="calendar">
	</g>
	<g id="server">
	</g>
	<g id="code-file">
	</g>
	<g id="gear">
	</g>
	<g id="tint">
	</g>
	<g id="dribbble">
	</g>
	<g id="globe">
	</g>
	<g id="github">
	</g>
	<g id="facebook">
	</g>
	<g id="twitter">
	</g>
	<g id="skype">
	</g>
	<g id="phone">
	</g>
	<g id="mail">
	</g>
</g>
<g id="row-2">
	<g id="liferay-logo-2">
	</g>
	<g id="menu-content">
	</g>
	<g id="streams">
	</g>
	<g id="balloon-topic">
	</g>
	<g id="groups">
	</g>
	<g id="liferay-logo">
	</g>
	<g id="heart-full">
	</g>
	<g id="confirm">
	</g>
	<g id="send">
	</g>
	<g id="arrow-left-rod">
	</g>
	<g id="cancel_1_">
	</g>
	<g id="plus">
	</g>
</g>
<g id="row-1">
	<g id="bullhorn">
	</g>
	<g id="link">
	</g>
	<g id="pen">
	</g>
	<g id="bell">
	</g>
	<g id="magnifier">
	</g>
	<g id="menu">
	</g>
	<g id="ellipsis">
	</g>
	<g id="balloon-comment">
	</g>
	<g id="heart-inline">
	</g>
	<g id="heart">
	</g>
	<g id="camera">
	</g>
	<g id="lock">
	</g>
	<g id="star">
	</g>
</g>
<g id="guides">
</g>
</svg>
