<?xml version="1.0" encoding="utf-8"?>
<!-- Generator: Adobe Illustrator 20.0.0, SVG Export Plug-In . SVG Version: 6.00 Build 0)  -->
<svg version="1.1" id="icon-" xmlns="http://www.w3.org/2000/svg" xmlns:xlink="http://www.w3.org/1999/xlink" x="0px" y="0px"
	 viewBox="0 0 780 960" enable-background="new 0 0 780 960" xml:space="preserve">
<path id="arrow-up-rod" d="M299,810V307.3L152.6,453.6c-35.1,35.1-92.1,35.1-127.3,0c-35.1-35.1-35.1-92.1,0-127.3l300-300
	c35.1-35.1,92.1-35.1,127.3,0l300,300C770.2,343.9,779,367,779,390s-8.8,46.1-26.4,63.6c-35.1,35.1-92.1,35.1-127.3,0L479,307.3V810
	c0,49.7-40.3,90-90,90l0,0C339.3,900,299,859.7,299,810z"/>
</svg>
