<?xml version="1.0" encoding="utf-8"?>
<!-- Generator: Adobe Illustrator 20.0.0, SVG Export Plug-In . SVG Version: 6.00 Build 0)  -->
<svg version="1.1" id="icon-" xmlns="http://www.w3.org/2000/svg" xmlns:xlink="http://www.w3.org/1999/xlink" x="0px" y="0px"
	 viewBox="0 0 780 960" enable-background="new 0 0 780 960" xml:space="preserve">
<path id="arrow-up-short" d="M780,690c0,49.7-40.3,90-90,90c-21.3,0-40.8-7.4-56.2-19.7l0,0c-119.3-95.4-151-120.8-243.8-195
	c-92.8,74.2-124.5,99.6-243.8,195l0,0C130.8,772.6,111.3,780,90,780c-49.7,0-90-40.3-90-90c0-28.4,13.2-53.8,33.8-70.3l0,0
	c140.6-112.4,159.4-127.6,300-240l0,0c15.4-12.3,34.9-19.7,56.2-19.7s40.8,7.4,56.2,19.7l0,0c140.6,112.4,159.4,127.6,300,240l0,0
	C766.8,636.2,780,661.6,780,690z"/>
</svg>
