<?xml version="1.0" encoding="utf-8"?>
<!-- Generator: Adobe Illustrator 20.0.0, SVG Export Plug-In . SVG Version: 6.00 Build 0)  -->
<svg version="1.1" id="icon-" xmlns="http://www.w3.org/2000/svg" xmlns:xlink="http://www.w3.org/1999/xlink" x="0px" y="0px"
	 viewBox="0 0 780 960" enable-background="new 0 0 780 960" xml:space="preserve">
<path id="arrow-down-short_2_" d="M746.2,520.3L746.2,520.3c-140.6,112.4-159.4,127.6-300,240l0,0C430.8,772.6,411.3,780,390,780
	s-40.8-7.4-56.2-19.7l0,0c-140.6-112.4-159.4-127.6-300-240l0,0C13.2,503.8,0,478.4,0,450c0-49.7,40.3-90,90-90
	c21.3,0,40.8,7.4,56.2,19.7l0,0c119.3,95.4,151,120.8,243.8,195c92.8-74.2,124.5-99.6,243.8-195l0,0c15.4-12.3,34.9-19.7,56.2-19.7
	c49.7,0,90,40.3,90,90C780,478.4,766.8,503.8,746.2,520.3z"/>
</svg>
