<?xml version="1.0" encoding="utf-8"?>
<!-- Generator: Adobe Illustrator 20.0.0, SVG Export Plug-In . SVG Version: 6.00 Build 0)  -->
<svg version="1.1" id="icon-" xmlns="http://www.w3.org/2000/svg" xmlns:xlink="http://www.w3.org/1999/xlink" x="0px" y="0px"
	 viewBox="0 0 900 960" enable-background="new 0 0 900 960" xml:space="preserve">
<path id="arrow-right-rod_1_" d="M90,360h502.7L446.4,213.6c-35.1-35.1-35.1-92.1,0-127.3c35.1-35.1,92.1-35.1,127.3,0l300,300
	c35.1,35.1,35.1,92.1,0,127.3l-300,300C556.1,831.2,533,840,510,840s-46.1-8.8-63.6-26.4c-35.1-35.1-35.1-92.1,0-127.3L592.7,540H90
	c-49.7,0-90-40.3-90-90l0,0C0,400.3,40.3,360,90,360z"/>
</svg>
