<?xml version="1.0" encoding="utf-8"?>
<!-- Generator: Adobe Illustrator 20.0.0, SVG Export Plug-In . SVG Version: 6.00 Build 0)  -->
<svg version="1.1" id="icon-" xmlns="http://www.w3.org/2000/svg" xmlns:xlink="http://www.w3.org/1999/xlink" x="0px" y="0px"
	 viewBox="0 0 900 960" enable-background="new 0 0 900 960" xml:space="preserve">
<path id="arrow-left-rod_1_" d="M900,450L900,450c0,49.7-40.3,90-90,90H307.3l146.4,146.4c35.1,35.1,35.1,92.1,0,127.3
	C436.1,831.2,413,840,390,840s-46.1-8.8-63.6-26.4l-300-300c-35.1-35.1-35.1-92.1,0-127.3l300-300c35.1-35.1,92.1-35.1,127.3,0
	c35.1,35.1,35.1,92.1,0,127.3L307.3,360H810C859.7,360,900,400.3,900,450z"/>
</svg>
