<?xml version="1.0" encoding="utf-8"?>
<!-- Generator: Adobe Illustrator 20.0.0, SVG Export Plug-In . SVG Version: 6.00 Build 0)  -->
<svg version="1.1" id="icon-" xmlns="http://www.w3.org/2000/svg" xmlns:xlink="http://www.w3.org/1999/xlink" x="0px" y="0px"
	 viewBox="0 0 420 960" enable-background="new 0 0 420 960" xml:space="preserve">
<path id="arrow-right-short" d="M160.3,154.8L160.3,154.8c112.4,140.6,127.6,159.4,240,300l0,0c12.3,15.4,19.7,34.9,19.7,56.2
	s-7.4,40.8-19.7,56.2l0,0c-112.4,140.6-127.6,159.4-240,300l0,0C143.8,887.8,118.4,901,90,901c-49.7,0-90-40.3-90-90
	c0-21.3,7.4-40.8,19.7-56.2l0,0c95.4-119.3,120.8-151,195-243.8c-74.2-92.8-99.6-124.5-195-243.8l0,0C7.4,251.8,0,232.3,0,211
	c0-49.7,40.3-90,90-90C118.4,121,143.8,134.2,160.3,154.8z"/>
</svg>
