<?xml version="1.0" encoding="utf-8"?>
<!-- Generator: Adobe Illustrator 19.2.1, SVG Export Plug-In . SVG Version: 6.00 Build 0)  -->
<svg version="1.1" xmlns="http://www.w3.org/2000/svg" xmlns:xlink="http://www.w3.org/1999/xlink" x="0px" y="0px"
	 viewBox="0 0 900 960" enable-background="new 0 0 900 960" xml:space="preserve">
<g id="row-7">
</g>
<g id="row-6">
</g>
<g id="row-5">
</g>
<g id="row-4">
	<g id="read-full_1_">
	</g>
	<g id="markdown">
	</g>
	<g id="info">
	</g>
	<g id="folder">
	</g>
	<g id="read-full_2_">
	</g>
	<g id="person">
	</g>
	<g id="eye">
	</g>
	<g id="clear">
	</g>
	<g id="arrow-right-rod">
		<path d="M90,360h502.7L446.4,213.6c-35.1-35.1-35.1-92.1,0-127.3c35.1-35.1,92.1-35.1,127.3,0l300,300
			c35.1,35.1,35.1,92.1,0,127.3l-300,300C556.1,831.2,533,840,510,840s-46.1-8.8-63.6-26.4c-35.1-35.1-35.1-92.1,0-127.3L592.7,540
			H90c-49.7,0-90-40.3-90-90l0,0C0,400.3,40.3,360,90,360z"/>
	</g>
	<g id="contract">
	</g>
	<g id="expand">
	</g>
	<g id="speaker-off">
	</g>
	<g id="speaker-on">
	</g>
	<g id="pause">
	</g>
	<g id="play">
	</g>
</g>
<g id="row-3">
	<g id="circle-arrow">
	</g>
	<g id="speedometer">
	</g>
	<g id="calendar">
	</g>
	<g id="server">
	</g>
	<g id="code-file">
	</g>
	<g id="gear">
	</g>
	<g id="tint">
	</g>
	<g id="dribbble">
	</g>
	<g id="globe">
	</g>
	<g id="github">
	</g>
	<g id="facebook">
	</g>
	<g id="twitter">
	</g>
	<g id="skype">
	</g>
	<g id="phone">
	</g>
	<g id="mail">
	</g>
</g>
<g id="row-2">
	<g id="liferay-logo-2">
	</g>
	<g id="menu-content">
	</g>
	<g id="streams">
	</g>
	<g id="balloon-topic">
	</g>
	<g id="groups">
	</g>
	<g id="liferay-logo">
	</g>
	<g id="heart-full">
	</g>
	<g id="confirm">
	</g>
	<g id="send">
	</g>
	<g id="arrow-left-rod">
	</g>
	<g id="cancel_1_">
	</g>
	<g id="plus">
	</g>
</g>
<g id="row-1">
	<g id="bullhorn">
	</g>
	<g id="link">
	</g>
	<g id="pen">
	</g>
	<g id="bell">
	</g>
	<g id="magnifier">
	</g>
	<g id="menu">
	</g>
	<g id="ellipsis">
	</g>
	<g id="balloon-comment">
	</g>
	<g id="heart-inline">
	</g>
	<g id="heart">
	</g>
	<g id="camera">
	</g>
	<g id="lock">
	</g>
	<g id="star">
	</g>
</g>
<g id="guides">
</g>
</svg>
