<?xml version="1.0" encoding="utf-8"?>
<!-- Generator: Adobe Illustrator 21.0.1, SVG Export Plug-In . SVG Version: 6.00 Build 0)  -->
<svg version="1.1" id="icon-" xmlns="http://www.w3.org/2000/svg" xmlns:xlink="http://www.w3.org/1999/xlink" x="0px" y="0px"
	 viewBox="0 0 780 960" style="enable-background:new 0 0 780 960;" xml:space="preserve">
<style type="text/css">
	.st0{fill-rule:evenodd;clip-rule:evenodd;}
	.st1{fill:#29ABE2;}
	.st2{fill-rule:evenodd;clip-rule:evenodd;fill:#181616;}
	.st3{fill:#FF0000;}
</style>
<path id="arrow-down-rod" d="M480,90v502.7l146.4-146.4c35.1-35.1,92.1-35.1,127.3,0c35.1,35.1,35.1,92.1,0,127.3l-300,300
	c-35.1,35.1-92.1,35.1-127.3,0l-300-300C8.8,556.1,0,533,0,510c0-23,8.8-46.1,26.4-63.6c35.1-35.1,92.1-35.1,127.3,0L300,592.7V90
	c0-49.7,40.3-90,90-90l0,0C439.7,0,480,40.3,480,90z"/>
</svg>
