<?xml version="1.0" encoding="utf-8"?>
<!-- Generator: Adobe Illustrator 21.0.1, SVG Export Plug-In . SVG Version: 6.00 Build 0)  -->
<svg version="1.1" id="icon-" xmlns="http://www.w3.org/2000/svg" xmlns:xlink="http://www.w3.org/1999/xlink" x="0px" y="0px"
	 viewBox="0 0 1020 960" style="enable-background:new 0 0 1020 960;" xml:space="preserve">
<style type="text/css">
	.st0{fill-rule:evenodd;clip-rule:evenodd;}
	.st1{fill:#29ABE2;}
	.st2{fill-rule:evenodd;clip-rule:evenodd;fill:#181616;}
	.st3{fill:#FF0000;}
</style>
<path id="balloon-topic_1_" d="M900,0C660,0,360,0,120,0C53.7,0,0,53.7,0,120c0,240,0,360,0,600c0,66.3,53.7,120,120,120
	c201.4,0,445,0,660,0c44.7,33.5,85.4,64,144,108c10,7.5,22.5,12,36,12c33.1,0,60-26.9,60-60c0-90,0-90,0-180c0-240,0-360,0-600
	C1020,53.7,966.3,0,900,0z M240,240h540c33,0,60,27,60,60s-27,60-60,60H240c-33,0-60-27-60-60S207,240,240,240z M480,600H240
	c-33,0-60-27-60-60s27-60,60-60h240c33,0,60,27,60,60S513,600,480,600z"/>
</svg>
