<?xml version="1.0" encoding="utf-8"?>
<!-- Generator: Adobe Illustrator 18.1.1, SVG Export Plug-In . SVG Version: 6.00 Build 0)  -->
<svg version="1.1" xmlns="http://www.w3.org/2000/svg" xmlns:xlink="http://www.w3.org/1999/xlink" x="0px" y="0px"
	 viewBox="0 0 1320 960" enable-background="new 0 0 1320 960" xml:space="preserve">
<g id="dribbble">
</g>
<g id="globe">
</g>
<g id="github">
</g>
<g id="facebook">
</g>
<g id="twitter">
</g>
<g id="skype">
</g>
<g id="phone">
</g>
<g id="mail">
</g>
<g id="liferay-logo-2">
</g>
<g id="menu-content">
</g>
<g id="streams">
</g>
<g id="balloon-topic">
</g>
<g id="groups">
</g>
<g id="persons">
</g>
<g id="house">
</g>
<g id="liferay-logo">
</g>
<g id="eye">
</g>
<g id="confirm">
</g>
<g id="send">
</g>
<g id="back">
</g>
<g id="cancel_1_">
</g>
<g id="plus">
</g>
<g id="bullhorn">
</g>
<g id="link">
</g>
<g id="pen">
</g>
<g id="bell">
</g>
<g id="magnifier">
</g>
<g id="menu">
</g>
<g id="ellipsis">
</g>
<g id="balloon-comment">
	<path d="M659.5,60c48.6,0,95.7,9.5,139.9,28.2c42.8,18.1,81.3,44,114.3,77.1c33.1,33.1,59,71.5,77.1,114.3
		c18.7,44.2,28.2,91.3,28.2,139.9c0,48.1-9.3,94.8-27.7,138.6l-23.1,55.1l38.3,153.3l-153.3-38.3l-55.1,23.1
		c-43.9,18.4-90.5,27.7-138.6,27.7c-48.6,0-95.7-9.5-139.9-28.2c-42.8-18.1-81.3-44-114.3-77.1c-33.1-33.1-59-71.5-77.1-114.3
		c-18.7-44.2-28.2-91.3-28.2-139.9c0-48.6,9.5-95.7,28.2-139.9c18.1-42.8,44-81.3,77.1-114.3c33.1-33.1,71.5-59,114.3-77.1
		C563.8,69.5,610.9,60,659.5,60 M659.5-120C361.5-120,120,121.5,120,419.5S361.5,959,659.5,959c73.8,0,144.1-14.8,208.1-41.6
		c0,0,288.7,71.1,297.1,71.1c47.4,0,73.7-36.5,60.1-90.9l-67.5-269.9c26.8-64,41.6-134.4,41.6-208.1C1199,121.5,957.5-120,659.5-120
		L659.5-120z"/>
</g>
<g id="heart-fill">
</g>
<g id="heart">
</g>
<g id="camera">
</g>
<g id="subscribe">
</g>
<g id="star">
</g>
<g id="guides">
</g>
</svg>
