<?xml version="1.0" encoding="utf-8"?>
<!-- Generator: Adobe Illustrator 20.0.0, SVG Export Plug-In . SVG Version: 6.00 Build 0)  -->
<svg version="1.1" id="icon-" xmlns="http://www.w3.org/2000/svg" xmlns:xlink="http://www.w3.org/1999/xlink" x="0px" y="0px"
	 viewBox="0 0 960 960" enable-background="new 0 0 960 960" xml:space="preserve">
<path id="bell_1_" d="M870,660h-30V420c0-135.6-74.9-253.6-185.7-315c3.7-14.4,5.7-29.4,5.7-45c0-99.4-80.6-180-180-180
	S300-39.4,300,60c0,15.5,2,30.6,5.7,45C194.9,166.4,120,284.4,120,420v240H90c-49.7,0-90,40.3-90,90l0,0c0,49.7,40.3,90,90,90h270
	c0,66.3,53.7,120,120,120s120-53.7,120-120h270c49.7,0,90-40.3,90-90l0,0C960,700.3,919.7,660,870,660z M480,0c33.1,0,60,26.9,60,60
	s-26.9,60-60,60s-60-26.9-60-60S446.9,0,480,0z"/>
</svg>
