<?xml version="1.0" encoding="utf-8"?>
<!-- Generator: Adobe Illustrator 18.1.1, SVG Export Plug-In . SVG Version: 6.00 Build 0)  -->
<svg version="1.1" xmlns="http://www.w3.org/2000/svg" xmlns:xlink="http://www.w3.org/1999/xlink" x="0px" y="0px"
	 viewBox="0 0 1200 960" enable-background="new 0 0 1200 960" xml:space="preserve">
<g id="tint">
</g>
<g id="dribbble">
</g>
<g id="globe">
</g>
<g id="github">
</g>
<g id="facebook">
</g>
<g id="twitter">
</g>
<g id="skype">
</g>
<g id="phone">
</g>
<g id="mail">
</g>
<g id="liferay-logo-2">
</g>
<g id="menu-content">
</g>
<g id="streams">
</g>
<g id="balloon-topic">
</g>
<g id="groups">
</g>
<g id="persons">
</g>
<g id="house">
</g>
<g id="liferay-logo">
</g>
<g id="eye">
</g>
<g id="confirm">
</g>
<g id="send">
</g>
<g id="back">
</g>
<g id="cancel_1_">
</g>
<g id="plus">
</g>
<g id="bullhorn">
</g>
<g id="link">
</g>
<g id="pen">
</g>
<g id="bell">
	<path d="M990,660h-30V420c0-135.6-74.9-253.6-185.7-315c3.7-14.4,5.7-29.4,5.7-45c0-99.4-80.6-180-180-180S420-39.4,420,60
		c0,15.5,2,30.6,5.7,45C314.9,166.4,240,284.4,240,420v240h-30c-49.7,0-90,40.3-90,90l0,0c0,49.7,40.3,90,90,90h270
		c0,66.3,53.7,120,120,120s120-53.7,120-120h270c49.7,0,90-40.3,90-90l0,0C1080,700.3,1039.7,660,990,660z M600,0
		c33.1,0,60,26.9,60,60s-26.9,60-60,60s-60-26.9-60-60S566.9,0,600,0z"/>
</g>
<g id="magnifier">
</g>
<g id="menu">
</g>
<g id="ellipsis">
</g>
<g id="balloon-comment">
</g>
<g id="heart-fill">
</g>
<g id="heart">
</g>
<g id="camera">
</g>
<g id="subscribe">
</g>
<g id="star">
</g>
<g id="guides">
</g>
</svg>
