<?xml version="1.0" encoding="utf-8"?>
<!-- Generator: Adobe Illustrator 21.0.1, SVG Export Plug-In . SVG Version: 6.00 Build 0)  -->
<svg version="1.1" id="icon-" xmlns="http://www.w3.org/2000/svg" xmlns:xlink="http://www.w3.org/1999/xlink" x="0px" y="0px"
	 viewBox="0 0 1200 960" enable-background="new 0 0 1200 960" xml:space="preserve">
<path id="bell-off" d="M1158,673.9c-45.8-29.6-141.8-91.8-258-166.9V420c0-135.6-74.9-253.6-185.7-315c3.7-14.4,5.7-29.4,5.7-45
	c0-99.4-80.6-180-180-180S360-39.4,360,60c0,15.5,2,30.6,5.7,45c-15.1,8.4-29.6,17.8-43.2,28.2c-81.9-53-147.5-95.4-182.9-118.3
	C125.3,5.5,108.3,0,90,0C40.3,0,0,40.3,0,90c0,32.1,16.8,60.2,42,76.1c152.8,98.9,866.2,560.5,1018.4,659
	c14.2,9.4,31.2,14.9,49.6,14.9c49.7,0,90-40.3,90-90C1200,717.9,1183.2,689.8,1158,673.9z M540,0c33.1,0,60,26.9,60,60
	s-26.9,60-60,60s-60-26.9-60-60S506.9,0,540,0z M181,393.7c228.7,148,535,346.2,689.7,446.3H660c0,66.3-53.7,120-120,120
	s-120-53.7-120-120H150c-49.7,0-90-40.3-90-90s40.3-90,90-90h30V420C180,411.2,180.3,402.4,181,393.7z"/>
</svg>
