<?xml version="1.0" encoding="utf-8"?>
<!-- Generator: Adobe Illustrator 21.0.1, SVG Export Plug-In . SVG Version: 6.00 Build 0)  -->
<svg version="1.1" id="icon-" xmlns="http://www.w3.org/2000/svg" xmlns:xlink="http://www.w3.org/1999/xlink" x="0px" y="0px"
	 viewBox="0 0 720 960" style="enable-background:new 0 0 720 960;" xml:space="preserve">
<style type="text/css">
	.st0{fill-rule:evenodd;clip-rule:evenodd;}
	.st1{fill:#29ABE2;}
	.st2{fill-rule:evenodd;clip-rule:evenodd;fill:#181616;}
	.st3{fill:#FF0000;}
</style>
<path id="bookmark" d="M660,60c-120,0-480,0-600,0C26.9,60,0,86.9,0,120c0,120,0,600,0,720c0,33.1,26.9,60,60,60
	c14.2,0,27.2-4.9,37.5-13.2l0,0C179,821.6,274.8,745,360,676.8c85.2,68.2,181,144.8,262.5,210l0,0c10.3,8.2,23.3,13.2,37.5,13.2
	c33.1,0,60-26.9,60-60c0-120,0-600,0-720C720,86.9,693.1,60,660,60z"/>
</svg>
