<?xml version="1.0" encoding="utf-8"?>
<!-- Generator: Adobe Illustrator 21.0.1, SVG Export Plug-In . SVG Version: 6.00 Build 0)  -->
<svg version="1.1" id="icon-" xmlns="http://www.w3.org/2000/svg" xmlns:xlink="http://www.w3.org/1999/xlink" x="0px" y="0px"
	 viewBox="0 0 1080 960" style="enable-background:new 0 0 1080 960;" xml:space="preserve">
<style type="text/css">
	.st0{fill-rule:evenodd;clip-rule:evenodd;}
	.st1{fill:#29ABE2;}
	.st2{fill-rule:evenodd;clip-rule:evenodd;fill:#181616;}
	.st3{fill:#FF0000;}
</style>
<path id="building" d="M990-60c-180,0-180,0-360,0c-49.7,0-90,40.3-90,90c0,73.6,0,197.2,0,330c-134,0-301.6,0-450,0
	c-49.7,0-90,40.3-90,90c0,180,0,240,0,420c0,49.7,40.3,90,90,90c63.9,0,720,0,900,0c49.7,0,90-40.3,90-90c0-180,0-660,0-840
	C1080-19.7,1039.7-60,990-60z M540,840c-27.4,0-71.3,0-120,0c0-37.6,0-56.1,0-120c0-33.1-26.9-60-60-60c-30,0-30,0-60,0
	c-33.1,0-60,26.9-60,60c0,63.9,0,82.4,0,120c-41.2,0-74.4,0-90,0c-16.6,0-30-13.4-30-30c0-60,0-240,0-300c0-16.6,13.4-30,30-30
	c52.5,0,303.2,0,390,0V840z M780,720c0,33.1-26.9,60-60,60s-60-26.9-60-60c0-30,0-30,0-60c0-33.1,26.9-60,60-60s60,26.9,60,60
	C780,690,780,690,780,720z M780,480c0,33.1-26.9,60-60,60s-60-26.9-60-60c0-30,0-30,0-60c0-33.1,26.9-60,60-60s60,26.9,60,60
	C780,450,780,450,780,480z M780,240c0,33.1-26.9,60-60,60s-60-26.9-60-60c0-30,0-30,0-60c0-33.1,26.9-60,60-60s60,26.9,60,60
	C780,210,780,210,780,240z M960,720c0,33.1-26.9,60-60,60s-60-26.9-60-60c0-30,0-30,0-60c0-33.1,26.9-60,60-60s60,26.9,60,60
	C960,690,960,690,960,720z M960,480c0,33.1-26.9,60-60,60s-60-26.9-60-60c0-30,0-30,0-60c0-33.1,26.9-60,60-60s60,26.9,60,60
	C960,450,960,450,960,480z M960,240c0,33.1-26.9,60-60,60s-60-26.9-60-60c0-30,0-30,0-60c0-33.1,26.9-60,60-60s60,26.9,60,60
	C960,210,960,210,960,240z"/>
</svg>
