<?xml version="1.0" encoding="utf-8"?>
<!-- Generator: Adobe Illustrator 19.2.1, SVG Export Plug-In . SVG Version: 6.00 Build 0)  -->
<svg version="1.1" xmlns="http://www.w3.org/2000/svg" xmlns:xlink="http://www.w3.org/1999/xlink" x="0px" y="0px"
	 viewBox="0 0 1200 960" enable-background="new 0 0 1200 960" xml:space="preserve">
<g id="row-7">
</g>
<g id="row-6">
</g>
<g id="row-5">
</g>
<g id="row-4">
	<g id="read-full_1_">
	</g>
	<g id="markdown">
	</g>
	<g id="info">
	</g>
	<g id="folder">
	</g>
	<g id="read-full_2_">
	</g>
	<g id="person">
	</g>
	<g id="eye">
	</g>
	<g id="clear">
	</g>
	<g id="arrow-right-rod">
	</g>
	<g id="contract">
	</g>
	<g id="expand">
	</g>
	<g id="speaker-off">
	</g>
	<g id="speaker-on">
	</g>
	<g id="pause">
	</g>
	<g id="play">
	</g>
</g>
<g id="row-3">
	<g id="circle-arrow">
	</g>
	<g id="speedometer">
	</g>
	<g id="calendar">
	</g>
	<g id="server">
	</g>
	<g id="code-file">
	</g>
	<g id="gear">
	</g>
	<g id="tint">
	</g>
	<g id="dribbble">
	</g>
	<g id="globe">
	</g>
	<g id="github">
	</g>
	<g id="facebook">
	</g>
	<g id="twitter">
	</g>
	<g id="skype">
	</g>
	<g id="phone">
	</g>
	<g id="mail">
	</g>
</g>
<g id="row-2">
	<g id="liferay-logo-2">
	</g>
	<g id="menu-content">
	</g>
	<g id="streams">
	</g>
	<g id="balloon-topic">
	</g>
	<g id="groups">
	</g>
	<g id="liferay-logo">
	</g>
	<g id="heart-full">
	</g>
	<g id="confirm">
	</g>
	<g id="send">
	</g>
	<g id="arrow-left-rod">
	</g>
	<g id="cancel_1_">
	</g>
	<g id="plus">
	</g>
</g>
<g id="row-1">
	<g id="bullhorn">
		<path d="M1077.5-66.6c-66.7-107.6-139.2-119.9-188.3-111.2c-15.4,2.7-32.9,8.4-49.1,18.3l-682,418.1c-18.2-7.7-38.2-10.3-59.7-6.5
			C18.2,266.4-13,356.9,4.9,458.6S86.6,634,163,620.5c21.9-3.9,40.4-14.1,55.2-29.2l92.4,16.8c-7.4,30.7-8.8,63.5-3,96.6
			C330.1,833.2,452,919,579.9,896.4c104.3-18.5,180.4-103.5,192.5-204l223.3,40.7c19.6,3.8,37.6,3.1,53.3,0.4
			c49.6-8.8,114.2-45.3,139.9-169.4c17.2-83.1,14.4-195-8.2-323.7C1158.2,112.3,1122.6,6.1,1077.5-66.6z M659.4,748.4
			c-22.5,32.3-56.2,53.9-94.8,60.7c-38.6,6.8-77.6-1.8-109.8-24.5c-32.1-22.6-53.6-56.5-60.4-95.3c-3.9-22.1-2.7-44.4,3.1-65.4
			l287.9,52.5C683.3,702.1,674.4,726.8,659.4,748.4z M1127.4,549.9c-11.3,71.4-36.8,111.1-75.5,117.9
			c-38.7,6.9-76.1-21.9-111.2-85.6c-36.5-66.1-66.9-164.3-87.8-283.9c-20.9-119-25.5-221.7-13.4-297c5.9-36.5,15.5-65.3,28.7-85.5
			c12.4-19,27.5-29.8,46.1-33.1c18.7-3.3,36.6,1.6,54.6,15.1c19.2,14.3,38,37.8,55.9,70c36.9,66.4,67.6,164.7,88.6,284.4
			C1134.3,372.6,1139.2,475.5,1127.4,549.9z"/>
	</g>
	<g id="link">
	</g>
	<g id="pen">
	</g>
	<g id="bell">
	</g>
	<g id="magnifier">
	</g>
	<g id="menu">
	</g>
	<g id="ellipsis">
	</g>
	<g id="balloon-comment">
	</g>
	<g id="heart-inline">
	</g>
	<g id="heart">
	</g>
	<g id="camera">
	</g>
	<g id="lock">
	</g>
	<g id="star">
	</g>
</g>
<g id="guides">
</g>
</svg>
