<?xml version="1.0" encoding="utf-8"?>
<!-- Generator: Adobe Illustrator 21.0.1, SVG Export Plug-In . SVG Version: 6.00 Build 0)  -->
<svg version="1.1" id="icon-" xmlns="http://www.w3.org/2000/svg" xmlns:xlink="http://www.w3.org/1999/xlink" x="0px" y="0px"
	 viewBox="0 0 960 960" style="enable-background:new 0 0 960 960;" xml:space="preserve">
<style type="text/css">
	.st0{fill-rule:evenodd;clip-rule:evenodd;}
	.st1{fill:#29ABE2;}
	.st2{fill-rule:evenodd;clip-rule:evenodd;fill:#181616;}
	.st3{fill:#FF0000;}
</style>
<path id="calendar" d="M810,120c-1.3,0-12,0-30,0V60c0-33.1-26.9-60-60-60h-60c-33.1,0-60,26.9-60,60v60c-76.7,0-163.3,0-240,0V60
	c0-33.1-26.9-60-60-60h-60c-33.1,0-60,26.9-60,60v60c-18,0-28.7,0-30,0C67.2,120,0,187.2,0,270c0,270,0,270,0,540
	c0,82.8,67.2,150,150,150c300,0,360,0,660,0c82.8,0,150-67.2,150-150c0-270,0-270,0-540C960,187.2,892.8,120,810,120z M840,780
	c0,33.1-26.9,60-60,60H180c-33.1,0-60-26.9-60-60V420c0-33.1,26.9-60,60-60h600c33.1,0,60,26.9,60,60V780z M600,720
	c0,33.1-26.9,60-60,60s-60-26.9-60-60s26.9-60,60-60S600,686.9,600,720z M780,720c0,33.1-26.9,60-60,60s-60-26.9-60-60
	s26.9-60,60-60S780,686.9,780,720z M780,540c0,33.1-26.9,60-60,60s-60-26.9-60-60s26.9-60,60-60S780,506.9,780,540z M600,540
	c0,33.1-26.9,60-60,60s-60-26.9-60-60s26.9-60,60-60S600,506.9,600,540z"/>
</svg>
