<?xml version="1.0" encoding="utf-8"?>
<!-- Generator: Adobe Illustrator 20.0.0, SVG Export Plug-In . SVG Version: 6.00 Build 0)  -->
<svg version="1.1" id="icon-" xmlns="http://www.w3.org/2000/svg" xmlns:xlink="http://www.w3.org/1999/xlink" x="0px" y="0px"
	 viewBox="0 0 960 960" enable-background="new 0 0 960 960" xml:space="preserve">
<path id="calendar_1_" fill="#29ABE2" d="M840,120h-60V0H600v120H360V0H180v120h-60C53.7,120,0,173.7,0,240v600
	c0,66.3,53.7,120,120,120h720c66.3,0,120-53.7,120-120V240C960,173.7,906.3,120,840,120z M840,840H120V360h720V840z M780,780H660
	V660h120V780z M780,600H660V480h120V600z M600,780H480V660h120V780z"/>
</svg>
