<?xml version="1.0" encoding="utf-8"?>
<!-- Generator: Adobe Illustrator 18.1.1, SVG Export Plug-In . SVG Version: 6.00 Build 0)  -->
<svg version="1.1" xmlns="http://www.w3.org/2000/svg" xmlns:xlink="http://www.w3.org/1999/xlink" x="0px" y="0px"
	 viewBox="0 0 1080 960" enable-background="new 0 0 1080 960" xml:space="preserve">
<g id="calendar">
	<path d="M900,120h-60V0H660v120H420V0H240v120h-60c-66.3,0-120,53.7-120,120v600c0,66.3,53.7,120,120,120h720
		c66.3,0,120-53.7,120-120V240C1020,173.7,966.3,120,900,120z M900,840H180V360h720V840z M840,780H720V660h120V780z M840,600H720
		V480h120V600z M660,780H540V660h120V780z"/>
</g>
<g id="data">
</g>
<g id="code-file">
</g>
<g id="gear">
</g>
<g id="tint">
</g>
<g id="dribbble">
</g>
<g id="globe">
</g>
<g id="github">
</g>
<g id="facebook">
</g>
<g id="twitter">
</g>
<g id="skype">
</g>
<g id="phone">
</g>
<g id="mail">
</g>
<g id="liferay-logo-2">
</g>
<g id="menu-content">
</g>
<g id="streams">
</g>
<g id="balloon-topic">
</g>
<g id="groups">
</g>
<g id="persons">
</g>
<g id="house">
</g>
<g id="liferay-logo">
</g>
<g id="eye">
</g>
<g id="confirm">
</g>
<g id="send">
</g>
<g id="back">
</g>
<g id="cancel_1_">
</g>
<g id="plus">
</g>
<g id="bullhorn">
</g>
<g id="link">
</g>
<g id="pen">
</g>
<g id="bell">
</g>
<g id="magnifier">
</g>
<g id="menu">
</g>
<g id="ellipsis">
</g>
<g id="balloon-comment">
</g>
<g id="heart-fill">
</g>
<g id="heart">
</g>
<g id="camera">
</g>
<g id="subscribe">
</g>
<g id="star">
</g>
<g id="guides">
</g>
</svg>
