<?xml version="1.0" encoding="utf-8"?>
<!-- Generator: Adobe Illustrator 18.1.1, SVG Export Plug-In . SVG Version: 6.00 Build 0)  -->
<svg version="1.1" xmlns="http://www.w3.org/2000/svg" xmlns:xlink="http://www.w3.org/1999/xlink" x="0px" y="0px"
	 viewBox="0 0 1320 960" enable-background="new 0 0 1320 960" xml:space="preserve">
<g id="dribbble">
</g>
<g id="globe">
</g>
<g id="github">
</g>
<g id="facebook">
</g>
<g id="twitter">
</g>
<g id="skype">
</g>
<g id="phone">
</g>
<g id="mail">
</g>
<g id="liferay-logo-2">
</g>
<g id="menu-content">
</g>
<g id="streams">
</g>
<g id="balloon-topic">
</g>
<g id="groups">
</g>
<g id="persons">
</g>
<g id="house">
</g>
<g id="liferay-logo">
</g>
<g id="eye">
</g>
<g id="confirm">
</g>
<g id="send">
</g>
<g id="back">
</g>
<g id="cancel_1_">
</g>
<g id="plus">
</g>
<g id="bullhorn">
</g>
<g id="link">
</g>
<g id="pen">
</g>
<g id="bell">
</g>
<g id="magnifier">
</g>
<g id="menu">
</g>
<g id="ellipsis">
</g>
<g id="balloon-comment">
</g>
<g id="heart-fill">
</g>
<g id="heart">
</g>
<g id="camera">
	<path d="M1020,60h-60c0-99.4-80.6-180-180-180H540c-99.4,0-180,80.6-180,180h-60c-99.4,0-180,80.6-180,180v480
		c0,99.4,80.6,180,180,180h720c99.4,0,180-80.6,180-180V240C1200,140.6,1119.4,60,1020,60z M660,720c-165.7,0-300-134.3-300-300
		s134.3-300,300-300s300,134.3,300,300S825.7,720,660,720z M660,600c-99.4,0-180-80.6-180-180s80.6-180,180-180s180,80.6,180,180
		S759.4,600,660,600z"/>
</g>
<g id="subscribe">
</g>
<g id="star">
</g>
<g id="guides">
</g>
</svg>
