<?xml version="1.0" encoding="utf-8"?>
<!-- Generator: Adobe Illustrator 20.0.0, SVG Export Plug-In . SVG Version: 6.00 Build 0)  -->
<svg version="1.1" id="icon-" xmlns="http://www.w3.org/2000/svg" xmlns:xlink="http://www.w3.org/1999/xlink" x="0px" y="0px"
	 viewBox="0 0 720 960" enable-background="new 0 0 720 960" xml:space="preserve">
<path id="cancel" d="M693.6,686.4c35.1,35.1,35.1,92.1,0,127.3C676.1,831.2,653,840,630,840s-46.1-8.8-63.6-26.4L360,607.3
	L153.6,813.6C136.1,831.2,113,840,90,840s-46.1-8.8-63.6-26.4c-35.1-35.1-35.1-92.1,0-127.3L232.7,480L26.4,273.6
	c-35.1-35.1-35.1-92.1,0-127.3c35.1-35.1,92.1-35.1,127.3,0L360,352.7l206.4-206.4c35.1-35.1,92.1-35.1,127.3,0
	c35.1,35.1,35.1,92.1,0,127.3L487.3,480L693.6,686.4z"/>
</svg>
