<?xml version="1.0" encoding="utf-8"?>
<!-- Generator: Adobe Illustrator 21.0.1, SVG Export Plug-In . SVG Version: 6.00 Build 0)  -->
<svg version="1.1" id="icon-" xmlns="http://www.w3.org/2000/svg" xmlns:xlink="http://www.w3.org/1999/xlink" x="0px" y="0px"
	 viewBox="0 0 840 960" style="enable-background:new 0 0 840 960;" xml:space="preserve">
<style type="text/css">
	.st0{fill-rule:evenodd;clip-rule:evenodd;}
	.st1{fill:#29ABE2;}
	.st2{fill-rule:evenodd;clip-rule:evenodd;fill:#181616;}
	.st3{fill:#FF0000;}
</style>
<path id="card" d="M750,60c-180,0-480,0-660,0c-49.7,0-90,40.3-90,90c0,180,0,180,0,360c0,49.7,40.3,90,90,90c180,0,480,0,660,0
	c49.7,0,90-40.3,90-90c0-180,0-180,0-360C840,100.3,799.7,60,750,60z M840,810c0,49.7-40.3,90-90,90c-180,0-480,0-660,0
	c-49.7,0-90-40.3-90-90s40.3-90,90-90c180,0,480,0,660,0C799.7,720,840,760.3,840,810z"/>
</svg>
