<?xml version="1.0" encoding="utf-8"?>
<!-- Generator: Adobe Illustrator 21.0.1, SVG Export Plug-In . SVG Version: 6.00 Build 0)  -->
<svg version="1.1" id="icon-" xmlns="http://www.w3.org/2000/svg" xmlns:xlink="http://www.w3.org/1999/xlink" x="0px" y="0px"
	 viewBox="0 0 960 960" style="enable-background:new 0 0 960 960;" xml:space="preserve">
<style type="text/css">
	.st0{fill-rule:evenodd;clip-rule:evenodd;}
	.st1{fill:#29ABE2;}
	.st2{fill-rule:evenodd;clip-rule:evenodd;fill:#181616;}
	.st3{fill:#FF0000;}
</style>
<path id="cart" d="M957.7,196L957.7,196c-33,116-87,305-120,420h0c-7.2,26-30.3,44-57.7,44c-120,0-360,0-480,0
	c-30.3,0-55.3-22-59.4-52h0C224.1,493,199,316.7,182,197.9c-19.5-39.1-25.1-49.9-39.1-77.9c-27.1,0-38.7,0-82.9,0
	C26.9,120,0,93.1,0,60S26.9,0,60,0c60,0,60,0,120,0c23.5,0,43.8,14,53.7,33h0c0,0,0.1,0.2,0.1,0.3c0.1,0.3,0.3,0.6,0.4,0.9
	c22.7,45.5,28.1,56.1,42.9,85.9c152.7,0,513.2,0,622.9,0c33.1,0,60,26.6,60,59.8C960,185.5,959.2,191,957.7,196z M330,780
	c-49.7,0-90,40.3-90,90s40.3,90,90,90s90-40.3,90-90S379.7,780,330,780z M810,780c-49.7,0-90,40.3-90,90s40.3,90,90,90
	s90-40.3,90-90S859.7,780,810,780z"/>
</svg>
