<?xml version="1.0" encoding="utf-8"?>
<!-- Generator: Adobe Illustrator 21.0.1, SVG Export Plug-In . SVG Version: 6.00 Build 0)  -->
<svg version="1.1" id="icon-" xmlns="http://www.w3.org/2000/svg" xmlns:xlink="http://www.w3.org/1999/xlink" x="0px" y="0px"
	 viewBox="0 0 900 960" style="enable-background:new 0 0 900 960;" xml:space="preserve">
<style type="text/css">
	.st0{fill-rule:evenodd;clip-rule:evenodd;}
	.st1{fill:#29ABE2;}
	.st2{fill-rule:evenodd;clip-rule:evenodd;fill:#181616;}
	.st3{fill:#FF0000;}
</style>
<path id="checkmark" d="M900,270c0-49.7-40.3-90-90-90c-24.9,0-47.4,10.1-63.6,26.4C638.3,314.4,459.4,493.3,330,622.7
	c-62-62-82.4-82.4-176.4-176.4l0,0C137.4,430.1,114.9,420,90,420c-49.7,0-90,40.3-90,90c0,24.9,10.1,47.4,26.4,63.6
	c120,120,120,120,240,240c16.3,16.3,38.8,26.4,63.6,26.4c24.9,0,47.4-10.1,63.6-26.4v0c127.3-127.3,352.7-352.7,480-480l0,0
	C889.9,317.4,900,294.9,900,270z"/>
</svg>
