<?xml version="1.0" encoding="utf-8"?>
<!-- Generator: Adobe Illustrator 18.1.1, SVG Export Plug-In . SVG Version: 6.00 Build 0)  -->
<svg version="1.1" xmlns="http://www.w3.org/2000/svg" xmlns:xlink="http://www.w3.org/1999/xlink" x="0px" y="0px"
	 viewBox="0 0 1200 960" enable-background="new 0 0 1200 960" xml:space="preserve">
<g id="row-6">
	<g id="mail_x5F_straight">
	</g>
	<g id="markdown">
	</g>
	<g id="info">
	</g>
	<g id="folder">
	</g>
	<g id="server">
	</g>
	<g id="speed-monitor">
	</g>
</g>
<g id="row-5">
	<g id="person-role">
	</g>
	<g id="lock">
	</g>
	<g id="list">
	</g>
	<g id="read-mail">
	</g>
	<g id="person">
	</g>
	<g id="eye">
	</g>
	<g id="clear">
	</g>
	<g id="arrow-right-rod">
	</g>
	<g id="contract">
	</g>
	<g id="expand">
	</g>
	<g id="speaker-off">
	</g>
</g>
<g id="row-4">
	<g id="speaker-on">
	</g>
	<g id="pause">
	</g>
	<g id="play">
	</g>
	<g id="circle-arrow">
		<path d="M1080,480c0,64.8-12.7,127.6-37.7,186.9c-24.2,57.2-58.8,108.5-102.8,152.6c-44.1,44.1-95.4,78.7-152.6,102.8
			C727.6,947.3,664.8,960,600,960s-127.6-12.7-186.9-37.7c-57.2-24.2-108.5-58.8-152.6-102.8c-23.4-23.4-23.4-61.4,0-84.9L575.1,420
			H480c-33.1,0-60-26.9-60-60s26.9-60,60-60h240c33.1,0,60,26.9,60,60v240c0,33.1-26.9,60-60,60s-60-26.9-60-60v-95.1L391.4,773.5
			C451.9,816.7,524.1,840,600,840c96.2,0,186.6-37.4,254.6-105.4S960,576.2,960,480s-37.4-186.6-105.4-254.6
			C786.6,157.4,696.2,120,600,120s-186.6,37.4-254.6,105.4C277.4,293.4,240,383.8,240,480c0,31.6,4.1,63,12.2,93.2
			c8.6,32-10.5,64.9-42.5,73.5c-32,8.6-64.9-10.5-73.5-42.5C125.5,563.9,120,522.1,120,480c0-64.8,12.7-127.6,37.7-186.9
			c24.2-57.2,58.8-108.5,102.8-152.6C304.7,96.5,356,61.9,413.1,37.7C472.4,12.7,535.2,0,600,0s127.6,12.7,186.9,37.7
			C844,61.9,895.3,96.5,939.4,140.6c44.1,44.1,78.7,95.4,102.8,152.6C1067.3,352.4,1080,415.2,1080,480z"/>
	</g>
	<g id="module">
	</g>
	<g id="speedometer">
	</g>
	<g id="calendar">
	</g>
	<g id="data">
	</g>
	<g id="code-file">
	</g>
	<g id="gear">
	</g>
	<g id="tint">
	</g>
	<g id="dribbble">
	</g>
</g>
<g id="row-3">
	<g id="globe">
	</g>
	<g id="github">
	</g>
	<g id="facebook">
	</g>
	<g id="twitter">
	</g>
	<g id="skype">
	</g>
	<g id="phone">
	</g>
	<g id="mail">
	</g>
	<g id="liferay-logo-2">
	</g>
	<g id="menu-content">
	</g>
	<g id="streams">
	</g>
	<g id="balloon-topic">
	</g>
	<g id="groups">
	</g>
</g>
<g id="row-2">
	<g id="persons">
	</g>
	<g id="house">
	</g>
	<g id="liferay-logo">
	</g>
	<g id="heart-full">
	</g>
	<g id="confirm">
	</g>
	<g id="send">
	</g>
	<g id="arrow-left-rod">
	</g>
	<g id="cancel_1_">
	</g>
	<g id="plus">
	</g>
	<g id="bullhorn">
	</g>
	<g id="link">
	</g>
</g>
<g id="row-1">
	<g id="pen">
	</g>
	<g id="bell">
	</g>
	<g id="magnifier">
	</g>
	<g id="menu">
	</g>
	<g id="ellipsis">
	</g>
	<g id="balloon-comment">
	</g>
	<g id="heart-fill">
	</g>
	<g id="heart">
	</g>
	<g id="camera">
	</g>
	<g id="blank">
	</g>
	<g id="star">
	</g>
</g>
<g id="guides">
</g>
</svg>
