<?xml version="1.0" encoding="utf-8"?>
<!-- Generator: Adobe Illustrator 21.0.1, SVG Export Plug-In . SVG Version: 6.00 Build 0)  -->
<svg version="1.1" id="icon-" xmlns="http://www.w3.org/2000/svg" xmlns:xlink="http://www.w3.org/1999/xlink" x="0px" y="0px"
	 viewBox="0 0 960 960" style="enable-background:new 0 0 960 960;" xml:space="preserve">
<style type="text/css">
	.st0{fill-rule:evenodd;clip-rule:evenodd;}
	.st1{fill:#29ABE2;}
	.st2{fill-rule:evenodd;clip-rule:evenodd;fill:#181616;}
	.st3{fill:#FF0000;}
</style>
<path id="circle-arrow_1_" d="M960,480c0,64.8-12.7,127.6-37.7,186.9c-24.2,57.2-58.8,108.5-102.8,152.6
	c-44.1,44.1-95.4,78.7-152.6,102.8C607.6,947.3,544.8,960,480,960s-127.6-12.7-186.9-37.7c-57.2-24.2-108.5-58.8-152.6-102.8
	c-23.4-23.4-23.4-61.4,0-84.9L455.1,420H360c-33.1,0-60-26.9-60-60s26.9-60,60-60h240c33.1,0,60,26.9,60,60v240
	c0,33.1-26.9,60-60,60s-60-26.9-60-60v-95.1L271.4,773.5C331.9,816.7,404.1,840,480,840c96.2,0,186.6-37.4,254.6-105.4
	S840,576.2,840,480s-37.4-186.6-105.4-254.6C666.6,157.4,576.2,120,480,120s-186.6,37.4-254.6,105.4C157.4,293.4,120,383.8,120,480
	c0,31.6,4.1,63,12.2,93.2c8.6,32-10.5,64.9-42.5,73.5c-32,8.6-64.9-10.5-73.5-42.5C5.5,563.9,0,522.1,0,480
	c0-64.8,12.7-127.6,37.7-186.9C61.9,236,96.5,184.7,140.6,140.6C184.7,96.5,236,61.9,293.1,37.7C352.4,12.7,415.2,0,480,0
	s127.6,12.7,186.9,37.7C724,61.9,775.3,96.5,819.4,140.6c44.1,44.1,78.7,95.4,102.8,152.6C947.3,352.4,960,415.2,960,480z"/>
</svg>
