<?xml version="1.0" encoding="utf-8"?>
<!-- Generator: Adobe Illustrator 19.2.1, SVG Export Plug-In . SVG Version: 6.00 Build 0)  -->
<svg version="1.1" xmlns="http://www.w3.org/2000/svg" xmlns:xlink="http://www.w3.org/1999/xlink" x="0px" y="0px"
	 viewBox="0 0 960 960" enable-background="new 0 0 960 960" xml:space="preserve">
<g id="row-7">
</g>
<g id="row-6">
</g>
<g id="row-5">
</g>
<g id="row-4">
	<g id="read-full_1_">
	</g>
	<g id="markdown">
	</g>
	<g id="info">
	</g>
	<g id="folder">
	</g>
	<g id="read-full_2_">
	</g>
	<g id="person">
	</g>
	<g id="eye">
	</g>
	<g id="clear">
	</g>
	<g id="arrow-right-rod">
	</g>
	<g id="contract">
	</g>
	<g id="expand">
	</g>
	<g id="speaker-off">
	</g>
	<g id="speaker-on">
	</g>
	<g id="pause">
	</g>
	<g id="play">
	</g>
</g>
<g id="row-3">
	<g id="circle-arrow">
		<path d="M960,480c0,64.8-12.7,127.6-37.7,186.9c-24.2,57.2-58.8,108.5-102.8,152.6c-44.1,44.1-95.4,78.7-152.6,102.8
			C607.6,947.3,544.8,960,480,960s-127.6-12.7-186.9-37.7c-57.2-24.2-108.5-58.8-152.6-102.8c-23.4-23.4-23.4-61.4,0-84.9L455.1,420
			H360c-33.1,0-60-26.9-60-60s26.9-60,60-60h240c33.1,0,60,26.9,60,60v240c0,33.1-26.9,60-60,60s-60-26.9-60-60v-95.1L271.4,773.5
			C331.9,816.7,404.1,840,480,840c96.2,0,186.6-37.4,254.6-105.4S840,576.2,840,480s-37.4-186.6-105.4-254.6
			C666.6,157.4,576.2,120,480,120s-186.6,37.4-254.6,105.4C157.4,293.4,120,383.8,120,480c0,31.6,4.1,63,12.2,93.2
			c8.6,32-10.5,64.9-42.5,73.5c-32,8.6-64.9-10.5-73.5-42.5C5.5,563.9,0,522.1,0,480c0-64.8,12.7-127.6,37.7-186.9
			C61.9,236,96.5,184.7,140.6,140.6C184.7,96.5,236,61.9,293.1,37.7C352.4,12.7,415.2,0,480,0s127.6,12.7,186.9,37.7
			C724,61.9,775.3,96.5,819.4,140.6c44.1,44.1,78.7,95.4,102.8,152.6C947.3,352.4,960,415.2,960,480z"/>
	</g>
	<g id="speedometer">
	</g>
	<g id="calendar">
	</g>
	<g id="server">
	</g>
	<g id="code-file">
	</g>
	<g id="gear">
	</g>
	<g id="tint">
	</g>
	<g id="dribbble">
	</g>
	<g id="globe">
	</g>
	<g id="github">
	</g>
	<g id="facebook">
	</g>
	<g id="twitter">
	</g>
	<g id="skype">
	</g>
	<g id="phone">
	</g>
	<g id="mail">
	</g>
</g>
<g id="row-2">
	<g id="liferay-logo-2">
	</g>
	<g id="menu-content">
	</g>
	<g id="streams">
	</g>
	<g id="balloon-topic">
	</g>
	<g id="groups">
	</g>
	<g id="liferay-logo">
	</g>
	<g id="heart-full">
	</g>
	<g id="confirm">
	</g>
	<g id="send">
	</g>
	<g id="arrow-left-rod">
	</g>
	<g id="cancel_1_">
	</g>
	<g id="plus">
	</g>
</g>
<g id="row-1">
	<g id="bullhorn">
	</g>
	<g id="link">
	</g>
	<g id="pen">
	</g>
	<g id="bell">
	</g>
	<g id="magnifier">
	</g>
	<g id="menu">
	</g>
	<g id="ellipsis">
	</g>
	<g id="balloon-comment">
	</g>
	<g id="heart-inline">
	</g>
	<g id="heart">
	</g>
	<g id="camera">
	</g>
	<g id="lock">
	</g>
	<g id="star">
	</g>
</g>
<g id="guides">
</g>
</svg>
