<?xml version="1.0" encoding="utf-8"?>
<!-- Generator: Adobe Illustrator 18.1.1, SVG Export Plug-In . SVG Version: 6.00 Build 0)  -->
<svg version="1.1" xmlns="http://www.w3.org/2000/svg" xmlns:xlink="http://www.w3.org/1999/xlink" x="0px" y="0px"
	 viewBox="0 0 1320 960" enable-background="new 0 0 1320 960" xml:space="preserve">
<g id="row-6">
	<g id="folder">
	</g>
	<g id="server">
	</g>
	<g id="speed-monitor">
	</g>
</g>
<g id="row-5">
	<g id="person-role">
	</g>
	<g id="lock">
	</g>
	<g id="list">
	</g>
	<g id="read-mail">
	</g>
	<g id="person">
	</g>
	<g id="eye">
	</g>
	<g id="clear">
		<path d="M660-60c-298.2,0-540,241.8-540,540s241.8,540,540,540s540-241.8,540-540S958.2-60,660-60z M882.4,617.6
			c23.4,23.4,23.4,61.4,0,84.9c-11.7,11.6-27,17.5-42.4,17.5s-30.7-5.9-42.4-17.6L660,564.9L522.4,702.4
			c-11.7,11.7-27,17.6-42.4,17.6s-30.7-5.9-42.4-17.6c-23.4-23.4-23.4-61.4,0-84.9L575.1,480L437.6,342.4
			c-23.4-23.4-23.4-61.4,0-84.9c23.4-23.4,61.4-23.4,84.9,0L660,395.1l137.6-137.6c23.4-23.4,61.4-23.4,84.9,0
			c23.4,23.4,23.4,61.4,0,84.9L744.9,480L882.4,617.6L882.4,617.6z"/>
	</g>
	<g id="arrow-right-rod">
	</g>
	<g id="contract">
	</g>
	<g id="expand">
	</g>
	<g id="speaker-off">
	</g>
</g>
<g id="row-4">
	<g id="speaker-on">
	</g>
	<g id="pause">
	</g>
	<g id="play">
	</g>
	<g id="circle-arrow">
	</g>
	<g id="module">
	</g>
	<g id="speedometer">
	</g>
	<g id="calendar">
	</g>
	<g id="data">
	</g>
	<g id="code-file">
	</g>
	<g id="gear">
	</g>
	<g id="tint">
	</g>
	<g id="dribbble">
	</g>
</g>
<g id="row-3">
	<g id="globe">
	</g>
	<g id="github">
	</g>
	<g id="facebook">
	</g>
	<g id="twitter">
	</g>
	<g id="skype">
	</g>
	<g id="phone">
	</g>
	<g id="mail">
	</g>
	<g id="liferay-logo-2">
	</g>
	<g id="menu-content">
	</g>
	<g id="streams">
	</g>
	<g id="balloon-topic">
	</g>
	<g id="groups">
	</g>
</g>
<g id="row-2">
	<g id="persons">
	</g>
	<g id="house">
	</g>
	<g id="liferay-logo">
	</g>
	<g id="heart-full">
	</g>
	<g id="confirm">
	</g>
	<g id="send">
	</g>
	<g id="arrow-left-rod">
	</g>
	<g id="cancel_1_">
	</g>
	<g id="plus">
	</g>
	<g id="bullhorn">
	</g>
	<g id="link">
	</g>
</g>
<g id="row-1">
	<g id="pen">
	</g>
	<g id="bell">
	</g>
	<g id="magnifier">
	</g>
	<g id="menu">
	</g>
	<g id="ellipsis">
	</g>
	<g id="balloon-comment">
	</g>
	<g id="heart-fill">
	</g>
	<g id="heart">
	</g>
	<g id="camera">
	</g>
	<g id="subscribe">
	</g>
	<g id="star">
	</g>
</g>
<g id="guides">
</g>
</svg>
