<?xml version="1.0" encoding="utf-8"?>
<!-- Generator: Adobe Illustrator 20.0.0, SVG Export Plug-In . SVG Version: 6.00 Build 0)  -->
<svg version="1.1" id="icon-" xmlns="http://www.w3.org/2000/svg" xmlns:xlink="http://www.w3.org/1999/xlink" x="0px" y="0px"
	 viewBox="0 0 1080 960" enable-background="new 0 0 1080 960" xml:space="preserve">
<path id="clear_1_" d="M540-60C241.8-60,0,181.8,0,480s241.8,540,540,540s540-241.8,540-540S838.2-60,540-60z M762.4,617.6
	c23.4,23.4,23.4,61.4,0,84.9c-11.7,11.6-27,17.5-42.4,17.5s-30.7-5.9-42.4-17.6L540,564.9L402.4,702.4c-11.7,11.7-27,17.6-42.4,17.6
	c-15.4,0-30.7-5.9-42.4-17.6c-23.4-23.4-23.4-61.4,0-84.9L455.1,480L317.6,342.4c-23.4-23.4-23.4-61.4,0-84.9
	c23.4-23.4,61.4-23.4,84.9,0L540,395.1l137.6-137.6c23.4-23.4,61.4-23.4,84.9,0c23.4,23.4,23.4,61.4,0,84.9L624.9,480L762.4,617.6
	L762.4,617.6z"/>
</svg>
