<?xml version="1.0" encoding="utf-8"?>
<!-- Generator: Adobe Illustrator 21.0.1, SVG Export Plug-In . SVG Version: 6.00 Build 0)  -->
<svg version="1.1" id="icon-" xmlns="http://www.w3.org/2000/svg" xmlns:xlink="http://www.w3.org/1999/xlink" x="0px" y="0px"
	 viewBox="0 0 600 960" enable-background="new 0 0 600 960" xml:space="preserve">
<path id="clip" d="M600,179c0,66.7,0,234.1,0,301c0,99.4-80.6,180-180,180s-180-80.6-180-180c0-119.9,0-120,0-240
	c0-33.1,26.9-60,60-60s60,26.9,60,60c0,120,0,120.1,0,240c0,33.1,26.9,60,60,60s60-26.9,60-60c0-66.6,0-232.6,0-300
	C480,80.6,399.4,0,300,0S120,80.6,120,180c0,107.3,0,373.4,0,480c0,99.4,80.6,180,180,180c65.7,0,123.2-35.2,154.6-87.9
	c55-6,104.8-29,144-63.8C584.4,840.7,456.1,960,300,960C134.3,960,0,825.7,0,660c0-106.9,0-374.4,0-481h0
	C0.6,13.8,134.6-120,300-120S599.4,13.8,600,179L600,179z"/>
</svg>
