<?xml version="1.0" encoding="utf-8"?>
<!-- Generator: Adobe Illustrator 20.0.0, SVG Export Plug-In . SVG Version: 6.00 Build 0)  -->
<svg version="1.1" id="icon-" xmlns="http://www.w3.org/2000/svg" xmlns:xlink="http://www.w3.org/1999/xlink" x="0px" y="0px"
	 viewBox="0 0 960 960" enable-background="new 0 0 960 960" xml:space="preserve">
<path id="clock" d="M480,0C214.9,0,0,214.9,0,480s214.9,480,480,480s480-214.9,480-480S745.1,0,480,0z M600,600c-90,0-90,0-180,0
	c-33.1,0-60-26.9-60-60c0-96,0-144,0-240c0-33.1,26.9-60,60-60s60,26.9,60,60c0,73.8,0,119.3,0,180c38,0,56.1,0,120,0
	c33.1,0,60,26.9,60,60S633.1,600,600,600z"/>
</svg>
