<?xml version="1.0" encoding="utf-8"?>
<!-- Generator: Adobe Illustrator 21.0.1, SVG Export Plug-In . SVG Version: 6.00 Build 0)  -->
<svg version="1.1" id="icon-" xmlns="http://www.w3.org/2000/svg" xmlns:xlink="http://www.w3.org/1999/xlink" x="0px" y="0px"
	 viewBox="0 0 1080 960" style="enable-background:new 0 0 1080 960;" xml:space="preserve">
<style type="text/css">
	.st0{fill-rule:evenodd;clip-rule:evenodd;}
	.st1{fill:#29ABE2;}
	.st2{fill-rule:evenodd;clip-rule:evenodd;fill:#181616;}
	.st3{fill:#FF0000;}
</style>
<path id="cloud" d="M871,840L871,840c-294,0-294.5,0-631,0C107.5,840,0,732.5,0,600c0-115.1,81-211.2,189-234.6
	c-5.9-20.8-9-42.8-9-65.4c0-132.5,107.5-240,240-240c100.8,0,187,62.1,222.6,150.1C674.2,191,711.3,180,751,180
	c116,0,210,94,210,210c0,16.6-1.9,32.7-5.5,48.1C1028.8,470.9,1080,544.5,1080,630C1080,745.6,987,839.4,871,840z"/>
</svg>
