<?xml version="1.0" encoding="utf-8"?>
<!-- Generator: Adobe Illustrator 18.1.1, SVG Export Plug-In . SVG Version: 6.00 Build 0)  -->
<svg version="1.1" xmlns="http://www.w3.org/2000/svg" xmlns:xlink="http://www.w3.org/1999/xlink" x="0px" y="0px"
	 viewBox="0 0 1320 960" enable-background="new 0 0 1320 960" xml:space="preserve">
<g id="row-6">
	<g id="mail_x5F_straight">
	</g>
	<g id="markdown">
	</g>
	<g id="info">
	</g>
	<g id="folder">
	</g>
	<g id="server">
	</g>
	<g id="speed-monitor">
	</g>
</g>
<g id="row-5">
	<g id="person-role">
	</g>
	<g id="lock">
	</g>
	<g id="list">
	</g>
	<g id="read-mail">
	</g>
	<g id="person">
	</g>
	<g id="eye">
	</g>
	<g id="clear">
	</g>
	<g id="arrow-right-rod">
	</g>
	<g id="contract">
	</g>
	<g id="expand">
	</g>
	<g id="speaker-off">
	</g>
</g>
<g id="row-4">
	<g id="speaker-on">
	</g>
	<g id="pause">
	</g>
	<g id="play">
	</g>
	<g id="circle-arrow">
	</g>
	<g id="module">
	</g>
	<g id="speedometer">
	</g>
	<g id="calendar">
	</g>
	<g id="data">
	</g>
	<g id="code-file">
		<path d="M1200,480c0.8,16.3-8.1,33-20.6,45.4l-297,297c-23.4,23.4-61.4,23.4-84.9,0v0c-23.4-23.4-23.4-61.4,0-84.9L1055.1,480
			L797.6,222.4c-23.4-23.4-23.4-61.4,0-84.9v0c23.4-23.4,61.4-23.4,84.9,0l297,297C1191.9,447,1200.8,463.7,1200,480z M522.4,137.6
			L522.4,137.6c-23.4-23.4-61.4-23.4-84.9,0l-297,297C128.1,447,119.2,463.7,120,480c-0.8,16.3,8.1,33,20.6,45.4l297,297
			c23.4,23.4,61.4,23.4,84.9,0l0,0c23.4-23.4,23.4-61.4,0-84.9L264.9,480l257.6-257.6C545.9,199,545.9,161,522.4,137.6z"/>
	</g>
	<g id="gear">
	</g>
	<g id="tint">
	</g>
	<g id="dribbble">
	</g>
</g>
<g id="row-3">
	<g id="globe">
	</g>
	<g id="github">
	</g>
	<g id="facebook">
	</g>
	<g id="twitter">
	</g>
	<g id="skype">
	</g>
	<g id="phone">
	</g>
	<g id="mail">
	</g>
	<g id="liferay-logo-2">
	</g>
	<g id="menu-content">
	</g>
	<g id="streams">
	</g>
	<g id="balloon-topic">
	</g>
	<g id="groups">
	</g>
</g>
<g id="row-2">
	<g id="persons">
	</g>
	<g id="house">
	</g>
	<g id="liferay-logo">
	</g>
	<g id="heart-full">
	</g>
	<g id="confirm">
	</g>
	<g id="send">
	</g>
	<g id="arrow-left-rod">
	</g>
	<g id="cancel_1_">
	</g>
	<g id="plus">
	</g>
	<g id="bullhorn">
	</g>
	<g id="link">
	</g>
</g>
<g id="row-1">
	<g id="pen">
	</g>
	<g id="bell">
	</g>
	<g id="magnifier">
	</g>
	<g id="menu">
	</g>
	<g id="ellipsis">
	</g>
	<g id="balloon-comment">
	</g>
	<g id="heart-fill">
	</g>
	<g id="heart">
	</g>
	<g id="camera">
	</g>
	<g id="blank">
	</g>
	<g id="star">
	</g>
</g>
<g id="guides">
</g>
</svg>
