<?xml version="1.0" encoding="utf-8"?>
<!-- Generator: Adobe Illustrator 20.0.0, SVG Export Plug-In . SVG Version: 6.00 Build 0)  -->
<svg version="1.1" id="icon-" xmlns="http://www.w3.org/2000/svg" xmlns:xlink="http://www.w3.org/1999/xlink" x="0px" y="0px"
	 viewBox="0 0 1080 960" enable-background="new 0 0 1080 960" xml:space="preserve">
<path id="code-file_1_" d="M400.3,753.8c12.3,15.4,19.7,34.9,19.7,56.2c0,49.7-40.3,90-90,90c-28.4,0-53.8-13.2-70.3-33.8l0,0
	c-112.4-140.6-127.6-159.4-240-300l0,0C7.4,550.8,0,531.3,0,510s7.4-40.8,19.7-56.2l0,0c112.4-140.6,127.6-159.4,240-300l0,0
	c16.5-20.6,41.8-33.8,70.3-33.8c49.7,0,90,40.3,90,90c0,21.3-7.4,40.8-19.7,56.2l0,0c-95.4,119.3-120.8,151-195,243.8
	C279.5,602.8,304.8,634.5,400.3,753.8L400.3,753.8z M679.7,753.8C667.4,769.2,660,788.7,660,810c0,49.7,40.3,90,90,90
	c28.4,0,53.8-13.2,70.3-33.8l0,0c112.4-140.6,127.6-159.4,240-300l0,0c12.3-15.4,19.7-34.9,19.7-56.2s-7.4-40.8-19.7-56.2l0,0
	c-112.4-140.6-127.6-159.4-240-300l0,0C803.8,133.2,778.4,120,750,120c-49.7,0-90,40.3-90,90c0,21.3,7.4,40.8,19.7,56.2l0,0
	c95.4,119.3,120.8,151,195,243.8C800.5,602.8,775.2,634.5,679.7,753.8L679.7,753.8z"/>
</svg>
