<?xml version="1.0" encoding="utf-8"?>
<!-- Generator: Adobe Illustrator 20.0.0, SVG Export Plug-In . SVG Version: 6.00 Build 0)  -->
<svg version="1.1" id="icon-" xmlns="http://www.w3.org/2000/svg" xmlns:xlink="http://www.w3.org/1999/xlink" x="0px" y="0px"
	 viewBox="0 0 1200 960" enable-background="new 0 0 1200 960" xml:space="preserve">
<path id="cup" d="M990,240c-27.6,0-54,5.4-78.2,15.1C833.9,175.1,669.8,120,480,120C214.9,120,0,227.5,0,360v60
	c0,265.1,214.9,480,480,480h0c184.9,0,345.3-104.5,425.5-257.7c25.9,11.4,54.4,17.7,84.5,17.7c116,0,210-94,210-210
	S1106,240,990,240z M480,480c-198.8,0-360-53.7-360-120s161.2-120,360-120s360,53.7,360,120S678.8,480,480,480z M990,540
	c-15.4,0-29.9-3.9-42.5-10.7c8.2-35.1,12.5-71.7,12.5-109.3v-54.9c9.4-3.3,19.5-5.1,30-5.1c49.7,0,90,40.3,90,90S1039.7,540,990,540
	z"/>
</svg>
