<?xml version="1.0" encoding="utf-8"?>
<!-- Generator: Adobe Illustrator 21.0.1, SVG Export Plug-In . SVG Version: 6.00 Build 0)  -->
<svg version="1.1" id="icon-" xmlns="http://www.w3.org/2000/svg" xmlns:xlink="http://www.w3.org/1999/xlink" x="0px" y="0px"
	 viewBox="0 0 900 960" style="enable-background:new 0 0 900 960;" xml:space="preserve">
<style type="text/css">
	.st0{fill-rule:evenodd;clip-rule:evenodd;}
	.st1{fill:#29ABE2;}
	.st2{fill-rule:evenodd;clip-rule:evenodd;fill:#181616;}
	.st3{fill:#FF0000;}
</style>
<path id="download_1_" d="M900,690c0,120,0,60,0,180c0,49.7-40.3,90-90,90c-180,0-540,0-720,0c-49.7,0-90-40.3-90-90
	c0-120,0-60,0-180c0-49.7,40.3-90,90-90s90,40.3,90,90c0,60,0,75,0,90c159,0,381,0,540,0c0-15,0-30,0-90c0-49.7,40.3-90,90-90
	S900,640.3,900,690z M386.4,693.6c16.3,16.3,38.8,26.4,63.6,26.4s47.4-10.1,63.6-26.4c120-120,120-120,240-240
	c16.3-16.3,26.4-38.8,26.4-63.6c0-49.7-40.3-90-90-90c-24.9,0-47.4,10.1-63.6,26.4C587.9,364.9,562,391,540,412.7
	c0-131.4,0-269,0-382.7c0-49.7-40.3-90-90-90s-90,40.3-90,90c0,113.7,0,251.4,0,382.7c-22-21.7-47.9-47.9-86.4-86.4
	C257.4,310.1,234.9,300,210,300c-49.7,0-90,40.3-90,90c0,24.9,10.1,47.4,26.4,63.6C266.4,573.6,266.4,573.6,386.4,693.6z"/>
</svg>
