<?xml version="1.0" encoding="utf-8"?>
<!-- Generator: Adobe Illustrator 19.2.1, SVG Export Plug-In . SVG Version: 6.00 Build 0)  -->
<svg version="1.1" xmlns="http://www.w3.org/2000/svg" xmlns:xlink="http://www.w3.org/1999/xlink" x="0px" y="0px"
	 viewBox="0 0 960 960" enable-background="new 0 0 960 960" xml:space="preserve">
<g id="row-7">
</g>
<g id="row-6">
</g>
<g id="row-5">
</g>
<g id="row-4">
	<g id="read-full_1_">
	</g>
	<g id="markdown">
	</g>
	<g id="info">
	</g>
	<g id="folder">
	</g>
	<g id="read-full_2_">
	</g>
	<g id="person">
	</g>
	<g id="eye">
	</g>
	<g id="clear">
	</g>
	<g id="arrow-right-rod">
	</g>
	<g id="contract">
	</g>
	<g id="expand">
	</g>
	<g id="speaker-off">
	</g>
	<g id="speaker-on">
	</g>
	<g id="pause">
	</g>
	<g id="play">
	</g>
</g>
<g id="row-3">
	<g id="circle-arrow">
	</g>
	<g id="speedometer">
	</g>
	<g id="calendar">
	</g>
	<g id="server">
	</g>
	<g id="code-file">
	</g>
	<g id="gear">
	</g>
	<g id="tint">
	</g>
	<g id="dribbble">
		<path d="M895.6,238.8C938.8,312.5,960,393.1,960,480c0,174.4-91.9,330-238.8,415.6C647.5,938.8,566.9,960,480,960
			c-174.4,0-330-91.9-415.6-239.4C21.2,647.5,0,566.9,0,480C0,305.6,91.9,150,239.4,64.4C312.5,21.2,393.1,0,480,0
			C654.4,0,810,91.9,895.6,238.8z M883.8,474.4l6.2,1.2c-1.2-96.9-32.5-181.9-93.1-256.2l-0.6,0.6c-3.8,5-7.5,10-11.9,15
			c-8.1,10.6-40,41.9-71.2,65.6s-87.5,58.1-145,81.2c10.6,21.9,19.4,41.9,27.5,59.4c1.9,5,6.2,16.9,8.8,21.2
			c30-4.4,63.1-5.6,92.5-5.6s58.1,1.2,83.1,3.1c25,2.5,47.5,5,65.6,7.5C863.1,470.6,875.6,472.5,883.8,474.4z M750.6,172.5
			C673.8,104.4,583.1,70,480,70c-31.9,0-63.8,3.8-96.9,11.9c54.4,70.6,105.6,150.6,153.8,238.8c57.5-21.9,111.9-53.8,141.9-76.2
			c29.4-22.5,58.1-52.5,64.4-61.2C746.2,178.8,748.8,175.6,750.6,172.5z M381.9,81.9c-0.6,0-0.6,0-1.2,0.6
			C381.2,81.9,381.2,81.9,381.9,81.9z M885,545c-87.5-25-172.5-31.2-255.6-18.1c36.2,99.4,63.1,197.5,80,293.1
			C801.9,757.5,866.9,658.1,885,545z M457.5,345.6c-50-88.8-100.6-167.5-152.5-236.2C190,163.8,105.6,270,78.8,395.6
			C204.4,395.6,330.6,378.8,457.5,345.6z M524.4,478.1c-8.8-20.6-20-43.8-33.1-69.4c-129.4,38.8-270,58.1-420.6,58.1
			C70,470,70,474.4,70,480c0,103.1,38.1,199.4,105,273.8c41.9-74.4,108.8-142.5,166.2-181.9s111.9-68.8,143.8-80.6l23.1-8.1
			C511.2,482.5,521.2,480,524.4,478.1z M640,857.5c-17.5-100.6-46.9-204.4-87.5-311.2h-1.2l-1.2,0.6c-6.9,2.5-15.6,5.6-26.9,10
			c-22.5,8.8-96.2,45.6-148.8,81.9s-116.9,100-146.2,164.4l-9.4-6.9C295.6,858.8,382.5,890,480,890C535,890,588.1,879.4,640,857.5z"
			/>
	</g>
	<g id="globe">
	</g>
	<g id="github">
	</g>
	<g id="facebook">
	</g>
	<g id="twitter">
	</g>
	<g id="skype">
	</g>
	<g id="phone">
	</g>
	<g id="mail">
	</g>
</g>
<g id="row-2">
	<g id="liferay-logo-2">
	</g>
	<g id="menu-content">
	</g>
	<g id="streams">
	</g>
	<g id="balloon-topic">
	</g>
	<g id="groups">
	</g>
	<g id="liferay-logo">
	</g>
	<g id="heart-full">
	</g>
	<g id="confirm">
	</g>
	<g id="send">
	</g>
	<g id="arrow-left-rod">
	</g>
	<g id="cancel_1_">
	</g>
	<g id="plus">
	</g>
</g>
<g id="row-1">
	<g id="bullhorn">
	</g>
	<g id="link">
	</g>
	<g id="pen">
	</g>
	<g id="bell">
	</g>
	<g id="magnifier">
	</g>
	<g id="menu">
	</g>
	<g id="ellipsis">
	</g>
	<g id="balloon-comment">
	</g>
	<g id="heart-inline">
	</g>
	<g id="heart">
	</g>
	<g id="camera">
	</g>
	<g id="lock">
	</g>
	<g id="star">
	</g>
</g>
<g id="guides">
</g>
</svg>
