<?xml version="1.0" encoding="utf-8"?>
<!-- Generator: Adobe Illustrator 18.1.1, SVG Export Plug-In . SVG Version: 6.00 Build 0)  -->
<svg version="1.1" xmlns="http://www.w3.org/2000/svg" xmlns:xlink="http://www.w3.org/1999/xlink" x="0px" y="0px"
	 viewBox="0 0 1200 960" enable-background="new 0 0 1200 960" xml:space="preserve">
<g id="row-6">
	<g id="mail_x5F_straight">
	</g>
	<g id="markdown">
	</g>
	<g id="info">
	</g>
	<g id="folder">
	</g>
	<g id="server">
	</g>
	<g id="speed-monitor">
	</g>
</g>
<g id="row-5">
	<g id="person-role">
	</g>
	<g id="lock">
	</g>
	<g id="list">
	</g>
	<g id="read-mail">
	</g>
	<g id="person">
	</g>
	<g id="eye">
	</g>
	<g id="clear">
	</g>
	<g id="arrow-right-rod">
	</g>
	<g id="contract">
	</g>
	<g id="expand">
	</g>
	<g id="speaker-off">
	</g>
</g>
<g id="row-4">
	<g id="speaker-on">
	</g>
	<g id="pause">
	</g>
	<g id="play">
	</g>
	<g id="circle-arrow">
	</g>
	<g id="module">
	</g>
	<g id="speedometer">
	</g>
	<g id="calendar">
	</g>
	<g id="data">
	</g>
	<g id="code-file">
	</g>
	<g id="gear">
	</g>
	<g id="tint">
	</g>
	<g id="dribbble">
		<path d="M1015.6,238.8c43.1,73.8,64.4,154.4,64.4,241.2c0,174.4-91.9,330-238.8,415.6C767.5,938.8,686.9,960,600,960
			c-174.4,0-330-91.9-415.6-239.4C141.2,647.5,120,566.9,120,480c0-174.4,91.9-330,239.4-415.6C432.5,21.2,513.1,0,600,0
			C774.4,0,930,91.9,1015.6,238.8z M1003.8,474.4l6.2,1.2c-1.2-96.9-32.5-181.9-93.1-256.2l-0.6,0.6c-3.8,5-7.5,10-11.9,15
			c-8.1,10.6-40,41.9-71.2,65.6s-87.5,58.1-145,81.2c10.6,21.9,19.4,41.9,27.5,59.4c1.9,5,6.2,16.9,8.8,21.2
			c30-4.4,63.1-5.6,92.5-5.6s58.1,1.2,83.1,3.1c25,2.5,47.5,5,65.6,7.5C983.1,470.6,995.6,472.5,1003.8,474.4z M870.6,172.5
			C793.8,104.4,703.1,70,600,70c-31.9,0-63.8,3.8-96.9,11.9c54.4,70.6,105.6,150.6,153.8,238.8c57.5-21.9,111.9-53.8,141.9-76.2
			c29.4-22.5,58.1-52.5,64.4-61.2C866.2,178.8,868.8,175.6,870.6,172.5z M501.9,81.9c-0.6,0-0.6,0-1.2,0.6
			C501.2,81.9,501.2,81.9,501.9,81.9z M1005,545c-87.5-25-172.5-31.2-255.6-18.1c36.2,99.4,63.1,197.5,80,293.1
			C921.9,757.5,986.9,658.1,1005,545z M577.5,345.6c-50-88.8-100.6-167.5-152.5-236.2C310,163.8,225.6,270,198.8,395.6
			C324.4,395.6,450.6,378.8,577.5,345.6z M644.4,478.1c-8.8-20.6-20-43.8-33.1-69.4c-129.4,38.8-270,58.1-420.6,58.1
			c-0.6,3.1-0.6,7.5-0.6,13.1c0,103.1,38.1,199.4,105,273.8c41.9-74.4,108.8-142.5,166.2-181.9s111.9-68.8,143.8-80.6l23.1-8.1
			C631.2,482.5,641.2,480,644.4,478.1z M760,857.5c-17.5-100.6-46.9-204.4-87.5-311.2h-1.2l-1.2,0.6c-6.9,2.5-15.6,5.6-26.9,10
			c-22.5,8.8-96.2,45.6-148.8,81.9s-116.9,100-146.2,164.4l-9.4-6.9C415.6,858.8,502.5,890,600,890C655,890,708.1,879.4,760,857.5z"
			/>
	</g>
</g>
<g id="row-3">
	<g id="globe">
	</g>
	<g id="github">
	</g>
	<g id="facebook">
	</g>
	<g id="twitter">
	</g>
	<g id="skype">
	</g>
	<g id="phone">
	</g>
	<g id="mail">
	</g>
	<g id="liferay-logo-2">
	</g>
	<g id="menu-content">
	</g>
	<g id="streams">
	</g>
	<g id="balloon-topic">
	</g>
	<g id="groups">
	</g>
</g>
<g id="row-2">
	<g id="persons">
	</g>
	<g id="house">
	</g>
	<g id="liferay-logo">
	</g>
	<g id="heart-full">
	</g>
	<g id="confirm">
	</g>
	<g id="send">
	</g>
	<g id="arrow-left-rod">
	</g>
	<g id="cancel_1_">
	</g>
	<g id="plus">
	</g>
	<g id="bullhorn">
	</g>
	<g id="link">
	</g>
</g>
<g id="row-1">
	<g id="pen">
	</g>
	<g id="bell">
	</g>
	<g id="magnifier">
	</g>
	<g id="menu">
	</g>
	<g id="ellipsis">
	</g>
	<g id="balloon-comment">
	</g>
	<g id="heart-fill">
	</g>
	<g id="heart">
	</g>
	<g id="camera">
	</g>
	<g id="blank">
	</g>
	<g id="star">
	</g>
</g>
<g id="guides">
</g>
</svg>
