<?xml version="1.0" encoding="utf-8"?>
<!-- Generator: Adobe Illustrator 20.0.0, SVG Export Plug-In . SVG Version: 6.00 Build 0)  -->
<svg version="1.1" id="icon-" xmlns="http://www.w3.org/2000/svg" xmlns:xlink="http://www.w3.org/1999/xlink" x="0px" y="0px"
	 viewBox="0 0 1320 960" enable-background="new 0 0 1320 960" xml:space="preserve">
<path id="ellipsis_1_" d="M360,420c0,99.4-80.6,180-180,180S0,519.4,0,420s80.6-180,180-180S360,320.6,360,420z M660,240
	c-99.4,0-180,80.6-180,180s80.6,180,180,180s180-80.6,180-180S759.4,240,660,240z M1140,240c-99.4,0-180,80.6-180,180
	s80.6,180,180,180s180-80.6,180-180S1239.4,240,1140,240z"/>
</svg>
