<?xml version="1.0" encoding="utf-8"?>
<!-- Generator: Adobe Illustrator 20.0.0, SVG Export Plug-In . SVG Version: 6.00 Build 0)  -->
<svg version="1.1" id="icon-" xmlns="http://www.w3.org/2000/svg" xmlns:xlink="http://www.w3.org/1999/xlink" x="0px" y="0px"
	 viewBox="0 0 840 960" enable-background="new 0 0 840 960" xml:space="preserve">
<path id="external" fill="#29ABE2" d="M720,540v300c0,33.1-26.9,60-60,60H60c-33.1,0-60-26.9-60-60V240c0-33.1,26.9-60,60-60h300
	c33.1,0,60,26.9,60,60v0c0,33.1-26.9,60-60,60H120v480h480V540c0-33.1,26.9-60,60-60h0C693.1,480,720,506.9,720,540z M840,60H540
	l107.6,107.6l-330,330c-23.4,23.4-23.4,61.4,0,84.9c11.7,11.7,27.1,17.6,42.4,17.6s30.7-5.9,42.4-17.6l330-330L840,360V60z"/>
</svg>
