<?xml version="1.0" encoding="utf-8"?>
<!-- Generator: Adobe Illustrator 18.1.1, SVG Export Plug-In . SVG Version: 6.00 Build 0)  -->
<svg version="1.1" xmlns="http://www.w3.org/2000/svg" xmlns:xlink="http://www.w3.org/1999/xlink" x="0px" y="0px"
	 viewBox="0 0 1680 960" enable-background="new 0 0 1680 960" xml:space="preserve">
<g id="dribbble">
</g>
<g id="globe">
</g>
<g id="github">
</g>
<g id="facebook">
</g>
<g id="twitter">
</g>
<g id="skype">
</g>
<g id="phone">
</g>
<g id="mail">
</g>
<g id="liferay-logo-2">
</g>
<g id="menu-content">
</g>
<g id="streams">
</g>
<g id="balloon-topic">
</g>
<g id="groups">
</g>
<g id="persons">
</g>
<g id="house">
</g>
<g id="liferay-logo">
</g>
<g id="eye">
	<path d="M840,0C442.4,0,120,480,120,480s322.4,480,720,480s720-480,720-480S1237.6,0,840,0z M750,240c49.7,0,90,40.3,90,90
		s-40.3,90-90,90s-90-40.3-90-90S700.3,240,750,240z M1227.2,587.6C1131.9,675.4,987.3,780,840,780c-145.3,0-287.9-102-381.9-187.6
		c-42.7-38.9-79.8-78.3-109.5-112.4c28.4-32.7,63.6-70.2,104.2-107.6c35.8-33,78.5-68.3,125.7-99.6C554,316.3,540,366.5,540,420
		c0,165.7,134.3,300,300,300s300-134.3,300-300c0-53.5-14-103.6-38.5-147.1c45.1,29.9,86,63.4,120.4,94.7
		c42.7,38.9,79.8,78.3,109.5,112.4C1302.9,512.7,1267.7,550.3,1227.2,587.6z"/>
</g>
<g id="confirm">
</g>
<g id="send">
</g>
<g id="back">
</g>
<g id="cancel_1_">
</g>
<g id="plus">
</g>
<g id="bullhorn">
</g>
<g id="link">
</g>
<g id="pen">
</g>
<g id="bell">
</g>
<g id="magnifier">
</g>
<g id="menu">
</g>
<g id="ellipsis">
</g>
<g id="balloon-comment">
</g>
<g id="heart-fill">
</g>
<g id="heart">
</g>
<g id="camera">
</g>
<g id="subscribe">
</g>
<g id="star">
</g>
<g id="guides">
</g>
</svg>
