<?xml version="1.0" encoding="utf-8"?>
<!-- Generator: Adobe Illustrator 19.2.1, SVG Export Plug-In . SVG Version: 6.00 Build 0)  -->
<svg version="1.1" xmlns="http://www.w3.org/2000/svg" xmlns:xlink="http://www.w3.org/1999/xlink" x="0px" y="0px"
	 viewBox="0 0 1080 960" enable-background="new 0 0 1080 960" xml:space="preserve">
<g id="row-7">
</g>
<g id="row-6">
</g>
<g id="row-5">
</g>
<g id="row-4">
	<g id="read-full_1_">
	</g>
	<g id="markdown">
	</g>
	<g id="info">
	</g>
	<g id="folder">
	</g>
	<g id="read-full_2_">
	</g>
	<g id="person">
	</g>
	<g id="eye">
		<path d="M540,720c-132.5,0-240-107.5-240-240s107.5-240,240-240s240,107.5,240,240S672.5,720,540,720z M785.7,863.6
			c66.7-22.4,123.9-55.2,169.9-97.5c42.2-38.8,74.5-85,95.9-137.2c19.3-47,29-97.1,29-148.7c0-51.6-9.9-101.7-29.5-149.1
			c-21.6-52.2-54-98.4-96.4-137.4c-46.1-42.4-103.3-75.3-169.9-97.8c-71.1-24-153.5-36.2-244.7-36.2c-91.3,0-173.5,12.2-244.6,36.2
			c-66.5,22.5-123.5,55.4-169.6,97.9c-42.3,39-74.6,85.2-96.1,137.4C10.4,378.5,0.5,428.6,0.5,480.2
			c0,193.5,141.3,419.5,539.5,419.5C631.8,899.7,714.5,887.5,785.7,863.6z M746.3,209.5c50.6,17.1,93.3,41.5,127.1,72.5
			c75.8,69.7,87.2,154.1,87.2,198.1c0,44.2-11.2,128.7-86.2,197.7c-33.5,30.8-76.2,55.1-126.8,72.1
			c-58.9,19.8-128.7,29.8-207.5,29.8c-78.8,0-148.6-10-207.3-29.8c-50.5-17-93-41.2-126.4-72c-74.6-68.9-85.8-153.4-85.8-197.7
			c0-44.2,11.3-128.6,86.7-198.2c33.6-31,76.2-55.4,126.7-72.4c58.6-19.8,128-29.9,206.1-29.9C618.2,179.6,687.6,189.7,746.3,209.5z
			"/>
	</g>
	<g id="clear">
	</g>
	<g id="arrow-right-rod">
	</g>
	<g id="contract">
	</g>
	<g id="expand">
	</g>
	<g id="speaker-off">
	</g>
	<g id="speaker-on">
	</g>
	<g id="pause">
	</g>
	<g id="play">
	</g>
</g>
<g id="row-3">
	<g id="circle-arrow">
	</g>
	<g id="speedometer">
	</g>
	<g id="calendar">
	</g>
	<g id="server">
	</g>
	<g id="code-file">
	</g>
	<g id="gear">
	</g>
	<g id="tint">
	</g>
	<g id="dribbble">
	</g>
	<g id="globe">
	</g>
	<g id="github">
	</g>
	<g id="facebook">
	</g>
	<g id="twitter">
	</g>
	<g id="skype">
	</g>
	<g id="phone">
	</g>
	<g id="mail">
	</g>
</g>
<g id="row-2">
	<g id="liferay-logo-2">
	</g>
	<g id="menu-content">
	</g>
	<g id="streams">
	</g>
	<g id="balloon-topic">
	</g>
	<g id="groups">
	</g>
	<g id="liferay-logo">
	</g>
	<g id="heart-full">
	</g>
	<g id="confirm">
	</g>
	<g id="send">
	</g>
	<g id="arrow-left-rod">
	</g>
	<g id="cancel_1_">
	</g>
	<g id="plus">
	</g>
</g>
<g id="row-1">
	<g id="bullhorn">
	</g>
	<g id="link">
	</g>
	<g id="pen">
	</g>
	<g id="bell">
	</g>
	<g id="magnifier">
	</g>
	<g id="menu">
	</g>
	<g id="ellipsis">
	</g>
	<g id="balloon-comment">
	</g>
	<g id="heart-inline">
	</g>
	<g id="heart">
	</g>
	<g id="camera">
	</g>
	<g id="lock">
	</g>
	<g id="star">
	</g>
</g>
<g id="guides">
</g>
</svg>
