<?xml version="1.0" encoding="utf-8"?>
<!-- Generator: Adobe Illustrator 19.2.1, SVG Export Plug-In . SVG Version: 6.00 Build 0)  -->
<svg version="1.1" xmlns="http://www.w3.org/2000/svg" xmlns:xlink="http://www.w3.org/1999/xlink" x="0px" y="0px"
	 viewBox="0 0 960 960" enable-background="new 0 0 960 960" xml:space="preserve">
<g id="row-7">
</g>
<g id="row-6">
	<path id="file-js" d="M900,300H720c0-24.1,0-44.5,0-60c0-16.6-6.7-31.6-17.6-42.4c-84.9-84.9-95.1-95.1-180-180
		C511.6,6.7,496.6,0,480,0C360,0,180,0,60,0C26.9,0,0,26.9,0,60c0,120,0,720,0,840c0,33.1,26.9,60,60,60c120,0,480,0,600,0
		c33.1,0,60-26.9,60-60c0-27,0-69.3,0-120h180c33.1,0,60-26.9,60-60V360C960,326.9,933.1,300,900,300z M600,840
		c-128.6,0-351.4,0-480,0c0-167.8,0-552.2,0-720c105.5,0,236,0,335.1,0c63.7,63.7,81.2,81.2,144.9,144.9c0,10.5,0,22.3,0,35.1H240
		c-33.1,0-60,26.9-60,60v360c0,33.1,26.9,60,60,60h360C600,801.7,600,821.9,600,840z M540,450c0,40,0,80,0,120c0,49.7-40.3,90-90,90
		s-90-40.3-90-90c0-16.6,13.4-30,30-30s30,13.4,30,30s13.4,30,30,30s30-13.4,30-30c0-10,0-20,0-30c0-30,0-60,0-90
		c0-16.6,13.4-30,30-30S540,433.4,540,450z M763.4,476.8C763.4,476.8,763.4,476.9,763.4,476.8c-0.2,0.1-0.4,0.2-0.5,0.2
		c-29.9,15-47.1,23.5-65.8,32.9c18.8,9.4,35.9,18,65.8,32.9c0.1,0.1,0.3,0.1,0.4,0.2c0,0,0.1,0,0.1,0l0,0
		c9.8,4.9,16.6,15.1,16.6,26.8s-6.8,21.9-16.6,26.8l0,0c0,0-0.1,0-0.1,0c-0.1,0.1-0.3,0.1-0.4,0.2c-53.2,26.6-66,33-119.5,59.8l0,0
		c-4,2-8.6,3.2-13.4,3.2c-16.6,0-30-13.4-30-30c0-11.7,6.8-21.9,16.6-26.8l0,0c0,0,0.1,0,0.1,0c0.1-0.1,0.3-0.1,0.4-0.2
		c29.9-15,47.1-23.5,65.8-32.9c-18.8-9.4-35.9-18-65.8-32.9c-0.1-0.1-0.3-0.1-0.4-0.2c0,0-0.1,0-0.1,0l0,0
		c-9.8-4.9-16.6-15.1-16.6-26.8s6.8-21.9,16.6-26.8l0,0c0,0,0.1,0,0.1,0c0.1-0.1,0.3-0.1,0.4-0.2c53.2-26.6,66-33,119.5-59.8l0,0
		c4-2,8.6-3.2,13.4-3.2c16.6,0,30,13.4,30,30C780,461.7,773.2,471.9,763.4,476.8L763.4,476.8z"/>
</g>
<g id="row-5">
</g>
<g id="row-4">
	<g id="read-full_1_">
	</g>
	<g id="markdown">
	</g>
	<g id="info">
	</g>
	<g id="folder">
	</g>
	<g id="read-full_2_">
	</g>
	<g id="person">
	</g>
	<g id="eye">
	</g>
	<g id="clear">
	</g>
	<g id="arrow-right-rod">
	</g>
	<g id="contract">
	</g>
	<g id="expand">
	</g>
	<g id="speaker-off">
	</g>
	<g id="speaker-on">
	</g>
	<g id="pause">
	</g>
	<g id="play">
	</g>
</g>
<g id="row-3">
	<g id="circle-arrow">
	</g>
	<g id="speedometer">
	</g>
	<g id="calendar">
	</g>
	<g id="server">
	</g>
	<g id="code-file">
	</g>
	<g id="gear">
	</g>
	<g id="tint">
	</g>
	<g id="dribbble">
	</g>
	<g id="globe">
	</g>
	<g id="github">
	</g>
	<g id="facebook">
	</g>
	<g id="twitter">
	</g>
	<g id="skype">
	</g>
	<g id="phone">
	</g>
	<g id="mail">
	</g>
</g>
<g id="row-2">
	<g id="liferay-logo-2">
	</g>
	<g id="menu-content">
	</g>
	<g id="streams">
	</g>
	<g id="balloon-topic">
	</g>
	<g id="groups">
	</g>
	<g id="liferay-logo">
	</g>
	<g id="heart-full">
	</g>
	<g id="confirm">
	</g>
	<g id="send">
	</g>
	<g id="arrow-left-rod">
	</g>
	<g id="cancel_1_">
	</g>
	<g id="plus">
	</g>
</g>
<g id="row-1">
	<g id="bullhorn">
	</g>
	<g id="link">
	</g>
	<g id="pen">
	</g>
	<g id="bell">
	</g>
	<g id="magnifier">
	</g>
	<g id="menu">
	</g>
	<g id="ellipsis">
	</g>
	<g id="balloon-comment">
	</g>
	<g id="heart-inline">
	</g>
	<g id="heart">
	</g>
	<g id="camera">
	</g>
	<g id="lock">
	</g>
	<g id="star">
	</g>
</g>
<g id="guides">
</g>
</svg>
