<?xml version="1.0" encoding="utf-8"?>
<!-- Generator: Adobe Illustrator 19.2.1, SVG Export Plug-In . SVG Version: 6.00 Build 0)  -->
<svg version="1.1" xmlns="http://www.w3.org/2000/svg" xmlns:xlink="http://www.w3.org/1999/xlink" x="0px" y="0px"
	 viewBox="0 0 960 960" enable-background="new 0 0 960 960" xml:space="preserve">
<g id="row-7">
</g>
<g id="row-6">
	<path id="file-zip_1_" d="M900,300H720c0-24.1,0-44.5,0-60c0-16.6-6.7-31.6-17.6-42.4c-84.9-84.9-95.1-95.1-180-180
		C511.6,6.7,496.6,0,480,0C360,0,180,0,60,0C26.9,0,0,26.9,0,60c0,120,0,720,0,840c0,33.1,26.9,60,60,60c120,0,480,0,600,0
		c33.1,0,60-26.9,60-60c0-27,0-69.3,0-120h180c33.1,0,60-26.9,60-60V360C960,326.9,933.1,300,900,300z M600,630
		c0,16.6-13.4,30-30,30s-30-13.4-30-30V450c0-16.6,13.4-30,30-30s30,13.4,30,30V630z M600,300H240c-33.1,0-60,26.9-60,60v360
		c0,33.1,26.9,60,60,60h360c0,21.7,0,41.9,0,60c-128.6,0-351.4,0-480,0c0-167.8,0-552.2,0-720c105.5,0,236,0,335.1,0
		c63.7,63.7,81.2,81.2,144.9,144.9C600,275.4,600,287.2,600,300z M450,600c16.6,0,30,13.4,30,30s-13.4,30-30,30c-60,0-60,0-120,0
		c-16.6,0-30-13.4-30-30c0-6.2,1.9-11.9,5-16.6v0c0,0,0,0,0,0c0-0.1,0.1-0.1,0.1-0.2c24.2-36.2,58.8-88.3,88.8-133.2
		c-16.4,0-31.3,0-63.9,0c-16.6,0-30-13.4-30-30s13.4-30,30-30c60,0,60,0,120,0c16.6,0,30,13.4,30,30c0,6.2-1.9,11.9-5,16.6v0
		c0,0,0,0,0,0c0,0.1-0.1,0.1-0.1,0.2c-24.2,36.2-58.8,88.3-88.8,133.2C402.5,600,417.4,600,450,600z M840,510c0,49.7-40.3,90-90,90
		h-30v30c0,16.6-13.4,30-30,30s-30-13.4-30-30V450c0-16.6,13.4-30,30-30h60C799.7,420,840,460.3,840,510L840,510z M780,510
		c0,16.6-13.4,30-30,30h-30v-60h30C766.6,480,780,493.4,780,510z"/>
</g>
<g id="row-5">
</g>
<g id="row-4">
	<g id="read-full_1_">
	</g>
	<g id="markdown">
	</g>
	<g id="info">
	</g>
	<g id="folder">
	</g>
	<g id="read-full_2_">
	</g>
	<g id="person">
	</g>
	<g id="eye">
	</g>
	<g id="clear">
	</g>
	<g id="arrow-right-rod">
	</g>
	<g id="contract">
	</g>
	<g id="expand">
	</g>
	<g id="speaker-off">
	</g>
	<g id="speaker-on">
	</g>
	<g id="pause">
	</g>
	<g id="play">
	</g>
</g>
<g id="row-3">
	<g id="circle-arrow">
	</g>
	<g id="speedometer">
	</g>
	<g id="calendar">
	</g>
	<g id="server">
	</g>
	<g id="code-file">
	</g>
	<g id="gear">
	</g>
	<g id="tint">
	</g>
	<g id="dribbble">
	</g>
	<g id="globe">
	</g>
	<g id="github">
	</g>
	<g id="facebook">
	</g>
	<g id="twitter">
	</g>
	<g id="skype">
	</g>
	<g id="phone">
	</g>
	<g id="mail">
	</g>
</g>
<g id="row-2">
	<g id="liferay-logo-2">
	</g>
	<g id="menu-content">
	</g>
	<g id="streams">
	</g>
	<g id="balloon-topic">
	</g>
	<g id="groups">
	</g>
	<g id="liferay-logo">
	</g>
	<g id="heart-full">
	</g>
	<g id="confirm">
	</g>
	<g id="send">
	</g>
	<g id="arrow-left-rod">
	</g>
	<g id="cancel_1_">
	</g>
	<g id="plus">
	</g>
</g>
<g id="row-1">
	<g id="bullhorn">
	</g>
	<g id="link">
	</g>
	<g id="pen">
	</g>
	<g id="bell">
	</g>
	<g id="magnifier">
	</g>
	<g id="menu">
	</g>
	<g id="ellipsis">
	</g>
	<g id="balloon-comment">
	</g>
	<g id="heart-inline">
	</g>
	<g id="heart">
	</g>
	<g id="camera">
	</g>
	<g id="lock">
	</g>
	<g id="star">
	</g>
</g>
<g id="guides">
</g>
</svg>
