<?xml version="1.0" encoding="utf-8"?>
<!-- Generator: Adobe Illustrator 18.1.1, SVG Export Plug-In . SVG Version: 6.00 Build 0)  -->
<svg version="1.1" xmlns="http://www.w3.org/2000/svg" xmlns:xlink="http://www.w3.org/1999/xlink" x="0px" y="0px"
	 viewBox="0 0 960 960" enable-background="new 0 0 960 960" xml:space="preserve">
<g id="row-6">
	<path id="file-zip" d="M780,510c0,16.6-13.4,30-30,30c-15,0-22.5,0-30,0c0-20,0-40,0-60c7.5,0,15,0,30,0
		C766.6,480,780,493.4,780,510z M960,360v360c0,33.1-26.9,60-60,60H721c0,51.1,0,93.8,0,121c0,33.1-26.9,60-60,60
		c-120,0-481,0-601,0c-33.1,0-60-26.9-60-60C0,781,0,180,0,60C0,26.9,26.9,0,60,0c120,0,300,0,420,0c16.6,0,31.6,6.7,42.4,17.6
		c84.9,84.9,96.1,96.1,181,181c10.9,10.9,17.6,25.9,17.6,42.4c0,15.2,0,35.3,0,59h179C933.1,300,960,326.9,960,360z M601,265.9
		c-63.8-63.8-82-82-145.9-145.9c-99.1,0-229.6,0-335.1,0c0,168,0,553,0,721c128.8,0,352.2,0,481,0c0-18.4,0-38.9,0-61H240
		c-33.1,0-60-26.9-60-60V360c0-33.1,26.9-60,60-60h361C601,287.6,601,276.1,601,265.9z M570,420c-16.6,0-30,13.4-30,30v180
		c0,16.6,13.4,30,30,30s30-13.4,30-30V450C600,433.4,586.6,420,570,420z M386.1,600c29.9-44.9,64.6-96.9,88.8-133.2
		c0-0.1,0.1-0.1,0.1-0.2c0,0,0,0,0,0v0c3.2-4.8,5-10.5,5-16.6c0-16.6-13.4-30-30-30c-60,0-60,0-120,0c-16.6,0-30,13.4-30,30
		s13.4,30,30,30c32.6,0,47.5,0,63.9,0c-29.9,44.9-64.6,96.9-88.8,133.2c0,0.1-0.1,0.1-0.1,0.2c0,0,0,0,0,0v0c-3.2,4.8-5,10.5-5,16.6
		c0,16.6,13.4,30,30,30c60,0,60,0,120,0c16.6,0,30-13.4,30-30s-13.4-30-30-30C417.4,600,402.5,600,386.1,600z M840,510
		c0-49.7-40.3-90-90-90c-30,0-30,0-60,0c-16.6,0-30,13.4-30,30c0,60,0,120,0,180c0,16.6,13.4,30,30,30s30-13.4,30-30c0-10,0-20,0-30
		c7.5,0,15,0,30,0C799.7,600,840,559.7,840,510z"/>
</g>
<g id="row-5">
</g>
<g id="row-4">
	<g id="markdown">
	</g>
	<g id="mail_x5F_straight">
	</g>
	<g id="info">
	</g>
	<g id="folder">
	</g>
	<g id="read-mail">
	</g>
	<g id="person">
	</g>
	<g id="eye">
	</g>
	<g id="clear">
	</g>
	<g id="arrow-right-rod">
	</g>
	<g id="contract">
	</g>
	<g id="expand">
	</g>
	<g id="speaker-off">
	</g>
	<g id="speaker-on">
	</g>
	<g id="pause">
	</g>
	<g id="play">
	</g>
</g>
<g id="row-3">
	<g id="circle-arrow">
	</g>
	<g id="module">
	</g>
	<g id="speedometer">
	</g>
	<g id="calendar">
	</g>
	<g id="data">
	</g>
	<g id="code-file">
	</g>
	<g id="gear">
	</g>
	<g id="tint">
	</g>
	<g id="dribbble">
	</g>
	<g id="globe">
	</g>
	<g id="github">
	</g>
	<g id="facebook">
	</g>
	<g id="twitter">
	</g>
	<g id="skype">
	</g>
	<g id="phone">
	</g>
	<g id="mail">
	</g>
</g>
<g id="row-2">
	<g id="liferay-logo-2">
	</g>
	<g id="menu-content">
	</g>
	<g id="streams">
	</g>
	<g id="balloon-topic">
	</g>
	<g id="groups">
	</g>
	<g id="persons">
	</g>
	<g id="house">
	</g>
	<g id="liferay-logo">
	</g>
	<g id="heart-full">
	</g>
	<g id="confirm">
	</g>
	<g id="send">
	</g>
	<g id="arrow-left-rod">
	</g>
	<g id="cancel_1_">
	</g>
	<g id="plus">
	</g>
</g>
<g id="row-1">
	<g id="bullhorn">
	</g>
	<g id="link">
	</g>
	<g id="pen">
	</g>
	<g id="bell">
	</g>
	<g id="magnifier">
	</g>
	<g id="menu">
	</g>
	<g id="ellipsis">
	</g>
	<g id="balloon-comment">
	</g>
	<g id="heart-inline">
	</g>
	<g id="heart">
	</g>
	<g id="camera">
	</g>
	<g id="blank">
	</g>
	<g id="star">
	</g>
</g>
<g id="guides">
</g>
</svg>
