<?xml version="1.0" encoding="utf-8"?>
<!-- Generator: Adobe Illustrator 21.0.1, SVG Export Plug-In . SVG Version: 6.00 Build 0)  -->
<svg version="1.1" id="icon-" xmlns="http://www.w3.org/2000/svg" xmlns:xlink="http://www.w3.org/1999/xlink" x="0px" y="0px"
	 viewBox="0 0 1080 960" style="enable-background:new 0 0 1080 960;" xml:space="preserve">
<style type="text/css">
	.st0{fill-rule:evenodd;clip-rule:evenodd;}
	.st1{fill:#29ABE2;}
	.st2{fill-rule:evenodd;clip-rule:evenodd;fill:#181616;}
	.st3{fill:#FF0000;}
</style>
<path id="filter" d="M1080,150c0,49.7-40.3,90-90,90c-180,0-720,0-900,0c-49.7,0-90-40.3-90-90s40.3-90,90-90c180,0,720,0,900,0
	C1039.7,60,1080,100.3,1080,150z M870,360c-180,0-480,0-660,0c-49.7,0-90,40.3-90,90s40.3,90,90,90c180,0,480,0,660,0
	c49.7,0,90-40.3,90-90S919.7,360,870,360z M750,660c-150,0-270,0-420,0c-49.7,0-90,40.3-90,90s40.3,90,90,90c150,0,270,0,420,0
	c49.7,0,90-40.3,90-90S799.7,660,750,660z"/>
</svg>
