<?xml version="1.0" encoding="utf-8"?>
<!-- Generator: Adobe Illustrator 20.0.0, SVG Export Plug-In . SVG Version: 6.00 Build 0)  -->
<svg version="1.1" id="icon-" xmlns="http://www.w3.org/2000/svg" xmlns:xlink="http://www.w3.org/1999/xlink" x="0px" y="0px"
	 viewBox="0 0 960 960" enable-background="new 0 0 960 960" xml:space="preserve">
<path id="fork" d="M960,210C960,94,866,0,750,0S540,94,540,210c0,74.6,38.9,140,97.4,177.3C606.7,442.6,547.7,480,480,480
	c-48.5,0-95.7,9.5-140.2,28.4c-13.7,5.8-27,12.4-39.8,19.8V279.8c70.9-33.7,120-106,120-189.8c0-116-94-210-210-210S0-26,0,90
	c0,83.8,49.1,156.1,120,189.8v400.4C49.1,713.9,0,786.2,0,870c0,116,94,210,210,210s210-94,210-210c0-61.7-26.6-117.1-68.9-155.6
	C383.8,680.9,429.4,660,480,660c48.5,0,95.7-9.5,140.2-28.4c42.9-18.1,81.4-44.1,114.4-77.1c33-33,58.9-71.5,77.1-114.4
	c4.7-11,8.8-22.2,12.3-33.6C903.4,376.7,960,300,960,210z M210,0c49.7,0,90,40.3,90,90s-40.3,90-90,90s-90-40.3-90-90S160.3,0,210,0
	z M210,960c-49.7,0-90-40.3-90-90s40.3-90,90-90s90,40.3,90,90S259.7,960,210,960z M750,300c-49.7,0-90-40.3-90-90s40.3-90,90-90
	s90,40.3,90,90S799.7,300,750,300z"/>
</svg>
