<?xml version="1.0" encoding="utf-8"?>
<!-- Generator: Adobe Illustrator 18.1.1, SVG Export Plug-In . SVG Version: 6.00 Build 0)  -->
<svg version="1.1" xmlns="http://www.w3.org/2000/svg" xmlns:xlink="http://www.w3.org/1999/xlink" x="0px" y="0px"
	 viewBox="0 0 1200 960" enable-background="new 0 0 1200 960" xml:space="preserve">
<g id="row-6">
	<g id="mail_x5F_straight">
	</g>
	<g id="markdown">
	</g>
	<g id="info">
	</g>
	<g id="folder">
	</g>
	<g id="server">
	</g>
	<g id="speed-monitor">
	</g>
</g>
<g id="row-5">
	<g id="person-role">
	</g>
	<g id="lock">
	</g>
	<g id="list">
	</g>
	<g id="read-mail">
	</g>
	<g id="person">
	</g>
	<g id="eye">
	</g>
	<g id="clear">
	</g>
	<g id="arrow-right-rod">
	</g>
	<g id="contract">
	</g>
	<g id="expand">
	</g>
	<g id="speaker-off">
	</g>
</g>
<g id="row-4">
	<g id="speaker-on">
	</g>
	<g id="pause">
	</g>
	<g id="play">
	</g>
	<g id="circle-arrow">
	</g>
	<g id="module">
	</g>
	<g id="speedometer">
	</g>
	<g id="calendar">
	</g>
	<g id="data">
	</g>
	<g id="code-file">
	</g>
	<g id="gear">
		<path d="M1021.2,408.2l-138-27.6c-3.7-10.5-7.9-20.7-12.7-30.6l78.1-117.1c18.3-27.5,14.2-69-9.1-92.3
			c-23.3-23.3-64.9-27.4-92.3-9.1l-117.1,78.1c-9.9-4.8-20.1-9-30.6-12.7l-27.6-138C665.3,26.5,633,0,600,0s-65.3,26.5-71.8,58.8
			l-27.6,138c-10.5,3.7-20.7,7.9-30.6,12.7l-117.1-78.1c-27.5-18.3-69-14.2-92.3,9.1c-23.3,23.3-27.4,64.9-9.1,92.3l78.1,117.1
			c-4.8,9.9-9,20.1-12.7,30.6l-138,27.6C146.5,414.7,120,447,120,480s26.5,65.3,58.8,71.8l138,27.6c3.7,10.5,7.9,20.7,12.7,30.6
			l-78.1,117.1c-18.3,27.5-14.2,69,9.1,92.3c23.3,23.3,64.9,27.4,92.3,9.1l117.1-78.1c9.9,4.8,20.1,9,30.6,12.7l27.6,138
			C534.7,933.5,567,960,600,960s65.3-26.5,71.8-58.8l27.6-138c10.5-3.7,20.7-7.9,30.6-12.7l117.1,78.1c27.5,18.3,69,14.2,92.3-9.1
			c23.3-23.3,27.4-64.9,9.1-92.3l-78.1-117.1c4.8-9.9,9-20.1,12.7-30.6l138-27.6c32.4-6.5,58.8-38.8,58.8-71.8
			S1053.5,414.7,1021.2,408.2z M720,480c0,66.3-53.7,120-120,120s-120-53.7-120-120s53.7-120,120-120S720,413.7,720,480z"/>
	</g>
	<g id="tint">
	</g>
	<g id="dribbble">
	</g>
</g>
<g id="row-3">
	<g id="globe">
	</g>
	<g id="github">
	</g>
	<g id="facebook">
	</g>
	<g id="twitter">
	</g>
	<g id="skype">
	</g>
	<g id="phone">
	</g>
	<g id="mail">
	</g>
	<g id="liferay-logo-2">
	</g>
	<g id="menu-content">
	</g>
	<g id="streams">
	</g>
	<g id="balloon-topic">
	</g>
	<g id="groups">
	</g>
</g>
<g id="row-2">
	<g id="persons">
	</g>
	<g id="house">
	</g>
	<g id="liferay-logo">
	</g>
	<g id="heart-full">
	</g>
	<g id="confirm">
	</g>
	<g id="send">
	</g>
	<g id="arrow-left-rod">
	</g>
	<g id="cancel_1_">
	</g>
	<g id="plus">
	</g>
	<g id="bullhorn">
	</g>
	<g id="link">
	</g>
</g>
<g id="row-1">
	<g id="pen">
	</g>
	<g id="bell">
	</g>
	<g id="magnifier">
	</g>
	<g id="menu">
	</g>
	<g id="ellipsis">
	</g>
	<g id="balloon-comment">
	</g>
	<g id="heart-fill">
	</g>
	<g id="heart">
	</g>
	<g id="camera">
	</g>
	<g id="blank">
	</g>
	<g id="star">
	</g>
</g>
<g id="guides">
</g>
</svg>
