<?xml version="1.0" encoding="utf-8"?>
<!-- Generator: Adobe Illustrator 20.0.0, SVG Export Plug-In . SVG Version: 6.00 Build 0)  -->
<svg version="1.1" id="icon-" xmlns="http://www.w3.org/2000/svg" xmlns:xlink="http://www.w3.org/1999/xlink" x="0px" y="0px"
	 viewBox="0 0 960 960" enable-background="new 0 0 960 960" xml:space="preserve">
<path id="gear_1_" fill="#29ABE2" d="M901.2,408.2l-138-27.6c-3.7-10.5-7.9-20.7-12.7-30.6l78.1-117.1c18.3-27.5,14.2-69-9.1-92.3
	c-23.3-23.3-64.9-27.4-92.3-9.1l-117.1,78.1c-9.9-4.8-20.1-9-30.6-12.7l-27.6-138C545.3,26.5,513,0,480,0s-65.3,26.5-71.8,58.8
	l-27.6,138c-10.5,3.7-20.7,7.9-30.6,12.7l-117.1-78.1c-27.5-18.3-69-14.2-92.3,9.1c-23.3,23.3-27.4,64.9-9.1,92.3l78.1,117.1
	c-4.8,9.9-9,20.1-12.7,30.6l-138,27.6C26.5,414.7,0,447,0,480s26.5,65.3,58.8,71.8l138,27.6c3.7,10.5,7.9,20.7,12.7,30.6
	l-78.1,117.1c-18.3,27.5-14.2,69,9.1,92.3c23.3,23.3,64.9,27.4,92.3,9.1l117.1-78.1c9.9,4.8,20.1,9,30.6,12.7l27.6,138
	C414.7,933.5,447,960,480,960s65.3-26.5,71.8-58.8l27.6-138c10.5-3.7,20.7-7.9,30.6-12.7l117.1,78.1c27.5,18.3,69,14.2,92.3-9.1
	c23.3-23.3,27.4-64.9,9.1-92.3l-78.1-117.1c4.8-9.9,9-20.1,12.7-30.6l138-27.6C933.5,545.3,960,513,960,480S933.5,414.7,901.2,408.2
	z M600,480c0,66.3-53.7,120-120,120s-120-53.7-120-120s53.7-120,120-120S600,413.7,600,480z"/>
</svg>
