<?xml version="1.0" encoding="utf-8"?>
<!-- Generator: Adobe Illustrator 18.1.1, SVG Export Plug-In . SVG Version: 6.00 Build 0)  -->
<svg version="1.1" xmlns="http://www.w3.org/2000/svg" xmlns:xlink="http://www.w3.org/1999/xlink" x="0px" y="0px"
	 viewBox="0 0 960 960" enable-background="new 0 0 960 960" xml:space="preserve">
<g id="row-5">
</g>
<g id="row-4">
	<g id="markdown">
	</g>
	<g id="mail_x5F_straight">
	</g>
	<g id="info">
	</g>
	<g id="folder">
	</g>
	<g id="read-mail">
	</g>
	<g id="person">
	</g>
	<g id="eye">
	</g>
	<g id="clear">
	</g>
	<g id="arrow-right-rod">
	</g>
	<g id="contract">
	</g>
	<g id="expand">
	</g>
	<g id="speaker-off">
	</g>
	<g id="speaker-on">
	</g>
	<g id="pause">
	</g>
	<g id="play">
	</g>
</g>
<g id="row-3">
	<g id="circle-arrow">
	</g>
	<g id="module">
	</g>
	<g id="speedometer">
	</g>
	<g id="calendar">
	</g>
	<g id="data">
	</g>
	<g id="code-file">
	</g>
	<g id="gear">
	</g>
	<g id="tint">
	</g>
	<g id="dribbble">
	</g>
	<g id="globe">
	</g>
	<g id="github">
		<path d="M362.3,624.4c4.6,15.5,6.9,30.5,6.9,45.4c0,29.4-8.7,62.6-31.7,87.5c-12.1,12.7-25.9,18.8-42.1,18.8
			c-32.3,0-57.1-29.9-66.3-60.9c-5.2-15.5-7.5-30.5-7.5-45.4c0-29.4,8.7-62.6,32.3-87.5c11.5-12.7,25.4-18.8,41.5-18.8
			C327.7,563.5,352.5,593.4,362.3,624.4z M731.5,624.4c4.6,15.5,6.9,30.5,6.9,45.4c0,29.4-8.7,62.6-31.7,87.5
			c-12.1,12.7-26,18.8-42.1,18.8c-32.3,0-57.1-29.9-66.3-60.9c-5.2-15.5-7.5-30.5-7.5-45.4c0-29.4,8.7-62.6,32.3-87.5
			c11.5-12.7,25.4-18.8,41.5-18.8C696.9,563.5,721.7,593.4,731.5,624.4z M830.8,669.8c0-88.6-57.1-159.5-147.7-159.5
			c-15.6,0-53.1,3.9-112.5,11.6c-27.1,3.9-57.7,6.1-90.6,6.1s-63.5-2.2-90.6-6.1c-58.3-7.8-95.8-11.6-112.5-11.6
			c-90.6,0-147.7,70.9-147.7,159.5c0,64.8,27.7,114.1,65.2,141.8c37.5,27.7,99.8,44.9,151.2,49.9c26,2.8,54.2,3.9,86,3.9h96.9
			c62.9,0,110.8-3.9,166.7-20.5c56-16.6,92.3-41.5,117.1-90.3C824.4,730.8,830.8,702.5,830.8,669.8z M960,572.3
			c0,76.4-11.5,137.4-35.2,183.4c-29.4,57.1-85.4,99.2-141.9,121.3c-56.5,22.2-139.6,34.9-197.3,38.2c-28.8,1.7-61.2,2.8-96.3,2.8
			c-60,0-102.7-1.7-166.7-8.9c-64.6-6.6-114.8-22.2-167.3-44.9c-52.5-22.7-94-60.4-119.4-108.6C12.1,710.3,0,649.3,0,572.3
			c0-87.5,26-160.7,78.5-219.4c-10.4-30.5-15.6-61.5-15.6-94.2c0-42.7,9.8-83.1,29.4-120.8c83.1,0,136.2,28.3,218.7,90.3
			c56.5-12.7,116-19.4,178.3-19.4c57.1,0,110.8,6.1,161.5,17.7c80.8-60.4,134.4-88.6,216.9-88.6c19.6,37.7,29.4,78.1,29.4,120.8
			c0,32.1-5.2,63.2-15.6,93.1C934,411.1,960,484.2,960,572.3z"/>
	</g>
	<g id="facebook">
	</g>
	<g id="twitter">
	</g>
	<g id="skype">
	</g>
	<g id="phone">
	</g>
	<g id="mail">
	</g>
</g>
<g id="row-2">
	<g id="liferay-logo-2">
	</g>
	<g id="menu-content">
	</g>
	<g id="streams">
	</g>
	<g id="balloon-topic">
	</g>
	<g id="groups">
	</g>
	<g id="persons">
	</g>
	<g id="house">
	</g>
	<g id="liferay-logo">
	</g>
	<g id="heart-full">
	</g>
	<g id="confirm">
	</g>
	<g id="send">
	</g>
	<g id="arrow-left-rod">
	</g>
	<g id="cancel_1_">
	</g>
	<g id="plus">
	</g>
</g>
<g id="row-1">
	<g id="bullhorn">
	</g>
	<g id="link">
	</g>
	<g id="pen">
	</g>
	<g id="bell">
	</g>
	<g id="magnifier">
	</g>
	<g id="menu">
	</g>
	<g id="ellipsis">
	</g>
	<g id="balloon-comment">
	</g>
	<g id="heart-fill">
	</g>
	<g id="heart">
	</g>
	<g id="camera">
	</g>
	<g id="blank">
	</g>
	<g id="star">
	</g>
</g>
<g id="guides">
</g>
</svg>
