<?xml version="1.0" encoding="utf-8"?>
<!-- Generator: Adobe Illustrator 19.2.1, SVG Export Plug-In . SVG Version: 6.00 Build 0)  -->
<svg version="1.1" xmlns="http://www.w3.org/2000/svg" xmlns:xlink="http://www.w3.org/1999/xlink" x="0px" y="0px"
	 viewBox="0 0 960 960" enable-background="new 0 0 960 960" xml:space="preserve">
<g id="row-7">
</g>
<g id="row-6">
</g>
<g id="row-5">
</g>
<g id="row-4">
	<g id="read-full_1_">
	</g>
	<g id="markdown">
	</g>
	<g id="info">
	</g>
	<g id="folder">
	</g>
	<g id="read-full_2_">
	</g>
	<g id="person">
	</g>
	<g id="eye">
	</g>
	<g id="clear">
	</g>
	<g id="arrow-right-rod">
	</g>
	<g id="contract">
	</g>
	<g id="expand">
	</g>
	<g id="speaker-off">
	</g>
	<g id="speaker-on">
	</g>
	<g id="pause">
	</g>
	<g id="play">
	</g>
</g>
<g id="row-3">
	<g id="circle-arrow">
	</g>
	<g id="speedometer">
	</g>
	<g id="calendar">
	</g>
	<g id="server">
	</g>
	<g id="code-file">
	</g>
	<g id="gear">
	</g>
	<g id="tint">
	</g>
	<g id="dribbble">
	</g>
	<g id="globe">
		<path fill-rule="evenodd" clip-rule="evenodd" d="M480,0C214.9,0,0,214.9,0,480s214.9,480,480,480s480-214.9,480-480
			S745.1,0,480,0z M811.8,620.1c-18.1,42.9-44.1,81.4-77.2,114.5c-33.1,33.1-71.6,59.1-114.5,77.2c-6.6,2.8-13.3,5.4-20.1,7.8V719
			c33.1,0,60-26.9,60-60v-60c33.1,0,60-26.9,60-60s-26.9-60-60-60h-60c-33.1,0-60,26.9-60,60H420v-60h-60v60c0,33.1,26.9,60,60,60
			v60c0,33.1,26.9,60,60,60v120h27.2c-9,0.7-18.1,1-27.2,1c-48.7,0-95.8-9.5-140.1-28.2c-42.9-18.1-81.4-44.1-114.5-77.2
			c-33.1-33.1-59.1-71.6-77.2-114.5C129.5,575.8,120,528.7,120,480c0-0.3,0-0.7,0-1h240c33.1,0,60-26.9,60-60v-60h60
			c33.1,0,60-26.9,60-60s-26.9-60-60-60h-30c16.6,0,30-13.4,30-30s-13.4-30-30-30h-30c0-20.2-10-38-25.2-48.9
			C422.5,123.4,451,120,480,120c48.7,0,95.8,9.5,140.1,28.2c42.9,18.1,81.4,44.1,114.5,77.2c33.1,33.1,59.1,71.6,77.2,114.5
			C830.5,384.2,840,431.3,840,480S830.5,575.8,811.8,620.1z"/>
	</g>
	<g id="github">
	</g>
	<g id="facebook">
	</g>
	<g id="twitter">
	</g>
	<g id="skype">
	</g>
	<g id="phone">
	</g>
	<g id="mail">
	</g>
</g>
<g id="row-2">
	<g id="liferay-logo-2">
	</g>
	<g id="menu-content">
	</g>
	<g id="streams">
	</g>
	<g id="balloon-topic">
	</g>
	<g id="groups">
	</g>
	<g id="liferay-logo">
	</g>
	<g id="heart-full">
	</g>
	<g id="confirm">
	</g>
	<g id="send">
	</g>
	<g id="arrow-left-rod">
	</g>
	<g id="cancel_1_">
	</g>
	<g id="plus">
	</g>
</g>
<g id="row-1">
	<g id="bullhorn">
	</g>
	<g id="link">
	</g>
	<g id="pen">
	</g>
	<g id="bell">
	</g>
	<g id="magnifier">
	</g>
	<g id="menu">
	</g>
	<g id="ellipsis">
	</g>
	<g id="balloon-comment">
	</g>
	<g id="heart-inline">
	</g>
	<g id="heart">
	</g>
	<g id="camera">
	</g>
	<g id="lock">
	</g>
	<g id="star">
	</g>
</g>
<g id="guides">
</g>
</svg>
