<?xml version="1.0" encoding="utf-8"?>
<!-- Generator: Adobe Illustrator 21.0.1, SVG Export Plug-In . SVG Version: 6.00 Build 0)  -->
<svg version="1.1" id="icon-" xmlns="http://www.w3.org/2000/svg" xmlns:xlink="http://www.w3.org/1999/xlink" x="0px" y="0px"
	 viewBox="0 0 960 960" style="enable-background:new 0 0 960 960;" xml:space="preserve">
<style type="text/css">
	.st0{fill-rule:evenodd;clip-rule:evenodd;}
	.st1{fill:#29ABE2;}
	.st2{fill-rule:evenodd;clip-rule:evenodd;fill:#181616;}
	.st3{fill:#FF0000;}
</style>
<path id="globe_1_" class="st0" d="M480,0C214.9,0,0,214.9,0,480s214.9,480,480,480s480-214.9,480-480S745.1,0,480,0z M811.8,620.1
	c-18.1,42.9-44.1,81.4-77.2,114.5c-33.1,33.1-71.6,59.1-114.5,77.2c-6.6,2.8-13.3,5.4-20.1,7.8V719c33.1,0,60-26.9,60-60v-60
	c33.1,0,60-26.9,60-60s-26.9-60-60-60h-60c-33.1,0-60,26.9-60,60H420v-60h-60v60c0,33.1,26.9,60,60,60v60c0,33.1,26.9,60,60,60v120
	h27.2c-9,0.7-18.1,1-27.2,1c-48.7,0-95.8-9.5-140.1-28.2c-42.9-18.1-81.4-44.1-114.5-77.2c-33.1-33.1-59.1-71.6-77.2-114.5
	C129.5,575.8,120,528.7,120,480c0-0.3,0-0.7,0-1h240c33.1,0,60-26.9,60-60v-60h60c33.1,0,60-26.9,60-60s-26.9-60-60-60h-30
	c16.6,0,30-13.4,30-30s-13.4-30-30-30h-30c0-20.2-10-38-25.2-48.9C422.5,123.4,451,120,480,120c48.7,0,95.8,9.5,140.1,28.2
	c42.9,18.1,81.4,44.1,114.5,77.2c33.1,33.1,59.1,71.6,77.2,114.5C830.5,384.2,840,431.3,840,480S830.5,575.8,811.8,620.1z"/>
</svg>
