<?xml version="1.0" encoding="utf-8"?>
<!-- Generator: Adobe Illustrator 21.0.1, SVG Export Plug-In . SVG Version: 6.00 Build 0)  -->
<svg version="1.1" id="icon-" xmlns="http://www.w3.org/2000/svg" xmlns:xlink="http://www.w3.org/1999/xlink" x="0px" y="0px"
	 viewBox="0 0 960 960" style="enable-background:new 0 0 960 960;" xml:space="preserve">
<style type="text/css">
	.st0{fill-rule:evenodd;clip-rule:evenodd;}
	.st1{fill:#29ABE2;}
	.st2{fill-rule:evenodd;clip-rule:evenodd;fill:#181616;}
	.st3{fill:#FF0000;}
</style>
<path id="google_1_" d="M938.2,480c0,305.5-218.2,480-458.2,480C213.8,960,0,746.2,0,480C0,213.8,213.8,0,480,0
	c122.2,0,231.3,45.8,316.4,120L656.7,259.6c-48-39.3-109.1-63.3-176.7-63.3c-157.1,0-283.6,126.5-283.6,283.6
	c0,157.1,126.5,283.6,283.6,283.6c133.1,0,233.5-67.6,257.5-185.5H480V392.7h447.3C933.8,421.1,938.2,451.6,938.2,480z"/>
</svg>
