<?xml version="1.0" encoding="utf-8"?>
<!-- Generator: Adobe Illustrator 20.0.0, SVG Export Plug-In . SVG Version: 6.00 Build 0)  -->
<svg version="1.1" id="icon-" xmlns="http://www.w3.org/2000/svg" xmlns:xlink="http://www.w3.org/1999/xlink" x="0px" y="0px"
	 viewBox="0 0 960 960" enable-background="new 0 0 960 960" xml:space="preserve">
<path id="graph" d="M900,960H780c-33.1,0-60-26.9-60-60V60c0-33.1,26.9-60,60-60h120c33.1,0,60,26.9,60,60v840
	C960,933.1,933.1,960,900,960z M600,900V540c0-33.1-26.9-60-60-60H420c-33.1,0-60,26.9-60,60v360c0,33.1,26.9,60,60,60h120
	C573.1,960,600,933.1,600,900z M240,900V300c0-33.1-26.9-60-60-60H60c-33.1,0-60,26.9-60,60v600c0,33.1,26.9,60,60,60h120
	C213.1,960,240,933.1,240,900z"/>
</svg>
