<?xml version="1.0" encoding="utf-8"?>
<!-- Generator: Adobe Illustrator 18.1.1, SVG Export Plug-In . SVG Version: 6.00 Build 0)  -->
<svg version="1.1" xmlns="http://www.w3.org/2000/svg" xmlns:xlink="http://www.w3.org/1999/xlink" x="0px" y="0px"
	 viewBox="0 0 1200 960" enable-background="new 0 0 1200 960" xml:space="preserve">
<g id="dribbble">
</g>
<g id="globe">
</g>
<g id="github">
</g>
<g id="facebook">
</g>
<g id="twitter">
</g>
<g id="skype">
</g>
<g id="phone">
</g>
<g id="mail">
</g>
<g id="liferay-logo-2">
</g>
<g id="menu-content">
</g>
<g id="streams">
</g>
<g id="balloon-topic">
</g>
<g id="groups">
	<path d="M360,60c0,66.3-53.7,120-120,120S120,126.3,120,60S173.7-60,240-60S360-6.3,360,60z M600-60C533.7-60,480-6.3,480,60
		s53.7,120,120,120s120-53.7,120-120S666.3-60,600-60z M960-60C893.7-60,840-6.3,840,60s53.7,120,120,120s120-53.7,120-120
		S1026.3-60,960-60z M240,300c-66.3,0-120,53.7-120,120s53.7,120,120,120s120-53.7,120-120S306.3,300,240,300z M600,300
		c-66.3,0-120,53.7-120,120s53.7,120,120,120s120-53.7,120-120S666.3,300,600,300z M960,300c-66.3,0-120,53.7-120,120
		s53.7,120,120,120s120-53.7,120-120S1026.3,300,960,300z M240,660c-66.3,0-120,53.7-120,120s53.7,120,120,120s120-53.7,120-120
		S306.3,660,240,660z M600,660c-66.3,0-120,53.7-120,120s53.7,120,120,120s120-53.7,120-120S666.3,660,600,660z M960,660
		c-66.3,0-120,53.7-120,120s53.7,120,120,120s120-53.7,120-120S1026.3,660,960,660z"/>
</g>
<g id="persons">
</g>
<g id="house">
</g>
<g id="liferay-logo">
</g>
<g id="eye">
</g>
<g id="confirm">
</g>
<g id="send">
</g>
<g id="back">
</g>
<g id="cancel_1_">
</g>
<g id="plus">
</g>
<g id="bullhorn">
</g>
<g id="link">
</g>
<g id="pen">
</g>
<g id="bell">
</g>
<g id="magnifier">
</g>
<g id="menu">
</g>
<g id="ellipsis">
</g>
<g id="balloon-comment">
</g>
<g id="heart-fill">
</g>
<g id="heart">
</g>
<g id="camera">
</g>
<g id="subscribe">
</g>
<g id="star">
</g>
<g id="guides">
</g>
</svg>
