<?xml version="1.0" encoding="utf-8"?>
<!-- Generator: Adobe Illustrator 21.0.1, SVG Export Plug-In . SVG Version: 6.00 Build 0)  -->
<svg version="1.1" id="icon-" xmlns="http://www.w3.org/2000/svg" xmlns:xlink="http://www.w3.org/1999/xlink" x="0px" y="0px"
	 viewBox="0 0 900 960" style="enable-background:new 0 0 900 960;" xml:space="preserve">
<style type="text/css">
	.st0{fill-rule:evenodd;clip-rule:evenodd;}
	.st1{fill:#29ABE2;}
	.st2{fill-rule:evenodd;clip-rule:evenodd;fill:#181616;}
	.st3{fill:#FF0000;}
</style>
<path id="groups_1_" d="M360,180c0,99.4-80.6,180-180,180S0,279.4,0,180S80.6,0,180,0S360,80.6,360,180z M720,360
	c99.4,0,180-80.6,180-180S819.4,0,720,0S540,80.6,540,180S620.6,360,720,360z M180,540C80.6,540,0,620.6,0,720s80.6,180,180,180
	s180-80.6,180-180S279.4,540,180,540z M720,540c-99.4,0-180,80.6-180,180s80.6,180,180,180s180-80.6,180-180S819.4,540,720,540z"/>
</svg>
