<?xml version="1.0" encoding="utf-8"?>
<!-- Generator: Adobe Illustrator 20.0.0, SVG Export Plug-In . SVG Version: 6.00 Build 0)  -->
<svg version="1.1" id="icon-" xmlns="http://www.w3.org/2000/svg" xmlns:xlink="http://www.w3.org/1999/xlink" x="0px" y="0px"
	 viewBox="0 0 1080 959" enable-background="new 0 0 1080 959" xml:space="preserve">
<path id="hammer" d="M1030.1,698.3L1030.1,698.3c-200.6-179.9-227.5-204-360.4-323.2c123-123,235.9-235.9,272.7-272.7
	C953.3,91.6,960,76.6,960,60c0-33.1-26.9-60-60-60c-83.4,0-166.9,0-250.3,0c-84.9,0-161.8,34.1-217.8,89.3l0,0
	c-103.8,102.3-176.5,174-229.3,226c3.5,3.5,7.1,7.1,11.1,11.1c16.3,16.3,26.4,38.8,26.4,63.6c0,49.7-40.3,90-90,90
	c-24.9,0-47.4-10.1-63.6-26.4c-4.3-4.3-8.3-8.3-12-12c-20.8,20.5-35.3,34.8-56.5,55.6l0,0C6.8,508.2,0,523.3,0,540
	c0,16.6,6.7,31.6,17.6,42.4c84.9,84.9,95.1,95.1,180,180c10.9,10.9,25.9,17.6,42.4,17.6s31.6-6.7,42.4-17.6
	c11.7-11.7,31.2-31.2,56.4-56.4c-3.8-3.8-8-8-12.4-12.4C310.1,677.4,300,654.9,300,630c0-49.7,40.3-90,90-90
	c24.9,0,47.4,10.1,63.6,26.4c4.5,4.5,8.6,8.6,12.4,12.4c9.5-9.5,19.2-19.2,29.1-29.1c119.2,132.9,143.3,159.8,323.2,360.4l0,0
	C845.8,940.7,885.6,960,930,960c82.8,0,150-67.2,150-150C1080,765.6,1060.7,725.8,1030.1,698.3z"/>
</svg>
