<?xml version="1.0" encoding="utf-8"?>
<!-- Generator: Adobe Illustrator 20.0.0, SVG Export Plug-In . SVG Version: 6.00 Build 0)  -->
<svg version="1.1" id="icon-" xmlns="http://www.w3.org/2000/svg" xmlns:xlink="http://www.w3.org/1999/xlink" x="0px" y="0px"
	 viewBox="0 0 1080 960" enable-background="new 0 0 1080 960" xml:space="preserve">
<path id="heart-full_1_" d="M1004,499.5L1004,499.5C736.6,799.7,736.6,799.7,629.6,919.8l0,0c-22,24.7-54,40.2-89.6,40.2
	s-67.6-15.5-89.6-40.2l0,0c-107-120.1-107-120.1-374.4-420.3l0,0C28.7,446.5,0,376.6,0,300C0,134.3,134.3,0,300,0
	c98.1,0,185.3,47.1,240,120C594.7,47.1,681.9,0,780,0c165.7,0,300,134.3,300,300C1080,376.6,1051.3,446.5,1004,499.5z"/>
</svg>
