<?xml version="1.0" encoding="utf-8"?>
<!-- Generator: Adobe Illustrator 20.0.0, SVG Export Plug-In . SVG Version: 6.00 Build 0)  -->
<svg version="1.1" id="icon-" xmlns="http://www.w3.org/2000/svg" xmlns:xlink="http://www.w3.org/1999/xlink" x="0px" y="0px"
	 viewBox="0 0 1020 960" enable-background="new 0 0 1020 960" xml:space="preserve">
<path id="heart-full" d="M951.6,509.6L951.6,509.6C670.8,824.8,670.8,824.8,577.2,929.9l0,0C560.7,948.4,536.7,960,510,960
	s-50.7-11.6-67.2-30.1l0,0c-93.6-105.1-93.6-105.1-374.4-420.3l0,0C25.9,461.9,0,399,0,330C0,180.9,120.9,60,270,60
	c104.5,0,195.1,59.4,240,146.2C554.9,119.4,645.5,60,750,60c149.1,0,270,120.9,270,270C1020,399,994.1,461.9,951.6,509.6z"/>
</svg>
