<?xml version="1.0" encoding="utf-8"?>
<!-- Generator: Adobe Illustrator 19.2.1, SVG Export Plug-In . SVG Version: 6.00 Build 0)  -->
<svg version="1.1" xmlns="http://www.w3.org/2000/svg" xmlns:xlink="http://www.w3.org/1999/xlink" x="0px" y="0px"
	 viewBox="0 0 1200 960" enable-background="new 0 0 1200 960" xml:space="preserve">
<g id="row-7">
</g>
<g id="row-6">
</g>
<g id="row-5">
</g>
<g id="row-4">
	<g id="read-full_1_">
	</g>
	<g id="markdown">
	</g>
	<g id="info">
	</g>
	<g id="folder">
	</g>
	<g id="read-full_2_">
	</g>
	<g id="person">
	</g>
	<g id="eye">
	</g>
	<g id="clear">
	</g>
	<g id="arrow-right-rod">
	</g>
	<g id="contract">
	</g>
	<g id="expand">
	</g>
	<g id="speaker-off">
	</g>
	<g id="speaker-on">
	</g>
	<g id="pause">
	</g>
	<g id="play">
	</g>
</g>
<g id="row-3">
	<g id="circle-arrow">
	</g>
	<g id="speedometer">
	</g>
	<g id="calendar">
	</g>
	<g id="server">
	</g>
	<g id="code-file">
	</g>
	<g id="gear">
	</g>
	<g id="tint">
	</g>
	<g id="dribbble">
	</g>
	<g id="globe">
	</g>
	<g id="github">
	</g>
	<g id="facebook">
	</g>
	<g id="twitter">
	</g>
	<g id="skype">
	</g>
	<g id="phone">
	</g>
	<g id="mail">
	</g>
</g>
<g id="row-2">
	<g id="liferay-logo-2">
	</g>
	<g id="menu-content">
	</g>
	<g id="streams">
	</g>
	<g id="balloon-topic">
	</g>
	<g id="groups">
	</g>
	<g id="liferay-logo">
	</g>
	<g id="heart-full">
	</g>
	<g id="confirm">
	</g>
	<g id="send">
	</g>
	<g id="arrow-left-rod">
	</g>
	<g id="cancel_1_">
	</g>
	<g id="plus">
	</g>
</g>
<g id="row-1">
	<g id="bullhorn">
	</g>
	<g id="link">
	</g>
	<g id="pen">
	</g>
	<g id="bell">
	</g>
	<g id="magnifier">
	</g>
	<g id="menu">
	</g>
	<g id="ellipsis">
	</g>
	<g id="balloon-comment">
	</g>
	<g id="heart-inline">
	</g>
	<g id="heart">
		<path d="M870,119c40.1,0,77.7,15.6,106.1,43.9s43.9,65.9,43.9,106c0,18.5-3.3,36.5-9.8,53.4c-6.3,16.4-15.4,31.5-27.1,44.9
			c-0.3,0.4-0.7,0.8-1,1.2c-195.2,223.9-269.8,309.5-324.2,372c-20.1,23.1-37.8,43.4-58,66.6l-18.7-21.4L217.7,368.2
			c-0.3-0.4-0.6-0.7-0.9-1.1c-11.7-13.4-20.8-28.5-27-44.9c-6.5-16.9-9.8-34.9-9.8-53.4c0-40,15.6-77.7,43.9-106S289.9,119,330,119
			c24.9,0,48.4,5.8,70.1,17.3c20.9,11.1,39.1,27.1,52.7,46.5c33.7,47.8,88.6,76.3,147.2,76.3s113.5-28.5,147.2-76.3
			c13.7-19.4,31.9-35.5,52.7-46.5C821.6,124.8,845.1,119,870,119 M870-60.8c-111.6,0-210.3,55.4-270,140.1
			C540.3-5.5,441.6-60.8,330-60.8C147.7-60.8,0,86.8,0,268.8c0,82.8,30.6,158.5,81.1,216.4l0,0c313.8,360.2,314,360.5,428,491.3
			c0.1,0.1,0.1,0.7,0.2,0.8c0,0,0.1,0.7,0.1,0.7h0c22,25,54.4,41.2,90.5,41.2c36.1,0,68.5-16.2,90.5-41.2h0c0.1,0,0.1-0.7,0.2-0.7
			c0.1-0.1,0.1-0.4,0.2-0.5c114-130.7,114.3-131.3,428.2-491.4l0,0c50.5-57.9,81.1-133.6,81.1-216.5C1200,86.8,1052.3-60.8,870-60.8
			L870-60.8z"/>
	</g>
	<g id="camera">
	</g>
	<g id="lock">
	</g>
	<g id="star">
	</g>
</g>
<g id="guides">
</g>
</svg>
