<?xml version="1.0" encoding="utf-8"?>
<!-- Generator: Adobe Illustrator 20.0.0, SVG Export Plug-In . SVG Version: 6.00 Build 0)  -->
<svg version="1.1" id="icon-" xmlns="http://www.w3.org/2000/svg" xmlns:xlink="http://www.w3.org/1999/xlink" x="0px" y="0px"
	 viewBox="0 0 1200 960" enable-background="new 0 0 1200 960" xml:space="preserve">
<path id="heart-inline_1_" fill="#FF0000" d="M870,119c40.1,0,77.7,15.6,106.1,43.9s43.9,65.9,43.9,106c0,18.5-3.3,36.5-9.8,53.4
	c-6.3,16.4-15.4,31.5-27.1,44.9c-0.3,0.4-0.7,0.8-1,1.2c-195.2,223.9-269.8,309.5-324.2,372c-20.1,23.1-37.8,43.4-58,66.6
	l-18.7-21.4L217.7,368.2c-0.3-0.4-0.6-0.7-0.9-1.1c-11.7-13.4-20.8-28.5-27-44.9c-6.5-16.9-9.8-34.9-9.8-53.4
	c0-40,15.6-77.7,43.9-106S289.9,119,330,119c24.9,0,48.4,5.8,70.1,17.3c20.9,11.1,39.1,27.1,52.7,46.5
	c33.7,47.8,88.6,76.3,147.2,76.3s113.5-28.5,147.2-76.3c13.7-19.4,31.9-35.5,52.7-46.5C821.6,124.8,845.1,119,870,119"/>
</svg>
