<?xml version="1.0" encoding="utf-8"?>
<!-- Generator: Adobe Illustrator 20.0.0, SVG Export Plug-In . SVG Version: 6.00 Build 0)  -->
<svg version="1.1" id="icon-" xmlns="http://www.w3.org/2000/svg" xmlns:xlink="http://www.w3.org/1999/xlink" x="0px" y="0px"
	 viewBox="0 0 840 960" enable-background="new 0 0 840 960" xml:space="preserve">
<path id="house_1_" d="M840,360c0,210,0,210,0,420c0,66.3-53.7,120-120,120c-67.8,0-126,0-180,0V600H300v300c-54,0-112.2,0-180,0
	C53.7,900,0,846.3,0,780c0-210,0-210,0-420c0-37.9,17.6-71.7,45-93.7l0,0c150-120,150-120,300-240l0,0C365.6,9.8,391.6,0,420,0
	s54.4,9.8,75,26.3l0,0c150,120,150,120,300,240l0,0C822.4,288.3,840,322.1,840,360z"/>
</svg>
