<?xml version="1.0" encoding="utf-8"?>
<!-- Generator: Adobe Illustrator 20.0.0, SVG Export Plug-In . SVG Version: 6.00 Build 0)  -->
<svg version="1.1" id="icon-" xmlns="http://www.w3.org/2000/svg" xmlns:xlink="http://www.w3.org/1999/xlink" x="0px" y="0px"
	 viewBox="0 0 1080 960" enable-background="new 0 0 1080 960" xml:space="preserve">
<path id="image" d="M960-60H120C53.7-60,0-6.3,0,60v720c0,66.3,53.7,120,120,120h840c66.3,0,120-53.7,120-120V60
	C1080-6.3,1026.3-60,960-60z M390,120c49.7,0,90,40.3,90,90s-40.3,90-90,90s-90-40.3-90-90S340.3,120,390,120z M180,720l180-240
	l120,120l180-240l240,360H180z"/>
</svg>
