<?xml version="1.0" encoding="utf-8"?>
<!-- Generator: Adobe Illustrator 20.0.0, SVG Export Plug-In . SVG Version: 6.00 Build 0)  -->
<svg version="1.1" id="icon-" xmlns="http://www.w3.org/2000/svg" xmlns:xlink="http://www.w3.org/1999/xlink" x="0px" y="0px"
	 viewBox="0 0 960 960" enable-background="new 0 0 960 960" xml:space="preserve">
<path id="info_1_" d="M480,0C214.9,0,0,214.9,0,480s214.9,480,480,480s480-214.9,480-480S745.1,0,480,0z M540,660
	c0,33.1-26.9,60-60,60l0,0c-33.1,0-60-26.9-60-60V480c0-33.1,26.9-60,60-60l0,0c33.1,0,60,26.9,60,60V660z M480,360
	c-33.1,0-60-26.9-60-60s26.9-60,60-60s60,26.9,60,60S513.1,360,480,360z"/>
</svg>
