<?xml version="1.0" encoding="utf-8"?>
<!-- Generator: Adobe Illustrator 20.0.0, SVG Export Plug-In . SVG Version: 6.00 Build 0)  -->
<svg version="1.1" id="icon-" xmlns="http://www.w3.org/2000/svg" xmlns:xlink="http://www.w3.org/1999/xlink" x="0px" y="0px"
	 viewBox="0 0 900 960" enable-background="new 0 0 900 960" xml:space="preserve">
<path id="liferay-logo_1_" fill="#FF0000" d="M0,0h180v180H0V0z M240,180h180V0H240V180z M480,180h180V0H480V180z M0,420h180V240H0
	V420z M240,420h180V240H240V420z M720,240v180h180V240H720z M0,660h180V480H0V660z M480,660h180V480H480V660z M720,660h180V480H720
	V660z M240,900h180V720H240V900z M480,900h180V720H480V900z M720,900h180V720H720V900z"/>
</svg>
