<?xml version="1.0" encoding="utf-8"?>
<!-- Generator: Adobe Illustrator 18.1.1, SVG Export Plug-In . SVG Version: 6.00 Build 0)  -->
<svg version="1.1" xmlns="http://www.w3.org/2000/svg" xmlns:xlink="http://www.w3.org/1999/xlink" x="0px" y="0px"
	 viewBox="0 0 1380 959" enable-background="new 0 0 1380 959" xml:space="preserve">
<g id="row-6">
	<g id="mail_x5F_straight">
	</g>
	<g id="markdown">
	</g>
	<g id="info">
	</g>
	<g id="folder">
	</g>
	<g id="server">
	</g>
	<g id="speed-monitor">
	</g>
</g>
<g id="row-5">
	<g id="person-role">
	</g>
	<g id="lock">
	</g>
	<g id="list">
	</g>
	<g id="read-mail">
	</g>
	<g id="person">
	</g>
	<g id="eye">
	</g>
	<g id="clear">
	</g>
	<g id="arrow-right-rod">
	</g>
	<g id="contract">
	</g>
	<g id="expand">
	</g>
	<g id="speaker-off">
	</g>
</g>
<g id="row-4">
	<g id="speaker-on">
	</g>
	<g id="pause">
	</g>
	<g id="play">
	</g>
	<g id="circle-arrow">
	</g>
	<g id="module">
	</g>
	<g id="speedometer">
	</g>
	<g id="calendar">
	</g>
	<g id="data">
	</g>
	<g id="code-file">
	</g>
	<g id="gear">
	</g>
	<g id="tint">
	</g>
	<g id="dribbble">
	</g>
</g>
<g id="row-3">
	<g id="globe">
	</g>
	<g id="github">
	</g>
	<g id="facebook">
	</g>
	<g id="twitter">
	</g>
	<g id="skype">
	</g>
	<g id="phone">
	</g>
	<g id="mail">
	</g>
	<g id="liferay-logo-2">
		<path d="M1140-120.5H240c-66.3,0-120,53.7-120,120v900c0,66.3,53.7,120,120,120h900c66.3,0,120-53.7,120-120v-900
			C1260-66.8,1206.3-120.5,1140-120.5z M420,659.5H240v-180h180V659.5z M420,419.5H240v-180h180V419.5z M420,179.5H240v-180h180
			V179.5z M660,899.5H480v-180h180V899.5z M660,419.5H480v-180h180V419.5z M660,179.5H480v-180h180V179.5z M900,899.5H720v-180h180
			V899.5z M900,659.5H720v-180h180V659.5z M900,179.5H720v-180h180V179.5z M1140,899.5H960v-180h180V899.5z M1140,659.5H960v-180
			h180V659.5z M1140,419.5H960v-180h180V419.5z"/>
	</g>
	<g id="menu-content">
	</g>
	<g id="streams">
	</g>
	<g id="balloon-topic">
	</g>
	<g id="groups">
	</g>
</g>
<g id="row-2">
	<g id="persons">
	</g>
	<g id="house">
	</g>
	<g id="liferay-logo">
	</g>
	<g id="heart-full">
	</g>
	<g id="confirm">
	</g>
	<g id="send">
	</g>
	<g id="arrow-left-rod">
	</g>
	<g id="cancel_1_">
	</g>
	<g id="plus">
	</g>
	<g id="bullhorn">
	</g>
	<g id="link">
	</g>
</g>
<g id="row-1">
	<g id="pen">
	</g>
	<g id="bell">
	</g>
	<g id="magnifier">
	</g>
	<g id="menu">
	</g>
	<g id="ellipsis">
	</g>
	<g id="balloon-comment">
	</g>
	<g id="heart-fill">
	</g>
	<g id="heart">
	</g>
	<g id="camera">
	</g>
	<g id="blank">
	</g>
	<g id="star">
	</g>
</g>
<g id="guides">
</g>
</svg>
