<?xml version="1.0" encoding="utf-8"?>
<!-- Generator: Adobe Illustrator 20.0.0, SVG Export Plug-In . SVG Version: 6.00 Build 0)  -->
<svg version="1.1" id="icon-" xmlns="http://www.w3.org/2000/svg" xmlns:xlink="http://www.w3.org/1999/xlink" x="0px" y="0px"
	 viewBox="0 0 900 960" enable-background="new 0 0 900 960" xml:space="preserve">
<path id="liferay-logo-2-tiny" fill="#FF0000" d="M840,0H60C26.9,0,0,26.9,0,60v780c0,33.1,26.9,60,60,60h780c33.1,0,60-26.9,60-60
	V60C900,26.9,873.1,0,840,0z M240,600H120V480h120V600z M240,420H120V300h120V420z M240,240H120V120h120V240z M420,780H300V660h120
	V780z M420,420H300V300h120V420z M420,240H300V120h120V240z M600,780H480V660h120V780z M600,600H480V480h120V600z M600,240H480V120
	h120V240z M780,780H660V660h120V780z M780,600H660V480h120V600z M780,420H660V300h120V420z"/>
</svg>
