<?xml version="1.0" encoding="utf-8"?>
<!-- Generator: Adobe Illustrator 19.2.1, SVG Export Plug-In . SVG Version: 6.00 Build 0)  -->
<svg version="1.1" xmlns="http://www.w3.org/2000/svg" xmlns:xlink="http://www.w3.org/1999/xlink" x="0px" y="0px"
	 viewBox="0 0 1020 960" enable-background="new 0 0 1020 960" xml:space="preserve">
<g id="row-7">
</g>
<g id="row-6">
</g>
<g id="row-5">
</g>
<g id="row-4">
	<g id="read-full_1_">
	</g>
	<g id="markdown">
	</g>
	<g id="info">
	</g>
	<g id="folder">
	</g>
	<g id="read-full_2_">
	</g>
	<g id="person">
	</g>
	<g id="eye">
	</g>
	<g id="clear">
	</g>
	<g id="arrow-right-rod">
	</g>
	<g id="contract">
	</g>
	<g id="expand">
	</g>
	<g id="speaker-off">
	</g>
	<g id="speaker-on">
	</g>
	<g id="pause">
	</g>
	<g id="play">
	</g>
</g>
<g id="row-3">
	<g id="circle-arrow">
	</g>
	<g id="speedometer">
	</g>
	<g id="calendar">
	</g>
	<g id="server">
	</g>
	<g id="code-file">
	</g>
	<g id="gear">
	</g>
	<g id="tint">
	</g>
	<g id="dribbble">
	</g>
	<g id="globe">
	</g>
	<g id="github">
	</g>
	<g id="facebook">
	</g>
	<g id="twitter">
	</g>
	<g id="skype">
	</g>
	<g id="phone">
	</g>
	<g id="mail">
	</g>
</g>
<g id="row-2">
	<g id="liferay-logo-2">
	</g>
	<g id="menu-content">
	</g>
	<g id="streams">
	</g>
	<g id="balloon-topic">
	</g>
	<g id="groups">
	</g>
	<g id="liferay-logo">
	</g>
	<g id="heart-full">
	</g>
	<g id="confirm">
	</g>
	<g id="send">
	</g>
	<g id="arrow-left-rod">
	</g>
	<g id="cancel_1_">
	</g>
	<g id="plus">
	</g>
</g>
<g id="row-1">
	<g id="bullhorn">
	</g>
	<g id="link">
		<path d="M1019,198.8c0,84.5-33.6,165.6-93.4,225.4L798.1,551.6C738.4,611.4,657.3,645,572.8,645s-165.6-33.6-225.4-93.4
			c-23.2-23.2-42.4-49.5-57.2-78c0,0,124.4-110.5,127.3-111.4c2,8.5,4.6,16.8,8,25c8,19.4,19.7,36.8,34.5,51.7
			c14.9,14.9,32.3,26.5,51.7,34.5c19.4,8,40,12.1,61,12.1s41.6-4.1,61-12.1c19.4-8,36.8-19.7,51.7-34.5l127.5-127.5
			c14.9-14.9,26.5-32.3,34.5-51.7c8-19.4,12.1-40,12.1-61s-4.1-41.6-12.1-61c-8-19.4-19.7-36.8-34.5-51.7
			c-14.9-14.9-32.3-26.5-51.7-34.5c-19.4-8-40-12.1-61-12.1s-41.6,4.1-61,12.1c-19.4,8-36.8,19.7-51.7,34.5l-9.1,9.1
			c-42.7-15.9-87.4-24-133.2-24c-25.7,0-51,2.5-75.9,7.6L474.9-26.6C534.6-86.4,615.7-120,700.2-120s165.6,33.6,225.4,93.4
			C985.4,33.1,1019,114.2,1019,198.8z M439.6,684.8l-9.1,9.1c-14.9,14.9-32.3,26.5-51.7,34.5c-19.4,8-40,12.1-61,12.1
			c-21,0-41.6-4.1-61-12.1c-19.4-8-36.8-19.7-51.7-34.5c-14.9-14.9-26.5-32.3-34.5-51.7c-8-19.4-12.1-40-12.1-61s4.1-41.6,12.1-61
			c8-19.4,19.7-36.8,34.5-51.7l127.5-127.5c14.9-14.9,32.3-26.5,51.7-34.5c19.4-8,40-12.1,61-12.1c21,0,41.6,4.1,61,12.1
			c19.4,8,36.8,19.7,51.7,34.5c14.9,14.9,26.5,32.3,34.5,51.7c3.4,8.2,6,16.5,8,25c3-0.9,127.3-111.4,127.3-111.4
			c-14.9-28.5-34.1-54.9-57.2-78C610.9,168.6,529.8,135,445.2,135s-165.6,33.6-225.4,93.4L92.4,355.9C32.6,415.6-1,496.7-1,581.2
			s33.6,165.6,93.4,225.4c59.8,59.8,140.9,93.4,225.4,93.4s165.6-33.6,225.4-93.4l105.5-105.5c-24.8,5-50.2,7.6-75.9,7.6
			C527,708.8,482.3,700.7,439.6,684.8z"/>
	</g>
	<g id="pen">
	</g>
	<g id="bell">
	</g>
	<g id="magnifier">
	</g>
	<g id="menu">
	</g>
	<g id="ellipsis">
	</g>
	<g id="balloon-comment">
	</g>
	<g id="heart-inline">
	</g>
	<g id="heart">
	</g>
	<g id="camera">
	</g>
	<g id="lock">
	</g>
	<g id="star">
	</g>
</g>
<g id="guides">
</g>
</svg>
