<?xml version="1.0" encoding="utf-8"?>
<!-- Generator: Adobe Illustrator 21.0.1, SVG Export Plug-In . SVG Version: 6.00 Build 0)  -->
<svg version="1.1" id="icon-" xmlns="http://www.w3.org/2000/svg" xmlns:xlink="http://www.w3.org/1999/xlink" x="0px" y="0px"
	 viewBox="0 0 960 960" style="enable-background:new 0 0 960 960;" xml:space="preserve">
<style type="text/css">
	.st0{fill-rule:evenodd;clip-rule:evenodd;}
	.st1{fill:#29ABE2;}
	.st2{fill-rule:evenodd;clip-rule:evenodd;fill:#181616;}
	.st3{fill:#FF0000;}
</style>
<path id="linkedin" d="M888.9,0h-818C31.8,0,0,31,0,69.2v821.6C0,929,31.8,960,70.9,960h818c39.1,0,71.1-31,71.1-69.3V69.2
	C960,31,928,0,888.9,0z M284.7,818H142.3V359.9h142.4V818z M213.5,297.3c-45.6,0-82.5-37-82.5-82.6c0-45.5,36.9-82.5,82.5-82.5
	c45.5,0,82.5,37,82.5,82.5C296,260.3,259,297.3,213.5,297.3z M818,818H675.8V595.3c0-53.1-1-121.5-74-121.5
	c-74.1,0-85.4,57.9-85.4,117.6V818H374V359.9h136.6v62.6h1.9c19-36,65.5-74,134.7-74c144.1,0,170.7,94.9,170.7,218.3V818z"/>
</svg>
