<?xml version="1.0" encoding="utf-8"?>
<!-- Generator: Adobe Illustrator 21.0.1, SVG Export Plug-In . SVG Version: 6.00 Build 0)  -->
<svg version="1.1" id="icon-" xmlns="http://www.w3.org/2000/svg" xmlns:xlink="http://www.w3.org/1999/xlink" x="0px" y="0px"
	 viewBox="0 0 1020 960" style="enable-background:new 0 0 1020 960;" xml:space="preserve">
<style type="text/css">
	.st0{fill-rule:evenodd;clip-rule:evenodd;}
	.st1{fill:#29ABE2;}
	.st2{fill-rule:evenodd;clip-rule:evenodd;fill:#181616;}
	.st3{fill:#FF0000;}
</style>
<path id="magnifier_1_" d="M993.6,746.4L773.8,526.5C815.7,461.1,840,383.4,840,300c0-232-188-420-420-420S0,68,0,300
	s188,420,420,420c83.4,0,161.1-24.3,226.5-66.2l219.9,219.9C883.9,891.2,907,900,930,900s46.1-8.8,63.6-26.4
	C1028.8,838.5,1028.8,781.5,993.6,746.4z M250.3,469.7C205,424.4,180,364.1,180,300s25-124.4,70.3-169.7S355.9,60,420,60
	s124.4,25,169.7,70.3S660,235.9,660,300s-25,124.4-70.3,169.7S484.1,540,420,540S295.6,515,250.3,469.7z"/>
</svg>
