<?xml version="1.0" encoding="utf-8"?>
<!-- Generator: Adobe Illustrator 20.0.0, SVG Export Plug-In . SVG Version: 6.00 Build 0)  -->
<svg version="1.1" id="icon-" xmlns="http://www.w3.org/2000/svg" xmlns:xlink="http://www.w3.org/1999/xlink" x="0px" y="0px"
	 viewBox="0 0 960 960" enable-background="new 0 0 960 960" xml:space="preserve">
<path id="mail_x5F_full" d="M780,120H180C80.6,120,0,200.6,0,300v420c0,99.4,80.6,180,180,180h600c99.4,0,180-80.6,180-180V300
	C960,200.6,879.4,120,780,120z M810.7,411.5C708,473.1,614,529.6,511.3,591.2c-9.1,5.6-19.9,8.8-31.3,8.8s-22.2-3.2-31.3-8.8
	C346,529.6,252,473.1,149.3,411.5C131.7,401.1,120,381.9,120,360c0-33.1,26.9-60,60-60c11.5,0,22.2,3.2,31.3,8.8
	C303.7,364.2,389.1,415.5,480,470c90.9-54.6,176.3-105.8,268.7-161.2c9.1-5.6,19.9-8.8,31.3-8.8c33.1,0,60,26.9,60,60
	C840,381.9,828.3,401.1,810.7,411.5z"/>
</svg>
