<?xml version="1.0" encoding="utf-8"?>
<!-- Generator: Adobe Illustrator 20.0.0, SVG Export Plug-In . SVG Version: 6.00 Build 0)  -->
<svg version="1.1" id="icon-" xmlns="http://www.w3.org/2000/svg" xmlns:xlink="http://www.w3.org/1999/xlink" x="0px" y="0px"
	 viewBox="0 0 1260 960" enable-background="new 0 0 1260 960" xml:space="preserve">
<path id="mail-off" d="M1221.9,796.5c-27.7-20-77.8-56.2-141.9-102.5V300c0-99.4-80.6-180-180-180H300c-4.7,0-9.4,0.2-14,0.5
	C221.1,73.7,170.5,37.1,142.8,17.1C128,6.4,109.7,0,90,0C40.3,0,0,40.3,0,90c0,30.4,15,57.2,38.1,73.5
	c147.8,106.8,933.1,673.9,1079.1,779.3c14.8,10.8,33.1,17.1,52.8,17.1c49.7,0,90-40.3,90-90C1260,839.6,1245,812.8,1221.9,796.5z
	 M868.7,308.8c9.1-5.6,19.9-8.8,31.3-8.8c33.1,0,60,26.9,60,60c0,21.9-11.7,41.1-29.3,51.5c-45.2,27.1-88.8,53.2-132.1,79.3
	c-34.8-25.2-70.3-50.8-105.8-76.4C750.8,379.6,808.2,345.1,868.7,308.8z M120,369.4C337.2,526.2,660.4,759.6,854.7,900H300
	c-99.4,0-180-80.6-180-180V369.4z"/>
</svg>
