<?xml version="1.0" encoding="utf-8"?>
<!-- Generator: Adobe Illustrator 21.0.1, SVG Export Plug-In . SVG Version: 6.00 Build 0)  -->
<svg version="1.1" id="icon-" xmlns="http://www.w3.org/2000/svg" xmlns:xlink="http://www.w3.org/1999/xlink" x="0px" y="0px"
	 viewBox="0 0 1380 960" style="enable-background:new 0 0 1380 960;" xml:space="preserve">
<style type="text/css">
	.st0{fill-rule:evenodd;clip-rule:evenodd;}
	.st1{fill:#29ABE2;}
	.st2{fill-rule:evenodd;clip-rule:evenodd;fill:#181616;}
	.st3{fill:#FF0000;}
</style>
<g id="markdown_1_">
	<path d="M1260,60H120C53.7,60,0,113.7,0,180v600c0,66.3,53.7,120,120,120h1140c66.3,0,120-53.7,120-120V180
		C1380,113.7,1326.3,60,1260,60z M780,720H600V487.3l-120,120l-120-120V720H180V240h180l120,120l120-120h180V720z M1080,720L900,480
		h120V240h120v240h120L1080,720z"/>
</g>
</svg>
