<?xml version="1.0" encoding="utf-8"?>
<!-- Generator: Adobe Illustrator 20.0.0, SVG Export Plug-In . SVG Version: 6.00 Build 0)  -->
<svg version="1.1" id="icon-" xmlns="http://www.w3.org/2000/svg" xmlns:xlink="http://www.w3.org/1999/xlink" x="0px" y="0px"
	 viewBox="0 0 960 960" enable-background="new 0 0 960 960" xml:space="preserve">
<path id="menu_1_" d="M870,180H90c-49.7,0-90-40.3-90-90v0C0,40.3,40.3,0,90,0l780,0c49.7,0,90,40.3,90,90v0
	C960,139.7,919.7,180,870,180z M960,450L960,450c0-49.7-40.3-90-90-90H90c-49.7,0-90,40.3-90,90v0c0,49.7,40.3,90,90,90h780
	C919.7,540,960,499.7,960,450z M960,810L960,810c0-49.7-40.3-90-90-90H90c-49.7,0-90,40.3-90,90v0c0,49.7,40.3,90,90,90h780
	C919.7,900,960,859.7,960,810z"/>
</svg>
