<?xml version="1.0" encoding="utf-8"?>
<!-- Generator: Adobe Illustrator 19.2.1, SVG Export Plug-In . SVG Version: 6.00 Build 0)  -->
<svg version="1.1" xmlns="http://www.w3.org/2000/svg" xmlns:xlink="http://www.w3.org/1999/xlink" x="0px" y="0px"
	 viewBox="0 0 960 960" enable-background="new 0 0 960 960" xml:space="preserve">
<g id="row-7">
</g>
<g id="row-6">
</g>
<g id="row-5">
</g>
<g id="row-4">
	<g id="read-full_1_">
	</g>
	<g id="markdown">
	</g>
	<g id="info">
	</g>
	<g id="folder">
	</g>
	<g id="read-full_2_">
	</g>
	<g id="person">
	</g>
	<g id="eye">
	</g>
	<g id="clear">
	</g>
	<g id="arrow-right-rod">
	</g>
	<g id="contract">
	</g>
	<g id="expand">
	</g>
	<g id="speaker-off">
	</g>
	<g id="speaker-on">
	</g>
	<g id="pause">
	</g>
	<g id="play">
	</g>
</g>
<g id="row-3">
	<g id="circle-arrow">
	</g>
	<path id="module_1_" d="M915.3,192.2C761.8,99.7,613.9,10.6,511.4-51.1c-9.1-5.6-19.9-8.9-31.4-8.9s-22.2,3.2-31.4,8.9
		C346.1,10.6,198.2,99.7,44.7,192.2C17.9,207.9,0,236.8,0,270c0,180,0,240,0,420c0,33.2,17.9,62.1,44.7,77.8
		c153.6,92.5,301.4,181.6,404,243.4c9.1,5.6,19.9,8.9,31.4,8.9s22.2-3.2,31.4-8.9c102.5-61.8,250.4-150.9,404-243.4
		c26.7-15.6,44.7-44.6,44.7-77.8c0-180,0-240,0-420C960,236.8,942.1,207.9,915.3,192.2z M810.7,351.5
		C708,413.1,614,469.6,511.3,531.2c-9.1,5.6-19.9,8.8-31.3,8.8s-22.2-3.2-31.3-8.8C346,469.6,252,413.1,149.3,351.5
		C131.7,341.1,120,321.9,120,300s11.7-41.1,29.3-51.5C252,186.9,346,130.4,448.7,68.8c9.1-5.6,19.9-8.8,31.3-8.8s22.2,3.2,31.3,8.8
		C614,130.4,708,186.9,810.7,248.5c17.5,10.5,29.3,29.6,29.3,51.5S828.3,341.1,810.7,351.5z M360,300c0,33.1-26.9,60-60,60
		s-60-26.9-60-60s26.9-60,60-60S360,266.9,360,300z M540,420c0,33.1-26.9,60-60,60s-60-26.9-60-60s26.9-60,60-60S540,386.9,540,420z
		 M720,300c0,33.1-26.9,60-60,60s-60-26.9-60-60s26.9-60,60-60S720,266.9,720,300z M540,180c0,33.1-26.9,60-60,60s-60-26.9-60-60
		s26.9-60,60-60S540,146.9,540,180z"/>
	<g id="speedometer">
	</g>
	<g id="calendar">
	</g>
	<g id="server">
	</g>
	<g id="code-file">
	</g>
	<g id="gear">
	</g>
	<g id="tint">
	</g>
	<g id="dribbble">
	</g>
	<g id="globe">
	</g>
	<g id="github">
	</g>
	<g id="facebook">
	</g>
	<g id="twitter">
	</g>
	<g id="skype">
	</g>
	<g id="phone">
	</g>
	<g id="mail">
	</g>
</g>
<g id="row-2">
	<g id="liferay-logo-2">
	</g>
	<g id="menu-content">
	</g>
	<g id="streams">
	</g>
	<g id="balloon-topic">
	</g>
	<g id="groups">
	</g>
	<g id="liferay-logo">
	</g>
	<g id="heart-full">
	</g>
	<g id="confirm">
	</g>
	<g id="send">
	</g>
	<g id="arrow-left-rod">
	</g>
	<g id="cancel_1_">
	</g>
	<g id="plus">
	</g>
</g>
<g id="row-1">
	<g id="bullhorn">
	</g>
	<g id="link">
	</g>
	<g id="pen">
	</g>
	<g id="bell">
	</g>
	<g id="magnifier">
	</g>
	<g id="menu">
	</g>
	<g id="ellipsis">
	</g>
	<g id="balloon-comment">
	</g>
	<g id="heart-inline">
	</g>
	<g id="heart">
	</g>
	<g id="camera">
	</g>
	<g id="lock">
	</g>
	<g id="star">
	</g>
</g>
<g id="guides">
</g>
</svg>
