<?xml version="1.0" encoding="utf-8"?>
<!-- Generator: Adobe Illustrator 21.0.1, SVG Export Plug-In . SVG Version: 6.00 Build 0)  -->
<svg version="1.1" id="icon-" xmlns="http://www.w3.org/2000/svg" xmlns:xlink="http://www.w3.org/1999/xlink" x="0px" y="0px"
	 viewBox="0 0 840 960" style="enable-background:new 0 0 840 960;" xml:space="preserve">
<style type="text/css">
	.st0{fill-rule:evenodd;clip-rule:evenodd;}
	.st1{fill:#29ABE2;}
	.st2{fill-rule:evenodd;clip-rule:evenodd;fill:#181616;}
	.st3{fill:#FF0000;}
</style>
<path id="nodejs" d="M540,431.7v96.8c0,10.8-5.8,20.7-15.1,26L435.1,606c-9.2,5.3-20.5,5.3-29.8,0l-90.2-51.5
	c-9.4-5.3-15.1-15.3-15.1-26.1v-97.1c0-10.8,5.8-20.7,15.1-26l89.4-51.2c9.2-5.3,20.5-5.3,29.8,0l90.6,51.7
	C534.2,411,540,421,540,431.7z M840,426.6V257.4c0-10.8-5.8-20.7-15.1-26.1L433.9,3.9c-9.2-5.3-20.6-5.2-29.8,0l-389,227.4
	C5.8,236.7,0,246.6,0,257.4v445.2c0,10.8,5.8,20.7,15.1,26.1l390.3,227.4c9.2,5.3,20.5,5.3,29.8,0l181.4-108.3
	c20.2-11.5,20.1-40.6,0-52.1L255.1,589.3C245.8,584,240,574,240,563.3V396.5c0-10.8,5.8-20.7,15.1-26l149.3-85.5
	c9.2-5.3,20.5-5.3,29.8,0l150.7,85.9c9.4,5.3,15.1,15.3,15.1,26.1v132.5c0,23,24.9,37.5,44.9,26.1l180-102.8
	C834.2,447.3,840,437.4,840,426.6z"/>
</svg>
