<?xml version="1.0" encoding="utf-8"?>
<!-- Generator: Adobe Illustrator 20.0.0, SVG Export Plug-In . SVG Version: 6.00 Build 0)  -->
<svg version="1.1" id="icon-" xmlns="http://www.w3.org/2000/svg" xmlns:xlink="http://www.w3.org/1999/xlink" x="0px" y="0px"
	 viewBox="0 0 720 960" enable-background="new 0 0 720 960" xml:space="preserve">
<path id="pause_1_" d="M120,900L120,900C53.7,900,0,846.3,0,780l0-600C0,113.7,53.7,60,120,60h0c66.3,0,120,53.7,120,120v600
	C240,846.3,186.3,900,120,900z M720,780V180c0-66.3-53.7-120-120-120h0c-66.3,0-120,53.7-120,120v600c0,66.3,53.7,120,120,120h0
	C666.3,900,720,846.3,720,780z"/>
</svg>
