<?xml version="1.0" encoding="utf-8"?>
<!-- Generator: Adobe Illustrator 18.1.1, SVG Export Plug-In . SVG Version: 6.00 Build 0)  -->
<svg version="1.1" xmlns="http://www.w3.org/2000/svg" xmlns:xlink="http://www.w3.org/1999/xlink" x="0px" y="0px"
	 viewBox="0 0 960 960" enable-background="new 0 0 960 960" xml:space="preserve">
<g id="expand">
</g>
<g id="speaker_x5F_off">
</g>
<g id="speaker_x5F_on">
</g>
<g id="pause">
	<path d="M300,900L300,900c-66.3,0-120-53.7-120-120V180c0-66.3,53.7-120,120-120h0c66.3,0,120,53.7,120,120v600
		C420,846.3,366.3,900,300,900z M900,780V180c0-66.3-53.7-120-120-120h0c-66.3,0-120,53.7-120,120v600c0,66.3,53.7,120,120,120h0
		C846.3,900,900,846.3,900,780z"/>
</g>
<g id="play">
</g>
<g id="circle-arrow">
</g>
<g id="module">
</g>
<g id="speedometer">
</g>
<g id="calendar">
</g>
<g id="data">
</g>
<g id="code-file">
</g>
<g id="gear">
</g>
<g id="tint">
</g>
<g id="dribbble">
</g>
<g id="globe">
</g>
<g id="github">
</g>
<g id="facebook">
</g>
<g id="twitter">
</g>
<g id="skype">
</g>
<g id="phone">
</g>
<g id="mail">
</g>
<g id="liferay-logo-2">
</g>
<g id="menu-content">
</g>
<g id="streams">
</g>
<g id="balloon-topic">
</g>
<g id="groups">
</g>
<g id="persons">
</g>
<g id="house">
</g>
<g id="liferay-logo">
</g>
<g id="eye">
</g>
<g id="confirm">
</g>
<g id="send">
</g>
<g id="back">
</g>
<g id="cancel_1_">
</g>
<g id="plus">
</g>
<g id="bullhorn">
</g>
<g id="link">
</g>
<g id="pen">
</g>
<g id="bell">
</g>
<g id="magnifier">
</g>
<g id="menu">
</g>
<g id="ellipsis">
</g>
<g id="balloon-comment">
</g>
<g id="heart-fill">
</g>
<g id="heart">
</g>
<g id="camera">
</g>
<g id="subscribe">
</g>
<g id="star">
</g>
<g id="guides">
</g>
</svg>
