<?xml version="1.0" encoding="utf-8"?>
<!-- Generator: Adobe Illustrator 21.0.1, SVG Export Plug-In . SVG Version: 6.00 Build 0)  -->
<svg version="1.1" id="icon-" xmlns="http://www.w3.org/2000/svg" xmlns:xlink="http://www.w3.org/1999/xlink" x="0px" y="0px"
	 viewBox="0 0 960 960" style="enable-background:new 0 0 960 960;" xml:space="preserve">
<style type="text/css">
	.st0{fill-rule:evenodd;clip-rule:evenodd;}
	.st1{fill:#29ABE2;}
	.st2{fill-rule:evenodd;clip-rule:evenodd;fill:#181616;}
	.st3{fill:#FF0000;}
</style>
<path id="pen" d="M960,270c0,24.9-10.1,47.4-26.4,63.6c-127.3,127.3-292.7,292.7-420,420C497.4,769.9,474.9,780,450,780
	c-24.9,0-47.4-10.1-63.6-26.4c-90-90-90-90-180-180C190.1,557.4,180,534.9,180,510c0-24.9,10.1-47.4,26.4-63.6
	c127.3-127.3,292.7-292.7,420-420C642.6,10.1,665.1,0,690,0c24.9,0,47.4,10.1,63.6,26.4c90,90,90,90,180,180
	C949.9,222.6,960,245.1,960,270z M111.2,608.8c-5.4-5.4-12.9-8.8-21.2-8.8c-14.6,0-26.7,10.4-29.4,24.2C48.8,683,12.7,863,0.7,923.2
	c-0.4,2-0.7,4.2-0.7,6.3C0,946.3,13.7,960,30.5,960c2.2,0,4.3-0.2,6.3-0.7c60.1-12,240.1-48.1,298.9-59.9
	c13.8-2.7,24.2-14.8,24.2-29.4c0-8.3-3.4-15.8-8.8-21.2C308.8,806.4,153.6,651.2,111.2,608.8z"/>
</svg>
