<?xml version="1.0" encoding="utf-8"?>
<!-- Generator: Adobe Illustrator 21.0.1, SVG Export Plug-In . SVG Version: 6.00 Build 0)  -->
<svg version="1.1" id="icon-" xmlns="http://www.w3.org/2000/svg" xmlns:xlink="http://www.w3.org/1999/xlink" x="0px" y="0px"
	 viewBox="0 0 1500 960" style="enable-background:new 0 0 1500 960;" xml:space="preserve">
<style type="text/css">
	.st0{fill-rule:evenodd;clip-rule:evenodd;}
	.st1{fill:#29ABE2;}
	.st2{fill-rule:evenodd;clip-rule:evenodd;fill:#181616;}
	.st3{fill:#FF0000;}
</style>
<path id="people" class="st0" d="M540,210C540,94,634,0,750,0s210,94,210,210s-94,210-210,210S540,326,540,210z M810,540
	c-34.3,0-85.7,0-120,0c-116,0-210,94-210,210c0,163.3,0,103.3,0,150c0,33.1,26.9,60,60,60c120,0,300,0,420,0c33.1,0,60-26.9,60-60
	c0-46.7,0,13.3,0-150C1020,634,926,540,810,540z M180,120C80.6,120,0,200.6,0,300s80.6,180,180,180s180-80.6,180-180
	S279.4,120,180,120z M180,600C80.6,600,0,680.6,0,780c0,90,0,90,0,120c0,33.1,26.9,60,60,60c30,0,30,0,120,0s90,0,120,0
	c33.1,0,60-26.9,60-60c0-30,0-30,0-120C360,680.6,279.4,600,180,600z M1320,480c99.4,0,180-80.6,180-180s-80.6-180-180-180
	s-180,80.6-180,180S1220.6,480,1320,480z M1320,600c-99.4,0-180,80.6-180,180c0,90,0,90,0,120c0,33.1,26.9,60,60,60c30,0,30,0,120,0
	s90,0,120,0c33.1,0,60-26.9,60-60c0-30,0-30,0-120C1500,680.6,1419.4,600,1320,600z"/>
</svg>
