<?xml version="1.0" encoding="utf-8"?>
<!-- Generator: Adobe Illustrator 18.1.1, SVG Export Plug-In . SVG Version: 6.00 Build 0)  -->
<svg version="1.1" xmlns="http://www.w3.org/2000/svg" xmlns:xlink="http://www.w3.org/1999/xlink" x="0px" y="0px"
	 viewBox="0 0 1200 960" enable-background="new 0 0 1200 960" xml:space="preserve">
<g id="row-5">
	<g id="speed-monitor">
	</g>
	<g id="person-role">
	</g>
	<g id="lock">
	</g>
	<g id="list">
	</g>
	<g id="read-mail">
	</g>
	<g id="person">
		<path d="M1034.8,730.8c-27.1-48.9-64.9-93.3-112.4-131.9c-39.3-32-84.7-59-132.2-79c7.4-5.9,14.5-12.2,21.4-18.9
			c27.7-26.9,49.4-58.3,64.6-93.3C892,371.4,900,332.8,900,293s-8-78.4-23.8-114.8c-15.2-35-37-66.4-64.6-93.3
			C754.9,30,679.8-0.3,600-0.3S445.1,30,388.5,85c-27.7,26.9-49.4,58.3-64.6,93.3C308,214.6,300,253.2,300,293s8,78.4,23.8,114.8
			c15.2,35,37,66.4,64.6,93.3c6.9,6.7,14,13,21.4,18.9c-47.6,20-92.9,47-132.2,79c-47.5,38.6-85.3,83-112.4,131.9
			C135.2,785,120,841.9,120,900v60h900l60,0v-60C1080,841.9,1064.8,785,1034.8,730.8z M600,119.7c99.3,0,180,77.8,180,173.3
			s-80.7,173.3-180,173.3S420,388.6,420,293S500.7,119.7,600,119.7z M248.7,840c5-17.2,12.2-34.3,21.5-51.1
			c19.3-34.9,48.1-68.4,83.1-96.9c70.9-57.6,163.1-92,246.7-92s175.8,34.4,246.7,92c35.1,28.5,63.8,62,83.1,96.9
			c9.3,16.8,16.5,33.9,21.5,51.1L248.7,840z"/>
	</g>
	<g id="folder">
	</g>
	<g id="server">
	</g>
	<g id="arrow-right-rod">
	</g>
	<g id="contract">
	</g>
	<g id="expand">
	</g>
	<g id="speaker-off">
	</g>
</g>
<g id="row-4">
	<g id="speaker-on">
	</g>
	<g id="pause">
	</g>
	<g id="play">
	</g>
	<g id="circle-arrow">
	</g>
	<g id="module">
	</g>
	<g id="speedometer">
	</g>
	<g id="calendar">
	</g>
	<g id="data">
	</g>
	<g id="code-file">
	</g>
	<g id="gear">
	</g>
	<g id="tint">
	</g>
	<g id="dribbble">
	</g>
</g>
<g id="row-3">
	<g id="globe">
	</g>
	<g id="github">
	</g>
	<g id="facebook">
	</g>
	<g id="twitter">
	</g>
	<g id="skype">
	</g>
	<g id="phone">
	</g>
	<g id="mail">
	</g>
	<g id="liferay-logo-2">
	</g>
	<g id="menu-content">
	</g>
	<g id="streams">
	</g>
	<g id="balloon-topic">
	</g>
	<g id="groups">
	</g>
</g>
<g id="row-2">
	<g id="persons">
	</g>
	<g id="house">
	</g>
	<g id="liferay-logo">
	</g>
	<g id="eye">
	</g>
	<g id="confirm">
	</g>
	<g id="send">
	</g>
	<g id="arrow-left-rod">
	</g>
	<g id="cancel_1_">
	</g>
	<g id="plus">
	</g>
	<g id="bullhorn">
	</g>
	<g id="link">
	</g>
</g>
<g id="row-1">
	<g id="pen">
	</g>
	<g id="bell">
	</g>
	<g id="magnifier">
	</g>
	<g id="menu">
	</g>
	<g id="ellipsis">
	</g>
	<g id="balloon-comment">
	</g>
	<g id="heart-fill">
	</g>
	<g id="heart">
	</g>
	<g id="camera">
	</g>
	<g id="subscribe">
	</g>
	<g id="star">
	</g>
</g>
<g id="guides" display="none">
</g>
</svg>
