<?xml version="1.0" encoding="utf-8"?>
<!-- Generator: Adobe Illustrator 20.0.0, SVG Export Plug-In . SVG Version: 6.00 Build 0)  -->
<svg version="1.1" id="icon-" xmlns="http://www.w3.org/2000/svg" xmlns:xlink="http://www.w3.org/1999/xlink" x="0px" y="0px"
	 viewBox="0 0 1140 960" enable-background="new 0 0 1140 960" xml:space="preserve">
<path id="person-card" d="M840,510c0,82.8-67.2,150-150,150s-150-67.2-150-150s67.2-150,150-150S840,427.2,840,510z M1140,270
	c0,270,0,330,0,600c0,82.8-67.2,150-150,150c-58.4,0-541.6,0-600,0c-82.8,0-150-67.2-150-150c0-32.9,0-62.6,0-90
	c-27.4,0-57.1,0-90,0C67.2,780,0,712.8,0,630C0,360,0,300,0,30c0-82.8,67.2-150,150-150c270,0,330,0,600,0c82.8,0,150,67.2,150,150
	c0,32.9,0,62.6,0,90c27.4,0,57.1,0,90,0C1072.8,120,1140,187.2,1140,270z M390,120c182.8,0,269.4,0,390,0c0-22.9,0-43.2,0-60
	c0-33.1-26.9-60-60-60C600,0,300,0,180,0c-33.1,0-60,26.9-60,60c0,120,0,420,0,540c0,33.1,26.9,60,60,60c16.8,0,37.1,0,60,0
	c0-120.6,0-207.2,0-390C240,187.2,307.2,120,390,120z M1020,300c0-33.1-26.9-60-60-60c-120,0-420,0-540,0c-33.1,0-60,26.9-60,60
	c0,120,0,420,0,540c0,33.1,26.9,60,60,60c16.8,0,37.1,0,60,0c0-8.1,0-17.9,0-30c0-82.8,67.2-150,150-150c48,0,72,0,120,0
	c82.8,0,150,67.2,150,150c0,12.1,0,21.9,0,30c22.9,0,43.2,0,60,0c33.1,0,60-26.9,60-60C1020,720,1020,420,1020,300z"/>
</svg>
