<?xml version="1.0" encoding="utf-8"?>
<!-- Generator: Adobe Illustrator 20.0.0, SVG Export Plug-In . SVG Version: 6.00 Build 0)  -->
<svg version="1.1" id="icon-" xmlns="http://www.w3.org/2000/svg" xmlns:xlink="http://www.w3.org/1999/xlink" x="0px" y="0px"
	 viewBox="0 0 1020 960" enable-background="new 0 0 1020 960" xml:space="preserve">
<path id="persons" d="M780,540c-30,0-90,0-120,0c-56.8,0-108.9,19.7-150,52.7c-41.1-32.9-93.2-52.7-150-52.7c-30,0-90,0-120,0
	C107.5,540,0,647.5,0,780c0,24.7,0,41.6,0,52.9c0,2.7,0,5,0,7.1c0,33.1,26.9,60,60,60c29.2,0,294.8,0,420,0c29.3,0,50.9,0,60,0
	c121.8,0,381.9,0,420,0c33.1,0,60-26.9,60-60c0-5.1,0-7,0-7.1c0-11.3,0-28.2,0-52.9C1020,647.5,912.5,540,780,540z M600,780
	c0-32.3-6.4-63.1-18-91.2c21-17.9,48.2-28.8,78-28.8c60,0,60,0,120,0c66.3,0,120,53.7,120,120H600z M300,420
	c90.4,0,169.1-50,210-123.8C550.9,370,629.6,420,720,420c132.5,0,240-107.5,240-240S852.5-60,720-60c-90.4,0-169.1,50-210,123.8
	C469.1-10,390.4-60,300-60C167.5-60,60,47.5,60,180S167.5,420,300,420z M720,60c66.3,0,120,53.7,120,120s-53.7,120-120,120
	s-120-53.7-120-120S653.7,60,720,60z"/>
</svg>
