<?xml version="1.0" encoding="utf-8"?>
<!-- Generator: Adobe Illustrator 18.1.1, SVG Export Plug-In . SVG Version: 6.00 Build 0)  -->
<svg version="1.1" xmlns="http://www.w3.org/2000/svg" xmlns:xlink="http://www.w3.org/1999/xlink" x="0px" y="0px"
	 viewBox="0 0 1260 960" enable-background="new 0 0 1260 960" xml:space="preserve">
<g id="dribbble">
</g>
<g id="globe">
</g>
<g id="github">
</g>
<g id="facebook">
</g>
<g id="twitter">
</g>
<g id="skype">
</g>
<g id="phone">
</g>
<g id="mail">
</g>
<g id="liferay-logo-2">
</g>
<g id="menu-content">
</g>
<g id="streams">
</g>
<g id="balloon-topic">
</g>
<g id="groups">
</g>
<g id="persons">
	<path d="M480,420c56.8,0,108.9-19.7,150-52.7c41.1,32.9,93.2,52.7,150,52.7c132.5,0,240-107.5,240-240S912.5-60,780-60
		c-56.8,0-108.9,19.7-150,52.7C588.9-40.3,536.8-60,480-60C347.5-60,240,47.5,240,180S347.5,420,480,420z M907.3,52.7
		c34,34,52.7,79.2,52.7,127.3s-18.7,93.3-52.7,127.3S828.1,360,780,360c-39.5,0-77-12.6-108-36c30.1-40.1,48-90,48-144
		S702.1,76.1,672,36c31-23.3,68.5-36,108-36C828.1,0,873.3,18.7,907.3,52.7z M1020,540H720H540H240c-66.3,0-120,53.7-120,120v300
		h300h420h300V660C1140,593.7,1086.3,540,1020,540z M1080,900H840V660c0-21.9-5.8-42.3-16.1-60H1020c33.1,0,60,26.9,60,60V900z"/>
</g>
<g id="house">
</g>
<g id="liferay-logo">
</g>
<g id="eye">
</g>
<g id="confirm">
</g>
<g id="send">
</g>
<g id="back">
</g>
<g id="cancel_1_">
</g>
<g id="plus">
</g>
<g id="bullhorn">
</g>
<g id="link">
</g>
<g id="pen">
</g>
<g id="bell">
</g>
<g id="magnifier">
</g>
<g id="menu">
</g>
<g id="ellipsis">
</g>
<g id="balloon-comment">
</g>
<g id="heart-fill">
</g>
<g id="heart">
</g>
<g id="camera">
</g>
<g id="subscribe">
</g>
<g id="star">
</g>
<g id="guides">
</g>
</svg>
