<?xml version="1.0" encoding="utf-8"?>
<!-- Generator: Adobe Illustrator 19.2.1, SVG Export Plug-In . SVG Version: 6.00 Build 0)  -->
<svg version="1.1" xmlns="http://www.w3.org/2000/svg" xmlns:xlink="http://www.w3.org/1999/xlink" x="0px" y="0px"
	 viewBox="0 0 1080 960" enable-background="new 0 0 1080 960" xml:space="preserve">
<g id="row-7">
	<path id="person-card" d="M841,480c0,99.4-80.6,180-180,180s-180-80.6-180-180s80.6-180,180-180S841,380.6,841,480z M1080,269
		c0,270,0,270,0,540c0,82.8-66.2,151-149,151c-270,0-270,0-540,0c-72.8,0-134.3-52.7-148.1-121.7c-60.8-11.6-109.1-60.2-120.4-121.1
		C53.1,703.8,0,642.1,0,569C0,299,0,299,0,29c0-82.8,68.2-149,151-149c270,0,270,0,540,0c74.1,0,134.8,52.9,146.8,123.4
		c60.9,10.9,108.4,58.2,119.6,118.9C1027.5,134.6,1080,195.2,1080,269z M271,1c257.7,0,269.4,0,504.6,0
		c-4.2-13.1-11.5-25.1-21.5-35.1C737.3-51,715-60,691-60H151c-24.2,0-47.2,9.1-64.3,26.1C69.6-17.1,60,5.1,60,29v540
		c0,24,9.7,47,26.9,64.1c9.5,9.5,20.8,16.8,33.1,21.3c0-235,0-246.8,0-504.4C120,67.2,188.2,1,271,1z M391,120
		c257.4,0,269.4,0,504,0c-4.3-12.3-11.3-23.6-20.9-33.1c-9.8-9.8-21.4-16.9-34.1-21.2c-9.2-3.1-18.9-4.7-29-4.7h-31H271
		c-24.2,0-47.2,9.1-64.3,26.1c-17,16.9-26.7,39.1-26.7,62.9v510v30c0,10.3,1.8,20.4,5.2,30c4.5,12.7,11.9,24.4,21.7,34.1
		c9.5,9.5,20.8,16.8,33.1,21.3c0-236.9,0-248.1,0-506.4C240,186.2,308.2,120,391,120z M1020,269c0-24-9-46.3-25.9-63.1
		c-9.8-9.8-21.4-16.9-34.1-21.2c-9.2-3.1-18.9-4.7-29-4.7h-31H391c-24.2,0-47.2,9.1-64.3,26.1c-17,16.9-26.7,39.1-26.7,62.9v512v28
		c0,11.1,2.1,21.9,5.9,32c4.6,11.9,11.7,22.9,20.9,32.1C344,890.3,367,900,391,900h90v-60c0-66.3,53.7-120,120-120h120
		c66.3,0,120,53.7,120,120v60h90c23.9,0,46.1-9.6,62.9-26.7c17-17.1,26.1-40.1,26.1-64.3V269z"/>
</g>
<g id="row-6">
</g>
<g id="row-5">
</g>
<g id="row-4">
	<g id="read-full_1_">
	</g>
	<g id="markdown">
	</g>
	<g id="info">
	</g>
	<g id="folder">
	</g>
	<g id="read-full_2_">
	</g>
	<g id="person">
	</g>
	<g id="eye">
	</g>
	<g id="clear">
	</g>
	<g id="arrow-right-rod">
	</g>
	<g id="contract">
	</g>
	<g id="expand">
	</g>
	<g id="speaker-off">
	</g>
	<g id="speaker-on">
	</g>
	<g id="pause">
	</g>
	<g id="play">
	</g>
</g>
<g id="row-3">
	<g id="circle-arrow">
	</g>
	<g id="speedometer">
	</g>
	<g id="calendar">
	</g>
	<g id="server">
	</g>
	<g id="code-file">
	</g>
	<g id="gear">
	</g>
	<g id="tint">
	</g>
	<g id="dribbble">
	</g>
	<g id="globe">
	</g>
	<g id="github">
	</g>
	<g id="facebook">
	</g>
	<g id="twitter">
	</g>
	<g id="skype">
	</g>
	<g id="phone">
	</g>
	<g id="mail">
	</g>
</g>
<g id="row-2">
	<g id="liferay-logo-2">
	</g>
	<g id="menu-content">
	</g>
	<g id="streams">
	</g>
	<g id="balloon-topic">
	</g>
	<g id="groups">
	</g>
	<g id="liferay-logo">
	</g>
	<g id="heart-full">
	</g>
	<g id="confirm">
	</g>
	<g id="send">
	</g>
	<g id="arrow-left-rod">
	</g>
	<g id="cancel_1_">
	</g>
	<g id="plus">
	</g>
</g>
<g id="row-1">
	<g id="bullhorn">
	</g>
	<g id="link">
	</g>
	<g id="pen">
	</g>
	<g id="bell">
	</g>
	<g id="magnifier">
	</g>
	<g id="menu">
	</g>
	<g id="ellipsis">
	</g>
	<g id="balloon-comment">
	</g>
	<g id="heart-inline">
	</g>
	<g id="heart">
	</g>
	<g id="camera">
	</g>
	<g id="lock">
	</g>
	<g id="star">
	</g>
</g>
<g id="guides">
</g>
</svg>
