<?xml version="1.0" encoding="utf-8"?>
<!-- Generator: Adobe Illustrator 20.0.0, SVG Export Plug-In . SVG Version: 6.00 Build 0)  -->
<svg version="1.1" id="icon-" xmlns="http://www.w3.org/2000/svg" xmlns:xlink="http://www.w3.org/1999/xlink" x="0px" y="0px"
	 viewBox="0 0 840 960" enable-background="new 0 0 840 960" xml:space="preserve">
<path id="phone-house" d="M420,360C221.2,360,60,521.2,60,720v120h720V720C780,521.2,618.8,360,420,360z M420,720
	c-66.3,0-120-53.7-120-120s53.7-120,120-120s120,53.7,120,120S486.3,720,420,720z M840,240c0,30,0,30,0,60c0,33.1-26.9,60-60,60
	c-60,0-60,0-120,0c-33.1,0-60-26.9-60-60c0-47.5,0-57.4,0-89.3c-2-0.7-4.1-1.4-6.1-2.1C538.1,189.6,479.6,180,420,180
	s-118.1,9.6-173.9,28.6c-2,0.7-4.1,1.4-6.1,2.1c0,31.9,0,41.7,0,89.3c0,33.1-26.9,60-60,60c-60,0-60,0-120,0c-33.1,0-60-26.9-60-60
	c0-30,0-30,0-60c0-19.5,9.3-36.8,23.7-47.8l0,0c55.9-42.1,117.8-74.8,183.8-97.2C275.8,71.8,347.3,60,420,60s144.2,11.8,212.5,35
	c66,22.4,127.9,55.2,183.8,97.2l0,0C830.7,203.2,840,220.5,840,240z"/>
</svg>
