<?xml version="1.0" encoding="utf-8"?>
<!-- Generator: Adobe Illustrator 20.0.0, SVG Export Plug-In . SVG Version: 6.00 Build 0)  -->
<svg version="1.1" id="icon-" xmlns="http://www.w3.org/2000/svg" xmlns:xlink="http://www.w3.org/1999/xlink" x="0px" y="0px"
	 viewBox="0 0 900 960" enable-background="new 0 0 900 960" xml:space="preserve">
<path id="phone-business" d="M810,60H360v840h450c49.7,0,90-40.3,90-90V150C900,100.3,859.7,60,810,60z M600,720H480V600h120V720z
	 M600,540H480V420h120V540z M780,720H660V600h120V720z M780,540H660V420h120V540z M780,300H480V180h300V300z M240,150
	c0,180,0,480,0,660c0,49.7-40.3,90-90,90c-60,0,0,0-60,0c-49.7,0-90-40.3-90-90c0-180,0-480,0-660c0-49.7,40.3-90,90-90
	c60,0,0,0,60,0C199.7,60,240,100.3,240,150z"/>
</svg>
