<?xml version="1.0" encoding="utf-8"?>
<!-- Generator: Adobe Illustrator 19.2.1, SVG Export Plug-In . SVG Version: 6.00 Build 0)  -->
<svg version="1.1" xmlns="http://www.w3.org/2000/svg" xmlns:xlink="http://www.w3.org/1999/xlink" x="0px" y="0px"
	 viewBox="0 0 840 960" enable-background="new 0 0 840 960" xml:space="preserve">
<g id="row-7">
</g>
<g id="row-6">
</g>
<g id="row-5">
	<path id="phone-work" d="M833.7,747L833.7,747c4-8,6.3-17.3,6.3-26.9c0-26.5-17-49.1-41-57v0c0,0-0.2-0.1-0.3-0.1
		c-0.3-0.1-0.6-0.2-0.9-0.3C709,633.1,709,632.9,619,603.1v0c-6-2-12.4-3.1-19-3.1c-16.6,0-31.6,6.7-42.4,17.6
		c-53.1,53.1-59.2,59.2-101.4,101.4C336.7,660.4,239.6,563.3,181,443.9c42.2-42.2,48.4-48.4,101.4-101.4h0
		c10.9-10.9,17.6-25.9,17.6-42.4c0-6.6-1.1-13-3.1-19h0c-29.9-90-30-90-59.6-178.8c-0.1-0.3-0.2-0.6-0.3-0.9c0-0.1-0.1-0.3-0.1-0.3
		h0c-7.9-24-30.5-41-57-41c-9.6,0-18.9,2.3-26.9,6.3v0c-60,29.8-59.9,30-118.9,59.5c-0.3,0.1-0.6,0.3-0.8,0.4
		c-0.1,0-0.2,0.1-0.2,0.1v0C14,136.2-0.1,156.5-0.1,180c0,3.4,0.3,6.8,0.9,10c5.4,392.7,325.1,709.4,718.9,710
		c0.1,0,0.2,0.1,0.3,0.1c23.5,0,43.8-14.1,53.7-33.1h0c0,0,0.1-0.2,0.1-0.3c0.1-0.3,0.3-0.5,0.4-0.7C803.7,807,803.8,807,833.7,747z
		"/>
</g>
<g id="row-4">
	<g id="read-full_1_">
	</g>
	<g id="markdown">
	</g>
	<g id="info">
	</g>
	<g id="folder">
	</g>
	<g id="read-full_2_">
	</g>
	<g id="person">
	</g>
	<g id="eye">
	</g>
	<g id="clear">
	</g>
	<g id="arrow-right-rod">
	</g>
	<g id="contract">
	</g>
	<g id="expand">
	</g>
	<g id="speaker-off">
	</g>
	<g id="speaker-on">
	</g>
	<g id="pause">
	</g>
	<g id="play">
	</g>
</g>
<g id="row-3">
	<g id="circle-arrow">
	</g>
	<g id="speedometer">
	</g>
	<g id="calendar">
	</g>
	<g id="server">
	</g>
	<g id="code-file">
	</g>
	<g id="gear">
	</g>
	<g id="tint">
	</g>
	<g id="dribbble">
	</g>
	<g id="globe">
	</g>
	<g id="github">
	</g>
	<g id="facebook">
	</g>
	<g id="twitter">
	</g>
	<g id="skype">
	</g>
	<g id="phone">
	</g>
	<g id="mail">
	</g>
</g>
<g id="row-2">
	<g id="liferay-logo-2">
	</g>
	<g id="menu-content">
	</g>
	<g id="streams">
	</g>
	<g id="balloon-topic">
	</g>
	<g id="groups">
	</g>
	<g id="liferay-logo">
	</g>
	<g id="heart-full">
	</g>
	<g id="confirm">
	</g>
	<g id="send">
	</g>
	<g id="arrow-left-rod">
	</g>
	<g id="cancel_1_">
	</g>
	<g id="plus">
	</g>
</g>
<g id="row-1">
	<g id="bullhorn">
	</g>
	<g id="link">
	</g>
	<g id="pen">
	</g>
	<g id="bell">
	</g>
	<g id="magnifier">
	</g>
	<g id="menu">
	</g>
	<g id="ellipsis">
	</g>
	<g id="balloon-comment">
	</g>
	<g id="heart-inline">
	</g>
	<g id="heart">
	</g>
	<g id="camera">
	</g>
	<g id="lock">
	</g>
	<g id="star">
	</g>
</g>
<g id="guides">
</g>
</svg>
