<?xml version="1.0" encoding="utf-8"?>
<!-- Generator: Adobe Illustrator 21.0.1, SVG Export Plug-In . SVG Version: 6.00 Build 0)  -->
<svg version="1.1" id="icon-" xmlns="http://www.w3.org/2000/svg" xmlns:xlink="http://www.w3.org/1999/xlink" x="0px" y="0px"
	 viewBox="0 0 840 960" style="enable-background:new 0 0 840 960;" xml:space="preserve">
<style type="text/css">
	.st0{fill-rule:evenodd;clip-rule:evenodd;}
	.st1{fill:#29ABE2;}
	.st2{fill-rule:evenodd;clip-rule:evenodd;fill:#181616;}
	.st3{fill:#FF0000;}
</style>
<path id="phone-work" d="M833.7,747L833.7,747c4-8,6.3-17.3,6.3-26.9c0-26.5-17-49.1-41-57v0c0,0-0.2-0.1-0.3-0.1
	c-0.3-0.1-0.6-0.2-0.9-0.3C709,633.1,709,632.9,619,603.1v0c-6-2-12.4-3.1-19-3.1c-16.6,0-31.6,6.7-42.4,17.6
	c-53.1,53.1-59.2,59.2-101.4,101.4C336.7,660.4,239.6,563.3,181,443.9c42.2-42.2,48.4-48.4,101.4-101.4h0
	c10.9-10.9,17.6-25.9,17.6-42.4c0-6.6-1.1-13-3.1-19h0c-29.9-90-30-90-59.6-178.8c-0.1-0.3-0.2-0.6-0.3-0.9c0-0.1-0.1-0.3-0.1-0.3h0
	c-7.9-24-30.5-41-57-41c-9.6,0-18.9,2.3-26.9,6.3v0c-60,29.8-59.9,30-118.9,59.5c-0.3,0.1-0.6,0.3-0.8,0.4c-0.1,0-0.2,0.1-0.2,0.1v0
	C14,136.2-0.1,156.5-0.1,180c0,3.4,0.3,6.8,0.9,10c5.4,392.7,325.1,709.4,718.9,710c0.1,0,0.2,0.1,0.3,0.1
	c23.5,0,43.8-14.1,53.7-33.1h0c0,0,0.1-0.2,0.1-0.3c0.1-0.3,0.3-0.5,0.4-0.7C803.7,807,803.8,807,833.7,747z"/>
</svg>
