<?xml version="1.0" encoding="utf-8"?>
<!-- Generator: Adobe Illustrator 21.0.1, SVG Export Plug-In . SVG Version: 6.00 Build 0)  -->
<svg version="1.1" id="icon-" xmlns="http://www.w3.org/2000/svg" xmlns:xlink="http://www.w3.org/1999/xlink" x="0px" y="0px"
	 viewBox="0 0 900 960" style="enable-background:new 0 0 900 960;" xml:space="preserve">
<style type="text/css">
	.st0{fill-rule:evenodd;clip-rule:evenodd;}
	.st1{fill:#29ABE2;}
	.st2{fill-rule:evenodd;clip-rule:evenodd;fill:#181616;}
	.st3{fill:#FF0000;}
</style>
<path id="plus" d="M810,360c-69.9,0-166.9,0-270,0c0-103.1,0-200.1,0-270c0-49.7-40.3-90-90-90s-90,40.3-90,90c0,69.9,0,166.9,0,270
	c-103.1,0-200.1,0-270,0c-49.7,0-90,40.3-90,90s40.3,90,90,90c69.9,0,166.9,0,270,0c0,103.1,0,200.1,0,270c0,49.7,40.3,90,90,90
	s90-40.3,90-90c0-69.9,0-166.9,0-270c103.1,0,200.1,0,270,0c49.7,0,90-40.3,90-90S859.7,360,810,360z"/>
</svg>
