<?xml version="1.0" encoding="utf-8"?>
<!-- Generator: Adobe Illustrator 20.0.0, SVG Export Plug-In . SVG Version: 6.00 Build 0)  -->
<svg version="1.1" id="icon-" xmlns="http://www.w3.org/2000/svg" xmlns:xlink="http://www.w3.org/1999/xlink" x="0px" y="0px"
	 viewBox="0 0 960 960" enable-background="new 0 0 960 960" xml:space="preserve">
<path id="plus_1_" fill="#29ABE2" d="M960,480L960,480c0,33.1-26.9,60-60,60H540v360c0,33.1-26.9,60-60,60h0c-33.1,0-60-26.9-60-60
	V540H60c-33.1,0-60-26.9-60-60l0,0c0-33.1,26.9-60,60-60h360V60c0-33.1,26.9-60,60-60h0c33.1,0,60,26.9,60,60v360h360
	C933.1,420,960,446.9,960,480z"/>
</svg>
