<?xml version="1.0" encoding="utf-8"?>
<!-- Generator: Adobe Illustrator 18.1.1, SVG Export Plug-In . SVG Version: 6.00 Build 0)  -->
<svg version="1.1" xmlns="http://www.w3.org/2000/svg" xmlns:xlink="http://www.w3.org/1999/xlink" x="0px" y="0px"
	 viewBox="0 0 960 960" enable-background="new 0 0 960 960" xml:space="preserve">
<g id="dribbble">
</g>
<g id="globe">
</g>
<g id="github">
</g>
<g id="facebook">
</g>
<g id="twitter">
</g>
<g id="skype">
</g>
<g id="phone">
</g>
<g id="mail">
</g>
<g id="liferay-logo-2">
</g>
<g id="menu-content">
</g>
<g id="streams">
</g>
<g id="balloon-topic">
</g>
<g id="groups">
</g>
<g id="persons">
</g>
<g id="house">
</g>
<g id="liferay-logo">
</g>
<g id="eye">
</g>
<g id="confirm">
</g>
<g id="send">
</g>
<g id="back">
</g>
<g id="cancel_1_">
</g>
<g id="plus">
</g>
<g id="bullhorn">
</g>
<g id="link">
</g>
<g id="pen">
</g>
<g id="bell">
</g>
<g id="magnifier">
</g>
<g id="menu">
</g>
<g id="ellipsis">
</g>
<g id="balloon-comment">
</g>
<g id="heart-fill">
</g>
<g id="heart">
</g>
<g id="camera">
</g>
<g id="subscribe">
	<path d="M420,540H240V360h180V540z M420,600H240v180h180V600z M720,360H480v60h240V360z M720,480H480v60h240V480z M720,600H480v60
		h240V600z M720,720H480v60h240V720z M780,600v240H180V300h300v-60H120v660h720V600H780z M1140,180H900V-60h-60v240H600v60h240v240
		h60V240h240V180z"/>
</g>
<g id="star">
</g>
<g id="guides">
</g>
</svg>
