<?xml version="1.0" encoding="utf-8"?>
<!-- Generator: Adobe Illustrator 21.0.1, SVG Export Plug-In . SVG Version: 6.00 Build 0)  -->
<svg version="1.1" id="icon-" xmlns="http://www.w3.org/2000/svg" xmlns:xlink="http://www.w3.org/1999/xlink" x="0px" y="0px"
	 viewBox="0 0 900 960" style="enable-background:new 0 0 900 960;" xml:space="preserve">
<style type="text/css">
	.st0{fill-rule:evenodd;clip-rule:evenodd;}
	.st1{fill:#29ABE2;}
	.st2{fill-rule:evenodd;clip-rule:evenodd;fill:#181616;}
	.st3{fill:#FF0000;}
</style>
<path id="power-button" d="M360,330V-30c0-49.7,40.3-90,90-90s90,40.3,90,90v360c0,49.7-40.3,90-90,90S360,379.7,360,330z
	 M768.2,191.8c-35.1-35.1-92.1-35.1-127.3,0c-35.1,35.1-35.1,92.1,0,127.3c105.4,105.4,105.4,276.4,0,381.8s-276.4,105.4-381.8,0
	s-105.4-276.4,0-381.8l0,0c0.2-0.2,0.5-0.5,0.7-0.7c35.1-35.1,35.1-92.1,0-127.3c-35.1-35.1-92.1-35.1-127.3,0
	c-0.2,0.2-0.5,0.5-0.7,0.7l0,0c-175.7,175.7-175.7,460.7,0,636.4c175.7,175.7,460.7,175.7,636.4,0
	C943.9,652.5,943.9,367.5,768.2,191.8z"/>
</svg>
