<?xml version="1.0" encoding="utf-8"?>
<!-- Generator: Adobe Illustrator 18.1.1, SVG Export Plug-In . SVG Version: 6.00 Build 0)  -->
<svg version="1.1" xmlns="http://www.w3.org/2000/svg" xmlns:xlink="http://www.w3.org/1999/xlink" x="0px" y="0px"
	 viewBox="0 0 1080 960" enable-background="new 0 0 1080 960" xml:space="preserve">
<g id="row-5">
</g>
<g id="row-4">
	<g id="markdown">
	</g>
	<g id="mail_x5F_straight">
	</g>
	<g id="info">
	</g>
	<g id="folder">
	</g>
	<g id="read-mail">
	</g>
	<g id="person">
	</g>
	<g id="eye">
	</g>
	<g id="clear">
	</g>
	<g id="arrow-right-rod">
	</g>
	<g id="contract">
	</g>
	<g id="expand">
	</g>
	<g id="speaker-off">
	</g>
	<g id="speaker-on">
	</g>
	<g id="pause">
	</g>
	<g id="play">
	</g>
</g>
<g id="row-3">
	<g id="circle-arrow">
	</g>
	<g id="module">
	</g>
	<g id="speedometer">
	</g>
	<g id="calendar">
	</g>
	<g id="data">
	</g>
	<g id="code-file">
	</g>
	<g id="gear">
	</g>
	<g id="tint">
	</g>
	<g id="dribbble">
	</g>
	<g id="globe">
	</g>
	<g id="github">
	</g>
	<g id="facebook">
	</g>
	<g id="twitter">
	</g>
	<g id="skype">
	</g>
	<g id="phone">
	</g>
	<g id="mail">
	</g>
</g>
<g id="row-2">
	<g id="liferay-logo-2">
	</g>
	<g id="menu-content">
	</g>
	<g id="streams">
	</g>
	<g id="balloon-topic">
	</g>
	<g id="groups">
	</g>
	<g id="persons">
	</g>
	<g id="house">
	</g>
	<g id="liferay-logo">
	</g>
	<g id="heart-full">
	</g>
	<g id="confirm">
	</g>
	<g id="send">
		<path d="M180,120l720,360L180,840l240-360L180,120 M180.1-60c-50.4,0-100,21.2-135,60.9C-9,62.1-15,151.9,30.2,219.8L203.7,480
			L30.2,740.2C-15,808.1-9,897.9,45.1,959.1c35.1,39.7,84.6,60.9,135,60.9c27.3,0,54.8-6.2,80.4-19l720-360
			c61-30.5,99.5-92.8,99.5-161c0-68.2-38.5-130.5-99.5-161l-720-360C234.9-53.8,207.3-60,180.1-60L180.1-60z"/>
	</g>
	<g id="arrow-left-rod">
	</g>
	<g id="cancel_1_">
	</g>
	<g id="plus">
	</g>
</g>
<g id="row-1">
	<g id="bullhorn">
	</g>
	<g id="link">
	</g>
	<g id="pen">
	</g>
	<g id="bell">
	</g>
	<g id="magnifier">
	</g>
	<g id="menu">
	</g>
	<g id="ellipsis">
	</g>
	<g id="balloon-comment">
	</g>
	<g id="heart-fill">
	</g>
	<g id="heart">
	</g>
	<g id="camera">
	</g>
	<g id="blank">
	</g>
	<g id="star">
	</g>
</g>
<g id="guides">
</g>
</svg>
