<?xml version="1.0" encoding="utf-8"?>
<!-- Generator: Adobe Illustrator 21.0.1, SVG Export Plug-In . SVG Version: 6.00 Build 0)  -->
<svg version="1.1" id="icon-" xmlns="http://www.w3.org/2000/svg" xmlns:xlink="http://www.w3.org/1999/xlink" x="0px" y="0px"
	 viewBox="0 0 900 960" style="enable-background:new 0 0 900 960;" xml:space="preserve">
<style type="text/css">
	.st0{fill-rule:evenodd;clip-rule:evenodd;}
	.st1{fill:#29ABE2;}
	.st2{fill-rule:evenodd;clip-rule:evenodd;fill:#181616;}
	.st3{fill:#FF0000;}
</style>
<path id="send_1_" d="M835.8,586.3C626,700.7,388.8,830.1,179.1,944.5c-17.4,9.9-37.6,15.5-59.1,15.5C53.7,960,0,906.3,0,840
	c0-25.1,7.7-48.3,20.8-67.6c102.4-153.6,117.1-175.7,195-292.4c-77.9-116.8-92.5-138.8-195-292.4C7.7,168.3,0,145.1,0,120
	C0,53.7,53.7,0,120,0c21.5,0,41.6,5.7,59.1,15.5C388.8,129.9,626,259.3,835.8,373.7C874,393.8,900,433.9,900,480
	S874,566.2,835.8,586.3z"/>
</svg>
