<?xml version="1.0" encoding="utf-8"?>
<!-- Generator: Adobe Illustrator 20.0.0, SVG Export Plug-In . SVG Version: 6.00 Build 0)  -->
<svg version="1.1" id="icon-" xmlns="http://www.w3.org/2000/svg" xmlns:xlink="http://www.w3.org/1999/xlink" x="0px" y="0px"
	 viewBox="0 0 840 960" enable-background="new 0 0 840 960" xml:space="preserve">
<path id="server_1_" d="M720,540H120C53.7,540,0,593.7,0,660v120c0,66.3,53.7,120,120,120h600c66.3,0,120-53.7,120-120V660
	C840,593.7,786.3,540,720,540z M660,780c-33.1,0-60-26.9-60-60s26.9-60,60-60s60,26.9,60,60S693.1,780,660,780z M720,60H120
	C53.7,60,0,113.7,0,180v120c0,66.3,53.7,120,120,120h600c66.3,0,120-53.7,120-120V180C840,113.7,786.3,60,720,60z M660,300
	c-33.1,0-60-26.9-60-60s26.9-60,60-60s60,26.9,60,60S693.1,300,660,300z"/>
</svg>
