<?xml version="1.0" encoding="utf-8"?>
<!-- Generator: Adobe Illustrator 18.1.1, SVG Export Plug-In . SVG Version: 6.00 Build 0)  -->
<svg version="1.1" xmlns="http://www.w3.org/2000/svg" xmlns:xlink="http://www.w3.org/1999/xlink" x="0px" y="0px"
	 viewBox="0 0 1200 960" enable-background="new 0 0 1200 960" xml:space="preserve">
<g id="dribbble">
</g>
<g id="globe">
</g>
<g id="github">
</g>
<g id="facebook">
</g>
<g id="twitter">
</g>
<g id="skype">
	<path d="M853.1,584.4c0-41.9-18.1-77.5-42.5-100c-24.4-22.5-65-41.9-96.9-51.9c-16.3-5-34.4-10-55-14.4l-65-15
		c-25-5.6-31.9-6.9-49.4-13.8c-17.5-6.9-22.5-12.5-28.8-23.1c-3.1-5.6-5-11.9-5-18.7c0-31.9,30-48.1,90-48.1c35.6,0,65,11.2,81.9,25
		c8.1,6.9,16.3,14.4,23.8,21.2c15,14.4,33.1,25.6,55,25.6c39.4,0,65-30.6,65-68.1c0-45.6-51.9-85-123.8-104.4
		c-35.6-9.4-73.7-14.4-113.7-14.4c-56.9,0-110.6,12.5-156.9,38.8c-46.3,26.2-76.9,74.4-76.9,135c0,50.6,16.2,88.8,46.9,113.8
		c30.6,25,64.4,38.7,114.4,50.6l91.2,22.5c75,18.1,90,26.9,90,60c0,32.5-36.2,56.3-90.6,56.3c-42.5,0-77.5-15.6-97.5-34.4
		c-10.6-9.4-20-18.7-28.7-28.1C463.1,580,442.5,565,418.1,565c-41.9,0-63.1,28.1-63.1,65.6C355,707.5,472.5,770,613.1,770
		c60.6,0,118.1-15.6,164.4-45C823.7,695.6,853.1,645,853.1,584.4z M1080,720c0,132.5-107.5,240-240,240c-54.4,0-103.1-16.9-146.2-50
		c-31.9,6.9-63.1,10-93.7,10c-119.4,0-232.5-50-311.3-128.7C210,712.5,160,599.4,160,480c0-30.6,3.1-61.9,10-93.7
		c-33.1-43.1-50-91.9-50-146.2C120,107.5,227.5,0,360,0c54.4,0,103.1,16.9,146.2,50c31.9-6.9,63.1-10,93.7-10
		c119.4,0,233.1,49.4,311.9,128.1C990.6,246.9,1040,360.6,1040,480c0,30.6-3.1,61.9-10,93.7C1063.1,616.9,1080,665.6,1080,720z"/>
</g>
<g id="phone">
</g>
<g id="mail">
</g>
<g id="liferay-logo-2">
</g>
<g id="menu-content">
</g>
<g id="streams">
</g>
<g id="balloon-topic">
</g>
<g id="groups">
</g>
<g id="persons">
</g>
<g id="house">
</g>
<g id="liferay-logo">
</g>
<g id="eye">
</g>
<g id="confirm">
</g>
<g id="send">
</g>
<g id="back">
</g>
<g id="cancel_1_">
</g>
<g id="plus">
</g>
<g id="bullhorn">
</g>
<g id="link">
</g>
<g id="pen">
</g>
<g id="bell">
</g>
<g id="magnifier">
</g>
<g id="menu">
</g>
<g id="ellipsis">
</g>
<g id="balloon-comment">
</g>
<g id="heart-fill">
</g>
<g id="heart">
</g>
<g id="camera">
</g>
<g id="subscribe">
</g>
<g id="star">
</g>
<g id="guides">
</g>
</svg>
