<?xml version="1.0" encoding="utf-8"?>
<!-- Generator: Adobe Illustrator 19.2.1, SVG Export Plug-In . SVG Version: 6.00 Build 0)  -->
<svg version="1.1" xmlns="http://www.w3.org/2000/svg" xmlns:xlink="http://www.w3.org/1999/xlink" x="0px" y="0px"
	 viewBox="0 0 960 960" enable-background="new 0 0 960 960" xml:space="preserve">
<g id="row-7">
</g>
<g id="row-6">
</g>
<g id="row-5">
</g>
<g id="row-4">
	<g id="read-full_1_">
	</g>
	<g id="markdown">
	</g>
	<g id="info">
	</g>
	<g id="folder">
	</g>
	<g id="read-full_2_">
	</g>
	<g id="person">
	</g>
	<g id="eye">
	</g>
	<g id="clear">
	</g>
	<g id="arrow-right-rod">
	</g>
	<g id="contract">
	</g>
	<g id="expand">
	</g>
	<g id="speaker-off">
	</g>
	<g id="speaker-on">
	</g>
	<g id="pause">
	</g>
	<g id="play">
	</g>
</g>
<g id="row-3">
	<g id="circle-arrow">
	</g>
	<g id="speedometer">
	</g>
	<g id="calendar">
	</g>
	<g id="server">
	</g>
	<g id="code-file">
	</g>
	<g id="gear">
	</g>
	<g id="tint">
	</g>
	<g id="dribbble">
	</g>
	<g id="globe">
	</g>
	<g id="github">
	</g>
	<g id="facebook">
	</g>
	<g id="twitter">
	</g>
	<g id="skype">
		<path d="M733.1,584.4c0-41.9-18.1-77.5-42.5-100c-24.4-22.5-65-41.9-96.9-51.9c-16.3-5-34.4-10-55-14.4l-65-15
			c-25-5.6-31.9-6.9-49.4-13.8c-17.5-6.9-22.5-12.5-28.8-23.1c-3.1-5.6-5-11.9-5-18.7c0-31.9,30-48.1,90-48.1
			c35.6,0,65,11.2,81.9,25c8.1,6.9,16.3,14.4,23.8,21.2c15,14.4,33.1,25.6,55,25.6c39.4,0,65-30.6,65-68.1
			c0-45.6-51.9-85-123.8-104.4c-35.6-9.4-73.7-14.4-113.7-14.4c-56.9,0-110.6,12.5-156.9,38.8c-46.3,26.2-76.9,74.4-76.9,135
			c0,50.6,16.2,88.8,46.9,113.8c30.6,25,64.4,38.7,114.4,50.6l91.2,22.5c75,18.1,90,26.9,90,60c0,32.5-36.2,56.3-90.6,56.3
			c-42.5,0-77.5-15.6-97.5-34.4c-10.6-9.4-20-18.7-28.7-28.1C343.1,580,322.5,565,298.1,565c-41.9,0-63.1,28.1-63.1,65.6
			C235,707.5,352.5,770,493.1,770c60.6,0,118.1-15.6,164.4-45C703.7,695.6,733.1,645,733.1,584.4z M960,720
			c0,132.5-107.5,240-240,240c-54.4,0-103.1-16.9-146.2-50c-31.9,6.9-63.1,10-93.7,10c-119.4,0-232.5-50-311.3-128.7
			C90,712.5,40,599.4,40,480c0-30.6,3.1-61.9,10-93.7C16.9,343.1,0,294.4,0,240C0,107.5,107.5,0,240,0c54.4,0,103.1,16.9,146.2,50
			c31.9-6.9,63.1-10,93.7-10c119.4,0,233.1,49.4,311.9,128.1C870.6,246.9,920,360.6,920,480c0,30.6-3.1,61.9-10,93.7
			C943.1,616.9,960,665.6,960,720z"/>
	</g>
	<g id="phone">
	</g>
	<g id="mail">
	</g>
</g>
<g id="row-2">
	<g id="liferay-logo-2">
	</g>
	<g id="menu-content">
	</g>
	<g id="streams">
	</g>
	<g id="balloon-topic">
	</g>
	<g id="groups">
	</g>
	<g id="liferay-logo">
	</g>
	<g id="heart-full">
	</g>
	<g id="confirm">
	</g>
	<g id="send">
	</g>
	<g id="arrow-left-rod">
	</g>
	<g id="cancel_1_">
	</g>
	<g id="plus">
	</g>
</g>
<g id="row-1">
	<g id="bullhorn">
	</g>
	<g id="link">
	</g>
	<g id="pen">
	</g>
	<g id="bell">
	</g>
	<g id="magnifier">
	</g>
	<g id="menu">
	</g>
	<g id="ellipsis">
	</g>
	<g id="balloon-comment">
	</g>
	<g id="heart-inline">
	</g>
	<g id="heart">
	</g>
	<g id="camera">
	</g>
	<g id="lock">
	</g>
	<g id="star">
	</g>
</g>
<g id="guides">
</g>
</svg>
