<?xml version="1.0" encoding="utf-8"?>
<!-- Generator: Adobe Illustrator 19.2.1, SVG Export Plug-In . SVG Version: 6.00 Build 0)  -->
<svg version="1.1" xmlns="http://www.w3.org/2000/svg" xmlns:xlink="http://www.w3.org/1999/xlink" x="0px" y="0px"
	 viewBox="0 0 1020 960" enable-background="new 0 0 1020 960" xml:space="preserve">
<g id="row-7">
</g>
<g id="row-6">
</g>
<g id="row-5">
</g>
<g id="row-4">
	<g id="read-full_1_">
	</g>
	<g id="markdown">
	</g>
	<g id="info">
	</g>
	<g id="folder">
	</g>
	<g id="read-full_2_">
	</g>
	<g id="person">
	</g>
	<g id="eye">
	</g>
	<g id="clear">
	</g>
	<g id="arrow-right-rod">
	</g>
	<g id="contract">
	</g>
	<g id="expand">
	</g>
	<g id="speaker-off">
	</g>
	<g id="speaker-on">
		<path d="M480,60h60v840h-60L240,660H60c-33.1,0-60-26.9-60-60V360c0-33.1,26.9-60,60-60h180L480,60z M719.5,378.8
			c-7.5-17.8-17-34.6-28.1-50.2l-57.7,57.7c16.7,27.3,26.3,59.4,26.3,93.7s-9.6,66.4-26.3,93.7l57.7,57.7
			c11.2-15.6,20.6-32.3,28.1-50.2C733.1,549.1,740,515.1,740,480S733.1,410.9,719.5,378.8z M880,480c0-51.3-10.1-101-29.9-147.9
			c-15.5-36.6-36.3-70.1-62.1-100l-56.8,56.8c43,51.9,68.8,118.5,68.8,191.2s-25.8,139.3-68.8,191.2L788,728
			c25.8-29.9,46.7-63.5,62.1-100C869.9,581,880,531.3,880,480z M980.7,285.4c-23.4-55.2-56-105.2-97.3-148.8l-56.6,56.6
			C897,268.3,940,369.1,940,480s-43,211.7-113.2,286.8l56.6,56.6c41.2-43.6,73.9-93.5,97.3-148.8C1006.8,613,1020,547.5,1020,480
			S1006.8,347,980.7,285.4z"/>
	</g>
	<g id="pause">
	</g>
	<g id="play">
	</g>
</g>
<g id="row-3">
	<g id="circle-arrow">
	</g>
	<g id="speedometer">
	</g>
	<g id="calendar">
	</g>
	<g id="server">
	</g>
	<g id="code-file">
	</g>
	<g id="gear">
	</g>
	<g id="tint">
	</g>
	<g id="dribbble">
	</g>
	<g id="globe">
	</g>
	<g id="github">
	</g>
	<g id="facebook">
	</g>
	<g id="twitter">
	</g>
	<g id="skype">
	</g>
	<g id="phone">
	</g>
	<g id="mail">
	</g>
</g>
<g id="row-2">
	<g id="liferay-logo-2">
	</g>
	<g id="menu-content">
	</g>
	<g id="streams">
	</g>
	<g id="balloon-topic">
	</g>
	<g id="groups">
	</g>
	<g id="liferay-logo">
	</g>
	<g id="heart-full">
	</g>
	<g id="confirm">
	</g>
	<g id="send">
	</g>
	<g id="arrow-left-rod">
	</g>
	<g id="cancel_1_">
	</g>
	<g id="plus">
	</g>
</g>
<g id="row-1">
	<g id="bullhorn">
	</g>
	<g id="link">
	</g>
	<g id="pen">
	</g>
	<g id="bell">
	</g>
	<g id="magnifier">
	</g>
	<g id="menu">
	</g>
	<g id="ellipsis">
	</g>
	<g id="balloon-comment">
	</g>
	<g id="heart-inline">
	</g>
	<g id="heart">
	</g>
	<g id="camera">
	</g>
	<g id="lock">
	</g>
	<g id="star">
	</g>
</g>
<g id="guides">
</g>
</svg>
