<?xml version="1.0" encoding="utf-8"?>
<!-- Generator: Adobe Illustrator 19.2.1, SVG Export Plug-In . SVG Version: 6.00 Build 0)  -->
<svg version="1.1" xmlns="http://www.w3.org/2000/svg" xmlns:xlink="http://www.w3.org/1999/xlink" x="0px" y="0px"
	 viewBox="0 0 960 960" enable-background="new 0 0 960 960" xml:space="preserve">
<g id="row-7">
</g>
<g id="row-6">
</g>
<g id="row-5">
</g>
<g id="row-4">
	<g id="read-full_1_">
	</g>
	<g id="markdown">
	</g>
	<g id="info">
	</g>
	<g id="folder">
	</g>
	<g id="read-full_2_">
	</g>
	<g id="person">
	</g>
	<g id="eye">
	</g>
	<g id="clear">
	</g>
	<g id="arrow-right-rod">
	</g>
	<g id="contract">
	</g>
	<g id="expand">
	</g>
	<g id="speaker-off">
	</g>
	<g id="speaker-on">
	</g>
	<g id="pause">
	</g>
	<g id="play">
	</g>
</g>
<g id="row-3">
	<g id="circle-arrow">
	</g>
	<g id="speedometer">
		<path d="M480,0C214.9,0,0,214.9,0,480s214.9,480,480,480s480-214.9,480-480S745.1,0,480,0z M811.8,620.1
			c-18.1,42.9-44.1,81.4-77.2,114.5s-71.6,59.1-114.5,77.2C575.8,830.5,528.7,840,480,840c-48.7,0-95.8-9.5-140.1-28.2
			c-42.9-18.1-81.4-44.1-114.5-77.2c-33.1-33.1-59.1-71.6-77.2-114.5C129.5,575.8,120,528.7,120,480s9.5-95.8,28.2-140.1
			c18.1-42.9,44.1-81.4,77.2-114.5c33.1-33.1,71.6-59.1,114.5-77.2C384.2,129.5,431.3,120,480,120c48.7,0,95.8,9.5,140.1,28.2
			c42.9,18.1,81.4,44.1,114.5,77.2s59.1,71.6,77.2,114.5C830.5,384.2,840,431.3,840,480S830.5,575.8,811.8,620.1z M702.4,257.6
			c-23.4-23.4-61.4-23.4-84.9,0L511.1,364.1c-9.9-2.7-20.3-4.1-31.1-4.1c-66.3,0-120,53.7-120,120s53.7,120,120,120
			s120-53.7,120-120c0-10.7-1.4-21.2-4.1-31.1l106.5-106.5C725.9,319,725.9,281,702.4,257.6z M450,240L450,240c16.6,0,30-13.4,30-30
			l0,0c0-16.6-13.4-30-30-30h0c-16.6,0-30,13.4-30,30l0,0C420,226.6,433.4,240,450,240z M292.1,351.5c11.7-11.7,11.7-30.7,0-42.4
			c-11.7-11.7-30.7-11.7-42.4,0h0c-11.7,11.7-11.7,30.7,0,42.4h0C261.4,363.2,280.4,363.2,292.1,351.5L292.1,351.5z M210,480
			L210,480c-16.6,0-30,13.4-30,30l0,0c0,16.6,13.4,30,30,30h0c16.6,0,30-13.4,30-30l0,0C240,493.4,226.6,480,210,480z M351.5,670.9
			c-11.7-11.7-30.7-11.7-42.4,0c-11.7,11.7-11.7,30.7,0,42.4l0,0c11.7,11.7,30.7,11.7,42.4,0h0C363.2,701.6,363.2,682.6,351.5,670.9
			L351.5,670.9z M510,720L510,720c-16.6,0-30,13.4-30,30l0,0c0,16.6,13.4,30,30,30h0c16.6,0,30-13.4,30-30l0,0
			C540,733.4,526.6,720,510,720z M710.3,608.5c-11.7-11.7-30.7-11.7-42.4,0l0,0c-11.7,11.7-11.7,30.7,0,42.4
			c11.7,11.7,30.7,11.7,42.4,0h0C722.1,639.2,722.1,620.2,710.3,608.5L710.3,608.5z M750,420L750,420c-16.6,0-30,13.4-30,30l0,0
			c0,16.6,13.4,30,30,30h0c16.6,0,30-13.4,30-30l0,0C780,433.4,766.6,420,750,420z"/>
	</g>
	<g id="calendar">
	</g>
	<g id="server">
	</g>
	<g id="code-file">
	</g>
	<g id="gear">
	</g>
	<g id="tint">
	</g>
	<g id="dribbble">
	</g>
	<g id="globe">
	</g>
	<g id="github">
	</g>
	<g id="facebook">
	</g>
	<g id="twitter">
	</g>
	<g id="skype">
	</g>
	<g id="phone">
	</g>
	<g id="mail">
	</g>
</g>
<g id="row-2">
	<g id="liferay-logo-2">
	</g>
	<g id="menu-content">
	</g>
	<g id="streams">
	</g>
	<g id="balloon-topic">
	</g>
	<g id="groups">
	</g>
	<g id="liferay-logo">
	</g>
	<g id="heart-full">
	</g>
	<g id="confirm">
	</g>
	<g id="send">
	</g>
	<g id="arrow-left-rod">
	</g>
	<g id="cancel_1_">
	</g>
	<g id="plus">
	</g>
</g>
<g id="row-1">
	<g id="bullhorn">
	</g>
	<g id="link">
	</g>
	<g id="pen">
	</g>
	<g id="bell">
	</g>
	<g id="magnifier">
	</g>
	<g id="menu">
	</g>
	<g id="ellipsis">
	</g>
	<g id="balloon-comment">
	</g>
	<g id="heart-inline">
	</g>
	<g id="heart">
	</g>
	<g id="camera">
	</g>
	<g id="lock">
	</g>
	<g id="star">
	</g>
</g>
<g id="guides">
</g>
</svg>
