<?xml version="1.0" encoding="utf-8"?>
<!-- Generator: Adobe Illustrator 18.1.1, SVG Export Plug-In . SVG Version: 6.00 Build 0)  -->
<svg version="1.1" xmlns="http://www.w3.org/2000/svg" xmlns:xlink="http://www.w3.org/1999/xlink" x="0px" y="0px"
	 viewBox="0 0 1200 960" enable-background="new 0 0 1200 960" xml:space="preserve">
<g id="row-5">
	<g id="speed-monitor">
		<path d="M600,0C334.9,0,120,214.9,120,480s214.9,480,480,480s480-214.9,480-480S865.1,0,600,0z M268.2,339.9
			c18.1-42.9,44.1-81.4,77.2-114.5c33.1-33.1,71.6-59.1,114.5-77.2C504.2,129.5,551.3,120,600,120s95.8,9.5,140.1,28.2
			c42.9,18.1,81.4,44.1,114.5,77.2c33.1,33.1,59.1,71.6,77.2,114.5C950.5,384.2,960,431.3,960,480c0,41.4-6.9,81.6-20.5,120H703.9
			c10.2-17.7,16.1-38.1,16.1-60c0-66.3-53.7-120-120-120l-98-169.8l-103.9,60l98,169.8c-10.2,17.7-16.1,38.2-16.1,60
			c0,21.9,5.8,42.3,16.1,60H260.5c-13.6-38.4-20.5-78.6-20.5-120C240,431.3,249.5,384.2,268.2,339.9z"/>
	</g>
	<g id="person-role">
	</g>
	<g id="lock">
	</g>
	<g id="list">
	</g>
	<g id="read-mail">
	</g>
	<g id="person">
	</g>
	<g id="folder">
	</g>
	<g id="server">
	</g>
	<g id="arrow-right-rod">
	</g>
	<g id="contract">
	</g>
	<g id="expand">
	</g>
	<g id="speaker-off">
	</g>
</g>
<g id="row-4">
	<g id="speaker-on">
	</g>
	<g id="pause">
	</g>
	<g id="play">
	</g>
	<g id="circle-arrow">
	</g>
	<g id="module">
	</g>
	<g id="speedometer">
	</g>
	<g id="calendar">
	</g>
	<g id="data">
	</g>
	<g id="code-file">
	</g>
	<g id="gear">
	</g>
	<g id="tint">
	</g>
	<g id="dribbble">
	</g>
</g>
<g id="row-3">
	<g id="globe">
	</g>
	<g id="github">
	</g>
	<g id="facebook">
	</g>
	<g id="twitter">
	</g>
	<g id="skype">
	</g>
	<g id="phone">
	</g>
	<g id="mail">
	</g>
	<g id="liferay-logo-2">
	</g>
	<g id="menu-content">
	</g>
	<g id="streams">
	</g>
	<g id="balloon-topic">
	</g>
	<g id="groups">
	</g>
</g>
<g id="row-2">
	<g id="persons">
	</g>
	<g id="house">
	</g>
	<g id="liferay-logo">
	</g>
	<g id="eye">
	</g>
	<g id="confirm">
	</g>
	<g id="send">
	</g>
	<g id="arrow-left-rod">
	</g>
	<g id="cancel_1_">
	</g>
	<g id="plus">
	</g>
	<g id="bullhorn">
	</g>
	<g id="link">
	</g>
</g>
<g id="row-1">
	<g id="pen">
	</g>
	<g id="bell">
	</g>
	<g id="magnifier">
	</g>
	<g id="menu">
	</g>
	<g id="ellipsis">
	</g>
	<g id="balloon-comment">
	</g>
	<g id="heart-fill">
	</g>
	<g id="heart">
	</g>
	<g id="camera">
	</g>
	<g id="subscribe">
	</g>
	<g id="star">
	</g>
</g>
<g id="guides">
</g>
</svg>
