<?xml version="1.0" encoding="utf-8"?>
<!-- Generator: Adobe Illustrator 18.1.1, SVG Export Plug-In . SVG Version: 6.00 Build 0)  -->
<svg version="1.1" xmlns="http://www.w3.org/2000/svg" xmlns:xlink="http://www.w3.org/1999/xlink" x="0px" y="0px"
	 viewBox="0 0 1200 960" enable-background="new 0 0 1200 960" xml:space="preserve">
<g id="row-6">
	<g id="mail_x5F_straight">
	</g>
	<g id="markdown">
	</g>
	<g id="info">
	</g>
	<g id="folder">
	</g>
	<g id="server">
	</g>
	<g id="speed-monitor">
	</g>
</g>
<g id="row-5">
	<g id="person-role">
	</g>
	<g id="lock">
	</g>
	<g id="list">
	</g>
	<g id="read-mail">
	</g>
	<g id="person">
	</g>
	<g id="eye">
	</g>
	<g id="clear">
	</g>
	<g id="arrow-right-rod">
	</g>
	<g id="contract">
	</g>
	<g id="expand">
	</g>
	<g id="speaker-off">
	</g>
</g>
<g id="row-4">
	<g id="speaker-on">
	</g>
	<g id="pause">
	</g>
	<g id="play">
	</g>
	<g id="circle-arrow">
	</g>
	<g id="module">
	</g>
	<g id="speedometer">
		<path d="M600,0C334.9,0,120,214.9,120,480s214.9,480,480,480s480-214.9,480-480S865.1,0,600,0z M931.8,620.1
			c-18.1,42.9-44.1,81.4-77.2,114.5s-71.6,59.1-114.5,77.2C695.8,830.5,648.7,840,600,840c-48.7,0-95.8-9.5-140.1-28.2
			c-42.9-18.1-81.4-44.1-114.5-77.2c-33.1-33.1-59.1-71.6-77.2-114.5C249.5,575.8,240,528.7,240,480s9.5-95.8,28.2-140.1
			c18.1-42.9,44.1-81.4,77.2-114.5c33.1-33.1,71.6-59.1,114.5-77.2C504.2,129.5,551.3,120,600,120c48.7,0,95.8,9.5,140.1,28.2
			c42.9,18.1,81.4,44.1,114.5,77.2s59.1,71.6,77.2,114.5C950.5,384.2,960,431.3,960,480S950.5,575.8,931.8,620.1z M822.4,257.6
			c-23.4-23.4-61.4-23.4-84.9,0L631.1,364.1c-9.9-2.7-20.3-4.1-31.1-4.1c-66.3,0-120,53.7-120,120s53.7,120,120,120
			s120-53.7,120-120c0-10.7-1.4-21.2-4.1-31.1l106.5-106.5C845.9,319,845.9,281,822.4,257.6z M570,240L570,240c16.6,0,30-13.4,30-30
			l0,0c0-16.6-13.4-30-30-30h0c-16.6,0-30,13.4-30,30l0,0C540,226.6,553.4,240,570,240z M412.1,351.5c11.7-11.7,11.7-30.7,0-42.4
			c-11.7-11.7-30.7-11.7-42.4,0h0c-11.7,11.7-11.7,30.7,0,42.4h0C381.4,363.2,400.4,363.2,412.1,351.5L412.1,351.5z M330,480
			L330,480c-16.6,0-30,13.4-30,30l0,0c0,16.6,13.4,30,30,30h0c16.6,0,30-13.4,30-30l0,0C360,493.4,346.6,480,330,480z M471.5,670.9
			c-11.7-11.7-30.7-11.7-42.4,0c-11.7,11.7-11.7,30.7,0,42.4l0,0c11.7,11.7,30.7,11.7,42.4,0h0C483.2,701.6,483.2,682.6,471.5,670.9
			L471.5,670.9z M630,720L630,720c-16.6,0-30,13.4-30,30l0,0c0,16.6,13.4,30,30,30h0c16.6,0,30-13.4,30-30l0,0
			C660,733.4,646.6,720,630,720z M830.3,608.5c-11.7-11.7-30.7-11.7-42.4,0l0,0c-11.7,11.7-11.7,30.7,0,42.4
			c11.7,11.7,30.7,11.7,42.4,0h0C842.1,639.2,842.1,620.2,830.3,608.5L830.3,608.5z M870,420L870,420c-16.6,0-30,13.4-30,30l0,0
			c0,16.6,13.4,30,30,30h0c16.6,0,30-13.4,30-30l0,0C900,433.4,886.6,420,870,420z"/>
	</g>
	<g id="calendar">
	</g>
	<g id="data">
	</g>
	<g id="code-file">
	</g>
	<g id="gear">
	</g>
	<g id="tint">
	</g>
	<g id="dribbble">
	</g>
</g>
<g id="row-3">
	<g id="globe">
	</g>
	<g id="github">
	</g>
	<g id="facebook">
	</g>
	<g id="twitter">
	</g>
	<g id="skype">
	</g>
	<g id="phone">
	</g>
	<g id="mail">
	</g>
	<g id="liferay-logo-2">
	</g>
	<g id="menu-content">
	</g>
	<g id="streams">
	</g>
	<g id="balloon-topic">
	</g>
	<g id="groups">
	</g>
</g>
<g id="row-2">
	<g id="persons">
	</g>
	<g id="house">
	</g>
	<g id="liferay-logo">
	</g>
	<g id="heart-full">
	</g>
	<g id="confirm">
	</g>
	<g id="send">
	</g>
	<g id="arrow-left-rod">
	</g>
	<g id="cancel_1_">
	</g>
	<g id="plus">
	</g>
	<g id="bullhorn">
	</g>
	<g id="link">
	</g>
</g>
<g id="row-1">
	<g id="pen">
	</g>
	<g id="bell">
	</g>
	<g id="magnifier">
	</g>
	<g id="menu">
	</g>
	<g id="ellipsis">
	</g>
	<g id="balloon-comment">
	</g>
	<g id="heart-fill">
	</g>
	<g id="heart">
	</g>
	<g id="camera">
	</g>
	<g id="blank">
	</g>
	<g id="star">
	</g>
</g>
<g id="guides">
</g>
</svg>
