<svg id="row-7" xmlns="http://www.w3.org/2000/svg" viewBox="0 0 1200 960"><title>icon-16</title><path id="spinner_double_arrows" d="M342.43,582.43l-120,120a60,60,0,0,1-84.85,0l-120-120a60,60,0,1,1,84.85-84.85l18.94,18.94Q120,498.44,120,480C120,214.9,334.9,0,600,0A477.78,477.78,0,0,1,840,64.24l0,0.06h0a60,60,0,1,1-60,103.92c-0.5-.29-1-0.6-1.46-0.89A358.33,358.33,0,0,0,600,120c-198.82,0-360,161.18-360,360q0,17,1.55,33.59l16-16A60,60,0,1,1,342.43,582.43Zm840-204.85-120-120a60,60,0,0,0-84.85,0l-120,120a60,60,0,1,0,84.85,84.85l16-16Q960,463,960,480c0,198.82-161.18,360-360,360a358.33,358.33,0,0,1-178.54-47.34c-0.49-.3-1-0.61-1.46-0.9a60,60,0,0,0-60,103.92h0l0,0.06A477.78,477.78,0,0,0,600,960c265.1,0,480-214.9,480-480q0-18.43-1.37-36.52l18.94,18.94A60,60,0,1,0,1182.43,377.57Z"/></svg>