<?xml version="1.0" encoding="utf-8"?>
<!-- Generator: Adobe Illustrator 20.0.0, SVG Export Plug-In . SVG Version: 6.00 Build 0)  -->
<svg version="1.1" id="icon-" xmlns="http://www.w3.org/2000/svg" xmlns:xlink="http://www.w3.org/1999/xlink" x="0px" y="0px"
	 viewBox="0 0 1080 960" enable-background="new 0 0 1080 960" xml:space="preserve">
<path id="spinner_x5F_single_x5F_arrow" d="M999.5,746.4c-134.1,201.4-394,268.7-606.1,167.3c-32.9-15.7-44.1-57-23.9-87.3v0
	c16.6-24.9,49-33.6,76.1-20.8c159,75.7,353.6,25.1,454-125.7c112-168.1,63.9-396.2-108.1-504.4C626,71.4,406.6,119.3,299.1,282.6
	c-40,60.9-59.2,129.5-59.2,197.4h0.1v34.9l17.4-17.4c23.4-23.4,61.4-23.4,84.9,0l0,0c23.4,23.4,23.4,61.4,0,84.9l-120,120
	c-11.7,11.7-27.1,17.6-42.4,17.6c-15.4,0-30.7-5.9-42.4-17.6l-120-119.8c-23.4-23.4-23.4-61.6,0-84.6h0c23.4-24,61.4-23.6,84.9-0.2
	l17.7,17.5V480c0-91.4,26-183.9,80.5-265.7C347.4-6.3,645.4-66.1,866,80.9C1086.6,227.8,1146.4,525.8,999.5,746.4z"/>
</svg>
