<?xml version="1.0" encoding="utf-8"?>
<!-- Generator: Adobe Illustrator 19.2.1, SVG Export Plug-In . SVG Version: 6.00 Build 0)  -->
<svg version="1.1" xmlns="http://www.w3.org/2000/svg" xmlns:xlink="http://www.w3.org/1999/xlink" x="0px" y="0px"
	 viewBox="0 0 1200 960" enable-background="new 0 0 1200 960" xml:space="preserve">
<g id="row-7">
	<path id="spinner_x5F_double_x5F_arrows" d="M342.4,582.4l-120,120C211.6,713.3,196.6,720,180,720s-31.6-6.7-42.4-17.6
		c-60-60-60-60-120-120C6.7,571.6,0,556.6,0,540c0-33.1,26.9-60,60-60c16.6,0,31.6,6.7,42.4,17.6c0,0,13.3,13.3,18.9,18.9
		c-0.9-12.1-1.4-24.2-1.4-36.5C120,214.9,334.9,0,600,0c87.4,0,169.4,23.4,240,64.2l0,0.1l0,0c28.7,16.6,38.5,53.3,22,82
		c-16.6,28.7-53.3,38.5-82,22c-0.5-0.3-1-0.6-1.5-0.9C725.9,137.2,665,120,600,120c-198.8,0-360,161.2-360,360
		c0,11.3,0.5,22.5,1.6,33.6l16-16c10.9-10.9,25.9-17.6,42.4-17.6c33.1,0,60,26.9,60,60C360,556.6,353.3,571.6,342.4,582.4z
		 M1182.4,377.6l-120-120c-10.9-10.9-25.9-17.6-42.4-17.6s-31.6,6.7-42.4,17.6c-60,60-60,60-120,120C846.7,388.4,840,403.4,840,420
		c0,33.1,26.9,60,60,60c16.6,0,31.6-6.7,42.4-17.6c0,0,11.2-11.2,16-16c1,11.1,1.6,22.3,1.6,33.6c0,198.8-161.2,360-360,360
		c-65,0-125.9-17.2-178.5-47.3c-0.5-0.3-1-0.6-1.5-0.9c-28.7-16.6-65.4-6.7-82,22c-16.6,28.7-6.7,65.4,22,82l0,0l0,0.1
		c70.6,40.9,152.6,64.2,240,64.2c265.1,0,480-214.9,480-480c0-12.3-0.5-24.5-1.4-36.5c5.6,5.6,18.9,18.9,18.9,18.9
		c10.9,10.9,25.9,17.6,42.4,17.6c33.1,0,60-26.9,60-60C1200,403.4,1193.3,388.4,1182.4,377.6z"/>
</g>
<g id="row-6">
</g>
<g id="row-5">
</g>
<g id="row-4">
	<g id="read-full_1_">
	</g>
	<g id="markdown">
	</g>
	<g id="info">
	</g>
	<g id="folder">
	</g>
	<g id="read-full_2_">
	</g>
	<g id="person">
	</g>
	<g id="eye">
	</g>
	<g id="clear">
	</g>
	<g id="arrow-right-rod">
	</g>
	<g id="contract">
	</g>
	<g id="expand">
	</g>
	<g id="speaker-off">
	</g>
	<g id="speaker-on">
	</g>
	<g id="pause">
	</g>
	<g id="play">
	</g>
</g>
<g id="row-3">
	<g id="circle-arrow">
	</g>
	<g id="speedometer">
	</g>
	<g id="calendar">
	</g>
	<g id="server">
	</g>
	<g id="code-file">
	</g>
	<g id="gear">
	</g>
	<g id="tint">
	</g>
	<g id="dribbble">
	</g>
	<g id="globe">
	</g>
	<g id="github">
	</g>
	<g id="facebook">
	</g>
	<g id="twitter">
	</g>
	<g id="skype">
	</g>
	<g id="phone">
	</g>
	<g id="mail">
	</g>
</g>
<g id="row-2">
	<g id="liferay-logo-2">
	</g>
	<g id="menu-content">
	</g>
	<g id="streams">
	</g>
	<g id="balloon-topic">
	</g>
	<g id="groups">
	</g>
	<g id="liferay-logo">
	</g>
	<g id="heart-full">
	</g>
	<g id="confirm">
	</g>
	<g id="send">
	</g>
	<g id="arrow-left-rod">
	</g>
	<g id="cancel_1_">
	</g>
	<g id="plus">
	</g>
</g>
<g id="row-1">
	<g id="bullhorn">
	</g>
	<g id="link">
	</g>
	<g id="pen">
	</g>
	<g id="bell">
	</g>
	<g id="magnifier">
	</g>
	<g id="menu">
	</g>
	<g id="ellipsis">
	</g>
	<g id="balloon-comment">
	</g>
	<g id="heart-inline">
	</g>
	<g id="heart">
	</g>
	<g id="camera">
	</g>
	<g id="lock">
	</g>
	<g id="star">
	</g>
</g>
<g id="guides">
</g>
</svg>
