<?xml version="1.0" encoding="utf-8"?>
<!-- Generator: Adobe Illustrator 20.0.0, SVG Export Plug-In . SVG Version: 6.00 Build 0)  -->
<svg version="1.1" id="icon-" xmlns="http://www.w3.org/2000/svg" xmlns:xlink="http://www.w3.org/1999/xlink" x="0px" y="0px"
	 viewBox="0 0 1200 960" enable-background="new 0 0 1200 960" xml:space="preserve">
<path id="spinner-double-arrows" d="M840,540c0-33.1,26.9-60,60-60c16.6,0,31.6,6.7,42.4,17.6l16,16c1-11.1,1.6-22.3,1.6-33.6
	c0-198.8-161.2-360-360-360c-65,0-125.9,17.2-178.5,47.3c-0.5,0.3-1,0.6-1.5,0.9c-28.7,16.6-65.4,6.7-82-22
	c-16.6-28.7-6.7-65.4,22-82l0,0l0-0.1C430.6,23.4,512.6,0,600,0c265.1,0,480,214.9,480,480c0,12.3-0.5,24.5-1.4,36.5
	c5.6-5.6,18.9-18.9,18.9-18.9c10.9-10.9,25.9-17.6,42.4-17.6c33.1,0,60,26.9,60,60c0,16.6-6.7,31.6-17.6,42.4c-60,60-60,60-120,120
	c-10.9,10.9-25.9,17.6-42.4,17.6s-31.6-6.7-42.4-17.6l-120-120C846.7,571.6,840,556.6,840,540z M0,420c0,33.1,26.9,60,60,60
	c16.6,0,31.6-6.7,42.4-17.6c0,0,13.3-13.3,18.9-18.9c-0.9,12.1-1.4,24.2-1.4,36.5c0,265.1,214.9,480,480,480
	c87.4,0,169.4-23.4,240-64.2l0-0.1l0,0c28.7-16.6,38.5-53.3,22-82c-16.6-28.7-53.3-38.5-82-22c-0.5,0.3-1,0.6-1.5,0.9
	C725.9,822.8,665,840,600,840c-198.8,0-360-161.2-360-360c0-11.3,0.5-22.5,1.6-33.6c4.8,4.8,16,16,16,16
	c10.9,10.9,25.9,17.6,42.4,17.6c33.1,0,60-26.9,60-60c0-16.6-6.7-31.6-17.6-42.4c-60-60-60-60-120-120
	C211.6,246.7,196.6,240,180,240s-31.6,6.7-42.4,17.6l-120,120C6.7,388.4,0,403.4,0,420z"/>
</svg>
