<?xml version="1.0" encoding="utf-8"?>
<!-- Generator: Adobe Illustrator 21.0.1, SVG Export Plug-In . SVG Version: 6.00 Build 0)  -->
<svg version="1.1" id="icon-" xmlns="http://www.w3.org/2000/svg" xmlns:xlink="http://www.w3.org/1999/xlink" x="0px" y="0px"
	 viewBox="0 0 1320 960" style="enable-background:new 0 0 1320 960;" xml:space="preserve">
<style type="text/css">
	.st0{fill-rule:evenodd;clip-rule:evenodd;}
	.st1{fill:#29ABE2;}
	.st2{fill-rule:evenodd;clip-rule:evenodd;fill:#181616;}
	.st3{fill:#FF0000;}
</style>
<path id="spinner-double-arrows" d="M1230,420c-18.8,0-36.2,5.8-50.7,15.6c-15.6,10.4-28.5,19-39.7,26.4C1130.2,205.3,919.1,0,660,0
	c-43,0-84.6,5.7-124.3,16.2l0,0.1c-48,12.9-76.5,62.2-63.6,110.2c12.9,48,62.2,76.5,110.2,63.6c0.8-0.2,1.5-0.4,2.3-0.7
	c24.1-6.2,49.3-9.6,75.3-9.6c159.5,0,289.8,124.4,299.4,281.4c-10.9-7.3-23.5-15.7-38.7-25.8c-14.4-9.9-31.9-15.6-50.7-15.6
	c-49.7,0-90,40.3-90,90c0,31.5,16.2,59.3,40.8,75.4c89,59.3,89.5,59.7,178.5,119c14.4,9.9,31.9,15.6,50.7,15.6
	c18.8,0,36.2-5.8,50.7-15.6c89-59.3,89.5-59.7,178.5-119c24.6-16.1,40.8-43.8,40.8-75.4C1320,460.3,1279.7,420,1230,420z
	 M847.9,833.4c12.9,48-15.6,97.4-63.6,110.2l0,0.1C744.7,954.3,703,960,660,960c-259.1,0-470.2-205.3-479.7-462.1
	c-11.1,7.4-24,16-39.7,26.4C126.2,534.2,108.8,540,90,540c-49.7,0-90-40.3-90-90c0-31.5,16.2-59.3,40.8-75.4
	c89-59.3,89.5-59.7,178.5-119c14.4-9.9,31.9-15.6,50.7-15.6c18.8,0,36.2,5.8,50.7,15.6c89,59.3,89.5,59.7,178.5,119
	c24.6,16.1,40.8,43.8,40.8,75.4c0,49.7-40.3,90-90,90c-18.8,0-36.2-5.8-50.7-15.6c-15.2-10.1-27.8-18.5-38.7-25.8
	c9.6,157,140,281.4,299.4,281.4c26,0,51-3.3,75.3-9.6c0.8-0.2,1.5-0.4,2.3-0.7C785.7,756.9,835,785.4,847.9,833.4z"/>
</svg>
