<svg id="row-1" xmlns="http://www.w3.org/2000/svg" viewBox="0 0 1080 960"><title>icon-16</title><g id="star"><path id="star-2" data-name="star" d="M1080,360a60,60,0,0,0-60-60H703.25L597.33-17.75c-0.1-.32-0.21-0.63-0.31-0.94L596.92-19h0a60,60,0,0,0-113.84,0h0l-0.09.27c-0.1.32-.22,0.63-0.32,1L376.75,300H60A60,60,0,0,0,25.85,409.33h0l0.51,0.35,0.13,0.09L281.35,586.22,183.08,881h0a60,60,0,0,0,91.07,68.3h0L540,765.28l265.85,184h0A60,60,0,0,0,896.92,881h0L798.65,586.22l254.86-176.44,0.13-.09,0.51-.35h0A59.92,59.92,0,0,0,1080,360Z"/></g></svg>