<?xml version="1.0" encoding="utf-8"?>
<!-- Generator: Adobe Illustrator 20.0.0, SVG Export Plug-In . SVG Version: 6.00 Build 0)  -->
<svg version="1.1" id="icon-" xmlns="http://www.w3.org/2000/svg" xmlns:xlink="http://www.w3.org/1999/xlink" x="0px" y="0px"
	 viewBox="0 0 1080 960" enable-background="new 0 0 1080 960" xml:space="preserve">
<path id="star_1_" d="M1080,360c0-33.1-26.9-60-60-60c-44.2,0-169.8,0-316.8,0C654.7,154.4,612.4,27.4,597.3-17.8
	c-0.1-0.3-0.2-0.6-0.3-0.9c0-0.1-0.1-0.2-0.1-0.3l0,0C589-42.8,566.5-60,540-60s-49,17.2-56.9,41l0,0c0,0.1-0.1,0.2-0.1,0.3
	c-0.1,0.3-0.2,0.6-0.3,1C467.6,27.4,425.3,154.4,376.8,300c-147,0-272.6,0-316.8,0c-33.1,0-60,26.9-60,60
	c0,20.4,10.2,38.5,25.9,49.3l0,0c0.2,0.1,0.3,0.2,0.5,0.4c0,0,0.1,0.1,0.1,0.1c36.7,25.4,137.2,95,254.9,176.4
	C235.8,722.8,197,839.3,183.1,881l0,0c-2,6-3.1,12.3-3.1,19c0,33.1,26.9,60,60,60c12.7,0,24.5-4,34.1-10.7l0,0
	c37.2-25.7,143-99,265.8-184c122.8,85,228.7,158.3,265.8,184l0,0c9.7,6.7,21.5,10.7,34.1,10.7c33.1,0,60-26.9,60-60
	c0-6.6-1.1-13-3.1-19l0,0c-13.9-41.7-52.7-158.2-98.3-294.8c117.7-81.5,218.2-151.1,254.9-176.4c0,0,0.1-0.1,0.1-0.1
	c0.2-0.1,0.3-0.2,0.5-0.4l0,0C1069.8,398.5,1080,380.4,1080,360z"/>
</svg>
