<?xml version="1.0" encoding="utf-8"?>
<!-- Generator: Adobe Illustrator 19.2.1, SVG Export Plug-In . SVG Version: 6.00 Build 0)  -->
<svg version="1.1" xmlns="http://www.w3.org/2000/svg" xmlns:xlink="http://www.w3.org/1999/xlink" x="0px" y="0px"
	 viewBox="0 0 1080 960" enable-background="new 0 0 1080 960" xml:space="preserve">
<g id="row-7">
</g>
<g id="row-6">
</g>
<g id="row-5">
</g>
<g id="row-4">
	<g id="read-full_1_">
	</g>
	<g id="markdown">
	</g>
	<g id="info">
	</g>
	<g id="folder">
	</g>
	<g id="read-full_2_">
	</g>
	<g id="person">
	</g>
	<g id="eye">
	</g>
	<g id="clear">
	</g>
	<g id="arrow-right-rod">
	</g>
	<g id="contract">
	</g>
	<g id="expand">
	</g>
	<g id="speaker-off">
	</g>
	<g id="speaker-on">
	</g>
	<g id="pause">
	</g>
	<g id="play">
	</g>
</g>
<g id="row-3">
	<g id="circle-arrow">
	</g>
	<g id="speedometer">
	</g>
	<g id="calendar">
	</g>
	<g id="server">
	</g>
	<g id="code-file">
	</g>
	<g id="gear">
	</g>
	<g id="tint">
	</g>
	<g id="dribbble">
	</g>
	<g id="globe">
	</g>
	<g id="github">
	</g>
	<g id="facebook">
	</g>
	<g id="twitter">
	</g>
	<g id="skype">
	</g>
	<g id="phone">
	</g>
	<g id="mail">
	</g>
</g>
<g id="row-2">
	<g id="liferay-logo-2">
	</g>
	<g id="menu-content">
	</g>
	<g id="streams">
	</g>
	<g id="balloon-topic">
	</g>
	<g id="groups">
	</g>
	<g id="liferay-logo">
	</g>
	<g id="heart-full">
	</g>
	<g id="confirm">
	</g>
	<g id="send">
	</g>
	<g id="arrow-left-rod">
	</g>
	<g id="cancel_1_">
	</g>
	<g id="plus">
	</g>
</g>
<g id="row-1">
	<g id="bullhorn">
	</g>
	<g id="link">
	</g>
	<g id="pen">
	</g>
	<g id="bell">
	</g>
	<g id="magnifier">
	</g>
	<g id="menu">
	</g>
	<g id="ellipsis">
	</g>
	<g id="balloon-comment">
	</g>
	<g id="heart-inline">
	</g>
	<g id="heart">
	</g>
	<g id="camera">
	</g>
	<g id="lock">
	</g>
	<g id="star">
		<path id="star_1_" d="M1080,360c0-33.1-26.9-60-60-60c-44.2,0-169.8,0-316.8,0C654.7,154.4,612.4,27.4,597.3-17.8
			c-0.1-0.3-0.2-0.6-0.3-0.9c0-0.1-0.1-0.2-0.1-0.3l0,0C589-42.8,566.5-60,540-60s-49,17.2-56.9,41l0,0c0,0.1-0.1,0.2-0.1,0.3
			c-0.1,0.3-0.2,0.6-0.3,1C467.6,27.4,425.3,154.4,376.8,300c-147,0-272.6,0-316.8,0c-33.1,0-60,26.9-60,60
			c0,20.4,10.2,38.5,25.9,49.3l0,0c0.2,0.1,0.3,0.2,0.5,0.4c0,0,0.1,0.1,0.1,0.1c36.7,25.4,137.2,95,254.9,176.4
			C235.8,722.8,197,839.3,183.1,881l0,0c-2,6-3.1,12.3-3.1,19c0,33.1,26.9,60,60,60c12.7,0,24.5-4,34.1-10.7l0,0
			c37.2-25.7,143-99,265.8-184c122.8,85,228.7,158.3,265.8,184l0,0c9.7,6.7,21.5,10.7,34.1,10.7c33.1,0,60-26.9,60-60
			c0-6.6-1.1-13-3.1-19l0,0c-13.9-41.7-52.7-158.2-98.3-294.8c117.7-81.5,218.2-151.1,254.9-176.4c0,0,0.1-0.1,0.1-0.1
			c0.2-0.1,0.3-0.2,0.5-0.4l0,0C1069.8,398.5,1080,380.4,1080,360z"/>
	</g>
</g>
<g id="guides">
</g>
</svg>
