<?xml version="1.0" encoding="utf-8"?>
<!-- Generator: Adobe Illustrator 19.2.1, SVG Export Plug-In . SVG Version: 6.00 Build 0)  -->
<svg version="1.1" xmlns="http://www.w3.org/2000/svg" xmlns:xlink="http://www.w3.org/1999/xlink" x="0px" y="0px"
	 viewBox="0 0 1080 960" enable-background="new 0 0 1080 960" xml:space="preserve">
<g id="row-7">
	<path id="sun" d="M480,60V0c0-33.1,26.9-60,60-60l0,0c33.1,0,60,26.9,60,60v60c0,33.1-26.9,60-60,60l0,0C506.9,120,480,93.1,480,60
		z M840,241c16.6,0,31.6-6.7,42.4-17.6c30.5-30.5,30.5-30.5,61-61c10.9-10.9,17.6-25.9,17.6-42.4c0-33.1-26.9-60-60-60
		c-16.6,0-31.6,6.7-42.4,17.6c-30.5,30.5-30.5,30.5-61,61C786.7,149.4,780,164.4,780,181C780,214.1,806.9,241,840,241z M1020,420
		h-60c-33.1,0-60,26.9-60,60l0,0c0,33.1,26.9,60,60,60h60c33.1,0,60-26.9,60-60l0,0C1080,446.9,1053.1,420,1020,420z M180,480
		L180,480c0-33.1-26.9-60-60-60H60c-33.1,0-60,26.9-60,60l0,0c0,33.1,26.9,60,60,60h60C153.1,540,180,513.1,180,480z M540,840
		L540,840c-33.1,0-60,26.9-60,60v60c0,33.1,26.9,60,60,60l0,0c33.1,0,60-26.9,60-60v-60C600,866.9,573.1,840,540,840z M240,721
		c-16.6,0-31.6,6.7-42.4,17.6c-30,30-30,30-60,60C126.7,809.4,120,824.4,120,841c0,33.1,26.9,60,60,60c16.6,0,31.6-6.7,42.4-17.6
		c30-30,30-30,60-60c10.9-10.9,17.6-25.9,17.6-42.4C300,747.9,273.1,721,240,721z M197.6,222.4c10.9,10.9,25.9,17.6,42.4,17.6
		c33.1,0,60-26.9,60-60c0-16.6-6.7-31.6-17.6-42.4c-30-30-30-30-60-60C211.6,66.7,196.6,60,180,60c-33.1,0-60,26.9-60,60
		c0,16.6,6.7,31.6,17.6,42.4C167.6,192.4,167.6,192.4,197.6,222.4z M883.4,738.6C872.6,727.7,857.6,721,841,721
		c-33.1,0-60,26.9-60,60c0,16.6,6.7,31.6,17.6,42.4c30,30,30,30,60,60c10.9,10.9,25.9,17.6,42.4,17.6c33.1,0,60-26.9,60-60
		c0-16.6-6.7-31.6-17.6-42.4C913.4,768.6,913.4,768.6,883.4,738.6z M780,480c0,132.5-107.5,240-240,240S300,612.5,300,480
		s107.5-240,240-240S780,347.5,780,480z M660,480c0-66.3-53.7-120-120-120s-120,53.7-120,120s53.7,120,120,120S660,546.3,660,480z"
		/>
</g>
<g id="row-6">
</g>
<g id="row-5">
</g>
<g id="row-4">
	<g id="read-full_1_">
	</g>
	<g id="markdown">
	</g>
	<g id="info">
	</g>
	<g id="folder">
	</g>
	<g id="read-full_2_">
	</g>
	<g id="person">
	</g>
	<g id="eye">
	</g>
	<g id="clear">
	</g>
	<g id="arrow-right-rod">
	</g>
	<g id="contract">
	</g>
	<g id="expand">
	</g>
	<g id="speaker-off">
	</g>
	<g id="speaker-on">
	</g>
	<g id="pause">
	</g>
	<g id="play">
	</g>
</g>
<g id="row-3">
	<g id="circle-arrow">
	</g>
	<g id="speedometer">
	</g>
	<g id="calendar">
	</g>
	<g id="server">
	</g>
	<g id="code-file">
	</g>
	<g id="gear">
	</g>
	<g id="tint">
	</g>
	<g id="dribbble">
	</g>
	<g id="globe">
	</g>
	<g id="github">
	</g>
	<g id="facebook">
	</g>
	<g id="twitter">
	</g>
	<g id="skype">
	</g>
	<g id="phone">
	</g>
	<g id="mail">
	</g>
</g>
<g id="row-2">
	<g id="liferay-logo-2">
	</g>
	<g id="menu-content">
	</g>
	<g id="streams">
	</g>
	<g id="balloon-topic">
	</g>
	<g id="groups">
	</g>
	<g id="liferay-logo">
	</g>
	<g id="heart-full">
	</g>
	<g id="confirm">
	</g>
	<g id="send">
	</g>
	<g id="arrow-left-rod">
	</g>
	<g id="cancel_1_">
	</g>
	<g id="plus">
	</g>
</g>
<g id="row-1">
	<g id="bullhorn">
	</g>
	<g id="link">
	</g>
	<g id="pen">
	</g>
	<g id="bell">
	</g>
	<g id="magnifier">
	</g>
	<g id="menu">
	</g>
	<g id="ellipsis">
	</g>
	<g id="balloon-comment">
	</g>
	<g id="heart-inline">
	</g>
	<g id="heart">
	</g>
	<g id="camera">
	</g>
	<g id="lock">
	</g>
	<g id="star">
	</g>
</g>
<g id="guides">
</g>
</svg>
