<?xml version="1.0" encoding="utf-8"?>
<!-- Generator: Adobe Illustrator 20.0.0, SVG Export Plug-In . SVG Version: 6.00 Build 0)  -->
<svg version="1.1" id="icon-" xmlns="http://www.w3.org/2000/svg" xmlns:xlink="http://www.w3.org/1999/xlink" x="0px" y="0px"
	 viewBox="0 0 1080 960" enable-background="new 0 0 1080 960" xml:space="preserve">
<path id="sun" fill="#FF0000" d="M480,60V0c0-33.1,26.9-60,60-60l0,0c33.1,0,60,26.9,60,60v60c0,33.1-26.9,60-60,60l0,0
	C506.9,120,480,93.1,480,60z M840,241c16.6,0,31.6-6.7,42.4-17.6c30.5-30.5,30.5-30.5,61-61c10.9-10.9,17.6-25.9,17.6-42.4
	c0-33.1-26.9-60-60-60c-16.6,0-31.6,6.7-42.4,17.6c-30.5,30.5-30.5,30.5-61,61C786.7,149.4,780,164.4,780,181
	C780,214.1,806.9,241,840,241z M1020,420h-60c-33.1,0-60,26.9-60,60l0,0c0,33.1,26.9,60,60,60h60c33.1,0,60-26.9,60-60l0,0
	C1080,446.9,1053.1,420,1020,420z M180,480L180,480c0-33.1-26.9-60-60-60H60c-33.1,0-60,26.9-60,60l0,0c0,33.1,26.9,60,60,60h60
	C153.1,540,180,513.1,180,480z M540,840L540,840c-33.1,0-60,26.9-60,60v60c0,33.1,26.9,60,60,60l0,0c33.1,0,60-26.9,60-60v-60
	C600,866.9,573.1,840,540,840z M240,721c-16.6,0-31.6,6.7-42.4,17.6c-30,30-30,30-60,60C126.7,809.4,120,824.4,120,841
	c0,33.1,26.9,60,60,60c16.6,0,31.6-6.7,42.4-17.6c30-30,30-30,60-60c10.9-10.9,17.6-25.9,17.6-42.4C300,747.9,273.1,721,240,721z
	 M197.6,222.4c10.9,10.9,25.9,17.6,42.4,17.6c33.1,0,60-26.9,60-60c0-16.6-6.7-31.6-17.6-42.4c-30-30-30-30-60-60
	C211.6,66.7,196.6,60,180,60c-33.1,0-60,26.9-60,60c0,16.6,6.7,31.6,17.6,42.4C167.6,192.4,167.6,192.4,197.6,222.4z M883.4,738.6
	C872.6,727.7,857.6,721,841,721c-33.1,0-60,26.9-60,60c0,16.6,6.7,31.6,17.6,42.4c30,30,30,30,60,60c10.9,10.9,25.9,17.6,42.4,17.6
	c33.1,0,60-26.9,60-60c0-16.6-6.7-31.6-17.6-42.4C913.4,768.6,913.4,768.6,883.4,738.6z M780,480c0,132.5-107.5,240-240,240
	S300,612.5,300,480s107.5-240,240-240S780,347.5,780,480z M660,480c0-66.3-53.7-120-120-120s-120,53.7-120,120s53.7,120,120,120
	S660,546.3,660,480z"/>
</svg>
