<?xml version="1.0" encoding="utf-8"?>
<!-- Generator: Adobe Illustrator 21.0.1, SVG Export Plug-In . SVG Version: 6.00 Build 0)  -->
<svg version="1.1" id="icon-" xmlns="http://www.w3.org/2000/svg" xmlns:xlink="http://www.w3.org/1999/xlink" x="0px" y="0px"
	 viewBox="0 0 960 960" style="enable-background:new 0 0 960 960;" xml:space="preserve">
<style type="text/css">
	.st0{fill-rule:evenodd;clip-rule:evenodd;}
	.st1{fill:#29ABE2;}
	.st2{fill-rule:evenodd;clip-rule:evenodd;fill:#181616;}
	.st3{fill:#FF0000;}
</style>
<path id="tag" d="M933.6,446.4c-127.3-127.3-292.7-292.7-420-420C497.4,10.1,474.9,0,450,0C270,0,270,0,90,0C40.3,0,0,40.3,0,90
	c0,180,0,180,0,360c0,24.9,10.1,47.4,26.4,63.6c127.3,127.3,292.7,292.7,420,420c16.3,16.3,38.8,26.4,63.6,26.4
	c24.9,0,47.4-10.1,63.6-26.4c127.3-127.3,232.7-232.7,360-360c16.3-16.3,26.4-38.8,26.4-63.6S949.9,462.6,933.6,446.4z M270,360
	c-49.7,0-90-40.3-90-90s40.3-90,90-90s90,40.3,90,90S319.7,360,270,360z"/>
</svg>
