<?xml version="1.0" encoding="utf-8"?>
<!-- Generator: Adobe Illustrator 19.2.1, SVG Export Plug-In . SVG Version: 6.00 Build 0)  -->
<svg version="1.1" xmlns="http://www.w3.org/2000/svg" xmlns:xlink="http://www.w3.org/1999/xlink" x="0px" y="0px"
	 viewBox="0 0 780 960" enable-background="new 0 0 780 960" xml:space="preserve">
<g id="row-7">
</g>
<g id="row-6">
	<path id="thumb-down" d="M780,420c0,33.1-26.9,60-60,60h-60c-33.1,0-60-26.9-60-60V120c0-33.1,26.9-60,60-60h60
		c33.1,0,60,26.9,60,60V420z M0,540c0,33.1,26.9,60,60,60c116.9,0,146.8,0,230.9,0c-29.3,134-31.2,143.4-49.5,227.2l0,0
		c-0.9,4.1-1.4,8.4-1.4,12.8l60,60c20,0,37.8-9.8,48.7-24.9l0,0c56.2-77.9,56.2-78,168.5-233.7c14.4-19.8,22.8-44.1,22.8-70.4
		c0-240,0-331,0-451c0-33.1-26.9-60-60-60H240c-16.6,0-31.6,7-42.4,18h0.2c-30,30-29.8,29.6-59.8,59.6v0c-7,6.5-11.9,14.4-14.9,23.4
		h0c0,0-0.1,0.2-0.1,0.3c-0.1,0.3-0.2,0.6-0.3,0.9c-28,84.1-29.6,88.9-55.1,165.3c-20.5,20.5-23.8,23.8-50,50l0,0
		C6.7,388.4,0,403.4,0,420V540z"/>
</g>
<g id="row-5">
</g>
<g id="row-4">
	<g id="read-full_1_">
	</g>
	<g id="markdown">
	</g>
	<g id="info">
	</g>
	<g id="folder">
	</g>
	<g id="read-full_2_">
	</g>
	<g id="person">
	</g>
	<g id="eye">
	</g>
	<g id="clear">
	</g>
	<g id="arrow-right-rod">
	</g>
	<g id="contract">
	</g>
	<g id="expand">
	</g>
	<g id="speaker-off">
	</g>
	<g id="speaker-on">
	</g>
	<g id="pause">
	</g>
	<g id="play">
	</g>
</g>
<g id="row-3">
	<g id="circle-arrow">
	</g>
	<g id="speedometer">
	</g>
	<g id="calendar">
	</g>
	<g id="server">
	</g>
	<g id="code-file">
	</g>
	<g id="gear">
	</g>
	<g id="tint">
	</g>
	<g id="dribbble">
	</g>
	<g id="globe">
	</g>
	<g id="github">
	</g>
	<g id="facebook">
	</g>
	<g id="twitter">
	</g>
	<g id="skype">
	</g>
	<g id="phone">
	</g>
	<g id="mail">
	</g>
</g>
<g id="row-2">
	<g id="liferay-logo-2">
	</g>
	<g id="menu-content">
	</g>
	<g id="streams">
	</g>
	<g id="balloon-topic">
	</g>
	<g id="groups">
	</g>
	<g id="liferay-logo">
	</g>
	<g id="heart-full">
	</g>
	<g id="confirm">
	</g>
	<g id="send">
	</g>
	<g id="arrow-left-rod">
	</g>
	<g id="cancel_1_">
	</g>
	<g id="plus">
	</g>
</g>
<g id="row-1">
	<g id="bullhorn">
	</g>
	<g id="link">
	</g>
	<g id="pen">
	</g>
	<g id="bell">
	</g>
	<g id="magnifier">
	</g>
	<g id="menu">
	</g>
	<g id="ellipsis">
	</g>
	<g id="balloon-comment">
	</g>
	<g id="heart-inline">
	</g>
	<g id="heart">
	</g>
	<g id="camera">
	</g>
	<g id="lock">
	</g>
	<g id="star">
	</g>
</g>
<g id="guides">
</g>
</svg>
