<?xml version="1.0" encoding="utf-8"?>
<!-- Generator: Adobe Illustrator 21.0.1, SVG Export Plug-In . SVG Version: 6.00 Build 0)  -->
<svg version="1.1" id="icon-" xmlns="http://www.w3.org/2000/svg" xmlns:xlink="http://www.w3.org/1999/xlink" x="0px" y="0px"
	 viewBox="0 0 780 960" style="enable-background:new 0 0 780 960;" xml:space="preserve">
<style type="text/css">
	.st0{fill-rule:evenodd;clip-rule:evenodd;}
	.st1{fill:#29ABE2;}
	.st2{fill-rule:evenodd;clip-rule:evenodd;fill:#181616;}
	.st3{fill:#FF0000;}
</style>
<path id="thumb-up" d="M180,540v300c0,33.1-26.9,60-60,60H60c-33.1,0-60-26.9-60-60V540c0-33.1,26.9-60,60-60h60
	C153.1,480,180,506.9,180,540z M780,420c0-33.1-26.9-60-60-60c-116.9,0-146.8,0-230.9,0c29.3-134.4,31.2-143.4,49.5-227.2l0,0
	c0.9-4.1,1.4-8.4,1.4-12.8l-60-60c-20,0-37.8,9.8-48.7,24.9l0,0c-56.2,77.9-56.2,78-168.5,233.7C248.5,338.4,240,362.7,240,389
	c0,240,0,331,0,451c0,33.1,26.9,60,60,60h240c16.6,0,31.6-7,42.4-18h-0.2c30-30,29.8-29.6,59.8-59.6v0c7-6.5,11.9-14.4,14.9-23.4h0
	c0,0,0.1-0.2,0.1-0.3c0.1-0.3,0.2-0.6,0.3-0.9c28-84.1,29.6-88.9,55.1-165.3c20.5-20.5,23.8-23.8,50-50l0,0
	c10.9-10.9,17.6-25.9,17.6-42.4V420z"/>
</svg>
