<?xml version="1.0" encoding="utf-8"?>
<!-- Generator: Adobe Illustrator 19.2.1, SVG Export Plug-In . SVG Version: 6.00 Build 0)  -->
<svg version="1.1" xmlns="http://www.w3.org/2000/svg" xmlns:xlink="http://www.w3.org/1999/xlink" x="0px" y="0px"
	 viewBox="0 0 840 960" enable-background="new 0 0 840 960" xml:space="preserve">
<g id="row-7">
</g>
<g id="row-6">
</g>
<g id="row-5">
</g>
<g id="row-4">
	<g id="read-full_1_">
	</g>
	<g id="markdown">
	</g>
	<g id="info">
	</g>
	<g id="folder">
	</g>
	<g id="read-full_2_">
	</g>
	<g id="person">
	</g>
	<g id="eye">
	</g>
	<g id="clear">
	</g>
	<g id="arrow-right-rod">
	</g>
	<g id="contract">
	</g>
	<g id="expand">
	</g>
	<g id="speaker-off">
	</g>
	<g id="speaker-on">
	</g>
	<g id="pause">
	</g>
	<g id="play">
	</g>
</g>
<g id="row-3">
	<g id="circle-arrow">
	</g>
	<g id="speedometer">
	</g>
	<g id="calendar">
	</g>
	<g id="server">
	</g>
	<g id="code-file">
	</g>
	<g id="gear">
	</g>
	<g id="tint">
		<path d="M840,540c0,232-188,420-420,420S0,772.1,0,540.1c0-94.8,31.4-182.2,84.4-252.4C329.2-44,329.4-44,366.3-94h0
			c11.5-16,29.9-25.8,50.7-25.8c20.6,0,38.8,9.8,50.3,24.8h0c0,0,0.1,0.1,0.1,0.1c0.1,0.1,0.1,0.2,0.2,0.2
			c37.2,49.4,37.9,50.2,285.5,378.7C807.6,355,840,443.7,840,540z"/>
	</g>
	<g id="dribbble">
	</g>
	<g id="globe">
	</g>
	<g id="github">
	</g>
	<g id="facebook">
	</g>
	<g id="twitter">
	</g>
	<g id="skype">
	</g>
	<g id="phone">
	</g>
	<g id="mail">
	</g>
</g>
<g id="row-2">
	<g id="liferay-logo-2">
	</g>
	<g id="menu-content">
	</g>
	<g id="streams">
	</g>
	<g id="balloon-topic">
	</g>
	<g id="groups">
	</g>
	<g id="liferay-logo">
	</g>
	<g id="heart-full">
	</g>
	<g id="confirm">
	</g>
	<g id="send">
	</g>
	<g id="arrow-left-rod">
	</g>
	<g id="cancel_1_">
	</g>
	<g id="plus">
	</g>
</g>
<g id="row-1">
	<g id="bullhorn">
	</g>
	<g id="link">
	</g>
	<g id="pen">
	</g>
	<g id="bell">
	</g>
	<g id="magnifier">
	</g>
	<g id="menu">
	</g>
	<g id="ellipsis">
	</g>
	<g id="balloon-comment">
	</g>
	<g id="heart-inline">
	</g>
	<g id="heart">
	</g>
	<g id="camera">
	</g>
	<g id="lock">
	</g>
	<g id="star">
	</g>
</g>
<g id="guides">
</g>
</svg>
