<?xml version="1.0" encoding="utf-8"?>
<!-- Generator: Adobe Illustrator 20.0.0, SVG Export Plug-In . SVG Version: 6.00 Build 0)  -->
<svg version="1.1" id="icon-" xmlns="http://www.w3.org/2000/svg" xmlns:xlink="http://www.w3.org/1999/xlink" x="0px" y="0px"
	 viewBox="0 0 840 960" enable-background="new 0 0 840 960" xml:space="preserve">
<path id="tint_1_" fill="#FF0000" d="M840,540c0,232-188,420-420,420S0,772.1,0,540.1c0-94.8,31.4-182.2,84.4-252.4
	C329.2-44,329.4-44,366.3-94h0c11.5-16,29.9-25.8,50.7-25.8c20.6,0,38.8,9.8,50.3,24.8h0c0,0,0.1,0.1,0.1,0.1
	c0.1,0.1,0.1,0.2,0.2,0.2c37.2,49.4,37.9,50.2,285.5,378.7C807.6,355,840,443.7,840,540z"/>
</svg>
