<?xml version="1.0" encoding="utf-8"?>
<!-- Generator: Adobe Illustrator 21.0.1, SVG Export Plug-In . SVG Version: 6.00 Build 0)  -->
<svg version="1.1" id="icon-" xmlns="http://www.w3.org/2000/svg" xmlns:xlink="http://www.w3.org/1999/xlink" x="0px" y="0px"
	 viewBox="0 0 900 960" style="enable-background:new 0 0 900 960;" xml:space="preserve">
<style type="text/css">
	.st0{fill-rule:evenodd;clip-rule:evenodd;}
	.st1{fill:#29ABE2;}
	.st2{fill-rule:evenodd;clip-rule:evenodd;fill:#181616;}
	.st3{fill:#FF0000;}
</style>
<path id="trash" d="M123,360h657v480c0,66.3-53.7,120-120,120H243.2C176.9,960,123,906.3,123,840V360z M900,210
	c0,49.7-40.3,90-90,90H90c-49.7,0-90-40.3-90-90s40.3-90,90-90h152.1c-1.4-9.8-2.1-19.8-2.1-30c0-116,94-210,210-210S660-26,660,90
	c0,10.2-0.7,20.2-2.1,30H810C859.7,120,900,160.3,900,210z M540,90c0-24-9.4-46.6-26.4-63.6C496.6,9.4,474,0,450,0
	s-46.6,9.4-63.6,26.4C369.4,43.4,360,66,360,90c0,10.4,1.8,20.5,5.1,30h169.8C538.2,110.5,540,100.4,540,90z"/>
</svg>
