<?xml version="1.0" encoding="utf-8"?>
<!-- Generator: Adobe Illustrator 19.2.1, SVG Export Plug-In . SVG Version: 6.00 Build 0)  -->
<svg version="1.1" xmlns="http://www.w3.org/2000/svg" xmlns:xlink="http://www.w3.org/1999/xlink" x="0px" y="0px"
	 viewBox="0 0 960 960" enable-background="new 0 0 960 960" xml:space="preserve">
<g id="row-7">
</g>
<g id="row-6">
</g>
<g id="row-5">
</g>
<g id="row-4">
	<g id="read-full_1_">
	</g>
	<g id="markdown">
	</g>
	<g id="info">
	</g>
	<g id="folder">
	</g>
	<g id="read-full_2_">
	</g>
	<g id="person">
	</g>
	<g id="eye">
	</g>
	<g id="clear">
	</g>
	<g id="arrow-right-rod">
	</g>
	<g id="contract">
	</g>
	<g id="expand">
	</g>
	<g id="speaker-off">
	</g>
	<g id="speaker-on">
	</g>
	<g id="pause">
	</g>
	<g id="play">
	</g>
</g>
<g id="row-3">
	<g id="circle-arrow">
	</g>
	<g id="speedometer">
	</g>
	<g id="calendar">
	</g>
	<g id="server">
	</g>
	<g id="code-file">
	</g>
	<g id="gear">
	</g>
	<g id="tint">
	</g>
	<g id="dribbble">
	</g>
	<g id="globe">
	</g>
	<g id="github">
	</g>
	<g id="facebook">
	</g>
	<g id="twitter">
		<path d="M960,152.6c-27.4,39.6-60.3,73.7-98.7,101.8c0.6,5.5,0.6,14,0.6,25.6c0,105.4-30.5,212.7-93.2,309.6
			c-63.4,96.9-147.4,173.1-269.8,216.9C437.4,829,372.2,840,302.1,840C191.9,840,91.4,810.8,0,751.6c14,1.8,29.8,2.4,47.5,2.4
			c91.4,0,173-28,244.3-84.1c-85.3-1.8-159-57.9-184-136.5c13.4,1.8,25.6,3,37.2,3c17.7,0,34.7-2.4,51.8-6.7
			C106,510.9,39,431.7,39,336.7v-2.4c27.4,15.2,57.3,23.8,88.9,25c-53.6-36-87.7-96.3-87.7-163.9c0-36,9.1-68.9,26.8-99.3
			c98.1,121.3,244.9,198,405.7,206c-3-15.2-4.9-30.5-4.9-45.1C467.8,147.8,555.5,60,664.6,60c56.6,0,104.8,20.7,143.8,62.2
			c44.5-8.5,85.9-24.4,124.9-47.5c-15.2,46.9-43.9,82.9-86.5,108.5C884.5,178.8,922.2,169.1,960,152.6z"/>
	</g>
	<g id="skype">
	</g>
	<g id="phone">
	</g>
	<g id="mail">
	</g>
</g>
<g id="row-2">
	<g id="liferay-logo-2">
	</g>
	<g id="menu-content">
	</g>
	<g id="streams">
	</g>
	<g id="balloon-topic">
	</g>
	<g id="groups">
	</g>
	<g id="liferay-logo">
	</g>
	<g id="heart-full">
	</g>
	<g id="confirm">
	</g>
	<g id="send">
	</g>
	<g id="arrow-left-rod">
	</g>
	<g id="cancel_1_">
	</g>
	<g id="plus">
	</g>
</g>
<g id="row-1">
	<g id="bullhorn">
	</g>
	<g id="link">
	</g>
	<g id="pen">
	</g>
	<g id="bell">
	</g>
	<g id="magnifier">
	</g>
	<g id="menu">
	</g>
	<g id="ellipsis">
	</g>
	<g id="balloon-comment">
	</g>
	<g id="heart-inline">
	</g>
	<g id="heart">
	</g>
	<g id="camera">
	</g>
	<g id="lock">
	</g>
	<g id="star">
	</g>
</g>
<g id="guides">
</g>
</svg>
