<?xml version="1.0" encoding="utf-8"?>
<!-- Generator: Adobe Illustrator 19.2.1, SVG Export Plug-In . SVG Version: 6.00 Build 0)  -->
<svg version="1.1" xmlns="http://www.w3.org/2000/svg" xmlns:xlink="http://www.w3.org/1999/xlink" x="0px" y="0px"
	 viewBox="0 0 900 960" enable-background="new 0 0 900 960" xml:space="preserve">
<g id="row-7">
</g>
<g id="row-6">
	<path id="upload" d="M0,270c0-120,0-60,0-180C0,40.3,40.3,0,90,0c180,0,540,0,720,0c49.7,0,90,40.3,90,90c0,120,0,60,0,180
		c0,49.7-40.3,90-90,90s-90-40.3-90-90c0-60,0-75,0-90c-159,0-381,0-540,0c0,15,0,30,0,90c0,49.7-40.3,90-90,90S0,319.7,0,270z
		 M513.6,266.4C497.4,250.1,474.9,240,450,240s-47.4,10.1-63.6,26.4c-120,120-120,120-240,240C130.1,522.6,120,545.1,120,570
		c0,49.7,40.3,90,90,90c24.9,0,47.4-10.1,63.6-26.4c38.5-38.5,64.4-64.6,86.4-86.4c0,131.4,0,269,0,382.7c0,49.7,40.3,90,90,90
		s90-40.3,90-90c0-113.7,0-251.4,0-382.7c22,21.7,47.9,47.9,86.4,86.4c16.3,16.3,38.8,26.4,63.6,26.4c49.7,0,90-40.3,90-90
		c0-24.9-10.1-47.4-26.4-63.6C633.6,386.4,633.6,386.4,513.6,266.4z"/>
</g>
<g id="row-5">
</g>
<g id="row-4">
	<g id="read-full_1_">
	</g>
	<g id="markdown">
	</g>
	<g id="info">
	</g>
	<g id="folder">
	</g>
	<g id="read-full_2_">
	</g>
	<g id="person">
	</g>
	<g id="eye">
	</g>
	<g id="clear">
	</g>
	<g id="arrow-right-rod">
	</g>
	<g id="contract">
	</g>
	<g id="expand">
	</g>
	<g id="speaker-off">
	</g>
	<g id="speaker-on">
	</g>
	<g id="pause">
	</g>
	<g id="play">
	</g>
</g>
<g id="row-3">
	<g id="circle-arrow">
	</g>
	<g id="speedometer">
	</g>
	<g id="calendar">
	</g>
	<g id="server">
	</g>
	<g id="code-file">
	</g>
	<g id="gear">
	</g>
	<g id="tint">
	</g>
	<g id="dribbble">
	</g>
	<g id="globe">
	</g>
	<g id="github">
	</g>
	<g id="facebook">
	</g>
	<g id="twitter">
	</g>
	<g id="skype">
	</g>
	<g id="phone">
	</g>
	<g id="mail">
	</g>
</g>
<g id="row-2">
	<g id="liferay-logo-2">
	</g>
	<g id="menu-content">
	</g>
	<g id="streams">
	</g>
	<g id="balloon-topic">
	</g>
	<g id="groups">
	</g>
	<g id="liferay-logo">
	</g>
	<g id="heart-full">
	</g>
	<g id="confirm">
	</g>
	<g id="send">
	</g>
	<g id="arrow-left-rod">
	</g>
	<g id="cancel_1_">
	</g>
	<g id="plus">
	</g>
</g>
<g id="row-1">
	<g id="bullhorn">
	</g>
	<g id="link">
	</g>
	<g id="pen">
	</g>
	<g id="bell">
	</g>
	<g id="magnifier">
	</g>
	<g id="menu">
	</g>
	<g id="ellipsis">
	</g>
	<g id="balloon-comment">
	</g>
	<g id="heart-inline">
	</g>
	<g id="heart">
	</g>
	<g id="camera">
	</g>
	<g id="lock">
	</g>
	<g id="star">
	</g>
</g>
<g id="guides">
</g>
</svg>
