<?xml version="1.0" encoding="utf-8"?>
<!-- Generator: Adobe Illustrator 20.0.0, SVG Export Plug-In . SVG Version: 6.00 Build 0)  -->
<svg version="1.1" id="icon-" xmlns="http://www.w3.org/2000/svg" xmlns:xlink="http://www.w3.org/1999/xlink" x="0px" y="0px"
	 viewBox="0 0 900 960" enable-background="new 0 0 900 960" xml:space="preserve">
<path id="upload" d="M0,270c0-120,0-60,0-180C0,40.3,40.3,0,90,0c180,0,540,0,720,0c49.7,0,90,40.3,90,90c0,120,0,60,0,180
	c0,49.7-40.3,90-90,90s-90-40.3-90-90c0-60,0-75,0-90c-159,0-381,0-540,0c0,15,0,30,0,90c0,49.7-40.3,90-90,90S0,319.7,0,270z
	 M513.6,266.4C497.4,250.1,474.9,240,450,240s-47.4,10.1-63.6,26.4c-120,120-120,120-240,240C130.1,522.6,120,545.1,120,570
	c0,49.7,40.3,90,90,90c24.9,0,47.4-10.1,63.6-26.4c38.5-38.5,64.4-64.6,86.4-86.4c0,131.4,0,269,0,382.7c0,49.7,40.3,90,90,90
	s90-40.3,90-90c0-113.7,0-251.4,0-382.7c22,21.7,47.9,47.9,86.4,86.4c16.3,16.3,38.8,26.4,63.6,26.4c49.7,0,90-40.3,90-90
	c0-24.9-10.1-47.4-26.4-63.6C633.6,386.4,633.6,386.4,513.6,266.4z"/>
</svg>
