<?xml version="1.0" encoding="utf-8"?>
<!-- Generator: Adobe Illustrator 21.0.1, SVG Export Plug-In . SVG Version: 6.00 Build 0)  -->
<svg version="1.1" id="icon-" xmlns="http://www.w3.org/2000/svg" xmlns:xlink="http://www.w3.org/1999/xlink" x="0px" y="0px"
	 viewBox="0 0 840 960" enable-background="new 0 0 840 960" xml:space="preserve">
<path id="upload-file" d="M804.9,155.1c-120-120-120-120-240-240C543.1-106.6,513.1-120,480-120c-240,0-120,0-360,0
	C53.7-120,0-66.3,0,0c0,240,0,600,0,840c0,66.3,53.7,120,120,120c93.5,0,168.8,0,240,0c0-79.8,0-183.5,0-275.1
	c-5.3,5.3-11.1,11.1-17.6,17.6C331.6,713.3,316.6,720,300,720c-33.1,0-60-26.9-60-60c0-16.6,6.7-31.6,17.6-42.4c60-60,60-60,120-120
	c10.9-10.9,25.9-17.6,42.4-17.6s31.6,6.7,42.4,17.6c60,60,60,60,120,120c10.9,10.9,17.6,25.9,17.6,42.4c0,33.1-26.9,60-60,60
	c-16.6,0-31.6-6.7-42.4-17.6c-6.5-6.5-12.3-12.3-17.6-17.6c0,91.6,0,195.3,0,275.1c71.2,0,146.5,0,240,0c66.3,0,120-53.7,120-120
	c0-240,0-360,0-600C840,206.9,826.6,176.9,804.9,155.1z M600,300c-60,0-60,0-120,0c-33.1,0-60-26.9-60-60c0-60,0-60,0-120
	c0-33.1,26.9-60,60-60c16.6,0,31.6,6.7,42.4,17.6c60,60,60,60,120,120c10.9,10.9,17.6,25.9,17.6,42.4C660,273.1,633.1,300,600,300z"
	/>
</svg>
