<?xml version="1.0" encoding="utf-8"?>
<!-- Generator: Adobe Illustrator 20.0.0, SVG Export Plug-In . SVG Version: 6.00 Build 0)  -->
<svg version="1.1" id="icon-" xmlns="http://www.w3.org/2000/svg" xmlns:xlink="http://www.w3.org/1999/xlink" x="0px" y="0px"
	 viewBox="0 0 960 960" enable-background="new 0 0 960 960" xml:space="preserve">
<path id="alert_1_" d="M934,646.9L790.1,375.6L646.1,104.4c-73.8-139.2-258.5-139.2-332.3,0L169.9,375.6L26,646.9
	C-47.9,786,44.5,960,192.1,960H480h287.9C915.5,960,1007.9,786,934,646.9z M480.3,800c-44.2,0-80-35.8-80-80s35.8-80,80-80
	c44.2,0,80,35.8,80,80S524.5,800,480.3,800z M560,480c0,44.2-35.8,80-80,80l0,0c-44.2,0-80-35.8-80-80V320c0-44.2,35.8-80,80-80l0,0
	c44.2,0,80,35.8,80,80V480z"/>
</svg>
