<?xml version="1.0" encoding="utf-8"?>
<!-- Generator: Adobe Illustrator 18.1.1, SVG Export Plug-In . SVG Version: 6.00 Build 0)  -->
<svg version="1.1" xmlns="http://www.w3.org/2000/svg" xmlns:xlink="http://www.w3.org/1999/xlink" x="0px" y="0px"
	 viewBox="0 0 1120 960" enable-background="new 0 0 1120 960" xml:space="preserve">
<g id="alert">
	<path d="M1013.7,646.9L869.8,375.6L725.8,104.4c-73.8-139.2-258.5-139.2-332.3,0L249.6,375.6L105.7,646.9
		C31.8,786,124.1,960,271.8,960h287.9h287.9C995.2,960,1087.5,786,1013.7,646.9z M560,800c-44.2,0-80-35.8-80-80s35.8-80,80-80
		c44.2,0,80,35.8,80,80S604.2,800,560,800z M640,480c0,44.2-35.8,80-80,80l0,0c-44.2,0-80-35.8-80-80V320c0-44.2,35.8-80,80-80l0,0
		c44.2,0,80,35.8,80,80V480z"/>
</g>
<g id="expand">
</g>
<g id="collapse">
</g>
<g id="colections">
</g>
<g id="region">
</g>
<g id="flag">
</g>
<g id="flag-small">
</g>
<g id="signpost">
</g>
<g id="info-card">
</g>
<g id="journal">
</g>
<g id="network">
</g>
<g id="trash">
</g>
<g id="card">
</g>
<g id="browser">
</g>
<g id="arrows">
</g>
<g id="arrow-left-rod">
</g>
<g id="arrow-right-rod">
</g>
<g id="arrow-up-short">
</g>
<g id="arrow-down-short">
</g>
<g id="briefcase">
</g>
<g id="balloon-comments-fill">
</g>
<g id="balloon-comments">
</g>
<g id="check">
</g>
<g id="balloon-topic">
</g>
<g id="persons">
</g>
<g id="groups">
</g>
<g id="building-big">
</g>
<g id="person-card-2">
</g>
<g id="person-card-3">
</g>
<g id="plus">
</g>
<g id="arrow-right-long">
</g>
<g id="arrow-left-long">
</g>
<g id="close-short">
</g>
<g id="hash">
</g>
<g id="people">
</g>
<g id="building-small">
</g>
<g id="person">
</g>
<g id="heart-fill">
</g>
<g id="close-long">
</g>
<g id="post">
</g>
<g id="star">
</g>
<g id="heart">
</g>
<g id="link">
</g>
<g id="camera">
</g>
<g id="balloon-text">
</g>
<g id="pin">
</g>
<g id="clock">
</g>
<g id="guide">
</g>
</svg>
