<?xml version="1.0" encoding="utf-8"?>
<!-- Generator: Adobe Illustrator 21.0.1, SVG Export Plug-In . SVG Version: 6.00 Build 0)  -->
<svg version="1.1" id="icon-" xmlns="http://www.w3.org/2000/svg" xmlns:xlink="http://www.w3.org/1999/xlink" x="0px" y="0px"
	 viewBox="0 0 960 960" enable-background="new 0 0 960 960" xml:space="preserve">
<path id="apps" d="M400,120v160c0,66.3-53.7,120-120,120H120C53.7,400,0,346.3,0,280V120C0,53.7,53.7,0,120,0h160
	C346.3,0,400,53.7,400,120z M840,0H680c-66.3,0-120,53.7-120,120v160c0,66.3,53.7,120,120,120h160c66.3,0,120-53.7,120-120V120
	C960,53.7,906.3,0,840,0z M280,560H120C53.7,560,0,613.7,0,680v160c0,66.3,53.7,120,120,120h160c66.3,0,120-53.7,120-120V680
	C400,613.7,346.3,560,280,560z M840,560H680c-66.3,0-120,53.7-120,120v160c0,66.3,53.7,120,120,120h160c66.3,0,120-53.7,120-120V680
	C960,613.7,906.3,560,840,560z"/>
</svg>
