<?xml version="1.0" encoding="utf-8"?>
<!-- Generator: Adobe Illustrator 20.0.0, SVG Export Plug-In . SVG Version: 6.00 Build 0)  -->
<svg version="1.1" id="icon-" xmlns="http://www.w3.org/2000/svg" xmlns:xlink="http://www.w3.org/1999/xlink" x="0px" y="0px"
	 viewBox="0 0 640 960" enable-background="new 0 0 640 960" xml:space="preserve">
<path id="arrow-down-rod" d="M560,560c-22.1,0-42.1,9-56.6,23.4C456.6,630.2,426.9,660,400,686.9c0-156,0-338.3,0-446.9
	c0-44.2-35.8-80-80-80s-80,35.8-80,80c0,108.6,0,290.9,0,446.9c-26.9-26.9-56.6-56.6-103.4-103.4C122.1,569,102.1,560,80,560
	c-44.2,0-80,35.8-80,80c0,22.1,9,42.1,23.4,56.6c113.1,113.1,126.9,126.9,240,240C277.9,951,297.9,960,320,960s42.1-9,56.6-23.4
	c113.1-113.1,126.9-126.9,240-240C631,682.1,640,662.1,640,640C640,595.8,604.2,560,560,560z"/>
</svg>
