<?xml version="1.0" encoding="utf-8"?>
<!-- Generator: Adobe Illustrator 20.0.0, SVG Export Plug-In . SVG Version: 6.00 Build 0)  -->
<svg version="1.1" id="icon-" xmlns="http://www.w3.org/2000/svg" xmlns:xlink="http://www.w3.org/1999/xlink" x="0px" y="0px"
	 viewBox="0 0 480 960" enable-background="new 0 0 480 960" xml:space="preserve">
<path id="arrow-left-short" d="M193.1,480c89.2-89.2,169.7-169.7,263.4-263.4C471,202.1,480,182.1,480,160c0-44.2-35.8-80-80-80
	c-22.1,0-42.1,9-56.6,23.4c-113.1,113.1-206.9,206.9-320,320C9,437.9,0,457.9,0,480s9,42.1,23.4,56.6
	c113.1,113.1,206.9,206.9,320,320C357.9,871,377.9,880,400,880c44.2,0,80-35.8,80-80c0-22.1-9-42.1-23.4-56.6
	C362.8,649.7,282.3,569.2,193.1,480z"/>
</svg>
