<?xml version="1.0" encoding="utf-8"?>
<!-- Generator: Adobe Illustrator 20.0.0, SVG Export Plug-In . SVG Version: 6.00 Build 0)  -->
<svg version="1.1" id="icon-" xmlns="http://www.w3.org/2000/svg" xmlns:xlink="http://www.w3.org/1999/xlink" x="0px" y="0px"
	 viewBox="0 0 400 960" enable-background="new 0 0 400 960" xml:space="preserve">
<path id="arrows" d="M400,680c0,8.2-2.5,15.8-6.7,22.2h0c0,0,0,0,0,0c-0.1,0.1-0.1,0.2-0.2,0.3C348.7,769,277.6,875.7,233.3,942.2h0
	c-7.2,10.7-19.4,17.8-33.3,17.8s-26.1-7.1-33.3-17.8h0C122.4,875.7,51.3,769,6.9,702.5c-0.1-0.1-0.1-0.2-0.2-0.3c0,0,0,0,0,0h0
	C2.5,695.8,0,688.2,0,680c0-22.1,17.9-40,40-40c80,0,240,0,320,0C382.1,640,400,657.9,400,680z M40,480c80,0,240,0,320,0
	c22.1,0,40-17.9,40-40c0-8.2-2.5-15.8-6.7-22.2h0c0,0,0,0,0,0c-0.1-0.1-0.1-0.2-0.2-0.3C348.7,351,277.6,244.3,233.3,177.8h0
	c-7.2-10.7-19.4-17.8-33.3-17.8s-26.1,7.1-33.3,17.8h0C122.4,244.3,51.3,351,6.9,417.5c-0.1,0.1-0.1,0.2-0.2,0.3c0,0,0,0,0,0h0
	C2.5,424.2,0,431.8,0,440C0,462.1,17.9,480,40,480z"/>
</svg>
