<?xml version="1.0" encoding="utf-8"?>
<!-- Generator: Adobe Illustrator 21.0.1, SVG Export Plug-In . SVG Version: 6.00 Build 0)  -->
<svg version="1.1" id="icon-" xmlns="http://www.w3.org/2000/svg" xmlns:xlink="http://www.w3.org/1999/xlink" x="0px" y="0px"
	 viewBox="0 0 480 960" enable-background="new 0 0 480 960" xml:space="preserve">
<path id="arrow-right_x5F_short_1_" d="M456.6,423.4c-113.1-113.1-206.9-206.9-320-320C122.1,89,102.1,80,80,80
	c-44.2,0-80,35.8-80,80c0,22.1,9,42.1,23.4,56.6c93.8,93.8,174.2,174.2,263.4,263.4c-89.2,89.2-169.7,169.7-263.4,263.4
	C9,757.9,0,777.9,0,800c0,44.2,35.8,80,80,80c22.1,0,42.1-9,56.6-23.4c113.1-113.1,206.9-206.9,320-320C471,522.1,480,502.1,480,480
	S471,437.9,456.6,423.4z"/>
</svg>
