<?xml version="1.0" encoding="utf-8"?>
<!-- Generator: Adobe Illustrator 21.0.1, SVG Export Plug-In . SVG Version: 6.00 Build 0)  -->
<svg version="1.1" id="icon-" xmlns="http://www.w3.org/2000/svg" xmlns:xlink="http://www.w3.org/1999/xlink" x="0px" y="0px"
	 viewBox="0 0 960 960" enable-background="new 0 0 960 960" xml:space="preserve">
<path id="arrows-expand" d="M376.6,696.6C329.8,743.4,300,773.1,273.1,800c12.9,0,28.2,0,46.9,0c44.2,0,80,35.8,80,80
	s-35.8,80-80,80c-160,0-80,0-240,0c-44.2,0-80-35.8-80-80c0-160,0-80,0-240c0-44.2,35.8-80,80-80s80,35.8,80,80c0,18.6,0,34,0,46.9
	c26.9-26.9,56.6-56.6,103.4-103.4C277.9,569,297.9,560,320,560c44.2,0,80,35.8,80,80C400,662.1,391,682.1,376.6,696.6z M400,80
	c0-44.2-35.8-80-80-80C160,0,240,0,80,0C35.8,0,0,35.8,0,80c0,160,0,80,0,240c0,44.2,35.8,80,80,80s80-35.8,80-80
	c0-18.6,0-34,0-46.9c26.9,26.9,56.6,56.6,103.4,103.4C277.9,391,297.9,400,320,400c44.2,0,80-35.8,80-80c0-22.1-9-42.1-23.4-56.6
	C329.8,216.6,300,186.9,273.1,160c12.9,0,28.2,0,46.9,0C364.2,160,400,124.2,400,80z M880,0c-160,0-80,0-240,0
	c-44.2,0-80,35.8-80,80s35.8,80,80,80c18.6,0,34,0,46.9,0c-26.9,26.9-56.6,56.6-103.4,103.4C569,277.9,560,297.9,560,320
	c0,44.2,35.8,80,80,80c22.1,0,42.1-9,56.6-23.4c46.8-46.8,76.6-76.6,103.4-103.4c0,12.9,0,28.2,0,46.9c0,44.2,35.8,80,80,80
	s80-35.8,80-80c0-160,0-80,0-240C960,35.8,924.2,0,880,0z M880,560c-44.2,0-80,35.8-80,80c0,18.6,0,34,0,46.9
	c-26.9-26.9-56.6-56.6-103.4-103.4C682.1,569,662.1,560,640,560c-44.2,0-80,35.8-80,80c0,22.1,9,42.1,23.4,56.6
	c46.8,46.8,76.6,76.6,103.4,103.4c-12.9,0-28.2,0-46.9,0c-44.2,0-80,35.8-80,80s35.8,80,80,80c160,0,80,0,240,0
	c44.2,0,80-35.8,80-80c0-160,0-80,0-240C960,595.8,924.2,560,880,560z"/>
</svg>
