<?xml version="1.0" encoding="utf-8"?>
<!-- Generator: Adobe Illustrator 21.0.1, SVG Export Plug-In . SVG Version: 6.00 Build 0)  -->
<svg version="1.1" id="icon-" xmlns="http://www.w3.org/2000/svg" xmlns:xlink="http://www.w3.org/1999/xlink" x="0px" y="0px"
	 viewBox="0 0 960 960" enable-background="new 0 0 960 960" xml:space="preserve">
<path id="arrow-increase" d="M960,240c0,44.2-35.8,80-80,80c-22.1,0-42.1-9-56.6-23.4c-8.9-8.9-16.6-16.6-23.4-23.4
	c0,208.3,0,491.2,0,606.9c0,44.2-35.8,80-80,80c-44.2,0-80-35.8-80-80c0-115.7,0-398.5,0-606.9c-6.8,6.8-14.6,14.6-23.4,23.4
	C602.1,311,582.1,320,560,320c-44.2,0-80-35.8-80-80c0-22.1,9-42.1,23.4-56.6c113.1-113.1,46.9-46.9,160-160C677.9,9,697.9,0,720,0
	s42.1,9,56.6,23.4c113.1,113.1,46.9,46.9,160,160C951,197.9,960,217.9,960,240z M400,400c-44.2,0-80,35.8-80,80c0,160,0,240,0,400
	c0,44.2,35.8,80,80,80c44.2,0,80-35.8,80-80c0-160,0-240,0-400C480,435.8,444.2,400,400,400z M80,640c-44.2,0-80,35.8-80,80
	c0,29.3,0,50.2,0,64.9c0-0.1,0,7.4,0,30.2c0,14.6,0,35.6,0,64.9c0,44.2,35.8,80,80,80c44.2,0,80-35.8,80-80c0-29.3,0-50.2,0-64.9
	c0,0.1,0-7.4,0-30.2c0-14.6,0-35.6,0-64.9C160,675.8,124.2,640,80,640z"/>
</svg>
