<?xml version="1.0" encoding="utf-8"?>
<!-- Generator: Adobe Illustrator 20.0.0, SVG Export Plug-In . SVG Version: 6.00 Build 0)  -->
<svg version="1.1" id="icon-" xmlns="http://www.w3.org/2000/svg" xmlns:xlink="http://www.w3.org/1999/xlink" x="0px" y="0px"
	 viewBox="0 0 640 960" enable-background="new 0 0 640 960" xml:space="preserve">
<path id="arrow-up-rod" d="M616.6,423.4c-113.1-113.1-126.9-126.9-240-240C362.1,169,342.1,160,320,160s-42.1,9-56.6,23.4
	c-113.1,113.1-126.9,126.9-240,240C9,437.9,0,457.9,0,480c0,44.2,35.8,80,80,80c22.1,0,42.1-9,56.6-23.4
	c46.8-46.8,76.6-76.6,103.4-103.4c0,156,0,338.3,0,446.9c0,44.2,35.8,80,80,80s80-35.8,80-80c0-108.6,0-290.9,0-446.9
	c26.9,26.9,56.6,56.6,103.4,103.4C517.9,551,537.9,560,560,560c44.2,0,80-35.8,80-80C640,457.9,631,437.9,616.6,423.4z"/>
</svg>
