<?xml version="1.0" encoding="utf-8"?>
<!-- Generator: Adobe Illustrator 20.0.0, SVG Export Plug-In . SVG Version: 6.00 Build 0)  -->
<svg version="1.1" id="icon-" xmlns="http://www.w3.org/2000/svg" xmlns:xlink="http://www.w3.org/1999/xlink" x="0px" y="0px"
	 viewBox="0 0 1040 960" enable-background="new 0 0 1040 960" xml:space="preserve">
<path id="balloon-comments-inline_1_" fill="#ED1C24" d="M654.7,759.9c8.5,0,17.1,1.4,25.3,4.1l126,42l-42-126
	c-6.6-19.8-5.2-41.4,3.9-60.2c59.5-122.6,34.7-269.7-61.7-366.1C645.8,193.3,565.5,160,480,160s-165.8,33.3-226.3,93.7
	S160,394.5,160,480s33.3,165.8,93.7,226.3C314.2,766.7,394.5,800,480,800c48.3,0,96.6-11.1,139.8-32
	C630.8,762.6,642.7,759.9,654.7,759.9z"/>
</svg>
