<?xml version="1.0" encoding="utf-8"?>
<!-- Generator: Adobe Illustrator 20.0.0, SVG Export Plug-In . SVG Version: 6.00 Build 0)  -->
<svg version="1.1" id="icon-" xmlns="http://www.w3.org/2000/svg" xmlns:xlink="http://www.w3.org/1999/xlink" x="0px" y="0px"
	 viewBox="0 0 1120 960" enable-background="new 0 0 1120 960" xml:space="preserve">
<path id="balloon-topic_1_" d="M960,0H160C71.6,0,0,71.6,0,160v560c0,88.4,71.6,160,160,160h686.9c57.5,57.5,65.3,65.3,136.6,136.6
	c14.5,14.5,34.5,23.4,56.6,23.4h0c44.2,0,80-35.8,80-80c0-40,0-800,0-800C1120,71.6,1048.4,0,960,0z M560,640H240
	c-44.2,0-80-35.8-80-80s35.8-80,80-80h320c44.2,0,80,35.8,80,80S604.2,640,560,640z M800,320H240c-44.2,0-80-35.8-80-80
	s35.8-80,80-80h560c44.2,0,80,35.8,80,80S844.2,320,800,320z"/>
</svg>
