<?xml version="1.0" encoding="utf-8"?>
<!-- Generator: Adobe Illustrator 19.2.1, SVG Export Plug-In . SVG Version: 6.00 Build 0)  -->
<svg version="1.1" xmlns="http://www.w3.org/2000/svg" xmlns:xlink="http://www.w3.org/1999/xlink" x="0px" y="0px"
	 viewBox="0 0 1120 960" enable-background="new 0 0 1120 960" xml:space="preserve">
<g id="row-5">
</g>
<g id="row-4">
	<path id="bell-off" d="M174.6,292.5C370.5,473.4,640,722.1,811,880c-28.6,0-59.2,0-91,0c0,88.4-71.6,160-160,160
		c-88.4,0-160-71.6-160-160c-99.5,0-187.2,0-240,0c-44.2,0-80-35.8-80-80s36-80,80-80V400C160,362.8,165.1,326.7,174.6,292.5z
		 M1094.1,821L1094.1,821c-23.6-21.7-71.6-65.6-134.1-122.9V698V400c0-165.3-100.2-307.1-243.2-368.1c2.1-10.3,3.2-21,3.2-31.9
		c0-88.4-71.6-160-160-160c-88.4,0-160,71.6-160,160c0,10.9,1.1,21.6,3.2,31.9C366.1,47.7,332,69,301.6,94.6l0,0
		C222.8,22.4,161.7-33.6,134.1-59l0,0C119.8-72,100.8-80,80-80C35.8-80,0-44.2,0,0c0,23.3,10,44.3,25.9,59l0,0
		c117.9,108.1,842.1,771.9,960,880l0,0c14.2,13.1,33.2,21,54.1,21c44.2,0,80-35.8,80-80C1120,856.7,1110,835.7,1094.1,821z"/>
</g>
<g id="row-3">
	<g id="alert">
	</g>
	<g id="expand">
	</g>
	<g id="collapse">
	</g>
	<g id="colections">
	</g>
	<g id="briefcase">
	</g>
	<g id="flag">
	</g>
	<g id="flag-small">
	</g>
	<g id="signpost">
	</g>
	<g id="info-card">
	</g>
	<g id="journal">
	</g>
	<g id="network">
	</g>
	<g id="trash">
	</g>
	<g id="card">
	</g>
	<g id="browser">
	</g>
	<g id="arrows">
	</g>
	<g id="arrow-left-rod">
	</g>
</g>
<g id="row-2">
	<g id="arrow-right-rod">
	</g>
	<g id="arrow-up-short">
	</g>
	<g id="arrow-down-short">
	</g>
	<g id="heart-full">
	</g>
	<g id="balloon-comments-inline">
	</g>
	<g id="balloon-comments">
	</g>
	<g id="check">
	</g>
	<g id="balloon-topic">
	</g>
	<g id="persons">
	</g>
	<g id="groups">
	</g>
	<g id="building-big">
	</g>
	<g id="person-card-2">
	</g>
	<g id="person-card-3">
	</g>
	<g id="plus">
	</g>
	<g id="arrow-right-long">
	</g>
	<g id="arrow-left-long">
	</g>
</g>
<g id="row-1">
	<g id="heart-inline">
	</g>
	<g id="close-short">
	</g>
	<g id="hash">
	</g>
	<g id="people">
	</g>
	<g id="building-small">
	</g>
	<g id="person">
	</g>
	<g id="close-long">
	</g>
	<g id="post">
	</g>
	<g id="star">
	</g>
	<g id="heart">
	</g>
	<g id="link">
	</g>
	<g id="camera">
	</g>
	<g id="balloon-text">
	</g>
	<g id="pin">
	</g>
	<g id="clock">
	</g>
</g>
<g id="guides">
</g>
</svg>
