<?xml version="1.0" encoding="utf-8"?>
<!-- Generator: Adobe Illustrator 21.0.1, SVG Export Plug-In . SVG Version: 6.00 Build 0)  -->
<svg version="1.1" id="icon-" xmlns="http://www.w3.org/2000/svg" xmlns:xlink="http://www.w3.org/1999/xlink" x="0px" y="0px"
	 viewBox="0 0 880 960" enable-background="new 0 0 880 960" xml:space="preserve">
<path id="bell_1_" d="M880,720c0,44.2-35.8,80-80,80c-22.4,0-49.5,0-80,0c-47.6,0-102.4,0-160,0c0,10.9,0,23.8,0,40
	c0,66.3-53.7,120-120,120s-120-53.7-120-120c0-16.2,0-29.1,0-40c-57.6,0-112.4,0-160,0c-30.5,0-57.6,0-80,0c-44.2,0-80-35.8-80-80
	s35.8-80,80-80c0-51.2,0-55.8,0-280C80,161.2,241.2,0,440,0s360,161.2,360,360c0,224.2,0,228.8,0,280C844.2,640,880,675.8,880,720z"
	/>
</svg>
