<?xml version="1.0" encoding="utf-8"?>
<!-- Generator: Adobe Illustrator 21.0.1, SVG Export Plug-In . SVG Version: 6.00 Build 0)  -->
<svg version="1.1" id="icon-" xmlns="http://www.w3.org/2000/svg" xmlns:xlink="http://www.w3.org/1999/xlink" x="0px" y="0px"
	 viewBox="0 0 1120 960" enable-background="new 0 0 1120 960" xml:space="preserve">
<path id="bell-off" d="M160,380c168.3,126.2,395.6,296.7,560,420c-25.7,0-52.5,0-80,0c0,10.9,0,23.8,0,40c0,66.3-53.7,120-120,120
	s-120-53.7-120-120c0-16.2,0-29.1,0-40c-57.6,0-112.4,0-160,0c-30.5,0-57.6,0-80,0c-44.2,0-80-35.8-80-80s35.8-80,80-80
	C160,590.3,160,584.5,160,380z M1087.7,735.8C1052.9,709.7,976.1,652.1,880,580c0-34.3,0-90.5,0-220C880,161.2,718.8,0,520,0
	C416.6,0,323.4,43.6,257.8,113.3C198.7,69,152.7,34.5,128,16C114.7,6,98,0,80,0C35.8,0,0,35.8,0,80c0,26.3,12.7,49.6,32.3,64.2
	C161,240.8,864,768,992,864c13.4,10.1,30,16,48,16c44.2,0,80-35.8,80-80C1120,773.7,1107.3,750.4,1087.7,735.8z"/>
</svg>
