<?xml version="1.0" encoding="utf-8"?>
<!-- Generator: Adobe Illustrator 20.0.0, SVG Export Plug-In . SVG Version: 6.00 Build 0)  -->
<svg version="1.1" id="icon-" xmlns="http://www.w3.org/2000/svg" xmlns:xlink="http://www.w3.org/1999/xlink" x="0px" y="0px"
	 viewBox="0 0 800 960" enable-background="new 0 0 800 960" xml:space="preserve">
<path id="bookmark" d="M720,0C560,0,240,0,80,0C35.8,0,0,35.8,0,80c0,160,0,640,0,800c0,44.2,35.8,80,80,80c18,0,34.7-6,48-16
	C239,860.8,301.8,813.6,400,740c98.2,73.6,161,120.8,272,204c13.4,10.1,30,16,48,16c44.2,0,80-35.8,80-80c0-160,0-640,0-800
	C800,35.8,764.2,0,720,0z"/>
</svg>
