<?xml version="1.0" encoding="utf-8"?>
<!-- Generator: Adobe Illustrator 20.0.0, SVG Export Plug-In . SVG Version: 6.00 Build 0)  -->
<svg version="1.1" id="icon-" xmlns="http://www.w3.org/2000/svg" xmlns:xlink="http://www.w3.org/1999/xlink" x="0px" y="0px"
	 viewBox="0 0 720 960" enable-background="new 0 0 720 960" xml:space="preserve">
<path id="building-small_1_" fill="#ED1C24" d="M320,0v320H0v560h720V0H320z M160,640H80v-80h80V640z M160,480H80v-80h80V480z
	 M320,640h-80v-80h80V640z M320,480h-80v-80h80V480z M640,800h-80V640h-80v160h-80V400V80h240V800z M560,560h-80v-80h80V560z
	 M560,400h-80v-80h80V400z M560,240h-80v-80h80V240z"/>
</svg>
