<?xml version="1.0" encoding="utf-8"?>
<!-- Generator: Adobe Illustrator 21.0.1, SVG Export Plug-In . SVG Version: 6.00 Build 0)  -->
<svg version="1.1" id="icon-" xmlns="http://www.w3.org/2000/svg" xmlns:xlink="http://www.w3.org/1999/xlink" x="0px" y="0px"
	 viewBox="0 0 960 960" enable-background="new 0 0 960 960" xml:space="preserve">
<path id="camera_1_" d="M800,160h-80v0C720,71.6,648.4,0,560,0H400c-88.4,0-160,71.6-160,160v0h-80C71.6,160,0,231.6,0,320v400
	c0,88.4,71.6,160,160,160h640c88.4,0,160-71.6,160-160V320C960,231.6,888.4,160,800,160z M480,720c-132.5,0-240-107.5-240-240
	s107.5-240,240-240s240,107.5,240,240S612.5,720,480,720z M480,640c-88.4,0-160-71.6-160-160s71.6-160,160-160s160,71.6,160,160
	S568.4,640,480,640z"/>
</svg>
