<?xml version="1.0" encoding="utf-8"?>
<!-- Generator: Adobe Illustrator 18.1.1, SVG Export Plug-In . SVG Version: 6.00 Build 0)  -->
<svg version="1.1" xmlns="http://www.w3.org/2000/svg" xmlns:xlink="http://www.w3.org/1999/xlink" x="0px" y="0px"
	 viewBox="0 0 1360 960" enable-background="new 0 0 1360 960" xml:space="preserve">
<g id="chart">
	<path d="M1281,921c0,110.5-89.5,200-200,200s-200-89.5-200-200c0-96.4,68.2-176.9,159-195.8V561H320v164
		c91.3,18.5,160,99.2,160,196c0,110.5-89.5,200-200,200S80,1031.5,80,921c0-96.8,68.7-177.5,160-196V481h400V237
		c-91.3-18.5-160-99.2-160-196c0-110.5,89.5-200,200-200S880-69.5,880,41c0,96.8-68.7,177.5-160,196v244h400v243.8
		C1211.8,743,1281,823.9,1281,921z"/>
</g>
<g id="addon">
</g>
<g id="graph">
</g>
<g id="alert">
</g>
<g id="expand">
</g>
<g id="collapse">
</g>
<g id="colections">
</g>
<g id="region">
</g>
<g id="flag">
</g>
<g id="flag-small">
</g>
<g id="signpost">
</g>
<g id="info-card">
</g>
<g id="journal">
</g>
<g id="network">
</g>
<g id="trash">
</g>
<g id="card">
</g>
<g id="browser">
</g>
<g id="arrows">
</g>
<g id="arrow-left-rod">
</g>
<g id="arrow-right-rod">
</g>
<g id="arrow-up-short">
</g>
<g id="arrow-down-short">
</g>
<g id="briefcase">
</g>
<g id="balloon-comments-fill">
</g>
<g id="balloon-comments">
</g>
<g id="check">
</g>
<g id="balloon-topic">
</g>
<g id="persons">
</g>
<g id="groups">
</g>
<g id="building-big">
</g>
<g id="person-card-2">
</g>
<g id="person-card-3">
</g>
<g id="plus">
</g>
<g id="arrow-right-long">
</g>
<g id="arrow-left-long">
</g>
<g id="close-short">
</g>
<g id="hash">
</g>
<g id="people">
</g>
<g id="building-small">
</g>
<g id="person">
</g>
<g id="heart-fill">
</g>
<g id="close-long">
</g>
<g id="post">
</g>
<g id="star">
</g>
<g id="heart">
</g>
<g id="link">
</g>
<g id="camera">
</g>
<g id="balloon-text">
</g>
<g id="pin">
</g>
<g id="clock">
</g>
<g id="guide">
</g>
</svg>
