<?xml version="1.0" encoding="utf-8"?>
<!-- Generator: Adobe Illustrator 20.0.0, SVG Export Plug-In . SVG Version: 6.00 Build 0)  -->
<svg version="1.1" id="icon-" xmlns="http://www.w3.org/2000/svg" xmlns:xlink="http://www.w3.org/1999/xlink" x="0px" y="0px"
	 viewBox="0 0 880 960" enable-background="new 0 0 880 960" xml:space="preserve">
<path id="check_1_" d="M880,327c0,22.1-9,42.1-23.4,56.6c-113.1,113.1-366.9,366.9-480,480C362.1,878,342.1,887,320,887
	c-22.1,0-42.1-9-56.6-23.4c-113.1-113.1-126.9-126.9-240-240C9,609.1,0,589.1,0,567c0-44.2,35.8-80,80-80c22.1,0,42.1,9,56.6,23.4
	c91,91,117.7,117.7,183.4,183.4c126.5-126.5,326.5-326.5,423.4-423.4C757.9,256,777.9,247,800,247C844.2,247,880,282.8,880,327z"/>
</svg>
