<?xml version="1.0" encoding="utf-8"?>
<!-- Generator: Adobe Illustrator 21.0.1, SVG Export Plug-In . SVG Version: 6.00 Build 0)  -->
<svg version="1.1" id="icon-" xmlns="http://www.w3.org/2000/svg" xmlns:xlink="http://www.w3.org/1999/xlink" x="0px" y="0px"
	 viewBox="0 0 960 960" enable-background="new 0 0 960 960" xml:space="preserve">
<path id="clock_1_" d="M480,0C216,0,0,216,0,482c0,262,216,478,480,478c264,0,480-216,480-478C960,216,744,0,480,0z M720,520
	c0,22.1-17.9,40-40,40H440h0c-22.1,0-40-17.9-40-40v0V200c0-22.1,17.9-40,40-40h0c22.1,0,40,17.9,40,40v280h200
	C702.1,480,720,497.9,720,520L720,520z"/>
</svg>
