<?xml version="1.0" encoding="utf-8"?>
<!-- Generator: Adobe Illustrator 21.0.1, SVG Export Plug-In . SVG Version: 6.00 Build 0)  -->
<svg version="1.1" id="icon-" xmlns="http://www.w3.org/2000/svg" xmlns:xlink="http://www.w3.org/1999/xlink" x="0px" y="0px"
	 viewBox="0 0 640 960" enable-background="new 0 0 640 960" xml:space="preserve">
<path id="close-short_1_" d="M616.6,663.4c31.2,31.2,31.2,81.9,0,113.1C600.9,792.2,580.5,800,560,800s-40.9-7.8-56.6-23.4
	L320,593.1L136.6,776.6C120.9,792.2,100.5,800,80,800s-40.9-7.8-56.6-23.4c-31.2-31.2-31.2-81.9,0-113.1L206.9,480L23.4,296.6
	c-31.2-31.2-31.2-81.9,0-113.1s81.9-31.2,113.1,0L320,366.9l183.4-183.4c31.2-31.2,81.9-31.2,113.1,0s31.2,81.9,0,113.1L433.1,480
	L616.6,663.4z"/>
</svg>
