<?xml version="1.0" encoding="utf-8"?>
<!-- Generator: Adobe Illustrator 20.0.0, SVG Export Plug-In . SVG Version: 6.00 Build 0)  -->
<svg version="1.1" id="icon-" xmlns="http://www.w3.org/2000/svg" xmlns:xlink="http://www.w3.org/1999/xlink" x="0px" y="0px"
	 viewBox="0 0 880 960" enable-background="new 0 0 880 960" xml:space="preserve">
<path id="close-long_1_" d="M856.6,823.4c31.2,31.2,31.2,81.9,0,113.1C840.9,952.2,820.5,960,800,960s-40.9-7.8-56.6-23.4L440,633.1
	L136.6,936.6C120.9,952.2,100.5,960,80,960s-40.9-7.8-56.6-23.4c-31.2-31.2-31.2-81.9,0-113.1L326.9,520L23.4,216.6
	c-31.2-31.2-31.2-81.9,0-113.1s81.9-31.2,113.1,0L440,406.9l303.4-303.4c31.2-31.2,81.9-31.2,113.1,0s31.2,81.9,0,113.1L553.1,520
	L856.6,823.4z"/>
</svg>
