<?xml version="1.0" encoding="utf-8"?>
<!-- Generator: Adobe Illustrator 20.0.0, SVG Export Plug-In . SVG Version: 6.00 Build 0)  -->
<svg version="1.1" id="icon-" xmlns="http://www.w3.org/2000/svg" xmlns:xlink="http://www.w3.org/1999/xlink" x="0px" y="0px"
	 viewBox="0 0 1120 960" enable-background="new 0 0 1120 960" xml:space="preserve">
<path id="cloud" d="M1120,640c0,132.5-107.5,240-240,240c-276.9,0-276.9,0-600,0C125.4,880,0,754.6,0,600
	c0-114.5,68.8-213,167.3-256.4c-4.8-20.4-7.3-41.7-7.3-63.6C160,125.4,285.4,0,440,0c112.3,0,209.1,66.1,253.7,161.4
	c8.6-0.9,17.4-1.4,26.3-1.4c132.5,0,240,107.5,240,240c0,4.5-0.1,9.1-0.4,13.5C1053,446.4,1120,535.4,1120,640z"/>
</svg>
