<?xml version="1.0" encoding="utf-8"?>
<!-- Generator: Adobe Illustrator 20.0.0, SVG Export Plug-In . SVG Version: 6.00 Build 0)  -->
<svg version="1.1" id="icon-" xmlns="http://www.w3.org/2000/svg" xmlns:xlink="http://www.w3.org/1999/xlink" x="0px" y="0px"
	 viewBox="0 0 1200 960" enable-background="new 0 0 1200 960" xml:space="preserve">
<path id="code-file" d="M193.1,480c89.2,89.2,169.7,169.7,263.4,263.4C471,757.9,480,777.9,480,800c0,44.2-35.8,80-80,80
	c-22.1,0-42.1-9-56.6-23.4c-113.1-113.1-206.9-206.9-320-320C9,522.1,0,502.1,0,480s9-42.1,23.4-56.6
	c113.1-113.1,206.9-206.9,320-320C357.9,89,377.9,80,400,80c44.2,0,80,35.8,80,80c0,22.1-9,42.1-23.4,56.6
	C362.8,310.3,282.3,390.8,193.1,480z M1176.6,423.4c-113.1-113.1-206.9-206.9-320-320C842.1,89,822.1,80,800,80
	c-44.2,0-80,35.8-80,80c0,22.1,9,42.1,23.4,56.6c93.8,93.8,174.2,174.2,263.4,263.4c-89.2,89.2-169.7,169.7-263.4,263.4
	C729,757.9,720,777.9,720,800c0,44.2,35.8,80,80,80c22.1,0,42.1-9,56.6-23.4c113.1-113.1,206.9-206.9,320-320
	c14.5-14.5,23.4-34.5,23.4-56.6S1191,437.9,1176.6,423.4z"/>
</svg>
