<?xml version="1.0" encoding="utf-8"?>
<!-- Generator: Adobe Illustrator 21.0.1, SVG Export Plug-In . SVG Version: 6.00 Build 0)  -->
<svg version="1.1" id="icon-" xmlns="http://www.w3.org/2000/svg" xmlns:xlink="http://www.w3.org/1999/xlink" x="0px" y="0px"
	 viewBox="0 0 1280 960" enable-background="new 0 0 1280 960" xml:space="preserve">
<path id="ellipsis" d="M320,480c0,88.4-71.6,160-160,160S0,568.4,0,480s71.6-160,160-160S320,391.6,320,480z M640,320
	c-88.4,0-160,71.6-160,160s71.6,160,160,160s160-71.6,160-160S728.4,320,640,320z M1120,320c-88.4,0-160,71.6-160,160
	s71.6,160,160,160s160-71.6,160-160S1208.4,320,1120,320z"/>
</svg>
