<?xml version="1.0" encoding="utf-8"?>
<!-- Generator: Adobe Illustrator 21.0.1, SVG Export Plug-In . SVG Version: 6.00 Build 0)  -->
<svg version="1.1" id="icon-" xmlns="http://www.w3.org/2000/svg" xmlns:xlink="http://www.w3.org/1999/xlink" x="0px" y="0px"
	 viewBox="0 0 1040 960" enable-background="new 0 0 1040 960" xml:space="preserve">
<path id="external" d="M880-80c-320,0-400,0-720,0C71.6-80,0-8.4,0,80c0,320,0,400,0,720c0,88.4,71.6,160,160,160c320,0,400,0,720,0
	c88.4,0,160-71.6,160-160c0-320,0-400,0-720C1040-8.4,968.4-80,880-80z M800,640c0,44.2-35.8,80-80,80s-80-35.8-80-80
	c0-83,0-144.5,0-206.9c-91.3,91.3-190.1,190.1-263.4,263.4C362.1,711,342.1,720,320,720c-44.2,0-80-35.8-80-80
	c0-22.1,9-42.1,23.4-56.6c73.4-73.4,172.2-172.2,263.4-263.4c-62.3,0-123.8,0-206.9,0c-44.2,0-80-35.8-80-80s35.8-80,80-80
	c160,0,240,0,400,0c44.2,0,80,35.8,80,80C800,400,800,480,800,640z"/>
</svg>
