<?xml version="1.0" encoding="utf-8"?>
<!-- Generator: Adobe Illustrator 19.2.1, SVG Export Plug-In . SVG Version: 6.00 Build 0)  -->
<svg version="1.1" xmlns="http://www.w3.org/2000/svg" xmlns:xlink="http://www.w3.org/1999/xlink" x="0px" y="0px"
	 viewBox="0 0 1280 960" enable-background="new 0 0 1280 960" xml:space="preserve">
<g id="row-5">
</g>
<g id="row-4">
	<path id="eye-off" d="M640,720c-132.5,0-240-107.5-240-240c0-24.3,3.6-47.8,10.3-69.9c108.4,92.9,225.7,193.5,333.8,286.1
		C712.7,711.5,677.3,720,640,720z M1280,880c0,44.2-35.8,80-80,80c-19.7,0-37.7-7.1-51.7-18.9l-1040-880C91,46.4,80,24.5,80,0
		c0-44.2,35.8-80,80-80c19.7,0,37.7,7.1,51.7,18.9l0,0l127.7,108C412.5,22.8,516,0,645.3,0c235.2,0,377,75.5,412.5,96.9
		C1190.2,171,1280,314.8,1280,480c0,106.2-37.1,203.6-98.8,279.3c38.7,32.7,66.3,56.1,70.5,59.7l0,0C1269,833.6,1280,855.5,1280,880
		z M1120,480c0-110.2-67.3-206-166.6-255.4C926.7,210.3,820.4,160,644,160c-59.1,0-110.9,5.6-154.9,13.7l88.2,74.6
		c20-5.4,41-8.3,62.7-8.3c132.5,0,240,107.5,240,240c0,7.9-0.4,15.7-1.1,23.5c26.4,22.3,101.6,86,177.7,150.4
		C1096.4,605.3,1120,545.2,1120,480z M644,800c-146.5,0-248.7-34.7-295.4-54.7C237.4,699.8,160,598.1,160,480
		c0-79.9,35.5-152.3,92.9-204.9L128.2,168.2C49.1,247.4,0,357.9,0,480c0,177.2,103.2,329.6,251.5,398c62.2,29.9,198.5,82,393.8,82
		c152.8,0,266.1-31.8,336.5-60L838.7,777.3C788.6,789.8,723.4,800,644,800z"/>
</g>
<g id="row-3">
	<g id="alert">
	</g>
	<g id="expand">
	</g>
	<g id="collapse">
	</g>
	<g id="colections">
	</g>
	<g id="briefcase">
	</g>
	<g id="flag">
	</g>
	<g id="flag-small">
	</g>
	<g id="signpost">
	</g>
	<g id="info-card">
	</g>
	<g id="journal">
	</g>
	<g id="network">
	</g>
	<g id="trash">
	</g>
	<g id="card">
	</g>
	<g id="browser">
	</g>
	<g id="arrows">
	</g>
	<g id="arrow-left-rod">
	</g>
</g>
<g id="row-2">
	<g id="arrow-right-rod">
	</g>
	<g id="arrow-up-short">
	</g>
	<g id="arrow-down-short">
	</g>
	<g id="heart-full">
	</g>
	<g id="balloon-comments-inline">
	</g>
	<g id="balloon-comments">
	</g>
	<g id="check">
	</g>
	<g id="balloon-topic">
	</g>
	<g id="persons">
	</g>
	<g id="groups">
	</g>
	<g id="building-big">
	</g>
	<g id="person-card-2">
	</g>
	<g id="person-card-3">
	</g>
	<g id="plus">
	</g>
	<g id="arrow-right-long">
	</g>
	<g id="arrow-left-long">
	</g>
</g>
<g id="row-1">
	<g id="heart-inline">
	</g>
	<g id="close-short">
	</g>
	<g id="hash">
	</g>
	<g id="people">
	</g>
	<g id="building-small">
	</g>
	<g id="person">
	</g>
	<g id="close-long">
	</g>
	<g id="post">
	</g>
	<g id="star">
	</g>
	<g id="heart">
	</g>
	<g id="link">
	</g>
	<g id="camera">
	</g>
	<g id="balloon-text">
	</g>
	<g id="pin">
	</g>
	<g id="clock">
	</g>
</g>
<g id="guides">
</g>
</svg>
