<?xml version="1.0" encoding="utf-8"?>
<!-- Generator: Adobe Illustrator 21.0.1, SVG Export Plug-In . SVG Version: 6.00 Build 0)  -->
<svg version="1.1" id="icon-" xmlns="http://www.w3.org/2000/svg" xmlns:xlink="http://www.w3.org/1999/xlink" x="0px" y="0px"
	 viewBox="0 0 960 960" enable-background="new 0 0 960 960" xml:space="preserve">
<path id="forbidden" d="M480,0C214.9,0,0,214.9,0,480s214.9,480,480,480s480-214.9,480-480S745.1,0,480,0z M480,160
	c59.3,0,114.9,16.2,162.5,44.3C528.9,317.9,317.9,528.9,204.3,642.5C176.2,594.9,160,539.3,160,480C160,303.3,303.3,160,480,160z
	 M480,800c-59.3,0-114.9-16.2-162.5-44.3c113.6-113.6,324.6-324.6,438.2-438.2C783.8,365.1,800,420.7,800,480
	C800,656.7,656.7,800,480,800z"/>
</svg>
