<?xml version="1.0" encoding="utf-8"?>
<!-- Generator: Adobe Illustrator 20.0.0, SVG Export Plug-In . SVG Version: 6.00 Build 0)  -->
<svg version="1.1" id="icon-" xmlns="http://www.w3.org/2000/svg" xmlns:xlink="http://www.w3.org/1999/xlink" x="0px" y="0px"
	 viewBox="0 0 800 960" enable-background="new 0 0 800 960" xml:space="preserve">
<path id="fork" d="M800,240c0-88.4-71.6-160-160-160c-88.4,0-160,71.6-160,160c0,59.2,32.2,110.9,80,138.6V400
	c0,88.2-71.8,160-160,160c-43.2,0-85.1,8.5-124.6,25.2c-12.2,5.2-24,11.1-35.4,17.6V298.6c47.8-27.7,80-79.4,80-138.6
	C320,71.6,248.4,0,160,0C71.6,0,0,71.6,0,160c0,59.2,32.2,110.9,80,138.6v522.8C32.2,849.1,0,900.8,0,960c0,88.4,71.6,160,160,160
	c88.4,0,160-71.6,160-160c0-55.4-28.2-104.2-71-133c21.9-62.3,81.3-107,151-107c43.2,0,85.1-8.5,124.6-25.2
	c38.1-16.1,72.3-39.2,101.7-68.5c29.4-29.4,52.4-63.6,68.5-101.7C711.5,485.1,720,443.2,720,400v-21.4
	C767.8,350.9,800,299.2,800,240z M160,80c44.2,0,80,35.8,80,80c0,44.2-35.8,80-80,80c-44.2,0-80-35.8-80-80
	C80,115.8,115.8,80,160,80z M160,1040c-44.2,0-80-35.8-80-80s35.8-80,80-80c44.2,0,80,35.8,80,80S204.2,1040,160,1040z M640,320
	c-44.2,0-80-35.8-80-80s35.8-80,80-80c44.2,0,80,35.8,80,80S684.2,320,640,320z"/>
</svg>
