<?xml version="1.0" encoding="utf-8"?>
<!-- Generator: Adobe Illustrator 18.1.1, SVG Export Plug-In . SVG Version: 6.00 Build 0)  -->
<svg version="1.1" xmlns="http://www.w3.org/2000/svg" xmlns:xlink="http://www.w3.org/1999/xlink" x="0px" y="0px"
	 viewBox="0 0 1120 960" enable-background="new 0 0 1120 960" xml:space="preserve">
<g id="row-4">
	<g id="menu">
	</g>
	<g id="gear">
		<path d="M960,399h-90.4c-7.7-29.3-19.4-57-34.5-82.4l63.6-63.6c31.2-31.2,31.2-81.9,0-113.1c-31.2-31.2-81.9-31.2-113.1,0
			l-63.9,63.9c-25.5-15-53.3-26.5-82.7-34V80c0-44.2-35.8-80-80-80s-80,35.8-80,80v90.4c-29.3,7.7-57,19.4-82.4,34.5L333,141.3
			c-31.2-31.2-81.9-31.2-113.1,0c-31.2,31.2-31.2,81.9,0,113.1l63.9,63.9c-15,25.5-26.5,53.3-34,82.7H160c-44.2,0-80,35.8-80,80
			s35.8,80,80,80h90.4c7.7,29.3,19.4,57,34.5,82.4L221.3,707c-31.2,31.2-31.2,81.9,0,113.1c15.6,15.6,36.1,23.4,56.6,23.4
			c20.5,0,40.9-7.8,56.6-23.4l63.9-63.9c25.5,15,53.3,26.5,82.7,34V880c0,44.2,35.8,80,80,80s80-35.8,80-80v-90.4
			c29.3-7.7,57-19.4,82.4-34.5l63.6,63.6c15.6,15.6,36.1,23.4,56.6,23.4c20.5,0,40.9-7.8,56.6-23.4c31.2-31.2,31.2-81.9,0-113.1
			l-63.9-63.9c15-25.5,26.5-53.3,34-82.7H960c44.2,0,80-35.8,80-80S1004.2,399,960,399z M560,640c-42.7,0-82.9-16.6-113.1-46.9
			C416.6,562.9,400,522.7,400,480s16.6-82.9,46.9-113.1C477.1,336.6,517.3,320,560,320s82.9,16.6,113.1,46.9
			C703.4,397.1,720,437.3,720,480s-16.6,82.9-46.9,113.1C642.9,623.4,602.7,640,560,640z"/>
	</g>
	<g id="external">
	</g>
	<g id="graph">
	</g>
	<g id="alert">
	</g>
	<g id="expand">
	</g>
	<g id="collapse">
	</g>
	<g id="colections">
	</g>
	<g id="briefcase">
	</g>
</g>
<g id="row-3">
	<g id="flag">
	</g>
	<g id="flag-small">
	</g>
	<g id="signpost">
	</g>
	<g id="info-card">
	</g>
	<g id="journal">
	</g>
	<g id="network">
	</g>
	<g id="trash">
	</g>
	<g id="card">
	</g>
	<g id="browser">
	</g>
	<g id="arrows">
	</g>
	<g id="arrow-left-rod">
	</g>
	<g id="arrow-right-rod">
	</g>
	<g id="arrow-up-short">
	</g>
	<g id="arrow-down-short">
	</g>
</g>
<g id="row-2">
	<g id="heart-full">
	</g>
	<g id="balloon-comments-inline">
	</g>
	<g id="balloon-comments">
	</g>
	<g id="check">
	</g>
	<g id="balloon-topic">
	</g>
	<g id="persons">
	</g>
	<g id="groups">
	</g>
	<g id="building-big">
	</g>
	<g id="person-card-2">
	</g>
	<g id="person-card-3">
	</g>
	<g id="plus">
	</g>
	<g id="arrow-right-long">
	</g>
	<g id="arrow-left-long">
	</g>
	<g id="heart-inline">
	</g>
</g>
<g id="row-1">
	<g id="close-short">
	</g>
	<g id="hash">
	</g>
	<g id="people">
	</g>
	<g id="building-small">
	</g>
	<g id="person">
	</g>
	<g id="close-long">
	</g>
	<g id="post">
	</g>
	<g id="star">
	</g>
	<g id="heart">
	</g>
	<g id="link">
	</g>
	<g id="camera">
	</g>
	<g id="balloon-text">
	</g>
	<g id="pin">
	</g>
	<g id="clock">
	</g>
</g>
<g id="guides">
</g>
</svg>
