<?xml version="1.0" encoding="utf-8"?>
<!-- Generator: Adobe Illustrator 19.2.1, SVG Export Plug-In . SVG Version: 6.00 Build 0)  -->
<svg version="1.1" xmlns="http://www.w3.org/2000/svg" xmlns:xlink="http://www.w3.org/1999/xlink" x="0px" y="0px"
	 viewBox="0 0 960 960" enable-background="new 0 0 960 960" xml:space="preserve">
<g id="row-5">
	<path id="github" fill-rule="evenodd" clip-rule="evenodd" fill="#181616" d="M480,0C214.9,0,0,214.9,0,480
		c0,212.1,137.5,392,328.3,455.4c24,4.4,32.8-10.4,32.8-23.1c0-11.4-0.4-41.6-0.6-81.6c-133.5,29-161.7-64.3-161.7-64.3
		c-21.8-55.5-53.3-70.2-53.3-70.2c-43.6-29.8,3.3-29.2,3.3-29.2c48.2,3.4,73.5,49.5,73.5,49.5c42.8,73.4,112.3,52.2,139.7,39.9
		c4.4-31,16.8-52.2,30.5-64.2C285.8,680,173.8,638.8,173.8,454.9c0-52.4,18.7-95.2,49.4-128.8c-4.9-12.1-21.4-60.9,4.7-127
		c0,0,40.3-12.9,132,49.2c38.3-10.6,79.3-16,120.2-16.2c40.8,0.2,81.8,5.5,120.2,16.2c91.6-62.1,131.9-49.2,131.9-49.2
		c26.2,66.1,9.7,114.9,4.8,127c30.8,33.6,49.3,76.4,49.3,128.8c0,184.4-112.2,225-219.2,236.9c17.2,14.8,32.6,44.1,32.6,88.9
		c0,64.2-0.6,115.9-0.6,131.7c0,12.8,8.6,27.8,33,23.1C822.6,871.8,960,692,960,480C960,214.9,745.1,0,480,0z"/>
</g>
<g id="row-4">
</g>
<g id="row-3">
	<g id="alert">
	</g>
	<g id="expand">
	</g>
	<g id="collapse">
	</g>
	<g id="colections">
	</g>
	<g id="briefcase">
	</g>
	<g id="flag">
	</g>
	<g id="flag-small">
	</g>
	<g id="signpost">
	</g>
	<g id="info-card">
	</g>
	<g id="journal">
	</g>
	<g id="network">
	</g>
	<g id="trash">
	</g>
	<g id="card">
	</g>
	<g id="browser">
	</g>
	<g id="arrows">
	</g>
	<g id="arrow-left-rod">
	</g>
</g>
<g id="row-2">
	<g id="arrow-right-rod">
	</g>
	<g id="arrow-up-short">
	</g>
	<g id="arrow-down-short">
	</g>
	<g id="heart-full">
	</g>
	<g id="balloon-comments-inline">
	</g>
	<g id="balloon-comments">
	</g>
	<g id="check">
	</g>
	<g id="balloon-topic">
	</g>
	<g id="persons">
	</g>
	<g id="groups">
	</g>
	<g id="building-big">
	</g>
	<g id="person-card-2">
	</g>
	<g id="person-card-3">
	</g>
	<g id="plus">
	</g>
	<g id="arrow-right-long">
	</g>
	<g id="arrow-left-long">
	</g>
</g>
<g id="row-1">
	<g id="heart-inline">
	</g>
	<g id="close-short">
	</g>
	<g id="hash">
	</g>
	<g id="people">
	</g>
	<g id="building-small">
	</g>
	<g id="person">
	</g>
	<g id="close-long">
	</g>
	<g id="post">
	</g>
	<g id="star">
	</g>
	<g id="heart">
	</g>
	<g id="link">
	</g>
	<g id="camera">
	</g>
	<g id="balloon-text">
	</g>
	<g id="pin">
	</g>
	<g id="clock">
	</g>
</g>
<g id="guides">
</g>
</svg>
