<?xml version="1.0" encoding="utf-8"?>
<!-- Generator: Adobe Illustrator 20.0.0, SVG Export Plug-In . SVG Version: 6.00 Build 0)  -->
<svg version="1.1" id="icon-" xmlns="http://www.w3.org/2000/svg" xmlns:xlink="http://www.w3.org/1999/xlink" x="0px" y="0px"
	 viewBox="0 0 960 960" enable-background="new 0 0 960 960" xml:space="preserve">
<path id="groups_1_" d="M400,200c0,110.5-89.5,200-200,200C89.5,400,0,310.5,0,200S89.5,0,200,0C310.5,0,400,89.5,400,200z M760,400
	c110.5,0,200-89.5,200-200S870.5,0,760,0C649.5,0,560,89.5,560,200S649.5,400,760,400z M200,560C89.5,560,0,649.5,0,760
	s89.5,200,200,200c110.5,0,200-89.5,200-200S310.5,560,200,560z M760,560c-110.5,0-200,89.5-200,200s89.5,200,200,200
	c110.5,0,200-89.5,200-200S870.5,560,760,560z"/>
</svg>
