<?xml version="1.0" encoding="utf-8"?>
<!-- Generator: Adobe Illustrator 18.1.1, SVG Export Plug-In . SVG Version: 6.00 Build 0)  -->
<svg version="1.1" xmlns="http://www.w3.org/2000/svg" xmlns:xlink="http://www.w3.org/1999/xlink" x="0px" y="0px"
	 viewBox="0 0 880 960" enable-background="new 0 0 880 960" xml:space="preserve">
<g id="row-4">
	<g id="upload">
	</g>
	<g id="menu">
	</g>
	<g id="gear">
	</g>
	<g id="external">
	</g>
	<g id="graph">
	</g>
</g>
<g id="row-3">
	<g id="alert">
	</g>
	<g id="expand">
	</g>
	<g id="collapse">
	</g>
	<g id="colections">
	</g>
	<g id="briefcase">
	</g>
	<g id="flag">
	</g>
	<g id="flag-small">
	</g>
	<g id="signpost">
	</g>
	<g id="info-card">
	</g>
	<g id="journal">
	</g>
	<g id="network">
	</g>
	<g id="trash">
	</g>
	<g id="card">
	</g>
	<g id="browser">
	</g>
	<g id="arrows">
	</g>
	<g id="arrow-left-rod">
	</g>
</g>
<g id="row-2">
	<g id="arrow-right-rod">
	</g>
	<g id="arrow-up-short">
	</g>
	<g id="arrow-down-short">
	</g>
	<g id="heart-full">
	</g>
	<g id="balloon-comments-inline">
	</g>
	<g id="balloon-comments">
	</g>
	<g id="check">
	</g>
	<g id="balloon-topic">
	</g>
	<g id="persons">
	</g>
	<g id="groups">
		<path d="M240,120c0,66.3-53.7,120-120,120S0,186.3,0,120S53.7,0,120,0S240,53.7,240,120z M440,0c-66.3,0-120,53.7-120,120
			s53.7,120,120,120s120-53.7,120-120S506.3,0,440,0z M760,240c66.3,0,120-53.7,120-120S826.3,0,760,0S640,53.7,640,120
			S693.7,240,760,240z M120,320C53.7,320,0,373.7,0,440s53.7,120,120,120s120-53.7,120-120S186.3,320,120,320z M440,320
			c-66.3,0-120,53.7-120,120s53.7,120,120,120s120-53.7,120-120S506.3,320,440,320z M760,320c-66.3,0-120,53.7-120,120
			s53.7,120,120,120s120-53.7,120-120S826.3,320,760,320z M120,640C53.7,640,0,693.7,0,760s53.7,120,120,120s120-53.7,120-120
			S186.3,640,120,640z M440,640c-66.3,0-120,53.7-120,120s53.7,120,120,120s120-53.7,120-120S506.3,640,440,640z M760,640
			c-66.3,0-120,53.7-120,120s53.7,120,120,120s120-53.7,120-120S826.3,640,760,640z"/>
	</g>
	<g id="building-big">
	</g>
	<g id="person-card-2">
	</g>
	<g id="person-card-3">
	</g>
	<g id="plus">
	</g>
	<g id="arrow-right-long">
	</g>
	<g id="arrow-left-long">
	</g>
</g>
<g id="row-1">
	<g id="heart-inline">
	</g>
	<g id="close-short">
	</g>
	<g id="hash">
	</g>
	<g id="people">
	</g>
	<g id="building-small">
	</g>
	<g id="person">
	</g>
	<g id="close-long">
	</g>
	<g id="post">
	</g>
	<g id="star">
	</g>
	<g id="heart">
	</g>
	<g id="link">
	</g>
	<g id="camera">
	</g>
	<g id="balloon-text">
	</g>
	<g id="pin">
	</g>
	<g id="clock">
	</g>
</g>
<g id="guides">
</g>
</svg>
