<?xml version="1.0" encoding="utf-8"?>
<!-- Generator: Adobe Illustrator 18.1.1, SVG Export Plug-In . SVG Version: 6.00 Build 0)  -->
<svg version="1.1" xmlns="http://www.w3.org/2000/svg" xmlns:xlink="http://www.w3.org/1999/xlink" x="0px" y="0px"
	 viewBox="0 0 1040 960" enable-background="new 0 0 1040 960" xml:space="preserve">
<g id="row-4">
	<g id="menu">
	</g>
	<g id="gear">
	</g>
	<g id="external">
	</g>
	<g id="graph">
	</g>
	<g id="alert">
	</g>
	<g id="expand">
	</g>
	<g id="collapse">
	</g>
	<g id="colections">
	</g>
	<g id="briefcase">
	</g>
</g>
<g id="row-3">
	<g id="flag">
	</g>
	<g id="flag-small">
	</g>
	<g id="signpost">
	</g>
	<g id="info-card">
	</g>
	<g id="journal">
	</g>
	<g id="network">
	</g>
	<g id="trash">
	</g>
	<g id="card">
	</g>
	<g id="browser">
	</g>
	<g id="arrows">
	</g>
	<g id="arrow-left-rod">
	</g>
	<g id="arrow-right-rod">
	</g>
	<g id="arrow-up-short">
	</g>
	<g id="arrow-down-short">
	</g>
</g>
<g id="row-2">
	<g id="heart-full">
	</g>
	<g id="balloon-comments-inline">
	</g>
	<g id="balloon-comments">
	</g>
	<g id="check">
	</g>
	<g id="balloon-topic">
	</g>
	<g id="persons">
	</g>
	<g id="groups">
		<path d="M320,120c0,66.3-53.7,120-120,120S80,186.3,80,120S133.7,0,200,0S320,53.7,320,120z M520,0c-66.3,0-120,53.7-120,120
			s53.7,120,120,120s120-53.7,120-120S586.3,0,520,0z M840,240c66.3,0,120-53.7,120-120S906.3,0,840,0S720,53.7,720,120
			S773.7,240,840,240z M200,320c-66.3,0-120,53.7-120,120s53.7,120,120,120s120-53.7,120-120S266.3,320,200,320z M520,320
			c-66.3,0-120,53.7-120,120s53.7,120,120,120s120-53.7,120-120S586.3,320,520,320z M840,320c-66.3,0-120,53.7-120,120
			s53.7,120,120,120s120-53.7,120-120S906.3,320,840,320z M200,640c-66.3,0-120,53.7-120,120s53.7,120,120,120s120-53.7,120-120
			S266.3,640,200,640z M520,640c-66.3,0-120,53.7-120,120s53.7,120,120,120s120-53.7,120-120S586.3,640,520,640z M840,640
			c-66.3,0-120,53.7-120,120s53.7,120,120,120s120-53.7,120-120S906.3,640,840,640z"/>
	</g>
	<g id="building-big">
	</g>
	<g id="person-card-2">
	</g>
	<g id="person-card-3">
	</g>
	<g id="plus">
	</g>
	<g id="arrow-right-long">
	</g>
	<g id="arrow-left-long">
	</g>
	<g id="heart-inline">
	</g>
</g>
<g id="row-1">
	<g id="close-short">
	</g>
	<g id="hash">
	</g>
	<g id="people">
	</g>
	<g id="building-small">
	</g>
	<g id="person">
	</g>
	<g id="close-long">
	</g>
	<g id="post">
	</g>
	<g id="star">
	</g>
	<g id="heart">
	</g>
	<g id="link">
	</g>
	<g id="camera">
	</g>
	<g id="balloon-text">
	</g>
	<g id="pin">
	</g>
	<g id="clock">
	</g>
</g>
<g id="guides">
</g>
</svg>
