<?xml version="1.0" encoding="utf-8"?>
<!-- Generator: Adobe Illustrator 20.0.0, SVG Export Plug-In . SVG Version: 6.00 Build 0)  -->
<svg version="1.1" id="icon-" xmlns="http://www.w3.org/2000/svg" xmlns:xlink="http://www.w3.org/1999/xlink" x="0px" y="0px"
	 viewBox="0 0 1120 960" enable-background="new 0 0 1120 960" xml:space="preserve">
<path id="hash_2_" fill-rule="evenodd" clip-rule="evenodd" d="M920-80c-360,0-360,0-720,0C89.5-80,0,9.5,0,120c0,360,0,360,0,720
	c0,110.5,89.5,200,200,200c360,0,360,0,720,0c110.5,0,200-89.5,200-200c0-360,0-360,0-720C1120,9.5,1030.5-80,920-80z M1040,840
	c0,66.3-53.7,120-120,120H200c-66.3,0-120-53.7-120-120c0-240,0-480,0-720C80,53.7,133.7,0,200,0c240,0,480,0,720,0
	c66.3,0,120,53.7,120,120C1040,360,1040,600,1040,840z M880,400c44.2,0,80-35.8,80-80s-35.8-80-80-80c-23.5,0-50.5,0-80,0
	c0-29.5,0-56.5,0-80c0-44.2-35.8-80-80-80s-80,35.8-80,80c0,23.5,0,50.5,0,80c-52.7,0-107.3,0-160,0c0-29.5,0-56.5,0-80
	c0-44.2-35.8-80-80-80s-80,35.8-80,80c0,23.5,0,50.5,0,80c-29.5,0-56.5,0-80,0c-44.2,0-80,35.8-80,80s35.8,80,80,80
	c23.5,0,50.5,0,80,0c0,52.7,0,107.3,0,160c-29.5,0-56.5,0-80,0c-44.2,0-80,35.8-80,80s35.8,80,80,80c23.5,0,50.5,0,80,0
	c0,29.5,0,56.5,0,80c0,44.2,35.8,80,80,80s80-35.8,80-80c0-23.5,0-50.5,0-80c52.7,0,107.3,0,160,0c0,29.5,0,56.5,0,80
	c0,44.2,35.8,80,80,80s80-35.8,80-80c0-23.5,0-50.5,0-80c29.5,0,56.5,0,80,0c44.2,0,80-35.8,80-80s-35.8-80-80-80
	c-23.5,0-50.5,0-80,0c0-52.7,0-107.3,0-160C829.5,400,856.5,400,880,400z M640,560c-52.7,0-107.3,0-160,0c0-52.7,0-107.3,0-160
	c52.7,0,107.3,0,160,0C640,452.7,640,507.3,640,560z"/>
</svg>
