<?xml version="1.0" encoding="utf-8"?>
<!-- Generator: Adobe Illustrator 19.2.1, SVG Export Plug-In . SVG Version: 6.00 Build 0)  -->
<svg version="1.1" xmlns="http://www.w3.org/2000/svg" xmlns:xlink="http://www.w3.org/1999/xlink" x="0px" y="0px"
	 viewBox="0 0 1040 960" enable-background="new 0 0 1040 960" xml:space="preserve">
<g id="row-5">
</g>
<g id="row-4">
</g>
<g id="row-3">
	<g id="alert">
	</g>
	<g id="expand">
	</g>
	<g id="collapse">
	</g>
	<g id="colections">
	</g>
	<g id="briefcase">
	</g>
	<g id="flag">
	</g>
	<g id="flag-small">
	</g>
	<g id="signpost">
	</g>
	<g id="info-card">
	</g>
	<g id="journal">
	</g>
	<g id="network">
	</g>
	<g id="trash">
	</g>
	<g id="card">
	</g>
	<g id="browser">
	</g>
	<g id="arrows">
	</g>
	<g id="arrow-left-rod">
	</g>
</g>
<g id="row-2">
	<g id="arrow-right-rod">
	</g>
	<g id="arrow-up-short">
	</g>
	<g id="arrow-down-short">
	</g>
	<g id="heart-full">
		<path d="M520,960c-60.5,0-117-26.9-155.1-73.8c-0.2-0.3-0.5-0.6-0.7-0.8L70.7,520.6c-0.3-0.4-0.6-0.7-0.9-1.1
			c-22-27.5-39.1-58.2-51-91.3C6.3,393.5,0,357.1,0,320c0-43.2,8.5-85.1,25.2-124.6c16.1-38.1,39.2-72.3,68.5-101.7
			c29.4-29.4,63.6-52.4,101.7-68.5C234.9,8.5,276.8,0,320,0c73.8,0,144,25.3,200,70.1C576,25.3,646.2,0,720,0
			c43.2,0,85.1,8.5,124.6,25.2c38.1,16.1,72.3,39.2,101.7,68.5c29.4,29.4,52.4,63.6,68.5,101.7c16.7,39.5,25.2,81.4,25.2,124.6
			c0,37.1-6.3,73.5-18.8,108.2c-11.9,33.1-29,63.8-51,91.3c-0.3,0.4-0.6,0.7-0.9,1.1L675.8,885.4c-0.2,0.3-0.5,0.6-0.7,0.8
			C637,933.1,580.5,960,520,960z"/>
	</g>
	<g id="balloon-comments-inline">
	</g>
	<g id="balloon-comments">
	</g>
	<g id="check">
	</g>
	<g id="balloon-topic">
	</g>
	<g id="persons">
	</g>
	<g id="groups">
	</g>
	<g id="building-big">
	</g>
	<g id="person-card-2">
	</g>
	<g id="person-card-3">
	</g>
	<g id="plus">
	</g>
	<g id="arrow-right-long">
	</g>
	<g id="arrow-left-long">
	</g>
</g>
<g id="row-1">
	<g id="heart-inline">
	</g>
	<g id="close-short">
	</g>
	<g id="hash">
	</g>
	<g id="people">
	</g>
	<g id="building-small">
	</g>
	<g id="person">
	</g>
	<g id="close-long">
	</g>
	<g id="post">
	</g>
	<g id="star">
	</g>
	<g id="heart">
	</g>
	<g id="link">
	</g>
	<g id="camera">
	</g>
	<g id="balloon-text">
	</g>
	<g id="pin">
	</g>
	<g id="clock">
	</g>
</g>
<g id="guides">
</g>
</svg>
