<?xml version="1.0" encoding="utf-8"?>
<!-- Generator: Adobe Illustrator 20.0.0, SVG Export Plug-In . SVG Version: 6.00 Build 0)  -->
<svg version="1.1" id="icon-" xmlns="http://www.w3.org/2000/svg" xmlns:xlink="http://www.w3.org/1999/xlink" x="0px" y="0px"
	 viewBox="0 0 1040 960" enable-background="new 0 0 1040 960" xml:space="preserve">
<path id="heart-inline_1_" fill="#ED1C24" d="M488.3,784.4c0.2,0.2,0.3,0.4,0.5,0.6c7.7,9.5,19,15,31.2,15s23.5-5.5,31.2-15
	c0.2-0.2,0.3-0.4,0.5-0.6l292.2-363.2c0.3-0.3,0.5-0.7,0.8-1C867.8,391.6,880,356.9,880,320c0-88.2-71.8-160-160-160
	c-53.7,0-103.6,26.8-133.4,71.6c-14.8,22.3-39.8,35.7-66.6,35.7s-51.8-13.4-66.6-35.7C423.6,186.8,373.7,160,320,160
	c-88.2,0-160,71.8-160,160c0,36.9,12.2,71.6,35.3,100.3c0.3,0.3,0.5,0.7,0.8,1L488.3,784.4z"/>
</svg>
