<?xml version="1.0" encoding="utf-8"?>
<!-- Generator: Adobe Illustrator 21.0.1, SVG Export Plug-In . SVG Version: 6.00 Build 0)  -->
<svg version="1.1" id="icon-" xmlns="http://www.w3.org/2000/svg" xmlns:xlink="http://www.w3.org/1999/xlink" x="0px" y="0px"
	 viewBox="0 0 1040 960" enable-background="new 0 0 1040 960" xml:space="preserve">
<path id="heart-full_1_" d="M979.4,454L979.4,454c38-48,60.6-108.2,60.6-174C1040,125.4,914.6,0,760,0C658.1,0,569,54.4,520,135.7
	C471,54.4,381.9,0,280,0C125.4,0,0,125.4,0,280c0,65.8,22.7,126,60.6,174h0C316,776,316.4,776.4,425.5,913.9
	c0.1,0.2,0.3,0.4,0.4,0.5c0,0,0.1,0.1,0.1,0.1l0,0c22,27.7,55.9,45.4,94,45.4s72-17.7,94-45.4l0,0c0,0,0.1-0.1,0.1-0.1
	c0.1-0.2,0.3-0.4,0.4-0.5C723.6,776.4,724,776,979.4,454z"/>
</svg>
