<?xml version="1.0" encoding="utf-8"?>
<!-- Generator: Adobe Illustrator 20.0.0, SVG Export Plug-In . SVG Version: 6.00 Build 0)  -->
<svg version="1.1" id="icon-" xmlns="http://www.w3.org/2000/svg" xmlns:xlink="http://www.w3.org/1999/xlink" x="0px" y="0px"
	 viewBox="0 0 880 960" enable-background="new 0 0 880 960" xml:space="preserve">
<path id="house" d="M831.4,263.5C672.1,144.1,671.8,143.8,512.3,24.2C492.2,9,467.2,0,440,0s-52.2,9-72.3,24.2
	C208.2,143.8,207.9,144.1,48.6,263.5C19.1,285.4,0,320.5,0,360c0,240,0,240,0,480c0,66.3,53.7,120,120,120c72.5,0,137.7,0,200,0V640
	h240v320c62.3,0,127.5,0,200,0c66.3,0,120-53.7,120-120c0-240,0-240,0-480C880,320.5,860.9,285.4,831.4,263.5z"/>
</svg>
