<?xml version="1.0" encoding="utf-8"?>
<!-- Generator: Adobe Illustrator 20.0.0, SVG Export Plug-In . SVG Version: 6.00 Build 0)  -->
<svg version="1.1" id="icon-" xmlns="http://www.w3.org/2000/svg" xmlns:xlink="http://www.w3.org/1999/xlink" x="0px" y="0px"
	 viewBox="0 0 1120 960" enable-background="new 0 0 1120 960" xml:space="preserve">
<path id="image" d="M960-2C640-2,480-2,160-2C71.6-2,0,69.6,0,158c0,320,0,320,0,640c0,88.4,71.6,160,160,160c320,0,480,0,800,0
	c88.4,0,160-71.6,160-160c0-320,0-320,0-640C1120,69.6,1048.4-2,960-2z M320,160c44.2,0,80,35.8,80,80s-35.8,80-80,80
	s-80-35.8-80-80S275.8,160,320,160z M160,800l240-320l81,80l159-240l320,478L160,800z"/>
</svg>
