<?xml version="1.0" encoding="utf-8"?>
<!-- Generator: Adobe Illustrator 19.2.1, SVG Export Plug-In . SVG Version: 6.00 Build 0)  -->
<svg version="1.1" xmlns="http://www.w3.org/2000/svg" xmlns:xlink="http://www.w3.org/1999/xlink" x="0px" y="0px"
	 viewBox="0 0 1120 960" enable-background="new 0 0 1120 960" xml:space="preserve">
<g id="row-5">
</g>
<g id="row-4">
</g>
<g id="row-3">
	<g id="alert">
	</g>
	<g id="expand">
	</g>
	<g id="collapse">
	</g>
	<g id="colections">
	</g>
	<g id="briefcase">
	</g>
	<g id="flag">
	</g>
	<g id="flag-small">
	</g>
	<g id="signpost">
	</g>
	<g id="info-card">
		<path d="M1040-80H80C35.8-80,0-44.2,0,0v800c0,44.2,35.8,80,80,80h960c44.2,0,80-35.8,80-80V0C1120-44.2,1084.2-80,1040-80z
			 M1040,800H80V0h960V800z M480,720H160V480h320V720z M160,240c0-88.4,71.6-160,160-160s160,71.6,160,160s-71.6,160-160,160
			S160,328.4,160,240z M960,240H560v-80h400V240z M960,400H560v-80h400V400z M960,560H560v-80h400V560z"/>
	</g>
	<g id="journal">
	</g>
	<g id="network">
	</g>
	<g id="trash">
	</g>
	<g id="card">
	</g>
	<g id="browser">
	</g>
	<g id="arrows">
	</g>
	<g id="arrow-left-rod">
	</g>
</g>
<g id="row-2">
	<g id="arrow-right-rod">
	</g>
	<g id="arrow-up-short">
	</g>
	<g id="arrow-down-short">
	</g>
	<g id="heart-full">
	</g>
	<g id="balloon-comments-inline">
	</g>
	<g id="balloon-comments">
	</g>
	<g id="check">
	</g>
	<g id="balloon-topic">
	</g>
	<g id="persons">
	</g>
	<g id="groups">
	</g>
	<g id="building-big">
	</g>
	<g id="person-card-2">
	</g>
	<g id="person-card-3">
	</g>
	<g id="plus">
	</g>
	<g id="arrow-right-long">
	</g>
	<g id="arrow-left-long">
	</g>
</g>
<g id="row-1">
	<g id="heart-inline">
	</g>
	<g id="close-short">
	</g>
	<g id="hash">
	</g>
	<g id="people">
	</g>
	<g id="building-small">
	</g>
	<g id="person">
	</g>
	<g id="close-long">
	</g>
	<g id="post">
	</g>
	<g id="star">
	</g>
	<g id="heart">
	</g>
	<g id="link">
	</g>
	<g id="camera">
	</g>
	<g id="balloon-text">
	</g>
	<g id="pin">
	</g>
	<g id="clock">
	</g>
</g>
<g id="guides">
</g>
</svg>
