<?xml version="1.0" encoding="utf-8"?>
<!-- Generator: Adobe Illustrator 20.0.0, SVG Export Plug-In . SVG Version: 6.00 Build 0)  -->
<svg version="1.1" id="icon-" xmlns="http://www.w3.org/2000/svg" xmlns:xlink="http://www.w3.org/1999/xlink" x="0px" y="0px"
	 viewBox="0 0 1120 960" enable-background="new 0 0 1120 960" xml:space="preserve">
<path id="info" d="M560-80C250.7-80,0,170.7,0,480s250.7,560,560,560s560-250.7,560-560S869.3-80,560-80z M640,720
	c0,44.2-35.8,80-80,80s-80-35.8-80-80c0-120,0-120,0-240c0-44.2,35.8-80,80-80s80,35.8,80,80C640,600,640,600,640,720z M560,320
	c-44.2,0-80-35.8-80-80s35.8-80,80-80s80,35.8,80,80S604.2,320,560,320z"/>
</svg>
