<?xml version="1.0" encoding="utf-8"?>
<!-- Generator: Adobe Illustrator 21.0.1, SVG Export Plug-In . SVG Version: 6.00 Build 0)  -->
<svg version="1.1" id="icon-" xmlns="http://www.w3.org/2000/svg" xmlns:xlink="http://www.w3.org/1999/xlink" x="0px" y="0px"
	 viewBox="0 0 1120 960" enable-background="new 0 0 1120 960" xml:space="preserve">
<path id="leave" d="M1096.6,536.6l-240,240C840.9,792.2,820.5,800,800,800s-40.9-7.8-56.6-23.4c-31.2-31.2-31.2-81.9,0-113.1
	L846.9,560H320c-44.2,0-80-35.8-80-80s35.8-80,80-80h526.9L743.4,296.6c-31.2-31.2-31.2-81.9,0-113.1c31.2-31.2,81.9-31.2,113.1,0
	l240,240C1127.8,454.7,1127.8,505.3,1096.6,536.6z M560,720c-44.2,0-80,35.8-80,80H160V160h320c0,44.2,35.8,80,80,80s80-35.8,80-80
	V60c0-33.1-26.9-60-60-60H80C35.8,0,0,35.8,0,80v800c0,44.2,35.8,80,80,80h500c33.1,0,60-26.9,60-60V800
	C640,755.8,604.2,720,560,720z"/>
</svg>
