<?xml version="1.0" encoding="utf-8"?>
<!-- Generator: Adobe Illustrator 19.2.1, SVG Export Plug-In . SVG Version: 6.00 Build 0)  -->
<svg version="1.1" xmlns="http://www.w3.org/2000/svg" xmlns:xlink="http://www.w3.org/1999/xlink" x="0px" y="0px"
	 viewBox="0 0 960 960" enable-background="new 0 0 960 960" xml:space="preserve">
<g id="row-5">
</g>
<g id="row-4">
</g>
<g id="row-3">
	<g id="alert">
	</g>
	<g id="expand">
	</g>
	<g id="collapse">
	</g>
	<g id="colections">
	</g>
	<g id="briefcase">
	</g>
	<g id="flag">
	</g>
	<g id="flag-small">
	</g>
	<g id="signpost">
	</g>
	<g id="info-card">
	</g>
	<g id="journal">
	</g>
	<g id="network">
	</g>
	<g id="trash">
	</g>
	<g id="card">
	</g>
	<g id="browser">
	</g>
	<g id="arrows">
	</g>
	<g id="arrow-left-rod">
	</g>
</g>
<g id="row-2">
	<g id="arrow-right-rod">
	</g>
	<g id="arrow-up-short">
	</g>
	<g id="arrow-down-short">
	</g>
	<g id="heart-full">
	</g>
	<g id="balloon-comments-inline">
	</g>
	<g id="balloon-comments">
	</g>
	<g id="check">
	</g>
	<g id="balloon-topic">
	</g>
	<g id="persons">
	</g>
	<g id="groups">
	</g>
	<g id="building-big">
	</g>
	<g id="person-card-2">
	</g>
	<g id="person-card-3">
	</g>
	<g id="plus">
	</g>
	<g id="arrow-right-long">
	</g>
	<g id="arrow-left-long">
	</g>
</g>
<g id="row-1">
	<g id="heart-inline">
	</g>
	<g id="close-short">
	</g>
	<g id="hash">
	</g>
	<g id="people">
	</g>
	<g id="building-small">
	</g>
	<g id="person">
	</g>
	<g id="close-long">
	</g>
	<g id="post">
	</g>
	<g id="star">
	</g>
	<g id="heart">
	</g>
	<g id="link">
		<path d="M960,280c0,77.3-31.3,147.3-82,198c-64.6,64.6-95.4,95.4-160,160c-50.7,50.7-120.7,82-198,82
			c-106.4,0-199-59.4-246.3-146.8l50.7-50.7l57.9-57.9c5,28,18.3,53.8,38.8,74.3c26.4,26.4,61.6,41,99,41s72.6-14.6,99-41l59.1-59.1
			L779,379c26.4-26.4,41-61.6,41-99c0-37.4-14.6-72.6-41-99c-26.4-26.4-61.6-41-99-41s-72.6,14.6-99,41l-20.9,20.9
			C521.8,187.4,481.4,180,440,180c-20.8,0-41.4,1.9-61.5,5.6C411.2,152.8,439.2,124.8,482,82C532.7,31.3,602.7,0,680,0
			C834.6,0,960,125.4,960,280z M399.9,758.1L379,779c-26.4,26.4-61.6,41-99,41s-72.6-14.6-99-41c-26.4-26.4-41-61.6-41-99
			s14.6-72.6,41-99l100.9-100.9L341,421c26.4-26.4,61.6-41,99-41s72.6,14.6,99,41c20.5,20.5,33.9,46.3,38.8,74.3l57.9-57.9
			l50.7-50.7C639,299.4,546.4,240,440,240c-77.3,0-147.3,31.3-198,82c-64.6,64.6-95.4,95.4-160,160C31.3,532.7,0,602.7,0,680
			c0,154.6,125.4,280,280,280c77.3,0,147.3-31.3,198-82c42.8-42.8,70.8-70.8,103.6-103.6c-20.2,3.7-40.7,5.6-61.5,5.6
			C478.6,780,438.2,772.6,399.9,758.1z"/>
	</g>
	<g id="camera">
	</g>
	<g id="balloon-text">
	</g>
	<g id="pin">
	</g>
	<g id="clock">
	</g>
</g>
<g id="guides">
</g>
</svg>
