<?xml version="1.0" encoding="utf-8"?>
<!-- Generator: Adobe Illustrator 20.0.0, SVG Export Plug-In . SVG Version: 6.00 Build 0)  -->
<svg version="1.1" id="icon-" xmlns="http://www.w3.org/2000/svg" xmlns:xlink="http://www.w3.org/1999/xlink" x="0px" y="0px"
	 viewBox="0 0 960 960" enable-background="new 0 0 960 960" xml:space="preserve">
<path id="lock" d="M800,320c0-21.9,0-47.7,0-80C800,63.3,656.7-80,480-80S160,63.3,160,240c0,32.3,0,58.1,0,80
	C71.6,320,0,391.6,0,480c0,160,0,160,0,320c0,88.4,71.6,160,160,160c280,0,360,0,640,0c88.4,0,160-71.6,160-160c0-160,0-160,0-320
	C960,391.6,888.4,320,800,320z M560,640c0,44.2-35.8,80-80,80s-80-35.8-80-80c0-40,0-40,0-80c0-44.2,35.8-80,80-80s80,35.8,80,80
	C560,600,560,600,560,640z M640,320c-118.4,0-201.6,0-320,0c0-21.9,0-47.7,0-80c0-88.4,71.6-160,160-160s160,71.6,160,160
	C640,272.3,640,298.1,640,320z"/>
</svg>
