<?xml version="1.0" encoding="utf-8"?>
<!-- Generator: Adobe Illustrator 20.0.0, SVG Export Plug-In . SVG Version: 6.00 Build 0)  -->
<svg version="1.1" id="icon-" xmlns="http://www.w3.org/2000/svg" xmlns:xlink="http://www.w3.org/1999/xlink" x="0px" y="0px"
	 viewBox="0 0 960 960" enable-background="new 0 0 960 960" xml:space="preserve">
<path id="magnifier" d="M936.6,823.4C864.4,751.3,800.2,687,733.7,620.6C775.6,557.4,800,481.5,800,400C800,179.1,620.9,0,400,0
	S0,179.1,0,400s179.1,400,400,400c81.5,0,157.4-24.4,220.6-66.3c66.4,66.4,130.7,130.7,202.8,202.8C837.9,951,857.9,960,880,960
	c44.2,0,80-35.8,80-80C960,857.9,951,837.9,936.6,823.4z M400,640c-132.5,0-240-107.5-240-240s107.5-240,240-240s240,107.5,240,240
	S532.5,640,400,640z"/>
</svg>
