<?xml version="1.0" encoding="utf-8"?>
<!-- Generator: Adobe Illustrator 20.0.0, SVG Export Plug-In . SVG Version: 6.00 Build 0)  -->
<svg version="1.1" id="icon-" xmlns="http://www.w3.org/2000/svg" xmlns:xlink="http://www.w3.org/1999/xlink" x="0px" y="0px"
	 viewBox="0 0 960 960" enable-background="new 0 0 960 960" xml:space="preserve">
<path id="menu" d="M0,160c0-44.2,35.8-80,80-80h800c44.2,0,80,35.8,80,80s-35.8,80-80,80H80C35.8,240,0,204.2,0,160z M880,400H80
	c-44.2,0-80,35.8-80,80s35.8,80,80,80h800c44.2,0,80-35.8,80-80S924.2,400,880,400z M880,720H80c-44.2,0-80,35.8-80,80
	s35.8,80,80,80h800c44.2,0,80-35.8,80-80S924.2,720,880,720z"/>
</svg>
