<?xml version="1.0" encoding="utf-8"?>
<!-- Generator: Adobe Illustrator 19.2.1, SVG Export Plug-In . SVG Version: 6.00 Build 0)  -->
<svg version="1.1" xmlns="http://www.w3.org/2000/svg" xmlns:xlink="http://www.w3.org/1999/xlink" x="0px" y="0px"
	 viewBox="0 0 960 960" enable-background="new 0 0 960 960" xml:space="preserve">
<g id="row-5">
	<path id="module" d="M842.3,113.5C676.7,12.5,675.3,11.7,564.8-55.7C540.2-71.1,511.2-80,480-80c-31.2,0-60.2,8.9-84.8,24.3
		C284.7,11.7,283.3,12.5,117.7,113.5C47.3,155.3,0,232.1,0,320c0,160,0,160,0,320c0,87.9,47.3,164.7,117.7,206.5
		c165.6,100.9,166.9,101.8,277.5,169.1c24.6,15.4,53.7,24.3,84.8,24.3c31.2,0,60.2-8.9,84.8-24.3c110.5-67.4,111.9-68.2,277.5-169.1
		C912.7,804.7,960,727.9,960,640c0-160,0-160,0-320C960,232.1,912.7,155.3,842.3,113.5z M807.5,454
		c-118.3,78.8-119.2,79.4-237.4,158.3C544.4,629.8,513.4,640,480,640c-33.4,0-64.4-10.2-90.1-27.8
		C271.7,533.4,270.8,532.8,152.5,454C108.9,425.4,80,376.1,80,320s28.9-105.4,72.5-134c118.3-78.8,119.2-79.4,237.4-158.3
		C415.6,10.2,446.6,0,480,0c33.4,0,64.4,10.2,90.1,27.8c118.2,78.8,119.1,79.4,237.4,158.3c43.7,28.6,72.5,77.9,72.5,134
		C880,376.1,851.1,425.4,807.5,454z M560,160c0,44.2-35.8,80-80,80c-44.2,0-80-35.8-80-80s35.8-80,80-80C524.2,80,560,115.8,560,160
		z M560,480c0,44.2-35.8,80-80,80c-44.2,0-80-35.8-80-80s35.8-80,80-80C524.2,400,560,435.8,560,480z M320,320c0,44.2-35.8,80-80,80
		c-44.2,0-80-35.8-80-80s35.8-80,80-80C284.2,240,320,275.8,320,320z M800,320c0,44.2-35.8,80-80,80c-44.2,0-80-35.8-80-80
		s35.8-80,80-80C764.2,240,800,275.8,800,320z"/>
</g>
<g id="row-4">
</g>
<g id="row-3">
	<g id="alert">
	</g>
	<g id="expand">
	</g>
	<g id="collapse">
	</g>
	<g id="colections">
	</g>
	<g id="briefcase">
	</g>
	<g id="flag">
	</g>
	<g id="flag-small">
	</g>
	<g id="signpost">
	</g>
	<g id="info-card">
	</g>
	<g id="journal">
	</g>
	<g id="network">
	</g>
	<g id="trash">
	</g>
	<g id="card">
	</g>
	<g id="browser">
	</g>
	<g id="arrows">
	</g>
	<g id="arrow-left-rod">
	</g>
</g>
<g id="row-2">
	<g id="arrow-right-rod">
	</g>
	<g id="arrow-up-short">
	</g>
	<g id="arrow-down-short">
	</g>
	<g id="heart-full">
	</g>
	<g id="balloon-comments-inline">
	</g>
	<g id="balloon-comments">
	</g>
	<g id="check">
	</g>
	<g id="balloon-topic">
	</g>
	<g id="persons">
	</g>
	<g id="groups">
	</g>
	<g id="building-big">
	</g>
	<g id="person-card-2">
	</g>
	<g id="person-card-3">
	</g>
	<g id="plus">
	</g>
	<g id="arrow-right-long">
	</g>
	<g id="arrow-left-long">
	</g>
</g>
<g id="row-1">
	<g id="heart-inline">
	</g>
	<g id="close-short">
	</g>
	<g id="hash">
	</g>
	<g id="people">
	</g>
	<g id="building-small">
	</g>
	<g id="person">
	</g>
	<g id="close-long">
	</g>
	<g id="post">
	</g>
	<g id="star">
	</g>
	<g id="heart">
	</g>
	<g id="link">
	</g>
	<g id="camera">
	</g>
	<g id="balloon-text">
	</g>
	<g id="pin">
	</g>
	<g id="clock">
	</g>
</g>
<g id="guides">
</g>
</svg>
