<?xml version="1.0" encoding="utf-8"?>
<!-- Generator: Adobe Illustrator 19.2.1, SVG Export Plug-In . SVG Version: 6.00 Build 0)  -->
<svg version="1.1" xmlns="http://www.w3.org/2000/svg" xmlns:xlink="http://www.w3.org/1999/xlink" x="0px" y="0px"
	 viewBox="0 0 1040 960" enable-background="new 0 0 1040 960" xml:space="preserve">
<g id="row-5">
</g>
<g id="row-4">
</g>
<g id="row-3">
	<g id="alert">
	</g>
	<g id="expand">
	</g>
	<g id="collapse">
	</g>
	<g id="colections">
	</g>
	<g id="briefcase">
	</g>
	<g id="flag">
	</g>
	<g id="flag-small">
	</g>
	<g id="signpost">
	</g>
	<g id="info-card">
	</g>
	<g id="journal">
	</g>
	<g id="network">
		<path d="M1040,400c0-116.4-41.4-223.1-110.4-306.2C948.7,67.4,960,35,960,0c0-88.4-71.6-160-160-160
			c-63.1,0-117.7,36.6-143.7,89.7C625.2-76.7,593-80,560-80C347.2-80,166.8,58.4,103.9,250.1C43.2,272.9,0,331.4,0,400
			s43.2,127.1,103.9,149.9C166.8,741.6,347.2,880,560,880c33,0,65.2-3.3,96.3-9.7c26,53.1,80.6,89.7,143.7,89.7
			c88.4,0,160-71.6,160-160c0-35-11.3-67.4-30.4-93.8C998.6,623.1,1040,516.4,1040,400z M928.6,555.7
			c-15.3,36.1-35.6,69.5-60.5,99.5c-20.7-9.7-43.7-15.2-68.1-15.2c-11,0-21.7,1.1-32.1,3.2C836.5,584.5,880,497.3,880,400
			s-43.5-184.5-112.1-243.2c10.4,2.1,21.1,3.2,32.1,3.2c24.3,0,47.4-5.4,68.1-15.2c25,30,45.3,63.4,60.5,99.5
			C949.4,293.6,960,346,960,400S949.4,506.4,928.6,555.7z M729.7,230.3C775,275.6,800,335.9,800,400s-25,124.4-70.3,169.7
			S624.1,640,560,640s-124.4-25-169.7-70.3S320,464.1,320,400s25-124.4,70.3-169.7S495.9,160,560,160S684.4,185,729.7,230.3z
			 M277.2,117.2c36.8-36.8,79.5-65.6,127.2-85.8C453.6,10.6,506,0,560,0c27.2,0,54,2.7,80.2,8c1.8,35.6,15.2,68.2,36.5,93.9
			C640.5,87.8,601.2,80,560,80c-133.7,0-248.2,82-296.1,198.4c-20.3-17.3-44.9-29.7-72-35.2C212,196,240.7,153.6,277.2,117.2z
			 M404.3,768.6c-47.6-20.1-90.4-49-127.2-85.8c-36.5-36.5-65.1-78.9-85.3-126c27.1-5.5,51.8-17.9,72-35.2
			C311.8,638,426.3,720,560,720c41.2,0,80.5-7.8,116.7-21.9c-21.3,25.8-34.7,58.3-36.5,93.9c-26.2,5.3-53,8-80.2,8
			C506,800,453.6,789.4,404.3,768.6z M400,400c0,88.4,71.6,160,160,160s160-71.6,160-160s-71.6-160-160-160S400,311.6,400,400z
			 M640,400c0,44.1-35.9,80-80,80s-80-35.9-80-80s35.9-80,80-80S640,355.9,640,400z"/>
	</g>
	<g id="trash">
	</g>
	<g id="card">
	</g>
	<g id="browser">
	</g>
	<g id="arrows">
	</g>
	<g id="arrow-left-rod">
	</g>
</g>
<g id="row-2">
	<g id="arrow-right-rod">
	</g>
	<g id="arrow-up-short">
	</g>
	<g id="arrow-down-short">
	</g>
	<g id="heart-full">
	</g>
	<g id="balloon-comments-inline">
	</g>
	<g id="balloon-comments">
	</g>
	<g id="check">
	</g>
	<g id="balloon-topic">
	</g>
	<g id="persons">
	</g>
	<g id="groups">
	</g>
	<g id="building-big">
	</g>
	<g id="person-card-2">
	</g>
	<g id="person-card-3">
	</g>
	<g id="plus">
	</g>
	<g id="arrow-right-long">
	</g>
	<g id="arrow-left-long">
	</g>
</g>
<g id="row-1">
	<g id="heart-inline">
	</g>
	<g id="close-short">
	</g>
	<g id="hash">
	</g>
	<g id="people">
	</g>
	<g id="building-small">
	</g>
	<g id="person">
	</g>
	<g id="close-long">
	</g>
	<g id="post">
	</g>
	<g id="star">
	</g>
	<g id="heart">
	</g>
	<g id="link">
	</g>
	<g id="camera">
	</g>
	<g id="balloon-text">
	</g>
	<g id="pin">
	</g>
	<g id="clock">
	</g>
</g>
<g id="guides">
</g>
</svg>
