<?xml version="1.0" encoding="utf-8"?>
<!-- Generator: Adobe Illustrator 20.0.0, SVG Export Plug-In . SVG Version: 6.00 Build 0)  -->
<svg version="1.1" id="icon-" xmlns="http://www.w3.org/2000/svg" xmlns:xlink="http://www.w3.org/1999/xlink" x="0px" y="0px"
	 viewBox="0 0 960 960" enable-background="new 0 0 960 960" xml:space="preserve">
<path id="overlap" d="M560,240H80c-44.2,0-80,35.8-80,80v640c0,44.2,35.8,80,80,80h480c44.2,0,80-35.8,80-80V320
	C640,275.8,604.2,240,560,240z M480,880H160V400h320V880z M960,0v640c0,44.2-35.8,80-80,80H720V560h80V80H480v80H320V0
	c0-44.2,35.8-80,80-80h480C924.2-80,960-44.2,960,0z"/>
</svg>
