<?xml version="1.0" encoding="utf-8"?>
<!-- Generator: Adobe Illustrator 20.0.0, SVG Export Plug-In . SVG Version: 6.00 Build 0)  -->
<svg version="1.1" id="icon-" xmlns="http://www.w3.org/2000/svg" xmlns:xlink="http://www.w3.org/1999/xlink" x="0px" y="0px"
	 viewBox="0 0 800 960" enable-background="new 0 0 800 960" xml:space="preserve">
<path id="pause" d="M240,200v640c0,66.3-53.7,120-120,120l0,0C53.7,960,0,906.3,0,840V200C0,133.7,53.7,80,120,80l0,0
	C186.3,80,240,133.7,240,200z M680,80L680,80c-66.3,0-120,53.7-120,120v640c0,66.3,53.7,120,120,120l0,0c66.3,0,120-53.7,120-120
	V200C800,133.7,746.3,80,680,80z"/>
</svg>
