<?xml version="1.0" encoding="utf-8"?>
<!-- Generator: Adobe Illustrator 20.0.0, SVG Export Plug-In . SVG Version: 6.00 Build 0)  -->
<svg version="1.1" id="icon-" xmlns="http://www.w3.org/2000/svg" xmlns:xlink="http://www.w3.org/1999/xlink" x="0px" y="0px"
	 viewBox="0 0 1040 960" enable-background="new 0 0 1040 960" xml:space="preserve">
<path id="pen" fill="#29ABE2" d="M80,640l239,240L0,960L80,640z M1016.6,103.4c-80-80-80-80-160-160C842.1-71,822.1-80,800-80
	s-42.1,9-56.6,23.4c-113.1,113.1-446.9,446.9-560,560C169,517.9,160,537.9,160,560s9,42.1,23.4,56.6c80,80,80,80,160,160
	C357.9,791,377.9,800,400,800s42.1-9,56.6-23.4c113.1-113.1,446.9-446.9,560-560c14.5-14.5,23.4-34.5,23.4-56.6
	S1031,117.9,1016.6,103.4z"/>
</svg>
