<?xml version="1.0" encoding="utf-8"?>
<!-- Generator: Adobe Illustrator 21.0.1, SVG Export Plug-In . SVG Version: 6.00 Build 0)  -->
<svg version="1.1" id="icon-" xmlns="http://www.w3.org/2000/svg" xmlns:xlink="http://www.w3.org/1999/xlink" x="0px" y="0px"
	 viewBox="0 0 1040 960" enable-background="new 0 0 1040 960" xml:space="preserve">
<path id="pen" d="M388.3,811.7C395.5,819,400,829,400,840c0,18.8-13,34.6-30.5,38.8C292,898.2,128,939.2,50.3,958.7
	C47,959.5,43.5,960,40,960c-22.1,0-40-17.9-40-40c0-3.5,0.5-7,1.3-10.3C20.8,832,61.8,668,81.2,590.5c4.3-17.5,20-30.5,38.8-30.5
	c11,0,21,4.5,28.3,11.7C204.9,628.3,331.7,755.1,388.3,811.7z M1016.6,183.4c-113.1-113.1-126.9-126.9-240-240
	C762.1-71,742.1-80,720-80s-42.1,9-56.6,23.4c-113.1,113.1-286.9,286.9-400,400C249,357.9,240,377.9,240,400s9,42.1,23.4,56.6
	c113.1,113.1,126.9,126.9,240,240C517.9,711,537.9,720,560,720s42.1-9,56.6-23.4c113.1-113.1,286.9-286.9,400-400
	c14.5-14.5,23.4-34.5,23.4-56.6S1031,197.9,1016.6,183.4z"/>
</svg>
