<?xml version="1.0" encoding="utf-8"?>
<!-- Generator: Adobe Illustrator 18.1.1, SVG Export Plug-In . SVG Version: 6.00 Build 0)  -->
<svg version="1.1" xmlns="http://www.w3.org/2000/svg" xmlns:xlink="http://www.w3.org/1999/xlink" x="0px" y="0px"
	 viewBox="0 0 1280 960" enable-background="new 0 0 1280 960" xml:space="preserve">
<g id="flag">
</g>
<g id="flag-small">
</g>
<g id="signpost">
</g>
<g id="info-card">
</g>
<g id="journal">
</g>
<g id="network">
</g>
<g id="trash">
</g>
<g id="card">
</g>
<g id="browser">
</g>
<g id="arrows">
</g>
<g id="arrow-left-rod">
</g>
<g id="arrow-right-rod">
</g>
<g id="arrow-up-short">
</g>
<g id="arrow-down-short">
</g>
<g id="briefcase">
</g>
<g id="balloon-comments-fill">
</g>
<g id="balloon-comments">
</g>
<g id="check">
</g>
<g id="balloon-topic">
</g>
<g id="persons">
</g>
<g id="groups">
</g>
<g id="building-big">
</g>
<g id="person-card-2">
</g>
<g id="person-card-3">
	<path d="M960,560c0,88.4-71.6,160-160,160s-160-71.6-160-160c0-88.4,71.6-160,160-160S960,471.6,960,560z M1200,400v480
		c0,88.4-71.6,160-160,160h-80H640h-80c-88.4,0-160-71.6-160-160c-88.4,0-160-71.6-160-160c-88.4,0-160-71.6-160-160V80
		C80-8.4,151.6-80,240-80h480c88.4,0,160,71.6,160,160c88.4,0,160,71.6,160,160C1128.4,240,1200,311.6,1200,400z M240,640V240
		c0-88.4,71.6-160,160-160h400c0-44.1-35.9-80-80-80H240c-44.1,0-80,35.9-80,80v480C160,604.1,195.9,640,240,640z M400,800V400
		c0-88.4,71.6-160,160-160h400c0-44.1-35.9-80-80-80h-80H400c-44.1,0-80,35.9-80,80v400v80C320,764.1,355.9,800,400,800z M1120,400
		c0-44.1-35.9-80-80-80h-80H560c-44.1,0-80,35.9-80,80v400v80c0,44.1,35.9,80,80,80h80V800h320v160h80c44.1,0,80-35.9,80-80V400z"/>
</g>
<g id="plus">
</g>
<g id="arrow-right-long">
</g>
<g id="arrow-left-long">
</g>
<g id="close-short">
</g>
<g id="hash">
</g>
<g id="people">
</g>
<g id="building-small">
</g>
<g id="person">
</g>
<g id="heart-fill">
</g>
<g id="close-long">
</g>
<g id="post">
</g>
<g id="star">
</g>
<g id="heart">
</g>
<g id="link">
</g>
<g id="camera">
</g>
<g id="balloon-text">
</g>
<g id="pin">
</g>
<g id="clock">
</g>
<g id="guide">
</g>
</svg>
