<?xml version="1.0" encoding="utf-8"?>
<!-- Generator: Adobe Illustrator 18.1.1, SVG Export Plug-In . SVG Version: 6.00 Build 0)  -->
<svg version="1.1" xmlns="http://www.w3.org/2000/svg" xmlns:xlink="http://www.w3.org/1999/xlink" x="0px" y="0px"
	 viewBox="0 0 960 960" enable-background="new 0 0 960 960" xml:space="preserve">
<g id="row-4">
	<g id="upload">
	</g>
	<g id="menu">
	</g>
	<g id="gear">
	</g>
	<g id="external">
	</g>
	<g id="graph">
	</g>
</g>
<g id="row-3">
	<g id="alert">
	</g>
	<g id="expand">
	</g>
	<g id="collapse">
	</g>
	<g id="colections">
	</g>
	<g id="briefcase">
	</g>
	<g id="flag">
	</g>
	<g id="flag-small">
	</g>
	<g id="signpost">
	</g>
	<g id="info-card">
	</g>
	<g id="journal">
	</g>
	<g id="network">
	</g>
	<g id="trash">
	</g>
	<g id="card">
	</g>
	<g id="browser">
	</g>
	<g id="arrows">
	</g>
	<g id="arrow-left-rod">
	</g>
</g>
<g id="row-2">
	<g id="arrow-right-rod">
	</g>
	<g id="arrow-up-short">
	</g>
	<g id="arrow-down-short">
	</g>
	<g id="heart-full">
	</g>
	<g id="balloon-comments-inline">
	</g>
	<g id="balloon-comments">
	</g>
	<g id="check">
	</g>
	<g id="balloon-topic">
	</g>
	<g id="persons">
		<path d="M801,561H497.9c-5.9-0.7-11.8-1-17.9-1H160C71.6,560,0,631.6,0,720v160h320v1h640V720C960,631.6,889.4,561,801,561z
			 M880,801H640v-81c0-28.7-7.6-55.7-20.8-79H801c21.4,0,41.1,8,56.1,22.9S880,698.6,880,720V801z M320,480
			c61.7,0,118-23.3,160.5-61.6C523,456.7,579.3,480,641,480c132.5,0,240-107.5,240-240S773.5,0,641,0c-61.7,0-118,23.3-160.5,61.6
			C438,23.3,381.7,0,320,0C187.5,0,80,107.5,80,240S187.5,480,320,480z M754.1,126.9C784.4,157.1,801,197.3,801,240
			c0,42.7-16.6,82.9-46.9,113.1S683.7,400,641,400c-41.6,0-80.7-15.7-110.6-44.4C549.2,321.3,560,281.9,560,240
			c0-41.9-10.8-81.3-29.6-115.6C560.3,95.7,599.4,80,641,80C683.7,80,723.9,96.6,754.1,126.9z"/>
	</g>
	<g id="groups">
	</g>
	<g id="building-big">
	</g>
	<g id="person-card-2">
	</g>
	<g id="person-card-3">
	</g>
	<g id="plus">
	</g>
	<g id="arrow-right-long">
	</g>
	<g id="arrow-left-long">
	</g>
</g>
<g id="row-1">
	<g id="heart-inline">
	</g>
	<g id="close-short">
	</g>
	<g id="hash">
	</g>
	<g id="people">
	</g>
	<g id="building-small">
	</g>
	<g id="person">
	</g>
	<g id="close-long">
	</g>
	<g id="post">
	</g>
	<g id="star">
	</g>
	<g id="heart">
	</g>
	<g id="link">
	</g>
	<g id="camera">
	</g>
	<g id="balloon-text">
	</g>
	<g id="pin">
	</g>
	<g id="clock">
	</g>
</g>
<g id="guides">
</g>
</svg>
