<?xml version="1.0" encoding="utf-8"?>
<!-- Generator: Adobe Illustrator 20.0.0, SVG Export Plug-In . SVG Version: 6.00 Build 0)  -->
<svg version="1.1" id="icon-" xmlns="http://www.w3.org/2000/svg" xmlns:xlink="http://www.w3.org/1999/xlink" x="0px" y="0px"
	 viewBox="0 0 1120 960" enable-background="new 0 0 1120 960" xml:space="preserve">
<path id="person-card-3" d="M960,240c0-88.4-71.6-160-160-160c0-88.4-71.6-160-160-160H160C71.6-80,0-8.4,0,80v480
	c0,88.4,71.6,160,160,160c0,88.4,71.6,160,160,160c0,88.4,71.6,160,160,160h480c88.4,0,160-71.6,160-160V400
	C1120,311.6,1048.4,240,960,240z M160,240v400c-44.1,0-80-35.9-80-80V80c0-44.1,35.9-80,80-80h480c44.1,0,80,35.9,80,80H320
	C231.6,80,160,151.6,160,240z M320,400v400c-44.1,0-80-35.9-80-80v-80V240c0-44.1,35.9-80,80-80h400h80c44.1,0,80,35.9,80,80H480
	C391.6,240,320,311.6,320,400z M1040,880c0,44.1-35.9,80-80,80c0-88.4-71.6-160-160-160c-80,0-80,0-160,0c-88.4,0-160,71.6-160,160
	c-44.1,0-80-35.9-80-80v-80V400c0-44.1,35.9-80,80-80h400h80c44.1,0,80,35.9,80,80V880z M880,560c0,88.4-71.6,160-160,160
	s-160-71.6-160-160c0-88.4,71.6-160,160-160S880,471.6,880,560z"/>
</svg>
