<?xml version="1.0" encoding="utf-8"?>
<!-- Generator: Adobe Illustrator 20.0.0, SVG Export Plug-In . SVG Version: 6.00 Build 0)  -->
<svg version="1.1" id="icon-" xmlns="http://www.w3.org/2000/svg" xmlns:xlink="http://www.w3.org/1999/xlink" x="0px" y="0px"
	 viewBox="0 0 800 960" enable-background="new 0 0 800 960" xml:space="preserve">
<path id="person_1_" d="M160,240C160,107.5,267.5,0,400,0s240,107.5,240,240S532.5,480,400,480S160,372.5,160,240z M600,560
	c-120,0-280,0-400,0C89.5,560,0,649.5,0,760c0,35.4,0,58.8,0,80c0,66.3,53.7,120,120,120c31,0,57.1,0,80,0c101.9,0,298.1,0,400,0
	c22.9,0,49,0,80,0c66.3,0,120-53.7,120-120c0-21.2,0-44.6,0-80C800,649.5,710.5,560,600,560z"/>
</svg>
