<?xml version="1.0" encoding="utf-8"?>
<!-- Generator: Adobe Illustrator 18.1.1, SVG Export Plug-In . SVG Version: 6.00 Build 0)  -->
<svg version="1.1" xmlns="http://www.w3.org/2000/svg" xmlns:xlink="http://www.w3.org/1999/xlink" x="0px" y="0px"
	 viewBox="0 0 1120 960" enable-background="new 0 0 1120 960" xml:space="preserve">
<g id="row-4">
	<g id="menu">
	</g>
	<g id="gear">
	</g>
	<g id="external">
	</g>
	<g id="graph">
	</g>
	<g id="alert">
	</g>
	<g id="expand">
	</g>
	<g id="collapse">
	</g>
	<g id="colections">
	</g>
	<g id="briefcase">
	</g>
</g>
<g id="row-3">
	<g id="flag">
	</g>
	<g id="flag-small">
	</g>
	<g id="signpost">
	</g>
	<g id="info-card">
	</g>
	<g id="journal">
	</g>
	<g id="network">
	</g>
	<g id="trash">
	</g>
	<g id="card">
	</g>
	<g id="browser">
	</g>
	<g id="arrows">
	</g>
	<g id="arrow-left-rod">
	</g>
	<g id="arrow-right-rod">
	</g>
	<g id="arrow-up-short">
	</g>
	<g id="arrow-down-short">
	</g>
</g>
<g id="row-2">
	<g id="heart-full">
	</g>
	<g id="balloon-comments-inline">
	</g>
	<g id="balloon-comments">
	</g>
	<g id="check">
	</g>
	<g id="balloon-topic">
	</g>
	<g id="persons">
		<path d="M881,561H577.9c-5.9-0.7-11.8-1-17.9-1H240c-88.4,0-160,71.6-160,160v160h320v1h640V720C1040,631.6,969.4,561,881,561z
			 M960,801H720v-81c0-28.7-7.6-55.7-20.8-79H881c21.4,0,41.1,8,56.1,22.9S960,698.6,960,720V801z M400,480
			c61.7,0,118-23.3,160.5-61.6C603,456.7,659.3,480,721,480c132.5,0,240-107.5,240-240S853.5,0,721,0c-61.7,0-118,23.3-160.5,61.6
			C518,23.3,461.7,0,400,0C267.5,0,160,107.5,160,240S267.5,480,400,480z M834.1,126.9C864.4,157.1,881,197.3,881,240
			c0,42.7-16.6,82.9-46.9,113.1S763.7,400,721,400c-41.6,0-80.7-15.7-110.6-44.4C629.2,321.3,640,281.9,640,240
			c0-41.9-10.8-81.3-29.6-115.6C640.3,95.7,679.4,80,721,80C763.7,80,803.9,96.6,834.1,126.9z"/>
	</g>
	<g id="groups">
	</g>
	<g id="building-big">
	</g>
	<g id="person-card-2">
	</g>
	<g id="person-card-3">
	</g>
	<g id="plus">
	</g>
	<g id="arrow-right-long">
	</g>
	<g id="arrow-left-long">
	</g>
	<g id="heart-inline">
	</g>
</g>
<g id="row-1">
	<g id="close-short">
	</g>
	<g id="hash">
	</g>
	<g id="people">
	</g>
	<g id="building-small">
	</g>
	<g id="person">
	</g>
	<g id="close-long">
	</g>
	<g id="post">
	</g>
	<g id="star">
	</g>
	<g id="heart">
	</g>
	<g id="link">
	</g>
	<g id="camera">
	</g>
	<g id="balloon-text">
	</g>
	<g id="pin">
	</g>
	<g id="clock">
	</g>
</g>
<g id="guides">
</g>
</svg>
