<?xml version="1.0" encoding="utf-8"?>
<!-- Generator: Adobe Illustrator 19.2.1, SVG Export Plug-In . SVG Version: 6.00 Build 0)  -->
<svg version="1.1" xmlns="http://www.w3.org/2000/svg" xmlns:xlink="http://www.w3.org/1999/xlink" x="0px" y="0px"
	 viewBox="0 0 1120 960" enable-background="new 0 0 1120 960" xml:space="preserve">
<g id="row-5">
</g>
<g id="row-4">
</g>
<g id="row-3">
	<g id="alert">
	</g>
	<g id="expand">
	</g>
	<g id="collapse">
	</g>
	<g id="colections">
	</g>
	<g id="briefcase">
	</g>
	<g id="flag">
	</g>
	<g id="flag-small">
	</g>
	<g id="signpost">
	</g>
	<g id="info-card">
	</g>
	<g id="journal">
	</g>
	<g id="network">
	</g>
	<g id="trash">
	</g>
	<g id="card">
	</g>
	<g id="browser">
	</g>
	<g id="arrows">
	</g>
	<g id="arrow-left-rod">
	</g>
</g>
<g id="row-2">
	<g id="arrow-right-rod">
	</g>
	<g id="arrow-up-short">
	</g>
	<g id="arrow-down-short">
	</g>
	<g id="heart-full">
	</g>
	<g id="balloon-comments-inline">
	</g>
	<g id="balloon-comments">
	</g>
	<g id="check">
	</g>
	<g id="balloon-topic">
	</g>
	<g id="persons">
	</g>
	<g id="groups">
	</g>
	<g id="building-big">
	</g>
	<g id="person-card-2">
	</g>
	<g id="person-card-3">
		<path d="M880,560c0,88.4-71.6,160-160,160s-160-71.6-160-160c0-88.4,71.6-160,160-160S880,471.6,880,560z M1120,400v480
			c0,88.4-71.6,160-160,160h-80H560h-80c-88.4,0-160-71.6-160-160c-88.4,0-160-71.6-160-160C71.6,720,0,648.4,0,560V80
			C0-8.4,71.6-80,160-80h480c88.4,0,160,71.6,160,160c88.4,0,160,71.6,160,160C1048.4,240,1120,311.6,1120,400z M160,640V240
			c0-88.4,71.6-160,160-160h400c0-44.1-35.9-80-80-80H160c-44.1,0-80,35.9-80,80v480C80,604.1,115.9,640,160,640z M320,800V400
			c0-88.4,71.6-160,160-160h400c0-44.1-35.9-80-80-80h-80H320c-44.1,0-80,35.9-80,80v400v80C240,764.1,275.9,800,320,800z M1040,400
			c0-44.1-35.9-80-80-80h-80H480c-44.1,0-80,35.9-80,80v400v80c0,44.1,35.9,80,80,80h80V800h320v160h80c44.1,0,80-35.9,80-80V400z"
			/>
	</g>
	<g id="plus">
	</g>
	<g id="arrow-right-long">
	</g>
	<g id="arrow-left-long">
	</g>
</g>
<g id="row-1">
	<g id="heart-inline">
	</g>
	<g id="close-short">
	</g>
	<g id="hash">
	</g>
	<g id="people">
	</g>
	<g id="building-small">
	</g>
	<g id="person">
	</g>
	<g id="close-long">
	</g>
	<g id="post">
	</g>
	<g id="star">
	</g>
	<g id="heart">
	</g>
	<g id="link">
	</g>
	<g id="camera">
	</g>
	<g id="balloon-text">
	</g>
	<g id="pin">
	</g>
	<g id="clock">
	</g>
</g>
<g id="guides">
</g>
</svg>
