<?xml version="1.0" encoding="utf-8"?>
<!-- Generator: Adobe Illustrator 21.0.1, SVG Export Plug-In . SVG Version: 6.00 Build 0)  -->
<svg version="1.1" id="icon-" xmlns="http://www.w3.org/2000/svg" xmlns:xlink="http://www.w3.org/1999/xlink" x="0px" y="0px"
	 viewBox="0 0 1120 960" enable-background="new 0 0 1120 960" xml:space="preserve">
<path id="persons_1_" d="M79.2,160c0-132.5,107.5-240,240-240s240,107.5,240,240s-107.5,240-240,240S79.2,292.5,79.2,160z M560,160
	C560,27.5,667.5-80,800-80s240,107.5,240,240S932.5,400,800,400S560,292.5,560,160z M720.8,160c0,44.2,35.8,80,80,80
	c44.2,0,80-35.8,80-80s-35.8-80-80-80C756.7,80,720.8,115.8,720.8,160z M1120,720v160c0,44.2-35.8,80-80,80H560H80
	c-44.2,0-80-35.8-80-80V720c0-132.5,107.5-240,240-240h160c61.5,0,117.5,23.1,160,61.1c42.5-38,98.5-61.1,160-61.1h160
	C1012.5,480,1120,587.5,1120,720z M960,760c0-66.3-53.7-120-120-120h-80c-66.3,0-120,53.7-120,120v40h320V760z"/>
</svg>
