<?xml version="1.0" encoding="utf-8"?>
<!-- Generator: Adobe Illustrator 21.0.1, SVG Export Plug-In . SVG Version: 6.00 Build 0)  -->
<svg version="1.1" id="icon-" xmlns="http://www.w3.org/2000/svg" xmlns:xlink="http://www.w3.org/1999/xlink" x="0px" y="0px"
	 viewBox="0 0 960 960" enable-background="new 0 0 960 960" xml:space="preserve">
<path id="person-card-2" d="M720,400c0,88.4-71.6,160-160,160s-160-71.6-160-160c0-88.4,71.6-160,160-160S720,311.6,720,400z
	 M960,240v480c0,88.4-71.6,160-160,160H320c-88.4,0-160-71.6-160-160C71.6,720,0,648.4,0,560V80C0-8.4,71.6-80,160-80h480
	c88.4,0,160,71.6,160,160C888.4,80,960,151.6,960,240z M320,80h400c0-44.1-35.9-80-80-80H160c-44.1,0-80,35.9-80,80v480
	c0,44.1,35.9,80,80,80V240C160,151.6,231.6,80,320,80z M880,240c0-44.1-35.9-80-80-80h-80H320c-44.1,0-80,35.9-80,80v400v80
	c0,44.1,35.9,80,80,80c0-88.4,71.6-160,160-160c80,0,80,0,160,0c88.4,0,160,71.6,160,160c44.1,0,80-35.9,80-80V240z"/>
</svg>
