<?xml version="1.0" encoding="utf-8"?>
<!-- Generator: Adobe Illustrator 20.0.0, SVG Export Plug-In . SVG Version: 6.00 Build 0)  -->
<svg version="1.1" id="icon-" xmlns="http://www.w3.org/2000/svg" xmlns:xlink="http://www.w3.org/1999/xlink" x="0px" y="0px"
	 viewBox="0 0 960 960" enable-background="new 0 0 960 960" xml:space="preserve">
<path id="plus_1_" d="M960,400L960,400c0,44.2-35.8,80-80,80H560v320c0,44.2-35.8,80-80,80l0,0c-44.2,0-80-35.8-80-80V480H80
	c-44.2,0-80-35.8-80-80l0,0c0-44.2,35.8-80,80-80h320V0c0-44.2,35.8-80,80-80l0,0c44.2,0,80,35.8,80,80v320h320
	C924.2,320,960,355.8,960,400z"/>
</svg>
