<?xml version="1.0" encoding="utf-8"?>
<!-- Generator: Adobe Illustrator 20.0.0, SVG Export Plug-In . SVG Version: 6.00 Build 0)  -->
<svg version="1.1" id="icon-" xmlns="http://www.w3.org/2000/svg" xmlns:xlink="http://www.w3.org/1999/xlink" x="0px" y="0px"
	 viewBox="0 0 1040 960" enable-background="new 0 0 1040 960" xml:space="preserve">
<path id="post_1_" d="M880,0C560,0,480,0,160,0C71.6,0,0,71.6,0,160c0,280,0,280,0,560c0,88.4,71.6,160,160,160c320,0,400,0,720,0
	c88.4,0,160-71.6,160-160c0-280,0-280,0-560C1040,71.6,968.4,0,880,0z M280,160c66.3,0,120,53.7,120,120s-53.7,120-120,120
	s-120-53.7-120-120S213.7,160,280,160z M840,720c-80,0-560,0-640,0c-22.1,0-40-17.9-40-40s17.9-40,40-40c80,0,560,0,640,0
	c22.1,0,40,17.9,40,40S862.1,720,840,720z M840,560c-80,0-560,0-640,0c-22.1,0-40-17.9-40-40s17.9-40,40-40c80,0,560,0,640,0
	c22.1,0,40,17.9,40,40S862.1,560,840,560z M840,400c-80,0-200,0-280,0c-22.1,0-40-17.9-40-40s17.9-40,40-40c80,0,200,0,280,0
	c22.1,0,40,17.9,40,40S862.1,400,840,400z M840,240c-80,0-200,0-280,0c-22.1,0-40-17.9-40-40s17.9-40,40-40c80,0,200,0,280,0
	c22.1,0,40,17.9,40,40S862.1,240,840,240z"/>
</svg>
