<?xml version="1.0" encoding="utf-8"?>
<!-- Generator: Adobe Illustrator 18.1.1, SVG Export Plug-In . SVG Version: 6.00 Build 0)  -->
<svg version="1.1" xmlns="http://www.w3.org/2000/svg" xmlns:xlink="http://www.w3.org/1999/xlink" x="0px" y="0px"
	 viewBox="0 0 1120 960" enable-background="new 0 0 1120 960" xml:space="preserve">
<g id="region">
	<path d="M918.6,164.7C943.8,98.2,960,39.8,960,0c0-176.7-143.3-320-320-320S320-176.7,320,0c0,38.8,15.5,95.4,39.6,160H240
		c-88.4,0-160,71.6-160,160v480c0,88.4,71.6,160,160,160h640c88.4,0,160-71.6,160-160V320C1040,245,988.3,182,918.6,164.7z M640-120
		c66.3,0,120,53.7,120,120s-53.7,120-120,120S520,66.3,520,0S573.7-120,640-120z M162.7,820.7c-1.8-6.6-2.7-13.5-2.7-20.7V456.6
		L343.4,640L162.7,820.7z M219.3,877.3L400,696.6L583.4,880H240C232.8,880,225.9,879,219.3,877.3z M960,800c0,44.1-35.9,80-80,80
		H696.6L160,343.4V320c0-44.1,35.9-80,80-80h151.9C486.3,459,640,720,640,720s153.5-260.7,247.9-479.6c40.4,4,72.1,38.2,72.1,79.6
		V800z"/>
</g>
<g id="flag">
</g>
<g id="flag-small">
</g>
<g id="signpost">
</g>
<g id="info-card">
</g>
<g id="journal">
</g>
<g id="network">
</g>
<g id="trash">
</g>
<g id="card">
</g>
<g id="browser">
</g>
<g id="arrows">
</g>
<g id="arrow-left-rod">
</g>
<g id="arrow-right-rod">
</g>
<g id="arrow-up-short">
</g>
<g id="arrow-down-short">
</g>
<g id="briefcase">
</g>
<g id="balloon-comments-fill">
</g>
<g id="balloon-comments">
</g>
<g id="check">
</g>
<g id="balloon-topic">
</g>
<g id="persons">
</g>
<g id="groups">
</g>
<g id="building-big">
</g>
<g id="person-card-2">
</g>
<g id="person-card-3">
</g>
<g id="plus">
</g>
<g id="arrow-right-long">
</g>
<g id="arrow-left-long">
</g>
<g id="close-short">
</g>
<g id="hash">
</g>
<g id="people">
</g>
<g id="building-small">
</g>
<g id="person">
</g>
<g id="heart-fill">
</g>
<g id="close-long">
</g>
<g id="post">
</g>
<g id="star">
</g>
<g id="heart">
</g>
<g id="link">
</g>
<g id="camera">
</g>
<g id="balloon-text">
</g>
<g id="pin">
</g>
<g id="clock">
</g>
<g id="guide">
</g>
</svg>
