<?xml version="1.0" encoding="utf-8"?>
<!-- Generator: Adobe Illustrator 21.0.1, SVG Export Plug-In . SVG Version: 6.00 Build 0)  -->
<svg version="1.1" id="icon-" xmlns="http://www.w3.org/2000/svg" xmlns:xlink="http://www.w3.org/1999/xlink" x="0px" y="0px"
	 viewBox="0 0 1120 960" enable-background="new 0 0 1120 960" xml:space="preserve">
<path id="rocket" d="M1096.6,583.4C991.8,478.6,972.3,459.1,880,366.9c0-14.9,0-30.4,0-46.9c0-86.1-34-164.2-89.2-221.7
	C719,18,717.7,16.5,679.3-27h-0.3C649.7-59.5,607.2-80,560-80s-89.7,20.5-118.9,53h-0.3C402.3,16.5,401,18,329.2,98.3
	C274,155.8,240,233.9,240,320c0,16.5,0,32,0,46.9c-92.3,92.3-111.8,111.8-216.6,216.6C9,597.9,0,617.9,0,640c0,160,0,160,0,320
	c0,44.2,35.8,80,80,80c16.4,0,31.7-5,44.4-13.4v0c0,0,0,0,0,0c0.2-0.1,0.3-0.2,0.5-0.3c117.2-78.1,119.6-79.7,232.9-155.3
	c26.4,26.4,31.1,31.1,65.6,65.6C437.9,951,457.9,960,480,960c80,0,80,0,160,0c22.1,0,42.1-9,56.6-23.4
	c34.5-34.5,39.3-39.3,65.6-65.6c113.3,75.5,115.7,77.1,232.9,155.3c0.2,0.1,0.3,0.2,0.5,0.3c0,0,0,0,0,0v0
	c12.7,8.5,28,13.4,44.4,13.4c44.2,0,80-35.8,80-80c0-160,0-160,0-320C1120,617.9,1111,597.9,1096.6,583.4z M560,640
	c-88.4,0-160-71.6-160-160s71.6-160,160-160s160,71.6,160,160S648.4,640,560,640z"/>
</svg>
