<?xml version="1.0" encoding="utf-8"?>
<!-- Generator: Adobe Illustrator 18.1.1, SVG Export Plug-In . SVG Version: 6.00 Build 0)  -->
<svg version="1.1" xmlns="http://www.w3.org/2000/svg" xmlns:xlink="http://www.w3.org/1999/xlink" x="0px" y="0px"
	 viewBox="0 0 1120 960" enable-background="new 0 0 1120 960" xml:space="preserve">
<g id="row-4">
	<path id="rocket" d="M1119,650.8c0.5-3.5,0.7-7.1,0.7-10.8c0-22.1-9-42.1-23.4-56.6C991.6,478.7,972,459.2,880,367.1
		c0-14.9,0-30.5,0-47.1h0c-0.3-85.9-34.3-163.8-89.6-221.1c-68-76.7-72.1-81.4-106.2-119.9C654.8-57,610.1-80,560-80
		s-94.8,23-124.1,59.1c-34.1,38.4-38.2,43.1-106.2,119.9C274.4,156.2,240.3,234.1,240,320h0c0,16.8,0,32.6,0,47.6
		c-91.6,91.6-111.3,111.3-215.8,215.8C9.7,597.9,0.7,617.9,0.7,640c0,2.1,0.1,4.1,0.3,6.2C1,798,1,802,1,953.8
		c-0.2,2-0.3,4.1-0.3,6.2c0,44.2,35.8,80,80,80c16.7,0,32.1-5.1,45-13.8c116.8-78.2,119.2-79.8,232-155.3
		c26.5,26.5,31.2,31.2,65.7,65.7C437.9,951,457.9,960,480,960c80,0,80,0,160,0c22.1,0,42.1-9,56.6-23.4
		c34.7-34.7,39.3-39.3,65.9-65.9c113.1,75.7,115.4,77.2,232.3,155.5c12.8,8.7,28.3,13.8,44.9,13.8c44.2,0,80-35.8,80-80
		c0-3.7-0.3-7.2-0.7-10.8C1119,803.4,1119,796.6,1119,650.8z M560,641c-88.4,0-160-71.6-160-160s71.6-160,160-160s160,71.6,160,160
		S648.4,641,560,641z"/>
</g>
<g id="row-3">
	<g id="alert">
	</g>
	<g id="expand">
	</g>
	<g id="collapse">
	</g>
	<g id="colections">
	</g>
	<g id="briefcase">
	</g>
	<g id="flag">
	</g>
	<g id="flag-small">
	</g>
	<g id="signpost">
	</g>
	<g id="info-card">
	</g>
	<g id="journal">
	</g>
	<g id="network">
	</g>
	<g id="trash">
	</g>
	<g id="card">
	</g>
	<g id="browser">
	</g>
	<g id="arrows">
	</g>
	<g id="arrow-left-rod">
	</g>
</g>
<g id="row-2">
	<g id="arrow-right-rod">
	</g>
	<g id="arrow-up-short">
	</g>
	<g id="arrow-down-short">
	</g>
	<g id="heart-full">
	</g>
	<g id="balloon-comments-inline">
	</g>
	<g id="balloon-comments">
	</g>
	<g id="check">
	</g>
	<g id="balloon-topic">
	</g>
	<g id="persons">
	</g>
	<g id="groups">
	</g>
	<g id="building-big">
	</g>
	<g id="person-card-2">
	</g>
	<g id="person-card-3">
	</g>
	<g id="plus">
	</g>
	<g id="arrow-right-long">
	</g>
	<g id="arrow-left-long">
	</g>
</g>
<g id="row-1">
	<g id="heart-inline">
	</g>
	<g id="close-short">
	</g>
	<g id="hash">
	</g>
	<g id="people">
	</g>
	<g id="building-small">
	</g>
	<g id="person">
	</g>
	<g id="close-long">
	</g>
	<g id="post">
	</g>
	<g id="star">
	</g>
	<g id="heart">
	</g>
	<g id="link">
	</g>
	<g id="camera">
	</g>
	<g id="balloon-text">
	</g>
	<g id="pin">
	</g>
	<g id="clock">
	</g>
</g>
<g id="guides">
</g>
</svg>
