<svg id="row-5" xmlns="http://www.w3.org/2000/svg" viewBox="0 0 1280 960"><title>icon-12</title><path id="spinner-double-arrow" d="M456.57,536.57l-160,160a80,80,0,0,1-113.14,0l-160-160A80,80,0,1,1,136.57,423.43l24.49,24.49C177.57,197.78,385.68,0,640,0A477.78,477.78,0,0,1,880,64.24l0,0.06a80,80,0,1,1-80,138.56c-0.4-.23-0.77-0.48-1.16-0.71A318.51,318.51,0,0,0,640,160c-164.88,0-300.62,124.71-318.08,284.94l21.51-21.51A80,80,0,1,1,456.57,536.57Zm800-113.14-160-160a80,80,0,0,0-113.14,0l-160,160A80,80,0,1,0,936.57,536.57l21.51-21.51C940.62,675.29,804.88,800,640,800a318.51,318.51,0,0,1-158.84-42.16c-0.39-.23-0.77-0.48-1.16-0.71a80,80,0,1,0-80,138.56l0,0.06A477.78,477.78,0,0,0,640,960c254.32,0,462.43-197.78,478.94-447.92l24.49,24.49A80,80,0,1,0,1256.57,423.43Z"/></svg>