<?xml version="1.0" encoding="utf-8"?>
<!-- Generator: Adobe Illustrator 20.0.0, SVG Export Plug-In . SVG Version: 6.00 Build 0)  -->
<svg version="1.1" id="icon-" xmlns="http://www.w3.org/2000/svg" xmlns:xlink="http://www.w3.org/1999/xlink" x="0px" y="0px"
	 viewBox="0 0 1280 960" enable-background="new 0 0 1280 960" xml:space="preserve">
<path id="spinner-double-arrow" d="M800,480c0-44.2,35.8-80,80-80c22.1,0,42.1,9,56.6,23.4c7.9,7.9,15,15,21.5,21.5
	C940.6,284.7,804.9,160,640,160c-57.8,0-112,15.3-158.8,42.2c-0.4,0.2-0.8,0.5-1.2,0.7c-38.3,22.1-87.2,9-109.3-29.3
	c-22.1-38.3-9-87.2,29.3-109.3l0-0.1C470.6,23.4,552.6,0,640,0c254.3,0,462.4,197.8,478.9,447.9c7.3-7.3,15.4-15.4,24.5-24.5
	c14.5-14.5,34.5-23.4,56.6-23.4c44.2,0,80,35.8,80,80c0,22.1-9,42.1-23.4,56.6c-80,80-80,80-160,160c-14.5,14.5-34.5,23.4-56.6,23.4
	s-42.1-9-56.6-23.4c-80-80-80-80-160-160C809,522.1,800,502.1,800,480z M0,480c0,44.2,35.8,80,80,80c22.1,0,42.1-9,56.6-23.4
	c9.1-9.1,17.2-17.2,24.5-24.5C177.6,762.2,385.7,960,640,960c87.4,0,169.4-23.4,240-64.2l0-0.1c38.3-22.1,51.4-71,29.3-109.3
	c-22.1-38.3-71-51.4-109.3-29.3c-0.4,0.2-0.8,0.5-1.2,0.7C752,784.7,697.8,800,640,800c-164.9,0-300.6-124.7-318.1-284.9
	c6.5,6.5,13.6,13.6,21.5,21.5C357.9,551,377.9,560,400,560c44.2,0,80-35.8,80-80c0-22.1-9-42.1-23.4-56.6c-80-80-80-80-160-160
	C282.1,249,262.1,240,240,240s-42.1,9-56.6,23.4c-80,80-80,80-160,160C9,437.9,0,457.9,0,480z"/>
</svg>
