<?xml version="1.0" encoding="utf-8"?>
<!-- Generator: Adobe Illustrator 19.2.1, SVG Export Plug-In . SVG Version: 6.00 Build 0)  -->
<svg version="1.1" xmlns="http://www.w3.org/2000/svg" xmlns:xlink="http://www.w3.org/1999/xlink" x="0px" y="0px"
	 viewBox="0 0 1280 960" enable-background="new 0 0 1280 960" xml:space="preserve">
<g id="row-5">
	<path id="spinner-double-arrow" d="M456.6,536.6c-80,80-80,80-160,160C282.1,711,262.1,720,240,720s-42.1-9-56.6-23.4
		c-80-80-80-80-160-160C9,522.1,0,502.1,0,480c0-44.2,35.8-80,80-80c22.1,0,42.1,9,56.6,23.4c9.1,9.1,17.2,17.2,24.5,24.5
		C177.6,197.8,385.7,0,640,0c87.4,0,169.4,23.4,240,64.2l0,0.1c38.3,22.1,51.4,71,29.3,109.3c-22.1,38.3-71,51.4-109.3,29.3
		c-0.4-0.2-0.8-0.5-1.2-0.7C752,175.3,697.8,160,640,160c-164.9,0-300.6,124.7-318.1,284.9c6.5-6.5,13.6-13.6,21.5-21.5
		C357.9,409,377.9,400,400,400c44.2,0,80,35.8,80,80C480,502.1,471,522.1,456.6,536.6z M1256.6,423.4c-80-80-80-80-160-160
		c-14.5-14.5-34.5-23.4-56.6-23.4s-42.1,9-56.6,23.4c-80,80-80,80-160,160C809,437.9,800,457.9,800,480c0,44.2,35.8,80,80,80
		c22.1,0,42.1-9,56.6-23.4c7.9-7.9,15-15,21.5-21.5C940.6,675.3,804.9,800,640,800c-57.8,0-112-15.3-158.8-42.2
		c-0.4-0.2-0.8-0.5-1.2-0.7c-38.3-22.1-87.2-9-109.3,29.3c-22.1,38.3-9,87.2,29.3,109.3l0,0.1c70.6,40.9,152.6,64.2,240,64.2
		c254.3,0,462.4-197.8,478.9-447.9c7.3,7.3,15.4,15.4,24.5,24.5c14.5,14.5,34.5,23.4,56.6,23.4c44.2,0,80-35.8,80-80
		C1280,457.9,1271,437.9,1256.6,423.4z"/>
</g>
<g id="row-4">
</g>
<g id="row-3">
	<g id="alert">
	</g>
	<g id="expand">
	</g>
	<g id="collapse">
	</g>
	<g id="colections">
	</g>
	<g id="briefcase">
	</g>
	<g id="flag">
	</g>
	<g id="flag-small">
	</g>
	<g id="signpost">
	</g>
	<g id="info-card">
	</g>
	<g id="journal">
	</g>
	<g id="network">
	</g>
	<g id="trash">
	</g>
	<g id="card">
	</g>
	<g id="browser">
	</g>
	<g id="arrows">
	</g>
	<g id="arrow-left-rod">
	</g>
</g>
<g id="row-2">
	<g id="arrow-right-rod">
	</g>
	<g id="arrow-up-short">
	</g>
	<g id="arrow-down-short">
	</g>
	<g id="heart-full">
	</g>
	<g id="balloon-comments-inline">
	</g>
	<g id="balloon-comments">
	</g>
	<g id="check">
	</g>
	<g id="balloon-topic">
	</g>
	<g id="persons">
	</g>
	<g id="groups">
	</g>
	<g id="building-big">
	</g>
	<g id="person-card-2">
	</g>
	<g id="person-card-3">
	</g>
	<g id="plus">
	</g>
	<g id="arrow-right-long">
	</g>
	<g id="arrow-left-long">
	</g>
</g>
<g id="row-1">
	<g id="heart-inline">
	</g>
	<g id="close-short">
	</g>
	<g id="hash">
	</g>
	<g id="people">
	</g>
	<g id="building-small">
	</g>
	<g id="person">
	</g>
	<g id="close-long">
	</g>
	<g id="post">
	</g>
	<g id="star">
	</g>
	<g id="heart">
	</g>
	<g id="link">
	</g>
	<g id="camera">
	</g>
	<g id="balloon-text">
	</g>
	<g id="pin">
	</g>
	<g id="clock">
	</g>
</g>
<g id="guides">
</g>
</svg>
