<?xml version="1.0" encoding="utf-8"?>
<!-- Generator: Adobe Illustrator 19.2.1, SVG Export Plug-In . SVG Version: 6.00 Build 0)  -->
<svg version="1.1" xmlns="http://www.w3.org/2000/svg" xmlns:xlink="http://www.w3.org/1999/xlink" x="0px" y="0px"
	 viewBox="0 0 1120 960" enable-background="new 0 0 1120 960" xml:space="preserve">
<g id="row-5">
</g>
<g id="row-4">
</g>
<g id="row-3">
	<g id="alert">
	</g>
	<g id="expand">
	</g>
	<g id="collapse">
	</g>
	<g id="colections">
	</g>
	<g id="briefcase">
	</g>
	<g id="flag">
	</g>
	<g id="flag-small">
	</g>
	<g id="signpost">
	</g>
	<g id="info-card">
	</g>
	<g id="journal">
	</g>
	<g id="network">
	</g>
	<g id="trash">
	</g>
	<g id="card">
	</g>
	<g id="browser">
	</g>
	<g id="arrows">
	</g>
	<g id="arrow-left-rod">
	</g>
</g>
<g id="row-2">
	<g id="arrow-right-rod">
	</g>
	<g id="arrow-up-short">
	</g>
	<g id="arrow-down-short">
	</g>
	<g id="heart-full">
	</g>
	<g id="balloon-comments-inline">
	</g>
	<g id="balloon-comments">
	</g>
	<g id="check">
	</g>
	<g id="balloon-topic">
	</g>
	<g id="persons">
	</g>
	<g id="groups">
	</g>
	<g id="building-big">
	</g>
	<g id="person-card-2">
	</g>
	<g id="person-card-3">
	</g>
	<g id="plus">
	</g>
	<g id="arrow-right-long">
	</g>
	<g id="arrow-left-long">
	</g>
</g>
<g id="row-1">
	<g id="heart-inline">
	</g>
	<g id="close-short">
	</g>
	<g id="hash">
	</g>
	<g id="people">
	</g>
	<g id="building-small">
	</g>
	<g id="person">
	</g>
	<g id="close-long">
	</g>
	<g id="post">
	</g>
	<g id="star">
		<path d="M849.7,562.7c45.4,124.9,85.3,234.5,105.1,289c3.3,8.8,5.2,18.3,5.2,28.3c0,44.2-35.8,80-80,80c-16.4,0-31.7-5-44.4-13.4
			l0,0c0,0,0,0,0,0c-0.2-0.1-0.3-0.2-0.5-0.3C759.4,895.8,657.9,828.1,560,762.8c-97.9,65.3-199.4,133-275.1,183.4
			c-0.2,0.1-0.3,0.2-0.5,0.3c0,0,0,0,0,0l0,0c-12.7,8.5-28,13.4-44.4,13.4c-44.2,0-80-35.8-80-80c0-10,1.8-19.5,5.2-28.3
			c19.8-54.6,59.7-164.1,105.1-289c-80-60-140.4-105.3-238-178.5C12.7,369.6,0,346.3,0,320c0-44.2,35.8-80,80-80
			c56.6,0,173.3,0,307.6,0c42-115.6,78.3-215.4,96.9-266.6C495.5-57.7,525.1-80,560-80c34.9,0,64.5,22.3,75.5,53.4
			c18.6,51.2,54.9,151,96.9,266.6c134.3,0,251,0,307.6,0c44.2,0,80,35.8,80,80c0,26.3-12.7,49.6-32.3,64.2
			C990.1,457.4,929.8,502.7,849.7,562.7z"/>
	</g>
	<g id="heart">
	</g>
	<g id="link">
	</g>
	<g id="camera">
	</g>
	<g id="balloon-text">
	</g>
	<g id="pin">
	</g>
	<g id="clock">
	</g>
</g>
<g id="guides">
</g>
</svg>
