<?xml version="1.0" encoding="utf-8"?>
<!-- Generator: Adobe Illustrator 20.0.0, SVG Export Plug-In . SVG Version: 6.00 Build 0)  -->
<svg version="1.1" id="icon-" xmlns="http://www.w3.org/2000/svg" xmlns:xlink="http://www.w3.org/1999/xlink" x="0px" y="0px"
	 viewBox="0 0 960 960" enable-background="new 0 0 960 960" xml:space="preserve">
<path id="trash_1_" d="M160,320h640v560c0,88.4-71.6,160-160,160H320c-88.4,0-160-71.6-160-160V320z M960,160v80H0v-80
	c0-44.2,35.8-80,80-80h240V0c0-88.4,71.6-160,160-160h0c88.4,0,160,71.6,160,160v80h240C924.2,80,960,115.8,960,160z M400,80h160V0
	c0-44.1-35.9-80-80-80c-44.1,0-80,35.9-80,80V80z"/>
</svg>
