<?xml version="1.0" encoding="utf-8"?>
<!-- Generator: Adobe Illustrator 20.0.0, SVG Export Plug-In . SVG Version: 6.00 Build 0)  -->
<svg version="1.1" id="icon-" xmlns="http://www.w3.org/2000/svg" xmlns:xlink="http://www.w3.org/1999/xlink" x="0px" y="0px"
	 viewBox="0 0 800 960" enable-background="new 0 0 800 960" xml:space="preserve">
<path id="upload_1_" d="M457.6,265.4l240,240c31.2,31.2,31.2,81.9,0,113.1c-31.2,31.2-81.9,31.2-113.1,0L481,515.1V881
	c0,44.2-35.8,80-80,80s-80-35.8-80-80V515.1L217.6,618.6c-31.2,31.2-81.9,31.2-113.1,0C88.8,602.9,81,582.5,81,562
	s7.8-40.9,23.4-56.6l240-240C375.7,234.2,426.3,234.2,457.6,265.4z M800,241V81c0-44.2-35.8-80-80-80H80C35.8,1,0,36.8,0,81v160
	c0,44.2,35.8,80,80,80s80-35.8,80-80v-80h480v80c0,44.2,35.8,80,80,80S800,285.2,800,241z"/>
</svg>
