<?xml version="1.0" encoding="utf-8"?>
<!-- Generator: Adobe Illustrator 19.2.1, SVG Export Plug-In . SVG Version: 6.00 Build 0)  -->
<svg version="1.1" xmlns="http://www.w3.org/2000/svg" xmlns:xlink="http://www.w3.org/1999/xlink" x="0px" y="0px" viewBox="0 0 1080 1440" enable-background="new 0 0 1080 1440" xml:space="preserve">

		<path d="M787.8,711.9c-9.4-6.8-20.7-10.2-32.3-10c-11.9,0-23.6,3.6-33.4,10.4c-10.3,7-17.5,17.6-20.3,29.6h105.3 C804.5,730,797.7,719.3,787.8,711.9z"/>
		<path d="M539.7,180.1C241.4,180.3-0.4,422-0.3,720.1c-0.1,298.1,241.7,539.8,540,540c298.3-0.2,540.1-241.9,540-540 C1079.8,422,838.1,180.3,539.7,180.1z M540.4,876h-64l-56.8-197.5L362.4,876h-63.3l-85.2-292h62l55.9,201.8l59-201.8H448l59,201.8
			L563.1,584h62.5L540.4,876z M866,763.1V783H700c2.3,14,9.1,27,19.4,36.8c9.5,8.9,22.1,13.8,35.2,13.7c22.1,1.5,43.1-9.7,54.2-28.9 l51.5,10.9c-8.1,20.8-22.6,38.4-41.5,50.2c-19.4,11.6-41.6,17.5-64.2,17c-29.8,0.6-58.6-11-79.5-32.3 c-43.2-47-43.1-119.3,0.2-166.2c21.1-21.4,50.1-33.2,80.2-32.5c28.7-0.4,56.4,10.9,76.7,31.3C853.7,704.1,865.9,733,866,763.1 L866,763.1z"/>
</svg>
