<?xml version="1.0" encoding="utf-8"?>
<!-- Generator: Adobe Illustrator 21.1.0, SVG Export Plug-In . SVG Version: 6.00 Build 0)  -->
<svg width="36" height="36" version="1.1" id="emblem" xmlns="http://www.w3.org/2000/svg" xmlns:xlink="http://www.w3.org/1999/xlink" x="0px" y="0px"
	 viewBox="0 0 960 960" style="enable-background:new 0 0 960 960;" xml:space="preserve">
<style type="text/css">
	.st0{fill:#00D46A;}
	.st1{fill:#FFFFFF;}
</style>
<g>
	<path class="st0" d="M953.1,479.8c0,261.3-211.9,473.2-473.2,473.2l0,0C218.5,953.1,6.6,741.2,6.6,479.8l0,0
		C6.6,218.5,218.5,6.6,479.8,6.6l0,0C741.2,6.6,953.1,218.5,953.1,479.8L953.1,479.8z"/>
	<path id="e_1_" class="st1" d="M834.9,552.1H661.6c6.2,28.3,25.4,45.6,50.9,45.6c17.5,0,37.7-4.2,50.3-27.3l66.9,13.7
		c-20.2,50-63.1,73.9-117.3,73.9c-68.2,0-124.7-50.3-124.7-125.3c0-74.4,56.5-125.3,125.3-125.3c66.9,0,120.5,48,122,125.3v19.5
		H834.9z M663.1,506h97.4c-7.1-25.4-25.9-37.2-47.6-37.2C691.7,468.8,670.2,481.9,663.1,506z"/>
	<path id="w_1_" class="st1" d="M504.4,651h-83.3L368.4,456L315.1,651h-82.8l-89.9-315.5h79.5L277,534.3l54.2-198.8H405l54.2,198.8
		l55.1-198.8h80.1L504.4,651z"/>
</g>
</svg>
