<svg height="18" width="18" viewBox="0 0 18 18" xmlns="http://www.w3.org/2000/svg" xmlns:xlink="http://www.w3.org/1999/xlink">

  <g id="overview">
    <path d="M1.5 0h3C5.3334 0 6 .6666 6 1.5v3C6 5.3333 5.3334 6 4.5 6h-3C.6667 6 0 5.3333 0 4.5v-3C0 .6666.6667 0 1.5 0z" fill-opacity=".4"/>
    <path d="M9.5 0h3c.8334 0 1.5.6666 1.5 1.5v3c0 .8333-.6666 1.5-1.5 1.5h-3C8.6667 6 8 5.3333 8 4.5v-3C8 .6666 8.6667 0 9.5 0zM6 9.5v3c0 .8333-.6666 1.5-1.5 1.5h-3C.6667 14 0 13.3333 0 12.5v-3C0 8.6667.6667 8 1.5 8h3C5.3334 8 6 8.6667 6 9.5z"/>
    <path d="M9.5 8h3c.8334 0 1.5.6667 1.5 1.5v3c0 .8333-.6666 1.5-1.5 1.5h-3c-.8333 0-1.5-.6667-1.5-1.5v-3C8 8.6667 8.6667 8 9.5 8z" fill-opacity=".4"/>
  </g>

  <g id="services">
    <path d="M8.5167.15l6.7334 4.05c.45.2666.75.75.75 1.3v7c0 .55-.3 1.0333-.75 1.3l-6.7334 4.05c-.15.1-.3167.15-.5167.15s-.3666-.05-.5166-.15L.75 13.8C.3 13.5333 0 13.05 0 12.5v-7c0-.55.3-1.0334.75-1.3L7.4834.15C7.6334.05 7.8 0 8 0s.3667.05.5167.15zm5 6.7166C13.8 6.6833 14 6.3666 14 6s-.2-.6834-.4833-.8667c-1.7167-1.0167-3.2833-1.9667-5-2.9833C8.3667 2.05 8.1834 2 8 2c-.1833 0-.3666.05-.5166.15-1.7167 1.0166-3.2834 1.9666-5 2.9833C2.2 5.3166 2 5.6333 2 6s.2.6833.4833.8666c1.7167 1.0167 3.2834 1.9667 5 2.9834.15.1.3334.15.5167.15.1834 0 .3667-.05.5167-.15 1.7167-1.0167 3.2833-1.9667 5-2.9834z"/>
    <path d="M9 4c0 .55-.45 1-1 1s-1-.45-1-1 .45-1 1-1 1 .45 1 1zM6 6c0 .55-.45 1-1 1s-1-.45-1-1 .45-1 1-1 1 .45 1 1zm6 0c0 .55-.45 1-1 1s-1-.45-1-1 .45-1 1-1 1 .45 1 1zM9 8c0 .55-.45 1-1 1s-1-.45-1-1 .45-1 1-1 1 .45 1 1z" fill-opacity=".6"/>
  </g>

  <g id="activity">
    <path d="M3.0061 16.8896A1.0106 1.0106 0 0 0 3 17c0 .5523.4477 1 1 1a.9996.9996 0 0 0 .8741-.5144l.0005-.0008.0066-.0118 4.993-8.9874A.9953.9953 0 0 0 10 8c0-.5523-.4477-1-1-1H5c-.515 0-.9388.3893-.9938.8896l-.0007.0054-.0004.004-.999 8.9906" fill-opacity=".4"/>
    <path d="M6.9939 1.1104h-.0001A1.0112 1.0112 0 0 0 7 1c0-.5523-.4477-1-1-1a.9996.9996 0 0 0-.8742.5144l-.0004.0008-.0066.0118-4.993 8.9874A.9953.9953 0 0 0 0 10c0 .5523.4477 1 1 1h4c.515 0 .9388-.3893.9938-.8896l.0007-.0054.0004-.004.999-8.9906"/>
  </g>

  <g id="metrics">
    <rect height="14" rx="1.5" width="3" x="10"/>
    <rect fill-opacity=".4" height="9" rx="1.5" width="3" x="5" y="5"/>
    <rect height="11" rx="1.5" width="3" y="3"/>
  </g>

  <g id="logs">
    <path d="M16 11.5c0 .8333-.6666 1.5-1.5 1.5h-8c-.8333 0-1.5-.6667-1.5-1.5S5.6667 10 6.5 10h8c.8334 0 1.5.6667 1.5 1.5z" fill-opacity=".4"/>
    <path d="M1.5 10c.8333 0 1.5.6667 1.5 1.5S2.3333 13 1.5 13 0 12.3333 0 11.5.6667 10 1.5 10zM16 6.5c0 .8333-.6666 1.5-1.5 1.5h-8C5.6667 8 5 7.3333 5 6.5 5 5.6666 5.6667 5 6.5 5h8c.8334 0 1.5.6666 1.5 1.5z"/>
    <path d="M1.5 5C2.3333 5 3 5.6666 3 6.5 3 7.3333 2.3333 8 1.5 8S0 7.3333 0 6.5C0 5.6666.6667 5 1.5 5zM5 1.5C5 .6666 5.6667 0 6.5 0h8c.8334 0 1.5.6666 1.5 1.5 0 .8333-.6666 1.5-1.5 1.5h-8C5.6667 3 5 2.3333 5 1.5z" fill-opacity=".4"/>
    <path d="M1.5 0C2.3333 0 3 .6666 3 1.5 3 2.3333 2.3333 3 1.5 3S0 2.3333 0 1.5C0 .6666.6667 0 1.5 0z"/>
  </g>

  <g id="collaborators">
    <path d="M11 8C8.7833 8 7 6.2167 7 4s1.7833-4 4-4 4 1.7833 4 4-1.7833 4-4 4zm6 6c0 1.1-.9 2-2 2H7c-1.1 0-2-.9-2-2 0-2.7666 2.2333-5 5-5h2c2.7667 0 5 2.2334 5 5z" fill-opacity=".4"/>
    <path d="M6 8C3.7833 8 2 6.2167 2 4s1.7833-4 4-4 4 1.7833 4 4-1.7833 4-4 4zm6 6c0 1.1-.9 2-2 2H2c-1.1 0-2-.9-2-2 0-2.7666 2.2333-5 5-5h2c2.7667 0 5 2.2334 5 5z"/>
  </g>

  <g id="deployment">
    <path d="M4 13c-2.2167 0-4-1.7833-4-4 0-1.9166 1.35-3.5166 3.15-3.9166C3.05 4.75 3 4.3834 3 4c0-2.2167 1.7834-4 4-4 1.6834 0 3.1167 1.0333 3.7167 2.5.5167-.3167 1.1333-.5 1.8-.5 1.9334 0 3.5 1.5667 3.5 3.5 0 .2834-.0333.55-.1.8 1.2334.55 2.0834 1.7667 2.0834 3.2 0 1.9334-1.55 3.4834-3.4834 3.5z" fill-opacity=".3"/>
    <path d="M12.7125 8.2875C12.8875 8.475 13 8.725 13 9c0 .55-.45 1-1 1-.275 0-.525-.1125-.7125-.2875-.575-.5875-.95-.9625-1.2875-1.3V14c0 .55-.45 1-1 1s-1-.45-1-1V8.4125c-.3375.3375-.7125.7125-1.2875 1.3C6.525 9.8875 6.275 10 6 10c-.55 0-1-.45-1-1 0-.275.1125-.525.2875-.7125 1.425-1.4125 1.5875-1.575 3-3C8.475 5.1125 8.725 5 9 5s.525.1125.7125.2875c1.4125 1.425 1.575 1.5875 3 3z"/>
  </g>

  <g id="settings">
    <rect fill-opacity=".4" height="4" rx="2" width="16" y="8"/>
    <circle cx="9" cy="10" r="3"/>
    <rect fill-opacity=".4" height="4" rx="2" width="16" y="1"/>
    <circle cx="6" cy="3" r="3"/>
  </g>

</svg>
